G04 DipTrace 4.1.1.0*
G04 alps_final1.GTO*
%MOIN*%
G04 #@! TF.FileFunction,Legend,Top*
G04 #@! TF.Part,Single*
%ADD10C,0.009843*%
%ADD17C,0.01*%
%ADD19C,0.008*%
%ADD22C,0.005984*%
%ADD23C,0.004*%
%ADD28C,0.006*%
%ADD39C,0.002756*%
%ADD100C,0.003088*%
%ADD101C,0.00772*%
%ADD102C,0.006176*%
%ADD104C,0.004632*%
%FSLAX26Y26*%
G04*
G70*
G90*
G75*
G01*
G04 TopSilk*
%LPD*%
X1839983Y3580040D2*
D23*
X1775023Y3580039D1*
X1775020Y3731614D1*
X1828168Y3784764D1*
X1839979D1*
X1914783Y3784766D2*
X1926594D1*
X1979744Y3731617D1*
X1979747Y3580043D1*
X1914786Y3580041D1*
X1843920Y3591851D2*
G02X1843917Y3772953I33463J90552D01*
G01*
X1910849Y3591852D2*
G03X1910846Y3772955I-33467J90551D01*
G01*
X1594879Y3580040D2*
X1529919Y3580039D1*
X1529916Y3731614D1*
X1583065Y3784764D1*
X1594876D1*
X1669679Y3784766D2*
X1681490D1*
X1734640Y3731617D1*
X1734643Y3580043D1*
X1669683Y3580041D1*
X1598816Y3591851D2*
G02X1598813Y3772953I33463J90552D01*
G01*
X1665745Y3591852D2*
G03X1665742Y3772955I-33467J90551D01*
G01*
G36*
X575325Y3153768D2*
Y3192992D1*
X554082D1*
Y3153768D1*
X575325D1*
G37*
X1088088Y3572346D2*
D23*
X1023128Y3572345D1*
X1023125Y3723919D1*
X1076273Y3777070D1*
X1088084D1*
X1162888Y3777072D2*
X1174699D1*
X1227849Y3723923D1*
X1227852Y3572348D1*
X1162891Y3572347D1*
X1092025Y3584157D2*
G02X1092022Y3765259I33463J90552D01*
G01*
X1158954Y3584158D2*
G03X1158951Y3765260I-33467J90551D01*
G01*
G36*
X1509375Y3336362D2*
Y3297138D1*
X1530618D1*
Y3336362D1*
X1509375D1*
G37*
G36*
X907993Y2925425D2*
Y2886201D1*
X929236D1*
Y2925425D1*
X907993D1*
G37*
G36*
X729599Y2886197D2*
Y2925421D1*
X708357D1*
Y2886197D1*
X729599D1*
G37*
G36*
X619081Y3540240D2*
Y3579465D1*
X597838Y3579464D1*
X597839Y3540240D1*
X619081D1*
G37*
G36*
X751928Y4287319D2*
X751927Y4326544D1*
X730684Y4326543D1*
X730685Y4287319D1*
X751928D1*
G37*
G36*
X956170Y3588118D2*
X995395D1*
X995394Y3609361D1*
X956170D1*
Y3588118D1*
G37*
G36*
X1836291Y3249386D2*
Y3288610D1*
X1815048D1*
Y3249386D1*
X1836291D1*
G37*
G36*
X1658758Y3352974D2*
Y3313749D1*
X1680001D1*
Y3352974D1*
X1658758D1*
G37*
G36*
X1656938Y3285858D2*
Y3246634D1*
X1678181D1*
Y3285858D1*
X1656938D1*
G37*
G36*
X2275076Y2800047D2*
Y2839272D1*
X2253833D1*
Y2800047D1*
X2275076D1*
G37*
G36*
X2253469Y2988707D2*
Y2949483D1*
X2274712D1*
Y2988707D1*
X2253469D1*
G37*
G36*
X598791Y1261886D2*
Y1301110D1*
X577548D1*
Y1261886D1*
X598791D1*
G37*
G36*
X2275076Y3161979D2*
Y3201203D1*
X2253833D1*
Y3161979D1*
X2275076D1*
G37*
G36*
X2090349Y3756913D2*
Y3717689D1*
X2111592D1*
Y3756913D1*
X2090349D1*
G37*
G36*
X1655767Y2766210D2*
Y2726986D1*
X1677010D1*
Y2766210D1*
X1655767D1*
G37*
G36*
X1677374Y2870732D2*
Y2909957D1*
X1656131D1*
Y2870732D1*
X1677374D1*
G37*
G36*
X1715326Y3011886D2*
Y3051110D1*
X1694084D1*
Y3011886D1*
X1715326D1*
G37*
G36*
X2112437Y3607886D2*
Y3647110D1*
X2091194D1*
Y3607886D1*
X2112437D1*
G37*
G36*
X1655767Y3134961D2*
Y3095736D1*
X1677010D1*
Y3134961D1*
X1655767D1*
G37*
G36*
X2219756Y3011886D2*
X2219755Y3051110D1*
X2198512D1*
X2198513Y3011886D1*
X2219756D1*
G37*
G36*
X598791Y1411886D2*
Y1451110D1*
X577548D1*
Y1411886D1*
X598791D1*
G37*
G36*
X577185Y1151114D2*
Y1111890D1*
X598427D1*
Y1151114D1*
X577185D1*
G37*
G36*
X1198791Y1111886D2*
Y1151110D1*
X1177548D1*
X1177549Y1111886D1*
X1198791D1*
G37*
G36*
Y1411886D2*
Y1451110D1*
X1177548D1*
Y1411886D1*
X1198791D1*
G37*
G36*
X2148791Y1261886D2*
Y1301110D1*
X2127548D1*
Y1261886D1*
X2148791D1*
G37*
G36*
X1611291D2*
Y1301110D1*
X1590048D1*
Y1261886D1*
X1611291D1*
G37*
G36*
X1673791Y2486886D2*
Y2526110D1*
X1652548D1*
Y2486886D1*
X1673791D1*
G37*
X1707964Y4101281D2*
D10*
X1893011D1*
Y4209560D1*
Y4211522D2*
X1707964D1*
Y4172159D1*
Y4101281D2*
Y4140644D1*
G03X1707964Y4172159I1844J15757D01*
G01*
X809265Y4252312D2*
D28*
Y4116092D1*
X1055249D2*
Y4252312D1*
X809265D2*
X1055249D1*
Y4116092D2*
X809265D1*
X1726766Y3512638D2*
D19*
X1608656D1*
Y3394528D2*
X1726766D1*
X1701057Y3414079D2*
G02X1701057Y3414079I5654J0D01*
G01*
X1889177Y3128155D2*
D10*
Y2931302D1*
X2015145Y3128155D2*
Y2931302D1*
X1889177D2*
X2015145D1*
X1889177Y3128155D2*
X1932473D1*
X1971849D2*
X2015145D1*
X1932473D2*
G03X1971849Y3128155I19688J1D01*
G01*
X723718Y4076325D2*
D28*
X711218Y4088825D1*
X686218D2*
X673718Y4076325D1*
X661218Y4088825D1*
X636218D2*
X623718Y4076325D1*
X611218Y4088825D1*
X586218D2*
X573718Y4076325D1*
X561218Y4088825D1*
X536218D2*
X523718Y4076325D1*
X723718D2*
Y4001327D1*
X711218Y3988827D1*
X686218D1*
X673718Y4001327D1*
X661218Y3988827D1*
X636218D1*
X623718Y4001327D1*
X611218Y3988827D1*
X586218D1*
X573718Y4001327D1*
X561218Y3988827D1*
X536218D1*
X523718Y4001327D1*
X673718D2*
Y4076325D1*
X623718Y4001327D2*
Y4076325D1*
X573718Y4001327D2*
Y4076325D1*
X523718Y4001327D2*
Y4076325D1*
X561218Y4088825D2*
X536218D1*
X611218D2*
X586218D1*
X661218D2*
X636218D1*
X711218D2*
X686218D1*
X523718Y4076325D2*
X511218Y4088825D1*
X486218D2*
X473718Y4076325D1*
X523718Y4001327D2*
X511218Y3988827D1*
X486218D1*
X473718Y4001327D1*
Y4076325D1*
X511218Y4088825D2*
X486218D1*
X711218Y4101325D2*
D19*
X686218D1*
X1137988Y4120804D2*
D28*
X1162988Y4095804D1*
X1212988D2*
X1237988Y4120804D1*
X1262988Y4095804D1*
X1312988D2*
X1337988Y4120804D1*
X1362988Y4095804D1*
X1412988D2*
X1437988Y4120804D1*
X1462988Y4095804D1*
X1512988D2*
X1537988Y4120804D1*
X1137988D2*
Y4270804D1*
X1162988Y4295804D1*
X1212988D1*
X1237988Y4270804D1*
X1262988Y4295804D1*
X1312988D1*
X1337988Y4270804D1*
X1362988Y4295804D1*
X1412988D1*
X1437988Y4270804D1*
X1462988Y4295804D1*
X1512988D1*
X1537988Y4270804D1*
X1237988D2*
Y4120804D1*
X1337988Y4270804D2*
Y4120804D1*
X1437988Y4270804D2*
Y4120804D1*
X1537988Y4270804D2*
Y4120804D1*
X1462988Y4095804D2*
X1512988D1*
X1362988D2*
X1412988D1*
X1262988D2*
X1312988D1*
X1162988D2*
X1212988D1*
X1537988Y4120804D2*
X1562988Y4095804D1*
X1612988D2*
X1637988Y4120804D1*
X1537988Y4270804D2*
X1562988Y4295804D1*
X1612988D1*
X1637988Y4270804D1*
Y4120804D1*
X1562988Y4095804D2*
X1612988D1*
X1162988Y4070804D2*
D19*
X1212988D1*
G36*
X1377988Y4135804D2*
X1397988D1*
Y4155804D1*
X1377988D1*
Y4135804D1*
G37*
X1419725Y3264038D2*
D39*
X1482718D1*
Y3232542D2*
X1419725D1*
G36*
X1439410Y3252227D2*
Y3244353D1*
X1455158D1*
Y3252227D1*
X1439410D1*
G37*
X847191Y3095688D2*
D10*
Y2938207D1*
X768456Y3095688D2*
Y2938207D1*
X789077Y3066948D2*
Y2966948D1*
X826571D1*
Y3066948D1*
X789077D2*
X826571D1*
G36*
X1219453Y2703820D2*
X1232370D1*
Y2725988D1*
X1219452D1*
X1219453Y2703820D1*
G37*
G36*
X595699Y3648093D2*
Y3635176D1*
X617867D1*
Y3648093D1*
X595699D1*
G37*
G36*
X1268521Y3934699D2*
X1255603D1*
Y3912531D1*
X1268521D1*
Y3934699D1*
G37*
G36*
X1294023Y3684180D2*
X1281106D1*
Y3662012D1*
X1294023D1*
Y3684180D1*
G37*
G36*
X1243082Y3320100D2*
Y3333017D1*
X1220914D1*
Y3320099D1*
X1243082Y3320100D1*
G37*
G36*
X1242594Y3388555D2*
Y3401473D1*
X1220426Y3401472D1*
Y3388555D1*
X1242594D1*
G37*
G36*
X1814343Y3337535D2*
Y3324618D1*
X1836511D1*
Y3337535D1*
X1814343D1*
G37*
G36*
X1886505Y4626531D2*
Y4613614D1*
X1908673D1*
Y4626531D1*
X1886505D1*
G37*
G36*
X1961632Y3412965D2*
Y3425882D1*
X1939464D1*
Y3412965D1*
X1961632D1*
G37*
G36*
X497808Y3325035D2*
Y3312118D1*
X519976D1*
Y3325035D1*
X497808D1*
G37*
G36*
X2253128Y2900697D2*
Y2887780D1*
X2275296D1*
Y2900697D1*
X2253128D1*
G37*
G36*
X1024132Y2508567D2*
Y2521484D1*
X1001964D1*
Y2508567D1*
X1024132D1*
G37*
G36*
X844453Y2699422D2*
X857370Y2699423D1*
Y2721591D1*
X844452Y2721590D1*
X844453Y2699422D1*
G37*
G36*
X2275417Y2744877D2*
Y2757794D1*
X2253249D1*
Y2744877D1*
X2275417D1*
G37*
G36*
X2253128Y3112629D2*
Y3099711D1*
X2275296D1*
Y3112629D1*
X2253128D1*
G37*
G36*
X2278168Y3537965D2*
Y3550882D1*
X2256000D1*
Y3537965D1*
X2278168D1*
G37*
G36*
X2275417Y3244307D2*
Y3257224D1*
X2253249D1*
Y3244307D1*
X2275417D1*
G37*
G36*
X1961632Y3475465D2*
Y3488382D1*
X1939464D1*
Y3475465D1*
X1961632D1*
G37*
G36*
X879437Y4626575D2*
Y4639492D1*
X857269D1*
Y4626575D1*
X879437D1*
G37*
G36*
X1677715Y2809311D2*
Y2822228D1*
X1655547D1*
Y2809311D1*
X1677715D1*
G37*
G36*
X2248606Y3743614D2*
Y3730697D1*
X2270774D1*
Y3743614D1*
X2248606D1*
G37*
G36*
X1655426Y2677633D2*
Y2664715D1*
X1677594D1*
Y2677633D1*
X1655426D1*
G37*
G36*
X596917Y2508567D2*
Y2521484D1*
X574749D1*
Y2508567D1*
X596917D1*
G37*
G36*
X731953Y2699422D2*
X744870Y2699423D1*
Y2721591D1*
X731952Y2721590D1*
X731953Y2699422D1*
G37*
G36*
X1677715Y2953060D2*
Y2965978D1*
X1655547D1*
Y2953060D1*
X1677715D1*
G37*
G36*
X2089294Y3550291D2*
Y3537374D1*
X2111462D1*
Y3550291D1*
X2089294D1*
G37*
G36*
X1655426Y3190131D2*
Y3177214D1*
X1677594D1*
Y3190132D1*
X1655426Y3190131D1*
G37*
G36*
X599132Y1050465D2*
Y1063382D1*
X576964D1*
Y1050465D1*
X599132D1*
G37*
G36*
X1176843Y1062535D2*
Y1049618D1*
X1199011D1*
Y1062535D1*
X1176843D1*
G37*
G36*
X576843Y1512535D2*
Y1499618D1*
X599011D1*
Y1512535D1*
X576843D1*
G37*
G36*
X599132Y1350465D2*
Y1363382D1*
X576964D1*
Y1350464D1*
X599132Y1350465D1*
G37*
G36*
X576843Y1212535D2*
Y1199618D1*
X599011D1*
Y1212535D1*
X576843D1*
G37*
G36*
X1176843Y1362535D2*
Y1349618D1*
X1199011D1*
Y1362535D1*
X1176843D1*
G37*
G36*
X1199132Y1500465D2*
Y1513382D1*
X1176964D1*
Y1500465D1*
X1199132D1*
G37*
G36*
Y1200465D2*
Y1213382D1*
X1176964D1*
Y1200464D1*
X1199132Y1200465D1*
G37*
G36*
X1589343Y1362535D2*
Y1349618D1*
X1611511D1*
Y1362535D1*
X1589343D1*
G37*
G36*
Y1512535D2*
Y1499618D1*
X1611511D1*
Y1512535D1*
X1589343D1*
G37*
G36*
Y1212535D2*
Y1199618D1*
X1611511D1*
Y1212535D1*
X1589343D1*
G37*
G36*
Y1062535D2*
Y1049618D1*
X1611511D1*
Y1062535D1*
X1589343D1*
G37*
G36*
X2149132Y1200465D2*
Y1213382D1*
X2126964Y1213381D1*
Y1200464D1*
X2149132Y1200465D1*
G37*
G36*
Y1050465D2*
Y1063382D1*
X2126964D1*
Y1050465D1*
X2149132D1*
G37*
G36*
Y1500465D2*
Y1513382D1*
X2126964D1*
Y1500465D1*
X2149132D1*
G37*
G36*
Y1350465D2*
Y1363382D1*
X2126964D1*
Y1350465D1*
X2149132D1*
G37*
G36*
X1611632Y1425465D2*
Y1438382D1*
X1589464D1*
Y1425465D1*
X1611632D1*
G37*
G36*
Y1125465D2*
Y1138382D1*
X1589464D1*
Y1125465D1*
X1611632D1*
G37*
G36*
X2126843Y1137535D2*
Y1124618D1*
X2149011D1*
Y1137535D1*
X2126843D1*
G37*
G36*
Y1437535D2*
Y1424618D1*
X2149011D1*
Y1437535D1*
X2126843D1*
G37*
G36*
X1651843Y2437535D2*
Y2424618D1*
X1674011D1*
Y2437535D1*
X1651843D1*
G37*
G36*
X1674132Y2575465D2*
Y2588382D1*
X1651964D1*
Y2575465D1*
X1674132D1*
G37*
X1565275Y820966D2*
D19*
X1628266D1*
X1565275Y742226D2*
G02X1557400Y754035I1957J9836D01*
G01*
X1636140D2*
G02X1628266Y742226I-9840J-1969D01*
G01*
X1636140Y809155D2*
G03X1628266Y820966I-9835J1973D01*
G01*
X1565275D2*
G03X1557400Y809155I1964J-9840D01*
G01*
X1628266Y742226D2*
X1565275D1*
X825004Y1379927D2*
D10*
Y1183073D1*
X950972Y1379927D2*
Y1183073D1*
X825004D2*
X950972D1*
X825004Y1379927D2*
X868300D1*
X907676D2*
X950972D1*
X868300D2*
G03X907676Y1379927I19688J1D01*
G01*
X1825004D2*
Y1183073D1*
X1950972Y1379927D2*
Y1183073D1*
X1825004D2*
X1950972D1*
X1825004Y1379927D2*
X1868300D1*
X1907676D2*
X1950972D1*
X1868300D2*
G03X1907676Y1379927I19688J1D01*
G01*
X1900004Y2578055D2*
Y2459945D1*
X2025972Y2578055D2*
Y2459945D1*
X1900004D2*
X2025972D1*
X1900004Y2578055D2*
X1943300D1*
X1982676D2*
X2025972D1*
X1943300D2*
G03X1982676Y2578055I19688J-13D01*
G01*
G36*
X2273791Y2561886D2*
Y2601110D1*
X2252548D1*
Y2561886D1*
X2273791D1*
G37*
G36*
X2251843Y2437535D2*
Y2424618D1*
X2274011D1*
Y2437535D1*
X2251843D1*
G37*
G36*
X2274132Y2500465D2*
Y2513382D1*
X2251964D1*
Y2500465D1*
X2274132D1*
G37*
X675882Y3470870D2*
D17*
X686708Y3481697D1*
X930803D1*
X941630Y3470870D1*
Y3226776D1*
X930803Y3215949D1*
X686708D1*
X675882Y3226776D1*
Y3470870D1*
X706393Y3270083D2*
G02X706393Y3270083I23622J0D01*
G01*
G36*
X1814685Y2426114D2*
Y2386890D1*
X1835927D1*
Y2426114D1*
X1814685D1*
G37*
G36*
X2089685Y2651114D2*
Y2611890D1*
X2110927D1*
Y2651114D1*
X2089685D1*
G37*
X1937504Y2186177D2*
D10*
Y1989324D1*
X2063472Y2186177D2*
Y1989324D1*
X1937504D2*
X2063472D1*
X1937504Y2186177D2*
X1980800D1*
X2020176D2*
X2063472D1*
X1980800D2*
G03X2020176Y2186177I19688J1D01*
G01*
G36*
X2233093Y2043786D2*
Y2030869D1*
X2255261D1*
Y2043786D1*
X2233093D1*
G37*
G36*
X2226843Y2143786D2*
Y2130869D1*
X2249011D1*
Y2143786D1*
X2226843D1*
G37*
G36*
X1767882Y2137965D2*
Y2150882D1*
X1745714D1*
Y2137965D1*
X1767882D1*
G37*
G36*
Y2037965D2*
Y2050882D1*
X1745714D1*
Y2037965D1*
X1767882D1*
G37*
G36*
X2166934Y2204123D2*
Y2243348D1*
X2145691D1*
Y2204123D1*
X2166934D1*
G37*
G36*
X1679317Y1893551D2*
Y1932776D1*
X1658074D1*
Y1893551D1*
X1679317D1*
G37*
G36*
X2251748Y3707558D2*
X2286231D1*
Y3595209D1*
X2251748D1*
Y3707558D1*
G37*
X1270506Y791273D2*
D22*
G03X1215547Y816932I-61603J-60261D01*
G01*
G36*
X1796290Y3413909D2*
X1834366Y3441324D1*
X1835127Y3385734D1*
D1*
X1796290Y3413909D1*
G37*
G36*
X1740643Y4147455D2*
Y4138006D1*
X1730670Y4137481D1*
Y4133807D1*
X1740643Y4133282D1*
Y4123833D1*
X1744318D1*
Y4133282D1*
X1754292Y4133807D1*
Y4137481D1*
X1744318Y4138006D1*
Y4147455D1*
X1740643D1*
G37*
G36*
X1680801Y4034069D2*
Y4024621D1*
X1670827Y4024096D1*
Y4020421D1*
X1680801Y4019896D1*
Y4010447D1*
X1684475D1*
Y4019896D1*
X1694449Y4020421D1*
Y4024096D1*
X1684475Y4024621D1*
Y4034069D1*
X1680801D1*
G37*
X434676Y920064D2*
D28*
X431790Y922949D1*
X428905Y924375D1*
X424628D1*
X421742Y922949D1*
X418891Y920064D1*
X417431Y915753D1*
Y912901D1*
X418891Y908590D1*
X421742Y905738D1*
X424628Y904279D1*
X428905D1*
X431790Y905738D1*
X434676Y908590D1*
X463920Y920064D2*
X461035Y922949D1*
X458149Y924375D1*
X453872D1*
X450987Y922949D1*
X448135Y920064D1*
X446676Y915753D1*
Y912901D1*
X448135Y908590D1*
X450987Y905738D1*
X453872Y904279D1*
X458149D1*
X461035Y905738D1*
X463920Y908590D1*
X475920Y919334D2*
X492500D1*
X504500Y934423D2*
Y904279D1*
Y920064D2*
X507386Y922949D1*
X510237Y924375D1*
X514548D1*
X517400Y922949D1*
X520285Y920064D1*
X521711Y915753D1*
Y912901D1*
X520285Y908590D1*
X517400Y905738D1*
X514548Y904279D1*
X510237D1*
X507386Y905738D1*
X504500Y908590D1*
X535171Y924375D2*
X543759Y904279D1*
X540907Y898542D1*
X538022Y895657D1*
X535171Y894231D1*
X533711D1*
X552381Y924375D2*
X543759Y904279D1*
X564381Y919334D2*
X580962D1*
X608747Y920064D2*
X607321Y922949D1*
X603010Y924375D1*
X598699D1*
X594388Y922949D1*
X592962Y920064D1*
X594388Y917212D1*
X597273Y915753D1*
X604436Y914327D1*
X607321Y912901D1*
X608747Y910016D1*
Y908590D1*
X607321Y905738D1*
X603010Y904279D1*
X598699D1*
X594388Y905738D1*
X592962Y908590D1*
X637958Y924375D2*
Y904279D1*
Y920064D2*
X635106Y922949D1*
X632221Y924375D1*
X627943D1*
X625058Y922949D1*
X622206Y920064D1*
X620747Y915753D1*
Y912901D1*
X622206Y908590D1*
X625058Y905738D1*
X627943Y904279D1*
X632221D1*
X635106Y905738D1*
X637958Y908590D1*
X702467Y930047D2*
X683830D1*
Y899903D1*
X702467D1*
X683830Y915688D2*
X695304D1*
X714467Y919999D2*
Y899903D1*
Y914263D2*
X718778Y918574D1*
X721663Y919999D1*
X725941D1*
X728826Y918574D1*
X730252Y914263D1*
Y899903D1*
Y914263D2*
X734563Y918574D1*
X737448Y919999D1*
X741726D1*
X744611Y918574D1*
X746070Y914263D1*
Y899903D1*
X758070Y930047D2*
X759496Y928622D1*
X760955Y930047D1*
X759496Y931507D1*
X758070Y930047D1*
X759496Y919999D2*
Y899903D1*
X772955Y930047D2*
Y899903D1*
X784955Y930047D2*
X786381Y928622D1*
X787841Y930047D1*
X786381Y931507D1*
X784955Y930047D1*
X786381Y919999D2*
Y899903D1*
X799841Y911377D2*
X817051D1*
Y914263D1*
X815625Y917148D1*
X814200Y918574D1*
X811314Y919999D1*
X807003D1*
X804152Y918574D1*
X801266Y915688D1*
X799841Y911377D1*
Y908526D1*
X801266Y904215D1*
X804152Y901363D1*
X807003Y899903D1*
X811314D1*
X814200Y901363D1*
X817051Y904215D1*
X882470Y922885D2*
X881044Y925736D1*
X878159Y928622D1*
X875308Y930047D1*
X869571D1*
X866685Y928622D1*
X863834Y925736D1*
X862374Y922885D1*
X860948Y918574D1*
Y911377D1*
X862374Y907100D1*
X863834Y904215D1*
X866685Y901363D1*
X869571Y899903D1*
X875308D1*
X878159Y901363D1*
X881044Y904215D1*
X882470Y907100D1*
Y911377D1*
X875308D1*
X894470Y930047D2*
X895896Y928622D1*
X897356Y930047D1*
X895896Y931507D1*
X894470Y930047D1*
X895896Y919999D2*
Y899903D1*
X909356Y930047D2*
Y899903D1*
X921356Y930047D2*
Y899903D1*
X933356Y911377D2*
X950566D1*
Y914263D1*
X949140Y917148D1*
X947715Y918574D1*
X944829Y919999D1*
X940518D1*
X937667Y918574D1*
X934781Y915688D1*
X933356Y911377D1*
Y908526D1*
X934781Y904215D1*
X937667Y901363D1*
X940518Y899903D1*
X944829D1*
X947715Y901363D1*
X950566Y904215D1*
X966877Y930047D2*
Y905640D1*
X968303Y901363D1*
X971188Y899903D1*
X974040D1*
X962566Y919999D2*
X972614D1*
X1196249Y4524986D2*
D101*
X1165188D1*
Y4474746D1*
X1196249D1*
X1165188Y4501054D2*
X1184311D1*
X1211688Y4524986D2*
Y4474746D1*
X1243874Y4524986D2*
Y4474746D1*
X1227128Y4524986D2*
X1260621D1*
X1276060D2*
Y4474746D1*
X1309553Y4524986D2*
Y4474746D1*
X1276060Y4501054D2*
X1309553D1*
X1356054Y4524986D2*
X1324993D1*
Y4474746D1*
X1356054D1*
X1324993Y4501054D2*
X1344116D1*
X1371493D2*
X1392993D1*
X1400178Y4503486D1*
X1402610Y4505863D1*
X1404987Y4510616D1*
Y4515425D1*
X1402610Y4520178D1*
X1400178Y4522610D1*
X1392993Y4524986D1*
X1371493D1*
Y4474746D1*
X1388240Y4501054D2*
X1404987Y4474746D1*
X1469027Y4524986D2*
X1481020Y4474746D1*
X1492959Y4524986D1*
X1504897Y4474746D1*
X1516890Y4524986D1*
X1570631Y4474746D2*
X1551453Y4524986D1*
X1532330Y4474746D1*
X1539515Y4491493D2*
X1563446D1*
X1586071Y4524986D2*
X1605194Y4501054D1*
Y4474746D1*
X1624317Y4524986D2*
X1605194Y4501054D1*
X1470501Y888606D2*
D102*
X1468600Y892408D1*
X1464753Y896255D1*
X1460951Y898156D1*
X1453301D1*
X1449455Y896255D1*
X1445652Y892408D1*
X1443707Y888606D1*
X1441805Y882858D1*
Y873263D1*
X1443707Y867559D1*
X1445652Y863712D1*
X1449455Y859910D1*
X1453301Y857964D1*
X1460951D1*
X1464753Y859910D1*
X1468600Y863712D1*
X1470501Y867559D1*
Y873263D1*
X1460951D1*
X1513494Y857964D2*
X1498151Y898156D1*
X1482853Y857964D1*
X1488601Y871361D2*
X1507746D1*
X1539243Y898156D2*
Y857964D1*
X1525846Y898156D2*
X1552640D1*
X1589841D2*
X1564992D1*
Y857964D1*
X1589841D1*
X1564992Y879011D2*
X1580290D1*
X1667868Y898156D2*
Y857964D1*
X1641073Y898156D1*
Y857964D1*
X1691715Y898156D2*
X1687868Y896255D1*
X1684066Y892408D1*
X1682120Y888606D1*
X1680219Y882858D1*
Y873263D1*
X1682120Y867559D1*
X1684066Y863712D1*
X1687868Y859910D1*
X1691715Y857964D1*
X1699364D1*
X1703167Y859910D1*
X1707014Y863712D1*
X1708915Y867559D1*
X1710816Y873263D1*
Y882858D1*
X1708915Y888606D1*
X1707014Y892408D1*
X1703167Y896255D1*
X1699364Y898156D1*
X1691715D1*
X1723168Y879011D2*
X1740367D1*
X1746116Y880956D1*
X1748061Y882858D1*
X1749962Y886660D1*
Y890507D1*
X1748061Y894309D1*
X1746116Y896255D1*
X1740367Y898156D1*
X1723168D1*
Y857964D1*
X1736565Y879011D2*
X1749962Y857964D1*
X1792911D2*
Y898156D1*
X1777612Y857964D1*
X1762314Y898156D1*
Y857964D1*
X1835904D2*
X1820561Y898156D1*
X1805262Y857964D1*
X1811010Y871361D2*
X1830156D1*
X1848255Y898156D2*
Y857964D1*
X1871203D1*
X1701752Y817638D2*
X1705599Y819583D1*
X1711347Y825287D1*
Y785139D1*
X1762579Y822435D2*
X1793176Y805191D1*
X1762579Y787991D1*
X1846354Y815737D2*
Y817638D1*
X1848255Y821485D1*
X1850156Y823386D1*
X1854003Y825287D1*
X1861652D1*
X1865455Y823386D1*
X1867356Y821485D1*
X1869302Y817638D1*
Y813835D1*
X1867356Y809989D1*
X1863554Y804285D1*
X1844408Y785139D1*
X1871203D1*
X420044Y765707D2*
D28*
X432977D1*
X437255Y767133D1*
X438714Y768592D1*
X440140Y771444D1*
Y775755D1*
X438714Y778607D1*
X437255Y780066D1*
X432977Y781492D1*
X420044D1*
Y751348D1*
X452140Y781492D2*
Y751348D1*
X464140Y771444D2*
Y757085D1*
X465566Y752807D1*
X468451Y751348D1*
X472762D1*
X475614Y752807D1*
X479925Y757085D1*
Y771444D2*
Y751348D1*
X491925Y771444D2*
Y751348D1*
Y765707D2*
X496236Y770018D1*
X499121Y771444D1*
X503399D1*
X506284Y770018D1*
X507710Y765707D1*
Y751348D1*
Y765707D2*
X512021Y770018D1*
X514906Y771444D1*
X519184D1*
X522069Y770018D1*
X523528Y765707D1*
Y751348D1*
X590406D2*
X578899Y781492D1*
X567425Y751348D1*
X571736Y761396D2*
X586095D1*
X602406Y771444D2*
Y757085D1*
X603832Y752807D1*
X606718Y751348D1*
X611029D1*
X613880Y752807D1*
X618191Y757085D1*
Y771444D2*
Y751348D1*
X647402Y781492D2*
Y751348D1*
Y767133D2*
X644550Y770018D1*
X641665Y771444D1*
X637354D1*
X634502Y770018D1*
X631617Y767133D1*
X630191Y762822D1*
Y759970D1*
X631617Y755659D1*
X634502Y752807D1*
X637354Y751348D1*
X641665D1*
X644550Y752807D1*
X647402Y755659D1*
X659402Y781492D2*
X660828Y780066D1*
X662287Y781492D1*
X660828Y782951D1*
X659402Y781492D1*
X660828Y771444D2*
Y751348D1*
X681450Y771444D2*
X678598Y770018D1*
X675713Y767133D1*
X674287Y762822D1*
Y759970D1*
X675713Y755659D1*
X678598Y752807D1*
X681450Y751348D1*
X685761D1*
X688646Y752807D1*
X691498Y755659D1*
X692958Y759970D1*
Y762822D1*
X691498Y767133D1*
X688646Y770018D1*
X685761Y771444D1*
X681450D1*
X441306Y703739D2*
X429799Y733883D1*
X418325Y703739D1*
X422636Y713787D2*
X436995D1*
X464780Y733883D2*
X461928D1*
X459043Y732458D1*
X457617Y728146D1*
Y703739D1*
X453306Y723835D2*
X463354D1*
X481091Y733883D2*
Y709476D1*
X482517Y705199D1*
X485402Y703739D1*
X488254D1*
X476780Y723835D2*
X486828D1*
X500254Y715213D2*
X517465D1*
Y718098D1*
X516039Y720984D1*
X514613Y722409D1*
X511728Y723835D1*
X507417D1*
X504565Y722409D1*
X501680Y719524D1*
X500254Y715213D1*
Y712361D1*
X501680Y708050D1*
X504565Y705199D1*
X507417Y703739D1*
X511728D1*
X514613Y705199D1*
X517465Y708050D1*
X529465Y723835D2*
Y703739D1*
Y715213D2*
X530924Y719524D1*
X533776Y722409D1*
X536661Y723835D1*
X540972D1*
X584869Y733883D2*
Y703739D1*
X602080D1*
X631291Y723835D2*
Y703739D1*
Y719524D2*
X628439Y722409D1*
X625554Y723835D1*
X621276D1*
X618391Y722409D1*
X615539Y719524D1*
X614080Y715213D1*
Y712361D1*
X615539Y708050D1*
X618391Y705199D1*
X621276Y703739D1*
X625554D1*
X628439Y705199D1*
X631291Y708050D1*
X647602Y733883D2*
Y709476D1*
X649028Y705199D1*
X651913Y703739D1*
X654765D1*
X643291Y723835D2*
X653339D1*
X666765Y715213D2*
X683976D1*
Y718098D1*
X682550Y720984D1*
X681124Y722409D1*
X678239Y723835D1*
X673928D1*
X671076Y722409D1*
X668191Y719524D1*
X666765Y715213D1*
Y712361D1*
X668191Y708050D1*
X671076Y705199D1*
X673928Y703739D1*
X678239D1*
X681124Y705199D1*
X683976Y708050D1*
X695976Y723835D2*
Y703739D1*
Y715213D2*
X697435Y719524D1*
X700287Y722409D1*
X703172Y723835D1*
X707483D1*
X774361Y703739D2*
X762854Y733883D1*
X751380Y703739D1*
X755691Y713787D2*
X770050D1*
X786361Y723835D2*
Y709476D1*
X787787Y705199D1*
X790672Y703739D1*
X794983D1*
X797835Y705199D1*
X802146Y709476D1*
Y723835D2*
Y703739D1*
X831357Y733883D2*
Y703739D1*
Y719524D2*
X828505Y722409D1*
X825620Y723835D1*
X821309D1*
X818457Y722409D1*
X815572Y719524D1*
X814146Y715213D1*
Y712361D1*
X815572Y708050D1*
X818457Y705199D1*
X821309Y703739D1*
X825620D1*
X828505Y705199D1*
X831357Y708050D1*
X843357Y733883D2*
X844783Y732458D1*
X846242Y733883D1*
X844783Y735343D1*
X843357Y733883D1*
X844783Y723835D2*
Y703739D1*
X865405Y723835D2*
X862553Y722409D1*
X859668Y719524D1*
X858242Y715213D1*
Y712361D1*
X859668Y708050D1*
X862553Y705199D1*
X865405Y703739D1*
X869716D1*
X872601Y705199D1*
X875453Y708050D1*
X876912Y712361D1*
Y715213D1*
X875453Y719524D1*
X872601Y722409D1*
X869716Y723835D1*
X865405D1*
X438695Y855243D2*
X427188Y885387D1*
X415714Y855243D1*
X420025Y865291D2*
X434384D1*
X467906Y885387D2*
Y855243D1*
Y871028D2*
X465054Y873913D1*
X462169Y875339D1*
X457858D1*
X455006Y873913D1*
X452121Y871028D1*
X450695Y866717D1*
Y863865D1*
X452121Y859554D1*
X455006Y856703D1*
X457858Y855243D1*
X462169D1*
X465054Y856703D1*
X467906Y859554D1*
X497117Y885387D2*
Y855243D1*
Y871028D2*
X494265Y873913D1*
X491380Y875339D1*
X487069D1*
X484217Y873913D1*
X481332Y871028D1*
X479906Y866717D1*
Y863865D1*
X481332Y859554D1*
X484217Y856703D1*
X487069Y855243D1*
X491380D1*
X494265Y856703D1*
X497117Y859554D1*
X509117Y885387D2*
X510542Y883961D1*
X512002Y885387D1*
X510542Y886847D1*
X509117Y885387D1*
X510542Y875339D2*
Y855243D1*
X528313Y885387D2*
Y860980D1*
X529739Y856703D1*
X532624Y855243D1*
X535476D1*
X524002Y875339D2*
X534050D1*
X547476Y885387D2*
X548901Y883961D1*
X550361Y885387D1*
X548901Y886847D1*
X547476Y885387D1*
X548901Y875339D2*
Y855243D1*
X569524Y875339D2*
X566672Y873913D1*
X563787Y871028D1*
X562361Y866717D1*
Y863865D1*
X563787Y859554D1*
X566672Y856703D1*
X569524Y855243D1*
X573835D1*
X576720Y856703D1*
X579572Y859554D1*
X581031Y863865D1*
Y866717D1*
X579572Y871028D1*
X576720Y873913D1*
X573835Y875339D1*
X569524D1*
X593031D2*
Y855243D1*
Y869602D2*
X597342Y873913D1*
X600227Y875339D1*
X604505D1*
X607390Y873913D1*
X608816Y869602D1*
Y855243D1*
X638027Y875339D2*
Y855243D1*
Y871028D2*
X635175Y873913D1*
X632290Y875339D1*
X628012D1*
X625127Y873913D1*
X622275Y871028D1*
X620816Y866717D1*
Y863865D1*
X622275Y859554D1*
X625127Y856703D1*
X628012Y855243D1*
X632290D1*
X635175Y856703D1*
X638027Y859554D1*
X650027Y885387D2*
Y855243D1*
X693924Y875339D2*
X699661Y855243D1*
X705398Y875339D1*
X711135Y855243D1*
X716872Y875339D1*
X736034D2*
X733183Y873913D1*
X730297Y871028D1*
X728872Y866717D1*
Y863865D1*
X730297Y859554D1*
X733183Y856703D1*
X736034Y855243D1*
X740345D1*
X743231Y856703D1*
X746082Y859554D1*
X747542Y863865D1*
Y866717D1*
X746082Y871028D1*
X743231Y873913D1*
X740345Y875339D1*
X736034D1*
X759542D2*
Y855243D1*
Y866717D2*
X761001Y871028D1*
X763853Y873913D1*
X766738Y875339D1*
X771049D1*
X783049Y885387D2*
Y855243D1*
X797408Y875339D2*
X783049Y860980D1*
X788786Y866717D2*
X798834Y855243D1*
X812293Y875339D2*
X810834Y873880D1*
X812293Y872454D1*
X813719Y873880D1*
X812293Y875339D1*
Y858128D2*
X810834Y856669D1*
X812293Y855243D1*
X813719Y856669D1*
X812293Y858128D1*
X428994Y832797D2*
Y809849D1*
X427568Y805538D1*
X426109Y804112D1*
X423257Y802653D1*
X420372D1*
X417520Y804112D1*
X416094Y805538D1*
X414635Y809849D1*
Y812701D1*
X440994Y832797D2*
X442420Y831371D1*
X443879Y832797D1*
X442420Y834256D1*
X440994Y832797D1*
X442420Y822749D2*
Y802653D1*
X455879Y822749D2*
Y802653D1*
Y817012D2*
X460190Y821323D1*
X463075Y822749D1*
X467353D1*
X470238Y821323D1*
X471664Y817012D1*
Y802653D1*
Y817012D2*
X475975Y821323D1*
X478860Y822749D1*
X483138D1*
X486023Y821323D1*
X487482Y817012D1*
Y802653D1*
X554327D2*
Y832797D1*
X542853Y802653D1*
X531379Y832797D1*
Y802653D1*
X583538Y822749D2*
Y802653D1*
Y818438D2*
X580686Y821323D1*
X577801Y822749D1*
X573523D1*
X570638Y821323D1*
X567786Y818438D1*
X566327Y814127D1*
Y811275D1*
X567786Y806964D1*
X570638Y804112D1*
X573523Y802653D1*
X577801D1*
X580686Y804112D1*
X583538Y806964D1*
X599849Y832797D2*
Y808390D1*
X601275Y804112D1*
X604160Y802653D1*
X607012D1*
X595538Y822749D2*
X605586D1*
X619012Y832797D2*
Y802653D1*
Y817012D2*
X623323Y821323D1*
X626208Y822749D1*
X630519D1*
X633371Y821323D1*
X634797Y817012D1*
Y802653D1*
X646797Y814127D2*
X664008D1*
Y817012D1*
X662582Y819897D1*
X661156Y821323D1*
X658271Y822749D1*
X653960D1*
X651108Y821323D1*
X648223Y818438D1*
X646797Y814127D1*
Y811275D1*
X648223Y806964D1*
X651108Y804112D1*
X653960Y802653D1*
X658271D1*
X661156Y804112D1*
X664008Y806964D1*
X691793Y818438D2*
X690367Y821323D1*
X686056Y822749D1*
X681745D1*
X677434Y821323D1*
X676008Y818438D1*
X677434Y815586D1*
X680319Y814127D1*
X687482Y812701D1*
X690367Y811275D1*
X691793Y808390D1*
Y806964D1*
X690367Y804112D1*
X686056Y802653D1*
X681745D1*
X677434Y804112D1*
X676008Y806964D1*
X710956Y822749D2*
X708104Y821323D1*
X705219Y818438D1*
X703793Y814127D1*
Y811275D1*
X705219Y806964D1*
X708104Y804112D1*
X710956Y802653D1*
X715267D1*
X718152Y804112D1*
X721004Y806964D1*
X722463Y811275D1*
Y814127D1*
X721004Y818438D1*
X718152Y821323D1*
X715267Y822749D1*
X710956D1*
X734463D2*
Y802653D1*
Y817012D2*
X738774Y821323D1*
X741659Y822749D1*
X745937D1*
X748822Y821323D1*
X750248Y817012D1*
Y802653D1*
X1062034Y912613D2*
X1074967D1*
X1079245Y914039D1*
X1080704Y915498D1*
X1082130Y918350D1*
Y922661D1*
X1080704Y925513D1*
X1079245Y926972D1*
X1074967Y928398D1*
X1062034D1*
Y898254D1*
X1094130Y909728D2*
X1111341D1*
Y912613D1*
X1109915Y915498D1*
X1108489Y916924D1*
X1105604Y918350D1*
X1101293D1*
X1098441Y916924D1*
X1095556Y914039D1*
X1094130Y909728D1*
Y906876D1*
X1095556Y902565D1*
X1098441Y899713D1*
X1101293Y898254D1*
X1105604D1*
X1108489Y899713D1*
X1111341Y902565D1*
X1140552Y918350D2*
Y898254D1*
Y914039D2*
X1137700Y916924D1*
X1134815Y918350D1*
X1130537D1*
X1127652Y916924D1*
X1124800Y914039D1*
X1123341Y909728D1*
Y906876D1*
X1124800Y902565D1*
X1127652Y899713D1*
X1130537Y898254D1*
X1134815D1*
X1137700Y899713D1*
X1140552Y902565D1*
X1152552Y928398D2*
Y898254D1*
X1166911Y918350D2*
X1152552Y903991D1*
X1158289Y909728D2*
X1168337Y898254D1*
X1196122Y914039D2*
X1194696Y916924D1*
X1190385Y918350D1*
X1186074D1*
X1181763Y916924D1*
X1180337Y914039D1*
X1181763Y911187D1*
X1184648Y909728D1*
X1191811Y908302D1*
X1194696Y906876D1*
X1196122Y903991D1*
Y902565D1*
X1194696Y899713D1*
X1190385Y898254D1*
X1186074D1*
X1181763Y899713D1*
X1180337Y902565D1*
X1063340Y818589D2*
X1076273D1*
X1080550Y820015D1*
X1082010Y821474D1*
X1083436Y824326D1*
Y828637D1*
X1082010Y831489D1*
X1080550Y832948D1*
X1076273Y834374D1*
X1063340D1*
Y804230D1*
X1095436Y834374D2*
X1096862Y832948D1*
X1098321Y834374D1*
X1096862Y835833D1*
X1095436Y834374D1*
X1096862Y824326D2*
Y804230D1*
X1127532Y824326D2*
Y794182D1*
Y820015D2*
X1124680Y822867D1*
X1121795Y824326D1*
X1117484D1*
X1114632Y822867D1*
X1111747Y820015D1*
X1110321Y815704D1*
Y812819D1*
X1111747Y808541D1*
X1114632Y805656D1*
X1117484Y804230D1*
X1121795D1*
X1124680Y805656D1*
X1127532Y808541D1*
X1139532Y824326D2*
Y809967D1*
X1140958Y805689D1*
X1143843Y804230D1*
X1148154D1*
X1151006Y805689D1*
X1155317Y809967D1*
Y824326D2*
Y804230D1*
X1167317Y815704D2*
X1184527D1*
Y818589D1*
X1183102Y821474D1*
X1181676Y822900D1*
X1178790Y824326D1*
X1174479D1*
X1171628Y822900D1*
X1168742Y820015D1*
X1167317Y815704D1*
Y812852D1*
X1168742Y808541D1*
X1171628Y805689D1*
X1174479Y804230D1*
X1178790D1*
X1181676Y805689D1*
X1184527Y808541D1*
X1082403Y752217D2*
X1070896Y782361D1*
X1059422Y752217D1*
X1063733Y762265D2*
X1078092D1*
X1094403Y772313D2*
Y742169D1*
Y768002D2*
X1097288Y770854D1*
X1100140Y772313D1*
X1104451D1*
X1107336Y770854D1*
X1110188Y768002D1*
X1111647Y763691D1*
Y760806D1*
X1110188Y756528D1*
X1107336Y753643D1*
X1104451Y752217D1*
X1100140D1*
X1097288Y753643D1*
X1094403Y756528D1*
X1123647Y763691D2*
X1140858D1*
Y766576D1*
X1139432Y769461D1*
X1138006Y770887D1*
X1135121Y772313D1*
X1130810D1*
X1127958Y770887D1*
X1125073Y768002D1*
X1123647Y763691D1*
Y760839D1*
X1125073Y756528D1*
X1127958Y753676D1*
X1130810Y752217D1*
X1135121D1*
X1138006Y753676D1*
X1140858Y756528D1*
X1152858Y772313D2*
X1168643Y752217D1*
Y772313D2*
X1152858Y752217D1*
X1225440Y780189D2*
Y754356D1*
X1212540Y767256D2*
X1238373D1*
X1300907Y782361D2*
X1282270D1*
Y752217D1*
X1300907D1*
X1282270Y768002D2*
X1293744D1*
X1312907Y772313D2*
X1328692Y752217D1*
Y772313D2*
X1312907Y752217D1*
X1340692Y772313D2*
Y742169D1*
Y768002D2*
X1343577Y770854D1*
X1346429Y772313D1*
X1350740D1*
X1353625Y770854D1*
X1356477Y768002D1*
X1357936Y763691D1*
Y760806D1*
X1356477Y756528D1*
X1353625Y753643D1*
X1350740Y752217D1*
X1346429D1*
X1343577Y753643D1*
X1340692Y756528D1*
X1059422Y717314D2*
X1072322D1*
X1076633Y718774D1*
X1078092Y720200D1*
X1079518Y723051D1*
Y725937D1*
X1078092Y728788D1*
X1076633Y730248D1*
X1072322Y731673D1*
X1059422D1*
Y701529D1*
X1069470Y717314D2*
X1079518Y701529D1*
X1108729Y721625D2*
Y701529D1*
Y717314D2*
X1105877Y720200D1*
X1102992Y721625D1*
X1098714D1*
X1095829Y720200D1*
X1092977Y717314D1*
X1091518Y713003D1*
Y710152D1*
X1092977Y705841D1*
X1095829Y702989D1*
X1098714Y701529D1*
X1102992D1*
X1105877Y702989D1*
X1108729Y705841D1*
X1120729Y731673D2*
X1122155Y730248D1*
X1123614Y731673D1*
X1122155Y733133D1*
X1120729Y731673D1*
X1122155Y721625D2*
Y701529D1*
X1135614Y721625D2*
Y701529D1*
Y715889D2*
X1139925Y720200D1*
X1142810Y721625D1*
X1147088D1*
X1149973Y720200D1*
X1151399Y715889D1*
Y701529D1*
X1163399Y731673D2*
X1164825Y730248D1*
X1166284Y731673D1*
X1164825Y733133D1*
X1163399Y731673D1*
X1164825Y721625D2*
Y701529D1*
X1178284Y713003D2*
X1195495D1*
Y715889D1*
X1194069Y718774D1*
X1192643Y720200D1*
X1189758Y721625D1*
X1185447D1*
X1182595Y720200D1*
X1179710Y717314D1*
X1178284Y713003D1*
Y710152D1*
X1179710Y705841D1*
X1182595Y702989D1*
X1185447Y701529D1*
X1189758D1*
X1192643Y702989D1*
X1195495Y705841D1*
X1207495Y721625D2*
Y701529D1*
Y713003D2*
X1208954Y717314D1*
X1211806Y720200D1*
X1214691Y721625D1*
X1219002D1*
X435201Y678341D2*
X433775Y681193D1*
X430890Y684078D1*
X428038Y685504D1*
X422301D1*
X419416Y684078D1*
X416565Y681193D1*
X415105Y678341D1*
X413679Y674030D1*
Y666834D1*
X415105Y662556D1*
X416565Y659671D1*
X419416Y656819D1*
X422301Y655360D1*
X428038D1*
X430890Y656819D1*
X433775Y659671D1*
X435201Y662556D1*
X464412Y675456D2*
Y655360D1*
Y671145D2*
X461560Y674030D1*
X458675Y675456D1*
X454397D1*
X451512Y674030D1*
X448661Y671145D1*
X447201Y666834D1*
Y663982D1*
X448661Y659671D1*
X451512Y656819D1*
X454397Y655360D1*
X458675D1*
X461560Y656819D1*
X464412Y659671D1*
X476412Y685504D2*
Y655360D1*
X504197Y671145D2*
X502771Y674030D1*
X498460Y675456D1*
X494149D1*
X489838Y674030D1*
X488412Y671145D1*
X489838Y668293D1*
X492723Y666834D1*
X499886Y665408D1*
X502771Y663982D1*
X504197Y661097D1*
Y659671D1*
X502771Y656819D1*
X498460Y655360D1*
X494149D1*
X489838Y656819D1*
X488412Y659671D1*
X517656Y675456D2*
X526245Y655360D1*
X523393Y649623D1*
X520508Y646738D1*
X517656Y645312D1*
X516197D1*
X534867Y675456D2*
X526245Y655360D1*
X546867Y675456D2*
Y655360D1*
Y669719D2*
X551178Y674030D1*
X554063Y675456D1*
X558341D1*
X561226Y674030D1*
X562652Y669719D1*
Y655360D1*
X578963Y685504D2*
Y661097D1*
X580389Y656819D1*
X583274Y655360D1*
X586126D1*
X574652Y675456D2*
X584700D1*
X598126Y685504D2*
Y655360D1*
Y669719D2*
X602437Y674030D1*
X605322Y675456D1*
X609633D1*
X612485Y674030D1*
X613911Y669719D1*
Y655360D1*
X1283191Y451345D2*
D102*
X1267848Y491537D1*
X1252549Y451345D1*
X1258297Y464742D2*
X1277443D1*
X1295542Y491537D2*
Y451345D1*
X1318490D1*
X1330842Y470490D2*
X1348086D1*
X1353789Y472391D1*
X1355735Y474337D1*
X1357636Y478139D1*
Y483887D1*
X1355735Y487690D1*
X1353789Y489635D1*
X1348086Y491537D1*
X1330842D1*
Y451345D1*
X1396782Y485789D2*
X1392980Y489635D1*
X1387232Y491537D1*
X1379582D1*
X1373834Y489635D1*
X1369988Y485789D1*
Y481986D1*
X1371933Y478139D1*
X1373834Y476238D1*
X1377637Y474337D1*
X1389133Y470490D1*
X1392980Y468589D1*
X1394881Y466643D1*
X1396782Y462841D1*
Y457093D1*
X1392980Y453290D1*
X1387232Y451345D1*
X1379582D1*
X1373834Y453290D1*
X1369988Y457093D1*
X1448014Y472391D2*
X1465214D1*
X1470962Y474337D1*
X1472908Y476238D1*
X1474809Y480041D1*
Y483887D1*
X1472908Y487690D1*
X1470962Y489635D1*
X1465214Y491537D1*
X1448014D1*
Y451345D1*
X1461412Y472391D2*
X1474809Y451345D1*
X1498657Y491493D2*
X1492909Y489591D1*
X1489062Y483843D1*
X1487161Y474293D1*
Y468545D1*
X1489062Y458994D1*
X1492909Y453246D1*
X1498657Y451345D1*
X1502459D1*
X1508207Y453246D1*
X1512010Y458994D1*
X1513955Y468545D1*
Y474293D1*
X1512010Y483843D1*
X1508207Y489591D1*
X1502459Y491493D1*
X1498657D1*
X1512010Y483843D2*
X1489062Y458994D1*
X1526307Y483843D2*
X1530153Y485789D1*
X1535901Y491493D1*
Y451345D1*
X1059446Y683360D2*
D28*
Y653216D1*
X1088657Y683360D2*
Y653216D1*
Y669001D2*
X1085805Y671886D1*
X1082920Y673312D1*
X1078609D1*
X1075757Y671886D1*
X1072872Y669001D1*
X1071446Y664690D1*
Y661838D1*
X1072872Y657527D1*
X1075757Y654675D1*
X1078609Y653216D1*
X1082920D1*
X1085805Y654675D1*
X1088657Y657527D1*
X1100657Y664690D2*
X1117868D1*
Y667575D1*
X1116442Y670460D1*
X1115016Y671886D1*
X1112131Y673312D1*
X1107820D1*
X1104968Y671886D1*
X1102083Y669001D1*
X1100657Y664690D1*
Y661838D1*
X1102083Y657527D1*
X1104968Y654675D1*
X1107820Y653216D1*
X1112131D1*
X1115016Y654675D1*
X1117868Y657527D1*
X1147079Y673312D2*
Y653216D1*
Y669001D2*
X1144227Y671886D1*
X1141342Y673312D1*
X1137064D1*
X1134179Y671886D1*
X1131327Y669001D1*
X1129868Y664690D1*
Y661838D1*
X1131327Y657527D1*
X1134179Y654675D1*
X1137064Y653216D1*
X1141342D1*
X1144227Y654675D1*
X1147079Y657527D1*
X1202450Y683360D2*
X1199598D1*
X1196713Y681934D1*
X1195287Y677623D1*
Y653216D1*
X1190976Y673312D2*
X1201024D1*
X1221613D2*
X1218761Y671886D1*
X1215876Y669001D1*
X1214450Y664690D1*
Y661838D1*
X1215876Y657527D1*
X1218761Y654675D1*
X1221613Y653216D1*
X1225924D1*
X1228809Y654675D1*
X1231661Y657527D1*
X1233120Y661838D1*
Y664690D1*
X1231661Y669001D1*
X1228809Y671886D1*
X1225924Y673312D1*
X1221613D1*
X1245120D2*
Y653216D1*
Y664690D2*
X1246579Y669001D1*
X1249431Y671886D1*
X1252316Y673312D1*
X1256627D1*
X1304835Y683360D2*
Y658953D1*
X1306261Y654675D1*
X1309146Y653216D1*
X1311998D1*
X1300524Y673312D2*
X1310572D1*
X1323998Y683360D2*
Y653216D1*
Y667575D2*
X1328309Y671886D1*
X1331194Y673312D1*
X1335505D1*
X1338357Y671886D1*
X1339783Y667575D1*
Y653216D1*
X1351783Y683360D2*
X1353209Y681934D1*
X1354668Y683360D1*
X1353209Y684819D1*
X1351783Y683360D1*
X1353209Y673312D2*
Y653216D1*
X1382453Y669001D2*
X1381027Y671886D1*
X1376716Y673312D1*
X1372405D1*
X1368094Y671886D1*
X1366668Y669001D1*
X1368094Y666149D1*
X1370979Y664690D1*
X1378142Y663264D1*
X1381027Y661838D1*
X1382453Y658953D1*
Y657527D1*
X1381027Y654675D1*
X1376716Y653216D1*
X1372405D1*
X1368094Y654675D1*
X1366668Y657527D1*
X1745577Y1122437D2*
D104*
X1734070Y1152581D1*
X1722596Y1122437D1*
X1726907Y1132485D2*
X1741266D1*
X1759152Y1152581D2*
Y1128174D1*
X1760578Y1123896D1*
X1763463Y1122437D1*
X1766315D1*
X1754841Y1142533D2*
X1764889D1*
X1779890Y1152581D2*
Y1128174D1*
X1781315Y1123896D1*
X1784201Y1122437D1*
X1787052D1*
X1775579Y1142533D2*
X1785627D1*
X1796316Y1133911D2*
X1813527D1*
Y1136796D1*
X1812101Y1139681D1*
X1810675Y1141107D1*
X1807790Y1142533D1*
X1803479D1*
X1800627Y1141107D1*
X1797742Y1138222D1*
X1796316Y1133911D1*
Y1131059D1*
X1797742Y1126748D1*
X1800627Y1123896D1*
X1803479Y1122437D1*
X1807790D1*
X1810675Y1123896D1*
X1813527Y1126748D1*
X1822790Y1142533D2*
Y1122437D1*
Y1136796D2*
X1827102Y1141107D1*
X1829987Y1142533D1*
X1834264D1*
X1837150Y1141107D1*
X1838575Y1136796D1*
Y1122437D1*
X1847839Y1142533D2*
Y1128174D1*
X1849265Y1123896D1*
X1852150Y1122437D1*
X1856461D1*
X1859313Y1123896D1*
X1863624Y1128174D1*
Y1142533D2*
Y1122437D1*
X1872888Y1142533D2*
X1881510Y1122437D1*
X1890098Y1142533D1*
X1899362Y1133911D2*
X1916573D1*
Y1136796D1*
X1915147Y1139681D1*
X1913721Y1141107D1*
X1910836Y1142533D1*
X1906525D1*
X1903673Y1141107D1*
X1900788Y1138222D1*
X1899362Y1133911D1*
Y1131059D1*
X1900788Y1126748D1*
X1903673Y1123896D1*
X1906525Y1122437D1*
X1910836D1*
X1913721Y1123896D1*
X1916573Y1126748D1*
X1925837Y1142533D2*
Y1122437D1*
Y1133911D2*
X1927296Y1138222D1*
X1930148Y1141107D1*
X1933033Y1142533D1*
X1937344D1*
X1950918Y1152581D2*
Y1128174D1*
X1952344Y1123896D1*
X1955229Y1122437D1*
X1958081D1*
X1946607Y1142533D2*
X1956655D1*
X1967345Y1133911D2*
X1984556D1*
Y1136796D1*
X1983130Y1139681D1*
X1981704Y1141107D1*
X1978819Y1142533D1*
X1974508D1*
X1971656Y1141107D1*
X1968771Y1138222D1*
X1967345Y1133911D1*
Y1131059D1*
X1968771Y1126748D1*
X1971656Y1123896D1*
X1974508Y1122437D1*
X1978819D1*
X1981704Y1123896D1*
X1984556Y1126748D1*
X1993819Y1142533D2*
Y1122437D1*
Y1133911D2*
X1995278Y1138222D1*
X1998130Y1141107D1*
X2001015Y1142533D1*
X2005326D1*
X2030375Y1138222D2*
X2028949Y1141107D1*
X2024638Y1142533D1*
X2020327D1*
X2016016Y1141107D1*
X2014590Y1138222D1*
X2016016Y1135370D1*
X2018901Y1133911D1*
X2026064Y1132485D1*
X2028949Y1131059D1*
X2030375Y1128174D1*
Y1126748D1*
X2028949Y1123896D1*
X2024638Y1122437D1*
X2020327D1*
X2016016Y1123896D1*
X2014590Y1126748D1*
X810745Y1137193D2*
X823678D1*
X827956Y1138619D1*
X829415Y1140078D1*
X830841Y1142930D1*
Y1147241D1*
X829415Y1150093D1*
X827956Y1151552D1*
X823678Y1152978D1*
X810745D1*
Y1122834D1*
X847267Y1142930D2*
X844415Y1141504D1*
X841530Y1138619D1*
X840104Y1134308D1*
Y1131456D1*
X841530Y1127145D1*
X844415Y1124293D1*
X847267Y1122834D1*
X851578D1*
X854463Y1124293D1*
X857315Y1127145D1*
X858774Y1131456D1*
Y1134308D1*
X857315Y1138619D1*
X854463Y1141504D1*
X851578Y1142930D1*
X847267D1*
X872349Y1152978D2*
Y1128571D1*
X873775Y1124293D1*
X876660Y1122834D1*
X879512D1*
X868038Y1142930D2*
X878086D1*
X917936D2*
Y1122834D1*
Y1137193D2*
X922247Y1141504D1*
X925132Y1142930D1*
X929410D1*
X932295Y1141504D1*
X933721Y1137193D1*
Y1122834D1*
Y1137193D2*
X938032Y1141504D1*
X940917Y1142930D1*
X945195D1*
X948080Y1141504D1*
X949539Y1137193D1*
Y1122834D1*
X958803Y1152978D2*
X960229Y1151552D1*
X961688Y1152978D1*
X960229Y1154437D1*
X958803Y1152978D1*
X960229Y1142930D2*
Y1122834D1*
X970951Y1142930D2*
X986736Y1122834D1*
Y1142930D2*
X970951Y1122834D1*
X2031225Y1937742D2*
X2028373Y1940627D1*
X2024062Y1942053D1*
X2018325D1*
X2014014Y1940627D1*
X2011129Y1937742D1*
Y1934890D1*
X2012588Y1932005D1*
X2014014Y1930579D1*
X2016866Y1929153D1*
X2025488Y1926268D1*
X2028373Y1924842D1*
X2029799Y1923383D1*
X2031225Y1920531D1*
Y1916220D1*
X2028373Y1913368D1*
X2024062Y1911909D1*
X2018325D1*
X2014014Y1913368D1*
X2011129Y1916220D1*
X2040489Y1942053D2*
Y1911909D1*
X2049752Y1942053D2*
X2051178Y1940627D1*
X2052637Y1942053D1*
X2051178Y1943512D1*
X2049752Y1942053D1*
X2051178Y1932005D2*
Y1911909D1*
X2079112Y1942053D2*
Y1911909D1*
Y1927694D2*
X2076260Y1930579D1*
X2073375Y1932005D1*
X2069064D1*
X2066212Y1930579D1*
X2063327Y1927694D1*
X2061901Y1923383D1*
Y1920531D1*
X2063327Y1916220D1*
X2066212Y1913368D1*
X2069064Y1911909D1*
X2073375D1*
X2076260Y1913368D1*
X2079112Y1916220D1*
X2088375Y1923383D2*
X2105586D1*
Y1926268D1*
X2104160Y1929153D1*
X2102734Y1930579D1*
X2099849Y1932005D1*
X2095538D1*
X2092686Y1930579D1*
X2089801Y1927694D1*
X2088375Y1923383D1*
Y1920531D1*
X2089801Y1916220D1*
X2092686Y1913368D1*
X2095538Y1911909D1*
X2099849D1*
X2102734Y1913368D1*
X2105586Y1916220D1*
X2114850Y1932005D2*
Y1911909D1*
Y1923383D2*
X2116309Y1927694D1*
X2119161Y1930579D1*
X2122046Y1932005D1*
X2126357D1*
X2011129Y1887435D2*
Y1857291D1*
X2028340D1*
X2056241Y1887435D2*
X2037604D1*
Y1857291D1*
X2056241D1*
X2037604Y1873076D2*
X2049078D1*
X2065504Y1887435D2*
Y1857291D1*
X2075552D1*
X2079863Y1858750D1*
X2082748Y1861602D1*
X2084174Y1864487D1*
X2085600Y1868765D1*
Y1875961D1*
X2084174Y1880272D1*
X2082748Y1883124D1*
X2079863Y1886009D1*
X2075552Y1887435D1*
X2065504D1*
X2110649Y1873076D2*
X2109223Y1875961D1*
X2104912Y1877387D1*
X2100601D1*
X2096290Y1875961D1*
X2094864Y1873076D1*
X2096290Y1870224D1*
X2099175Y1868765D1*
X2106338Y1867339D1*
X2109223Y1865913D1*
X2110649Y1863028D1*
Y1861602D1*
X2109223Y1858750D1*
X2104912Y1857291D1*
X2100601D1*
X2096290Y1858750D1*
X2094864Y1861602D1*
X2003836Y3579677D2*
D100*
X2005737Y3580628D1*
X2007660Y3582551D1*
X2008611Y3584452D1*
Y3588277D1*
X2007660Y3590200D1*
X2005737Y3592102D1*
X2003835Y3593074D1*
X2000961Y3594025D1*
X1996164D1*
X1993312Y3593074D1*
X1991389Y3592101D1*
X1989488Y3590200D1*
X1988515Y3588277D1*
Y3584452D1*
X1989488Y3582551D1*
X1991389Y3580627D1*
X1993312Y3579677D1*
X2004764Y3573501D2*
X2005737Y3571578D1*
X2008589Y3568704D1*
X1988515D1*
X1722837Y3798974D2*
X1724738Y3799924D1*
X1726662Y3801848D1*
X1727612Y3803749D1*
Y3807574D1*
X1726661Y3809497D1*
X1724738Y3811398D1*
X1722837Y3812371D1*
X1719963Y3813322D1*
X1715165D1*
X1712313Y3812371D1*
X1710390Y3811398D1*
X1708489Y3809497D1*
X1707516Y3807573D1*
Y3803749D1*
X1708489Y3801848D1*
X1710390Y3799924D1*
X1712314Y3798974D1*
X1722815Y3791825D2*
X1723766D1*
X1725689Y3790875D1*
X1726640Y3789924D1*
X1727590Y3788001D1*
Y3784176D1*
X1726640Y3782275D1*
X1725689Y3781324D1*
X1723766Y3780351D1*
X1721865D1*
X1719941Y3781324D1*
X1717089Y3783225D1*
X1707516Y3792798D1*
X1707517Y3779400D1*
X477358Y3156788D2*
X476408Y3158689D1*
X474484Y3160613D1*
X472583Y3161564D1*
X468758D1*
X466835Y3160613D1*
X464934Y3158689D1*
X463961Y3156788D1*
X463010Y3153914D1*
Y3149117D1*
X463961Y3146265D1*
X464934Y3144342D1*
X466835Y3142440D1*
X468758Y3141468D1*
X472583D1*
X474484Y3142440D1*
X476408Y3144342D1*
X477358Y3146265D1*
X485457Y3161541D2*
X495959D1*
X490233Y3153892D1*
X493107D1*
X495008Y3152941D1*
X495959Y3151991D1*
X496931Y3149117D1*
Y3147216D1*
X495959Y3144342D1*
X494057Y3142418D1*
X491183Y3141468D1*
X488309D1*
X485457Y3142418D1*
X484507Y3143391D1*
X483534Y3145292D1*
X1036058Y3791029D2*
X1035107Y3792931D1*
X1033184Y3794854D1*
X1031283Y3795805D1*
X1027458Y3795804D1*
X1025535Y3794854D1*
X1023633Y3792930D1*
X1022661Y3791029D1*
X1021710Y3788155D1*
Y3783358D1*
X1022661Y3780506D1*
X1023634Y3778582D1*
X1025535Y3776681D1*
X1027458Y3775708D1*
X1031283Y3775709D1*
X1033184Y3776681D1*
X1035108Y3778583D1*
X1036058Y3780506D1*
X1051807Y3775709D2*
X1051806Y3795783D1*
X1042234Y3782407D1*
X1056582Y3782408D1*
X1431668Y3318912D2*
X1430717Y3320813D1*
X1428794Y3322736D1*
X1426893Y3323687D1*
X1423068D1*
X1421145Y3322736D1*
X1419243Y3320813D1*
X1418271Y3318912D1*
X1417320Y3316038D1*
Y3311240D1*
X1418271Y3308388D1*
X1419243Y3306465D1*
X1421145Y3304564D1*
X1423068Y3303591D1*
X1426893D1*
X1428794Y3304564D1*
X1430717Y3306465D1*
X1431668Y3308388D1*
X1449318Y3323665D2*
X1439767D1*
X1438816Y3315065D1*
X1439767Y3316015D1*
X1442641Y3316988D1*
X1445493D1*
X1448367Y3316015D1*
X1450290Y3314114D1*
X1451241Y3311240D1*
Y3309339D1*
X1450290Y3306465D1*
X1448367Y3304542D1*
X1445493Y3303591D1*
X1442641D1*
X1439767Y3304542D1*
X1438816Y3305514D1*
X1437844Y3307416D1*
X1005040Y2911748D2*
X1004090Y2913649D1*
X1002166Y2915572D1*
X1000265Y2916523D1*
X996440D1*
X994517Y2915572D1*
X992616Y2913649D1*
X991643Y2911748D1*
X990692Y2908874D1*
Y2904076D1*
X991643Y2901224D1*
X992616Y2899301D1*
X994517Y2897400D1*
X996440Y2896427D1*
X1000265D1*
X1002166Y2897400D1*
X1004090Y2899301D1*
X1005040Y2901224D1*
X1022690Y2913649D2*
X1021739Y2915550D1*
X1018865Y2916501D1*
X1016964D1*
X1014090Y2915550D1*
X1012167Y2912676D1*
X1011216Y2907901D1*
Y2903125D1*
X1012167Y2899301D1*
X1014090Y2897377D1*
X1016964Y2896427D1*
X1017915D1*
X1020766Y2897377D1*
X1022690Y2899301D1*
X1023640Y2902175D1*
Y2903125D1*
X1022690Y2906000D1*
X1020766Y2907901D1*
X1017915Y2908851D1*
X1016964D1*
X1014090Y2907901D1*
X1012167Y2906000D1*
X1011216Y2903125D1*
X627572Y2913409D2*
X626622Y2915310D1*
X624698Y2917234D1*
X622797Y2918184D1*
X618972D1*
X617049Y2917234D1*
X615148Y2915310D1*
X614175Y2913409D1*
X613224Y2910535D1*
Y2905738D1*
X614175Y2902886D1*
X615148Y2900962D1*
X617049Y2899061D1*
X618972Y2898088D1*
X622797D1*
X624698Y2899061D1*
X626622Y2900962D1*
X627572Y2902886D1*
X637573Y2898088D2*
X647145Y2918162D1*
X633748D1*
X605675Y3604053D2*
X604725Y3605955D1*
X602801Y3607878D1*
X600900Y3608828D1*
X597075D1*
X595152Y3607878D1*
X593251Y3605954D1*
X592278Y3604053D1*
X591328Y3601179D1*
Y3596382D1*
X592278Y3593530D1*
X593251Y3591606D1*
X595152Y3589705D1*
X597076Y3588732D1*
X600900D1*
X602802Y3589705D1*
X604725Y3591607D1*
X605676Y3593530D1*
X616626Y3608807D2*
X613774Y3607856D1*
X612802Y3605955D1*
Y3604031D1*
X613775Y3602130D1*
X615676Y3601157D1*
X619501Y3600207D1*
X622375Y3599256D1*
X624276Y3597333D1*
X625227Y3595432D1*
Y3592558D1*
X624276Y3590656D1*
X623325Y3589684D1*
X620451Y3588733D1*
X616627D1*
X613775Y3589683D1*
X612802Y3590656D1*
X611851Y3592557D1*
Y3595431D1*
X612802Y3597333D1*
X614725Y3599256D1*
X617577Y3600207D1*
X621402Y3601157D1*
X623325Y3602130D1*
X624276Y3604032D1*
Y3605955D1*
X623325Y3607856D1*
X620451Y3608807D1*
X616626D1*
X738986Y4351132D2*
X738035Y4353033D1*
X736112Y4354957D1*
X734211Y4355907D1*
X730386D1*
X728463Y4354956D1*
X726562Y4353033D1*
X725589Y4351132D1*
X724638Y4348258D1*
Y4343460D1*
X725589Y4340608D1*
X726562Y4338685D1*
X728463Y4336784D1*
X730387Y4335811D1*
X734211D1*
X736112Y4336784D1*
X738036Y4338685D1*
X738986Y4340609D1*
X757609Y4349209D2*
X756636Y4346335D1*
X754735Y4344412D1*
X751861Y4343461D1*
X750910D1*
X748036Y4344411D1*
X746135Y4346335D1*
X745162Y4349209D1*
Y4350159D1*
X746135Y4353033D1*
X748036Y4354935D1*
X750910Y4355885D1*
X751860D1*
X754734Y4354935D1*
X756636Y4353034D1*
X757609Y4349209D1*
Y4344412D1*
X756636Y4339636D1*
X754735Y4336762D1*
X751861Y4335812D1*
X749960D1*
X747086Y4336762D1*
X746135Y4338685D1*
X953690Y3683284D2*
X952740Y3685185D1*
X950816Y3687108D1*
X948915Y3688059D1*
X945090D1*
X943167Y3687108D1*
X941266Y3685185D1*
X940293Y3683284D1*
X939342Y3680410D1*
X939343Y3675612D1*
X940293Y3672760D1*
X941266Y3670837D1*
X943167Y3668936D1*
X945091Y3667963D1*
X948915D1*
X950817Y3668936D1*
X952740Y3670837D1*
X953691Y3672761D1*
X959866Y3684213D2*
X961789Y3685185D1*
X964663Y3688037D1*
X964664Y3667963D1*
X976587Y3688037D2*
X973713Y3687087D1*
X971790Y3684213D1*
X970839Y3679437D1*
Y3676563D1*
X971790Y3671788D1*
X973713Y3668914D1*
X976587Y3667964D1*
X978489D1*
X981363Y3668914D1*
X983264Y3671788D1*
X984237Y3676564D1*
Y3679438D1*
X983264Y3684213D1*
X981362Y3687087D1*
X978488Y3688038D1*
X976587Y3688037D1*
X983264Y3684213D2*
X971790Y3671788D1*
X1856535Y3233698D2*
X1855585Y3235599D1*
X1853661Y3237522D1*
X1851760Y3238473D1*
X1847935D1*
X1846012Y3237522D1*
X1844111Y3235599D1*
X1843138Y3233698D1*
X1842187Y3230824D1*
Y3226026D1*
X1843138Y3223174D1*
X1844111Y3221251D1*
X1846012Y3219350D1*
X1847935Y3218377D1*
X1851760D1*
X1853661Y3219350D1*
X1855585Y3221251D1*
X1856535Y3223174D1*
X1862711Y3234626D2*
X1864634Y3235599D1*
X1867508Y3238451D1*
Y3218377D1*
X1873684Y3234626D2*
X1875607Y3235599D1*
X1878481Y3238451D1*
Y3218377D1*
X1683175Y3380114D2*
X1682224Y3382015D1*
X1680301Y3383938D1*
X1678400Y3384889D1*
X1674575D1*
X1672652Y3383938D1*
X1670750Y3382015D1*
X1669778Y3380114D1*
X1668827Y3377240D1*
Y3372442D1*
X1669778Y3369590D1*
X1670750Y3367667D1*
X1672652Y3365766D1*
X1674575Y3364793D1*
X1678400D1*
X1680301Y3365766D1*
X1682224Y3367667D1*
X1683175Y3369590D1*
X1689351Y3381042D2*
X1691274Y3382015D1*
X1694148Y3384867D1*
Y3364793D1*
X1701296Y3380092D2*
Y3381042D1*
X1702247Y3382966D1*
X1703198Y3383916D1*
X1705121Y3384867D1*
X1708946D1*
X1710847Y3383916D1*
X1711798Y3382966D1*
X1712770Y3381042D1*
Y3379141D1*
X1711798Y3377218D1*
X1709896Y3374366D1*
X1700324Y3364793D1*
X1713721D1*
X1751726Y3235628D2*
X1752398Y3237644D1*
Y3240364D1*
X1751726Y3242381D1*
X1749022Y3245086D1*
X1746989Y3245773D1*
X1744285Y3245758D1*
X1742253Y3245101D1*
X1739548Y3243741D1*
X1736156Y3240349D1*
X1734812Y3237660D1*
X1734139Y3235612D1*
Y3232923D1*
X1734812Y3230876D1*
X1737516Y3228171D1*
X1739548Y3227515D1*
X1742253Y3227499D1*
X1744285Y3228187D1*
X1756750Y3231918D2*
X1758797Y3231245D1*
X1762846Y3231230D1*
X1748652Y3217035D1*
X1768573Y3225503D2*
X1775999Y3218077D1*
X1766541Y3216717D1*
X1768573Y3214685D1*
X1769245Y3212668D1*
Y3211324D1*
X1767901Y3208604D1*
X1766557Y3207260D1*
X1763837Y3205915D1*
X1761132Y3205899D1*
X1758428Y3207260D1*
X1756395Y3209292D1*
X1755051Y3211981D1*
X1755067Y3213341D1*
X1755723Y3215373D1*
X2337395Y2806516D2*
X2335494Y2805566D1*
X2333571Y2803642D1*
X2332620Y2801741D1*
Y2797916D1*
X2333571Y2795993D1*
X2335494Y2794092D1*
X2337395Y2793119D1*
X2340269Y2792168D1*
X2345067D1*
X2347918Y2793119D1*
X2349842Y2794092D1*
X2351743Y2795993D1*
X2352716Y2797916D1*
Y2801741D1*
X2351743Y2803642D1*
X2349842Y2805566D1*
X2347918Y2806516D1*
X2336467Y2812692D2*
X2335494Y2814615D1*
X2332642Y2817489D1*
X2352716D1*
Y2833238D2*
X2332642D1*
X2346017Y2823665D1*
Y2838013D1*
X2340953Y2960717D2*
X2339052Y2959767D1*
X2337128Y2957843D1*
X2336178Y2955942D1*
Y2952117D1*
X2337128Y2950194D1*
X2339052Y2948293D1*
X2340953Y2947320D1*
X2343827Y2946369D1*
X2348624D1*
X2351476Y2947320D1*
X2353400Y2948293D1*
X2355301Y2950194D1*
X2356274Y2952117D1*
Y2955942D1*
X2355301Y2957843D1*
X2353400Y2959767D1*
X2351476Y2960717D1*
X2340024Y2966893D2*
X2339052Y2968816D1*
X2336200Y2971690D1*
X2356274D1*
X2336200Y2989340D2*
Y2979789D1*
X2344800Y2978839D1*
X2343849Y2979789D1*
X2342876Y2982663D1*
Y2985515D1*
X2343849Y2988389D1*
X2345750Y2990313D1*
X2348624Y2991263D1*
X2350526D1*
X2353400Y2990313D1*
X2355323Y2988389D1*
X2356274Y2985515D1*
Y2982663D1*
X2355323Y2979789D1*
X2354350Y2978839D1*
X2352449Y2977866D1*
X484807Y1288774D2*
X483856Y1290675D1*
X481933Y1292598D1*
X480032Y1293549D1*
X476207D1*
X474284Y1292598D1*
X472382Y1290675D1*
X471410Y1288774D1*
X470459Y1285900D1*
Y1281102D1*
X471410Y1278250D1*
X472382Y1276327D1*
X474284Y1274426D1*
X476207Y1273453D1*
X480032D1*
X481933Y1274426D1*
X483856Y1276327D1*
X484807Y1278250D1*
X490983Y1289702D2*
X492906Y1290675D1*
X495780Y1293527D1*
Y1273453D1*
X513430Y1290675D2*
X512479Y1292576D1*
X509605Y1293527D1*
X507704D1*
X504830Y1292576D1*
X502906Y1289702D1*
X501956Y1284927D1*
Y1280152D1*
X502906Y1276327D1*
X504830Y1274404D1*
X507704Y1273453D1*
X508654D1*
X511506Y1274404D1*
X513430Y1276327D1*
X514380Y1279201D1*
Y1280152D1*
X513430Y1283026D1*
X511506Y1284927D1*
X508654Y1285878D1*
X507704D1*
X504830Y1284927D1*
X502906Y1283026D1*
X501956Y1280152D1*
X2162903Y3161038D2*
X2161953Y3162939D1*
X2160029Y3164862D1*
X2158128Y3165813D1*
X2154303D1*
X2152380Y3164862D1*
X2150479Y3162939D1*
X2149506Y3161038D1*
X2148555Y3158164D1*
Y3153366D1*
X2149506Y3150514D1*
X2150479Y3148591D1*
X2152380Y3146690D1*
X2154303Y3145717D1*
X2158128D1*
X2160029Y3146690D1*
X2161953Y3148591D1*
X2162903Y3150514D1*
X2169079Y3161966D2*
X2171002Y3162939D1*
X2173876Y3165791D1*
Y3145717D1*
X2183877D2*
X2193449Y3165791D1*
X2180052D1*
X1997150Y3742123D2*
X1996200Y3744024D1*
X1994276Y3745948D1*
X1992375Y3746898D1*
X1988551D1*
X1986627Y3745948D1*
X1984726Y3744024D1*
X1983753Y3742123D1*
X1982803Y3739249D1*
Y3734451D1*
X1983753Y3731600D1*
X1984726Y3729676D1*
X1986627Y3727775D1*
X1988551Y3726802D1*
X1992375D1*
X1994276Y3727775D1*
X1996200Y3729676D1*
X1997150Y3731600D1*
X2003326Y3743051D2*
X2005250Y3744024D1*
X2008124Y3746876D1*
Y3726802D1*
X2019075Y3746876D2*
X2016223Y3745925D1*
X2015250Y3744024D1*
Y3742101D1*
X2016223Y3740199D1*
X2018124Y3739227D1*
X2021949Y3738276D1*
X2024823Y3737325D1*
X2026724Y3735402D1*
X2027674Y3733501D1*
Y3730627D1*
X2026724Y3728726D1*
X2025773Y3727753D1*
X2022899Y3726802D1*
X2019075D1*
X2016223Y3727753D1*
X2015250Y3728726D1*
X2014299Y3730627D1*
Y3733501D1*
X2015250Y3735402D1*
X2017173Y3737325D1*
X2020025Y3738276D1*
X2023850Y3739227D1*
X2025773Y3740199D1*
X2026724Y3742101D1*
Y3744024D1*
X2025773Y3745925D1*
X2022899Y3746876D1*
X2019075D1*
X1570019Y2777782D2*
X1569068Y2779683D1*
X1567145Y2781606D1*
X1565244Y2782557D1*
X1561419D1*
X1559496Y2781606D1*
X1557594Y2779683D1*
X1556622Y2777782D1*
X1555671Y2774908D1*
Y2770110D1*
X1556622Y2767258D1*
X1557594Y2765335D1*
X1559496Y2763434D1*
X1561419Y2762461D1*
X1565244D1*
X1567145Y2763434D1*
X1569068Y2765335D1*
X1570019Y2767258D1*
X1576195Y2778710D2*
X1578118Y2779683D1*
X1580992Y2782535D1*
Y2762461D1*
X1599614Y2775858D2*
X1598642Y2772984D1*
X1596740Y2771061D1*
X1593866Y2770110D1*
X1592916D1*
X1590042Y2771061D1*
X1588140Y2772984D1*
X1587168Y2775858D1*
Y2776809D1*
X1588140Y2779683D1*
X1590042Y2781584D1*
X1592916Y2782535D1*
X1593866D1*
X1596740Y2781584D1*
X1598642Y2779683D1*
X1599614Y2775858D1*
Y2771061D1*
X1598642Y2766286D1*
X1596740Y2763412D1*
X1593866Y2762461D1*
X1591965D1*
X1589091Y2763412D1*
X1588140Y2765335D1*
X1568805Y2899616D2*
X1567855Y2901518D1*
X1565931Y2903441D1*
X1564030Y2904392D1*
X1560205D1*
X1558282Y2903441D1*
X1556381Y2901518D1*
X1555408Y2899616D1*
X1554457Y2896742D1*
Y2891945D1*
X1555408Y2889093D1*
X1556381Y2887170D1*
X1558282Y2885268D1*
X1560205Y2884296D1*
X1564030D1*
X1565931Y2885268D1*
X1567855Y2887170D1*
X1568805Y2889093D1*
X1575954Y2899594D2*
Y2900545D1*
X1576904Y2902468D1*
X1577855Y2903419D1*
X1579778Y2904369D1*
X1583603D1*
X1585504Y2903419D1*
X1586455Y2902468D1*
X1587428Y2900545D1*
Y2898644D1*
X1586455Y2896720D1*
X1584554Y2893868D1*
X1574981Y2884296D1*
X1588378D1*
X1600302Y2904369D2*
X1597428Y2903419D1*
X1595505Y2900545D1*
X1594554Y2895770D1*
Y2892896D1*
X1595505Y2888120D1*
X1597428Y2885246D1*
X1600302Y2884296D1*
X1602203D1*
X1605077Y2885246D1*
X1606979Y2888120D1*
X1607951Y2892896D1*
Y2895770D1*
X1606979Y2900545D1*
X1605077Y2903419D1*
X1602203Y2904369D1*
X1600302D1*
X1606979Y2900545D2*
X1595505Y2888120D1*
X1599027Y3043332D2*
X1598076Y3045233D1*
X1596153Y3047156D1*
X1594251Y3048107D1*
X1590427D1*
X1588503Y3047156D1*
X1586602Y3045233D1*
X1585629Y3043332D1*
X1584679Y3040458D1*
Y3035660D1*
X1585629Y3032808D1*
X1586602Y3030885D1*
X1588503Y3028984D1*
X1590427Y3028011D1*
X1594251D1*
X1596153Y3028984D1*
X1598076Y3030885D1*
X1599027Y3032808D1*
X1606175Y3043309D2*
Y3044260D1*
X1607126Y3046183D1*
X1608076Y3047134D1*
X1610000Y3048085D1*
X1613824D1*
X1615726Y3047134D1*
X1616676Y3046183D1*
X1617649Y3044260D1*
Y3042359D1*
X1616676Y3040435D1*
X1614775Y3037583D1*
X1605202Y3028011D1*
X1618600D1*
X1624775Y3044260D2*
X1626699Y3045233D1*
X1629573Y3048085D1*
Y3028011D1*
X2028763Y3637588D2*
X2030664Y3638539D1*
X2032588Y3640462D1*
X2033538Y3642363D1*
Y3646188D1*
X2032588Y3648111D1*
X2030664Y3650013D1*
X2028763Y3650985D1*
X2025889Y3651936D1*
X2021092D1*
X2018240Y3650985D1*
X2016316Y3650013D1*
X2014415Y3648111D1*
X2013442Y3646188D1*
Y3642363D1*
X2014415Y3640462D1*
X2016316Y3638539D1*
X2018240Y3637588D1*
X2028741Y3630440D2*
X2029691D1*
X2031615Y3629489D1*
X2032565Y3628538D1*
X2033516Y3626615D1*
Y3622790D1*
X2032565Y3620889D1*
X2031615Y3619938D1*
X2029691Y3618966D1*
X2027790D1*
X2025867Y3619938D1*
X2023015Y3621840D1*
X2013442Y3631412D1*
Y3618015D1*
X2028741Y3610867D2*
X2029691D1*
X2031615Y3609916D1*
X2032565Y3608965D1*
X2033516Y3607042D1*
Y3603217D1*
X2032565Y3601316D1*
X2031615Y3600365D1*
X2029691Y3599393D1*
X2027790D1*
X2025867Y3600365D1*
X2023015Y3602267D1*
X2013442Y3611839D1*
Y3598442D1*
X1582809Y3080934D2*
X1581859Y3082835D1*
X1579935Y3084759D1*
X1578034Y3085709D1*
X1574209D1*
X1572286Y3084759D1*
X1570385Y3082835D1*
X1569412Y3080934D1*
X1568461Y3078060D1*
Y3073262D1*
X1569412Y3070411D1*
X1570385Y3068487D1*
X1572286Y3066586D1*
X1574209Y3065613D1*
X1578034D1*
X1579935Y3066586D1*
X1581859Y3068487D1*
X1582809Y3070411D1*
X1589958Y3080912D2*
Y3081862D1*
X1590908Y3083786D1*
X1591859Y3084736D1*
X1593782Y3085687D1*
X1597607D1*
X1599508Y3084736D1*
X1600459Y3083786D1*
X1601432Y3081862D1*
Y3079961D1*
X1600459Y3078038D1*
X1598558Y3075186D1*
X1588985Y3065613D1*
X1602382D1*
X1610481Y3085687D2*
X1620983D1*
X1615257Y3078038D1*
X1618131D1*
X1620032Y3077087D1*
X1620983Y3076136D1*
X1621955Y3073262D1*
Y3071361D1*
X1620983Y3068487D1*
X1619081Y3066564D1*
X1616207Y3065613D1*
X1613333D1*
X1610481Y3066564D1*
X1609531Y3067537D1*
X1608558Y3069438D1*
X2299800Y3034534D2*
X2298849Y3036436D1*
X2296926Y3038359D1*
X2295024Y3039310D1*
X2291200Y3039309D1*
X2289276Y3038359D1*
X2287375Y3036435D1*
X2286402Y3034534D1*
X2285452Y3031660D1*
Y3026863D1*
X2286403Y3024011D1*
X2287375Y3022087D1*
X2289277Y3020186D1*
X2291200Y3019213D1*
X2295025D1*
X2296926Y3020186D1*
X2298849Y3022088D1*
X2299800Y3024011D1*
X2306948Y3034512D2*
Y3035463D1*
X2307899Y3037386D1*
X2308849Y3038337D1*
X2310773Y3039288D1*
X2314597D1*
X2316499Y3038337D1*
X2317449Y3037387D1*
X2318422Y3035463D1*
Y3033562D1*
X2317449Y3031639D1*
X2315548Y3028787D1*
X2305976Y3019214D1*
X2319373D1*
X2335122D2*
X2335121Y3039288D1*
X2325549Y3025913D1*
X2339897D1*
X465313Y1435967D2*
X464363Y1437868D1*
X462439Y1439791D1*
X460538Y1440742D1*
X456713D1*
X454790Y1439791D1*
X452889Y1437868D1*
X451916Y1435967D1*
X450965Y1433093D1*
Y1428295D1*
X451916Y1425443D1*
X452889Y1423520D1*
X454790Y1421619D1*
X456713Y1420646D1*
X460538D1*
X462439Y1421619D1*
X464363Y1423520D1*
X465313Y1425443D1*
X472462Y1435945D2*
Y1436895D1*
X473412Y1438819D1*
X474363Y1439769D1*
X476286Y1440720D1*
X480111D1*
X482012Y1439769D1*
X482963Y1438819D1*
X483936Y1436895D1*
Y1434994D1*
X482963Y1433071D1*
X481062Y1430219D1*
X471489Y1420646D1*
X484886D1*
X502536Y1440720D2*
X492985D1*
X492035Y1432120D1*
X492985Y1433071D1*
X495859Y1434043D1*
X498711D1*
X501585Y1433071D1*
X503509Y1431169D1*
X504459Y1428295D1*
Y1426394D1*
X503509Y1423520D1*
X501585Y1421597D1*
X498711Y1420646D1*
X495859D1*
X492985Y1421597D1*
X492035Y1422569D1*
X491062Y1424471D1*
X478415Y1138384D2*
X477464Y1140285D1*
X475541Y1142209D1*
X473640Y1143159D1*
X469815D1*
X467892Y1142209D1*
X465990Y1140285D1*
X465018Y1138384D1*
X464067Y1135510D1*
Y1130713D1*
X465018Y1127861D1*
X465990Y1125937D1*
X467892Y1124036D1*
X469815Y1123063D1*
X473640D1*
X475541Y1124036D1*
X477464Y1125937D1*
X478415Y1127861D1*
X485564Y1138362D2*
Y1139313D1*
X486514Y1141236D1*
X487465Y1142187D1*
X489388Y1143137D1*
X493213D1*
X495114Y1142187D1*
X496065Y1141236D1*
X497037Y1139313D1*
Y1137411D1*
X496065Y1135488D1*
X494163Y1132636D1*
X484591Y1123063D1*
X497988D1*
X515638Y1140285D2*
X514687Y1142187D1*
X511813Y1143137D1*
X509912D1*
X507038Y1142187D1*
X505114Y1139313D1*
X504164Y1134537D1*
Y1129762D1*
X505114Y1125937D1*
X507038Y1124014D1*
X509912Y1123063D1*
X510862D1*
X513714Y1124014D1*
X515638Y1125937D1*
X516588Y1128811D1*
Y1129762D1*
X515638Y1132636D1*
X513714Y1134537D1*
X510862Y1135488D1*
X509912D1*
X507038Y1134537D1*
X505114Y1132636D1*
X504164Y1129762D1*
X1296667Y1167565D2*
X1295716Y1169466D1*
X1293793Y1171389D1*
X1291891Y1172340D1*
X1288067D1*
X1286143Y1171389D1*
X1284242Y1169466D1*
X1283269Y1167565D1*
X1282319Y1164691D1*
Y1159893D1*
X1283270Y1157041D1*
X1284242Y1155118D1*
X1286144Y1153217D1*
X1288067Y1152244D1*
X1291892D1*
X1293793Y1153217D1*
X1295716Y1155118D1*
X1296667Y1157042D1*
X1303815Y1167543D2*
Y1168494D1*
X1304766Y1170417D1*
X1305716Y1171368D1*
X1307640Y1172318D1*
X1311464D1*
X1313366Y1171368D1*
X1314316Y1170417D1*
X1315289Y1168494D1*
Y1166593D1*
X1314316Y1164669D1*
X1312415Y1161817D1*
X1302843Y1152244D1*
X1316240Y1152245D1*
X1326240D2*
X1335813Y1172319D1*
X1322415D1*
X1285411Y1467744D2*
X1284460Y1469645D1*
X1282537Y1471568D1*
X1280636Y1472519D1*
X1276811D1*
X1274888Y1471568D1*
X1272986Y1469645D1*
X1272014Y1467744D1*
X1271063Y1464870D1*
Y1460072D1*
X1272014Y1457220D1*
X1272986Y1455297D1*
X1274888Y1453396D1*
X1276811Y1452423D1*
X1280636D1*
X1282537Y1453396D1*
X1284460Y1455297D1*
X1285411Y1457220D1*
X1292559Y1467721D2*
Y1468672D1*
X1293510Y1470596D1*
X1294461Y1471546D1*
X1296384Y1472497D1*
X1300209D1*
X1302110Y1471546D1*
X1303061Y1470596D1*
X1304033Y1468672D1*
Y1466771D1*
X1303061Y1464847D1*
X1301159Y1461996D1*
X1291587Y1452423D1*
X1304984D1*
X1315935Y1472497D2*
X1313083Y1471546D1*
X1312110Y1469645D1*
Y1467721D1*
X1313083Y1465820D1*
X1314984Y1464847D1*
X1318809Y1463897D1*
X1321683Y1462946D1*
X1323584Y1461023D1*
X1324535Y1459122D1*
Y1456248D1*
X1323584Y1454346D1*
X1322634Y1453374D1*
X1319760Y1452423D1*
X1315935D1*
X1313083Y1453374D1*
X1312110Y1454346D1*
X1311160Y1456248D1*
Y1459122D1*
X1312110Y1461023D1*
X1314034Y1462946D1*
X1316886Y1463897D1*
X1320710Y1464847D1*
X1322634Y1465820D1*
X1323584Y1467721D1*
Y1469645D1*
X1322634Y1471546D1*
X1319760Y1472497D1*
X1315935D1*
X2227121Y1287435D2*
X2226170Y1289336D1*
X2224247Y1291260D1*
X2222345Y1292210D1*
X2218521D1*
X2216597Y1291260D1*
X2214696Y1289336D1*
X2213723Y1287435D1*
X2212773Y1284561D1*
Y1279764D1*
X2213723Y1276912D1*
X2214696Y1274989D1*
X2216597Y1273087D1*
X2218521Y1272114D1*
X2222345D1*
X2224247Y1273087D1*
X2226170Y1274989D1*
X2227121Y1276912D1*
X2234269Y1287413D2*
Y1288364D1*
X2235220Y1290287D1*
X2236170Y1291238D1*
X2238094Y1292188D1*
X2241918D1*
X2243820Y1291238D1*
X2244770Y1290287D1*
X2245743Y1288364D1*
Y1286462D1*
X2244770Y1284539D1*
X2242869Y1281687D1*
X2233296Y1272114D1*
X2246694D1*
X2265316Y1285512D2*
X2264343Y1282638D1*
X2262442Y1280714D1*
X2259568Y1279764D1*
X2258617D1*
X2255743Y1280714D1*
X2253842Y1282638D1*
X2252869Y1285512D1*
Y1286462D1*
X2253842Y1289336D1*
X2255743Y1291238D1*
X2258617Y1292188D1*
X2259568D1*
X2262442Y1291238D1*
X2264343Y1289336D1*
X2265316Y1285512D1*
Y1280714D1*
X2264343Y1275939D1*
X2262442Y1273065D1*
X2259568Y1272114D1*
X2257667D1*
X2254793Y1273065D1*
X2253842Y1274989D1*
X1485517Y1289129D2*
X1484566Y1291031D1*
X1482643Y1292954D1*
X1480741Y1293905D1*
X1476917D1*
X1474993Y1292954D1*
X1473092Y1291031D1*
X1472119Y1289129D1*
X1471169Y1286255D1*
Y1281458D1*
X1472119Y1278606D1*
X1473092Y1276683D1*
X1474993Y1274781D1*
X1476917Y1273809D1*
X1480741D1*
X1482643Y1274781D1*
X1484566Y1276683D1*
X1485517Y1278606D1*
X1493616Y1293883D2*
X1504117D1*
X1498391Y1286233D1*
X1501265D1*
X1503166Y1285283D1*
X1504117Y1284332D1*
X1505090Y1281458D1*
Y1279557D1*
X1504117Y1276683D1*
X1502216Y1274759D1*
X1499342Y1273809D1*
X1496468D1*
X1493616Y1274759D1*
X1492665Y1275732D1*
X1491692Y1277633D1*
X1517013Y1293883D2*
X1514139Y1292932D1*
X1512216Y1290058D1*
X1511265Y1285283D1*
Y1282409D1*
X1512216Y1277633D1*
X1514139Y1274759D1*
X1517013Y1273809D1*
X1518915D1*
X1521789Y1274759D1*
X1523690Y1277633D1*
X1524663Y1282409D1*
Y1285283D1*
X1523690Y1290058D1*
X1521789Y1292932D1*
X1518915Y1293883D1*
X1517013D1*
X1523690Y1290058D2*
X1512216Y1277633D1*
X1573803Y2547014D2*
X1572853Y2548915D1*
X1570929Y2550839D1*
X1569028Y2551789D1*
X1565204D1*
X1563280Y2550839D1*
X1561379Y2548915D1*
X1560406Y2547014D1*
X1559455Y2544140D1*
Y2539343D1*
X1560406Y2536491D1*
X1561379Y2534567D1*
X1563280Y2532666D1*
X1565204Y2531693D1*
X1569028D1*
X1570929Y2532666D1*
X1572853Y2534567D1*
X1573803Y2536491D1*
X1581903Y2551767D2*
X1592404D1*
X1586678Y2544118D1*
X1589552D1*
X1591453Y2543167D1*
X1592404Y2542217D1*
X1593377Y2539343D1*
Y2537441D1*
X1592404Y2534567D1*
X1590502Y2532644D1*
X1587628Y2531693D1*
X1584754D1*
X1581903Y2532644D1*
X1580952Y2533617D1*
X1579979Y2535518D1*
X1599552Y2547942D2*
X1601476Y2548915D1*
X1604350Y2551767D1*
Y2531693D1*
X1784003Y4341399D2*
Y4321303D1*
X1790701D1*
X1793575Y4322276D1*
X1795499Y4324177D1*
X1796449Y4326101D1*
X1797400Y4328953D1*
Y4333750D1*
X1796449Y4336624D1*
X1795499Y4338525D1*
X1793575Y4340449D1*
X1790701Y4341399D1*
X1784003D1*
X1805499Y4341377D2*
X1816000D1*
X1810274Y4333728D1*
X1813148D1*
X1815050Y4332777D1*
X1816000Y4331827D1*
X1816973Y4328953D1*
Y4327051D1*
X1816000Y4324177D1*
X1814099Y4322254D1*
X1811225Y4321303D1*
X1808351D1*
X1805499Y4322254D1*
X1804548Y4323227D1*
X1803576Y4325128D1*
X1041508Y4314452D2*
Y4294356D1*
X1062032Y4309677D2*
X1061082Y4311578D1*
X1059158Y4313501D1*
X1057257Y4314452D1*
X1053432D1*
X1051509Y4313501D1*
X1049608Y4311578D1*
X1048635Y4309677D1*
X1047684Y4306803D1*
Y4302005D1*
X1048635Y4299153D1*
X1049608Y4297230D1*
X1051509Y4295329D1*
X1053432Y4294356D1*
X1057257D1*
X1059158Y4295329D1*
X1061082Y4297230D1*
X1062032Y4299153D1*
X1068208Y4310605D2*
X1070131Y4311578D1*
X1073005Y4314430D1*
Y4294356D1*
X2026781Y3346511D2*
Y3326415D1*
X2047304Y3341736D2*
X2046354Y3343637D1*
X2044430Y3345560D1*
X2042529Y3346511D1*
X2038704D1*
X2036781Y3345560D1*
X2034880Y3343637D1*
X2033907Y3341736D1*
X2032956Y3338862D1*
Y3334064D1*
X2033907Y3331212D1*
X2034880Y3329289D1*
X2036781Y3327388D1*
X2038704Y3326415D1*
X2042529D1*
X2044430Y3327388D1*
X2046354Y3329289D1*
X2047304Y3331212D1*
X2054453Y3341714D2*
Y3342664D1*
X2055403Y3344588D1*
X2056354Y3345538D1*
X2058277Y3346489D1*
X2062102D1*
X2064003Y3345538D1*
X2064954Y3344588D1*
X2065927Y3342664D1*
Y3340763D1*
X2064954Y3338840D1*
X2063053Y3335988D1*
X2053480Y3326415D1*
X2066877D1*
X1692492Y3546995D2*
Y3526899D1*
X1713016Y3542220D2*
X1712065Y3544121D1*
X1710142Y3546045D1*
X1708240Y3546995D1*
X1704416D1*
X1702492Y3546045D1*
X1700591Y3544121D1*
X1699618Y3542220D1*
X1698668Y3539346D1*
Y3534549D1*
X1699618Y3531697D1*
X1700591Y3529773D1*
X1702492Y3527872D1*
X1704416Y3526899D1*
X1708240D1*
X1710142Y3527872D1*
X1712065Y3529773D1*
X1713016Y3531697D1*
X1721115Y3546973D2*
X1731616D1*
X1725890Y3539324D1*
X1728764D1*
X1730665Y3538373D1*
X1731616Y3537423D1*
X1732589Y3534549D1*
Y3532647D1*
X1731616Y3529773D1*
X1729715Y3527850D1*
X1726841Y3526899D1*
X1723967D1*
X1721115Y3527850D1*
X1720164Y3528823D1*
X1719191Y3530724D1*
X1929972Y3162527D2*
Y3142431D1*
X1950496Y3157751D2*
X1949545Y3159653D1*
X1947622Y3161576D1*
X1945720Y3162527D1*
X1941896D1*
X1939972Y3161576D1*
X1938071Y3159653D1*
X1937098Y3157751D1*
X1936148Y3154877D1*
Y3150080D1*
X1937098Y3147228D1*
X1938071Y3145305D1*
X1939972Y3143404D1*
X1941896Y3142431D1*
X1945720D1*
X1947622Y3143404D1*
X1949545Y3145305D1*
X1950496Y3147228D1*
X1966244Y3142431D2*
Y3162505D1*
X1956671Y3149129D1*
X1971019D1*
X2343281Y3621867D2*
X2363377D1*
X2348057Y3642391D2*
X2346155Y3641440D1*
X2344232Y3639517D1*
X2343281Y3637616D1*
Y3633791D1*
X2344232Y3631868D1*
X2346155Y3629966D1*
X2348057Y3628993D1*
X2350931Y3628043D1*
X2355728D1*
X2358580Y3628993D1*
X2360503Y3629966D1*
X2362405Y3631868D1*
X2363377Y3633791D1*
Y3637616D1*
X2362405Y3639517D1*
X2360503Y3641440D1*
X2358580Y3642391D1*
X2346155Y3660040D2*
X2344254Y3659090D1*
X2343303Y3656216D1*
Y3654315D1*
X2344254Y3651441D1*
X2347128Y3649517D1*
X2351903Y3648567D1*
X2356679D1*
X2360503Y3649517D1*
X2362427Y3651441D1*
X2363377Y3654315D1*
Y3655265D1*
X2362427Y3658117D1*
X2360503Y3660040D1*
X2357629Y3660991D1*
X2356679D1*
X2353805Y3660040D1*
X2351903Y3658117D1*
X2350953Y3655265D1*
Y3654315D1*
X2351903Y3651441D1*
X2353805Y3649517D1*
X2356679Y3648567D1*
X597894Y3955620D2*
X582595D1*
X579721Y3956571D1*
X578771Y3957543D1*
X577798Y3959445D1*
Y3961368D1*
X578771Y3963269D1*
X579721Y3964220D1*
X582595Y3965193D1*
X584497D1*
X587371Y3949444D2*
Y3940822D1*
X588321Y3937970D1*
X589294Y3936998D1*
X591195Y3936047D1*
X594069D1*
X595970Y3936998D1*
X596943Y3937970D1*
X597894Y3940822D1*
Y3949444D1*
X577798D1*
X593096Y3928899D2*
X594047D1*
X595970Y3927948D1*
X596921Y3926997D1*
X597872Y3925074D1*
Y3921249D1*
X596921Y3919348D1*
X595970Y3918397D1*
X594047Y3917425D1*
X592146D1*
X590222Y3918397D1*
X587371Y3920299D1*
X577798Y3929871D1*
Y3916474D1*
X1105245Y4066637D2*
X1120543D1*
X1123417Y4065687D1*
X1124368Y4064714D1*
X1125341Y4062813D1*
Y4060889D1*
X1124368Y4058988D1*
X1123417Y4058037D1*
X1120543Y4057065D1*
X1118642D1*
X1115768Y4072813D2*
Y4081435D1*
X1114817Y4084287D1*
X1113844Y4085260D1*
X1111943Y4086210D1*
X1109069D1*
X1107168Y4085260D1*
X1106195Y4084287D1*
X1105245Y4081435D1*
Y4072813D1*
X1125341D1*
X1105267Y4094309D2*
Y4104811D1*
X1112916Y4099085D1*
Y4101959D1*
X1113867Y4103860D1*
X1114817Y4104811D1*
X1117691Y4105783D1*
X1119593D1*
X1122467Y4104811D1*
X1124390Y4102909D1*
X1125341Y4100035D1*
Y4097161D1*
X1124390Y4094309D1*
X1123417Y4093359D1*
X1121516Y4092386D1*
X1424268Y3295426D2*
Y3275330D1*
X1435742D1*
X1441918Y3291579D2*
X1443841Y3292552D1*
X1446715Y3295404D1*
Y3275330D1*
X611607Y3014065D2*
X609706Y3013136D1*
X607783Y3011213D1*
X606832Y3009290D1*
X605859Y3006416D1*
Y3001640D1*
X606832Y2998766D1*
X607783Y2996865D1*
X609706Y2994942D1*
X611607Y2993991D1*
X615432D1*
X617355Y2994942D1*
X619257Y2996865D1*
X620207Y2998766D1*
X621180Y3001640D1*
Y3006416D1*
X620207Y3009290D1*
X619257Y3011213D1*
X617355Y3013136D1*
X615432Y3014065D1*
X611607D1*
X614481Y2997816D2*
X620207Y2992068D1*
X627356Y3010218D2*
X629279Y3011191D1*
X632153Y3014043D1*
Y2993969D1*
X908764Y2611494D2*
X906863Y2610565D1*
X904939Y2608642D1*
X903989Y2606719D1*
X903016Y2603845D1*
Y2599069D1*
X903989Y2596195D1*
X904939Y2594294D1*
X906863Y2592371D1*
X908764Y2591420D1*
X912589D1*
X914512Y2592371D1*
X916413Y2594294D1*
X917364Y2596195D1*
X918337Y2599069D1*
Y2603845D1*
X917364Y2606719D1*
X916413Y2608642D1*
X914512Y2610565D1*
X912589Y2611494D1*
X908764D1*
X911638Y2595245D2*
X917364Y2589497D1*
X925485Y2606697D2*
Y2607647D1*
X926436Y2609571D1*
X927386Y2610521D1*
X929310Y2611472D1*
X933134D1*
X935036Y2610521D1*
X935986Y2609571D1*
X936959Y2607647D1*
Y2605746D1*
X935986Y2603823D1*
X934085Y2600971D1*
X924512Y2591398D1*
X937910D1*
X677217Y2616029D2*
X675316Y2615101D1*
X673392Y2613177D1*
X672442Y2611254D1*
X671469Y2608380D1*
Y2603605D1*
X672442Y2600731D1*
X673392Y2598830D1*
X675316Y2596906D1*
X677217Y2595955D1*
X681041D1*
X682965Y2596906D1*
X684866Y2598830D1*
X685817Y2600731D1*
X686790Y2603605D1*
Y2608380D1*
X685817Y2611254D1*
X684866Y2613177D1*
X682965Y2615101D1*
X681041Y2616029D1*
X677217D1*
X680091Y2599780D2*
X685817Y2594032D1*
X694889Y2616007D2*
X705390D1*
X699664Y2608358D1*
X702538D1*
X704439Y2607407D1*
X705390Y2606457D1*
X706363Y2603583D1*
Y2601681D1*
X705390Y2598807D1*
X703489Y2596884D1*
X700615Y2595933D1*
X697740D1*
X694889Y2596884D1*
X693938Y2597857D1*
X692965Y2599758D1*
X1292072Y2677584D2*
X1283472D1*
X1280598Y2676611D1*
X1279625Y2675660D1*
X1278675Y2673759D1*
Y2671836D1*
X1279626Y2669934D1*
X1280598Y2668962D1*
X1283472Y2668011D1*
X1292072D1*
Y2688107D1*
X1285373Y2677584D2*
X1278675Y2688107D1*
X1271526Y2672808D2*
Y2671858D1*
X1270576Y2669934D1*
X1269625Y2668984D1*
X1267702Y2668033D1*
X1263877D1*
X1261976Y2668983D1*
X1261025Y2669934D1*
X1260053Y2671857D1*
X1260052Y2673759D1*
X1261025Y2675682D1*
X1262926Y2678534D1*
X1272499Y2688107D1*
X1259102D1*
X682291Y3631815D2*
X690891D1*
X693765Y3632788D1*
X694738Y3633738D1*
X695689Y3635640D1*
Y3637563D1*
X694738Y3639464D1*
X693765Y3640437D1*
X690891Y3641388D1*
X682291D1*
Y3621292D1*
X688990Y3631815D2*
X695689Y3621292D1*
X703788Y3641366D2*
X714289D1*
X708563Y3633716D1*
X711437D1*
X713338Y3632766D1*
X714289Y3631815D1*
X715262Y3628941D1*
Y3627040D1*
X714289Y3624166D1*
X712388Y3622242D1*
X709514Y3621292D1*
X706640D1*
X703788Y3622242D1*
X702837Y3623215D1*
X701864Y3625116D1*
X1260443Y3988898D2*
Y3997498D1*
X1259470Y4000372D1*
X1258520Y4001344D1*
X1256619Y4002295D1*
X1254695D1*
X1252794Y4001344D1*
X1251821Y4000372D1*
X1250871Y3997498D1*
Y3988898D1*
X1270967D1*
X1260443Y3995596D2*
X1270967Y4002295D1*
Y4018043D2*
X1250893D1*
X1264268Y4008471D1*
Y4022819D1*
X1293530Y3740604D2*
Y3749203D1*
X1292557Y3752078D1*
X1291606Y3753050D1*
X1289705Y3754001D1*
X1287782D1*
X1285881Y3753050D1*
X1284908Y3752078D1*
X1283957Y3749203D1*
Y3740604D1*
X1304053D1*
X1293530Y3747302D2*
X1304053Y3754001D1*
X1286831Y3771651D2*
X1284930Y3770700D1*
X1283979Y3767826D1*
Y3765925D1*
X1284930Y3763051D1*
X1287804Y3761127D1*
X1292579Y3760177D1*
X1297354D1*
X1301179Y3761127D1*
X1303103Y3763051D1*
X1304053Y3765925D1*
Y3766875D1*
X1303103Y3769727D1*
X1301179Y3771651D1*
X1298305Y3772601D1*
X1297354D1*
X1294480Y3771651D1*
X1292579Y3769727D1*
X1291629Y3766875D1*
Y3765925D1*
X1292579Y3763051D1*
X1294480Y3761127D1*
X1297354Y3760177D1*
X1317976Y3307442D2*
X1326575D1*
X1329449Y3308415D1*
X1330422Y3309365D1*
X1331373Y3311266D1*
Y3313190D1*
X1330422Y3315091D1*
X1329449Y3316064D1*
X1326575Y3317014D1*
X1317975D1*
X1317976Y3296918D1*
X1324674Y3307442D2*
X1331373Y3296919D1*
X1341373D2*
X1350946Y3316993D1*
X1337548D1*
X1140227Y3374705D2*
X1148827Y3374706D1*
X1151701Y3375678D1*
X1152673Y3376629D1*
X1153624Y3378530D1*
Y3380454D1*
X1152673Y3382355D1*
X1151701Y3383328D1*
X1148826Y3384278D1*
X1140227D1*
Y3364182D1*
X1146925Y3374705D2*
X1153624Y3364182D1*
X1164575Y3384256D2*
X1161723Y3383306D1*
X1160750Y3381404D1*
Y3379481D1*
X1161723Y3377580D1*
X1163624Y3376607D1*
X1167449Y3375657D1*
X1170323Y3374706D1*
X1172224Y3372783D1*
X1173175Y3370881D1*
Y3368007D1*
X1172225Y3366106D1*
X1171274Y3365133D1*
X1168400Y3364183D1*
X1164575D1*
X1161723Y3365133D1*
X1160751Y3366106D1*
X1159800Y3368007D1*
Y3370881D1*
X1160750Y3372782D1*
X1162674Y3374706D1*
X1165526Y3375657D1*
X1169350Y3376607D1*
X1171274Y3377580D1*
X1172224Y3379481D1*
Y3381405D1*
X1171274Y3383306D1*
X1168400Y3384257D1*
X1164575Y3384256D1*
X1900828Y3329963D2*
X1909428D1*
X1912302Y3330936D1*
X1913275Y3331887D1*
X1914226Y3333788D1*
Y3335711D1*
X1913275Y3337613D1*
X1912302Y3338585D1*
X1909428Y3339536D1*
X1900828D1*
Y3319440D1*
X1907527Y3329963D2*
X1914226Y3319440D1*
X1932848Y3332837D2*
X1931875Y3329963D1*
X1929974Y3328040D1*
X1927100Y3327089D1*
X1926149D1*
X1923275Y3328040D1*
X1921374Y3329963D1*
X1920401Y3332837D1*
Y3333788D1*
X1921374Y3336662D1*
X1923275Y3338563D1*
X1926149Y3339514D1*
X1927100D1*
X1929974Y3338563D1*
X1931875Y3336662D1*
X1932848Y3332837D1*
Y3328040D1*
X1931875Y3323265D1*
X1929974Y3320391D1*
X1927100Y3319440D1*
X1925199D1*
X1922325Y3320391D1*
X1921374Y3322314D1*
X1873909Y4576020D2*
X1882508D1*
X1885382Y4576992D1*
X1886355Y4577943D1*
X1887306Y4579844D1*
Y4581768D1*
X1886355Y4583669D1*
X1885382Y4584642D1*
X1882508Y4585592D1*
X1873909D1*
Y4565496D1*
X1880607Y4576020D2*
X1887306Y4565496D1*
X1893482Y4581746D2*
X1895405Y4582718D1*
X1898279Y4585570D1*
Y4565496D1*
X1910203Y4585570D2*
X1907329Y4584620D1*
X1905405Y4581746D1*
X1904455Y4576970D1*
Y4574096D1*
X1905405Y4569321D1*
X1907329Y4566447D1*
X1910203Y4565496D1*
X1912104D1*
X1914978Y4566447D1*
X1916879Y4569321D1*
X1917852Y4574096D1*
Y4576970D1*
X1916879Y4581746D1*
X1914978Y4584620D1*
X1912104Y4585570D1*
X1910203D1*
X1916879Y4581746D2*
X1905405Y4569321D1*
X2029315Y3393709D2*
X2037915D1*
X2040789Y3394681D1*
X2041762Y3395632D1*
X2042713Y3397533D1*
Y3399457D1*
X2041762Y3401358D1*
X2040789Y3402331D1*
X2037915Y3403281D1*
X2029315D1*
Y3383185D1*
X2036014Y3393709D2*
X2042713Y3383185D1*
X2048888Y3399435D2*
X2050812Y3400407D1*
X2053686Y3403259D1*
Y3383185D1*
X2060834Y3398484D2*
Y3399435D1*
X2061785Y3401358D1*
X2062735Y3402309D1*
X2064659Y3403259D1*
X2068484D1*
X2070385Y3402309D1*
X2071335Y3401358D1*
X2072308Y3399435D1*
Y3397533D1*
X2071335Y3395610D1*
X2069434Y3392758D1*
X2059861Y3383185D1*
X2073259D1*
X428109Y3333192D2*
Y3324592D1*
X429081Y3321718D1*
X430032Y3320746D1*
X431933Y3319795D1*
X433857D1*
X435758Y3320746D1*
X436731Y3321718D1*
X437681Y3324592D1*
Y3333192D1*
X417585D1*
X428109Y3326494D2*
X417585Y3319795D1*
X433835Y3313619D2*
X434807Y3311696D1*
X437659Y3308822D1*
X417585D1*
X437659Y3300723D2*
Y3290221D1*
X430010Y3295947D1*
Y3293073D1*
X429059Y3291172D1*
X428109Y3290221D1*
X425235Y3289249D1*
X423333D1*
X420459Y3290221D1*
X418536Y3292123D1*
X417585Y3294997D1*
Y3297871D1*
X418536Y3300723D1*
X419509Y3301673D1*
X421410Y3302646D1*
X2344736Y2874528D2*
Y2883128D1*
X2343763Y2886002D1*
X2342812Y2886975D1*
X2340911Y2887925D1*
X2338988D1*
X2337087Y2886975D1*
X2336114Y2886002D1*
X2335163Y2883128D1*
Y2874528D1*
X2355259D1*
X2344736Y2881227D2*
X2355259Y2887925D1*
X2339010Y2894101D2*
X2338037Y2896024D1*
X2335185Y2898898D1*
X2355259D1*
Y2914647D2*
X2335185D1*
X2348561Y2905074D1*
Y2919422D1*
X903037Y2514564D2*
X911637D1*
X914511Y2515537D1*
X915484Y2516488D1*
X916434Y2518389D1*
Y2520312D1*
X915484Y2522214D1*
X914511Y2523186D1*
X911637Y2524137D1*
X903037D1*
Y2504041D1*
X909736Y2514564D2*
X916434Y2504041D1*
X922610Y2520290D2*
X924534Y2521263D1*
X927408Y2524115D1*
Y2504041D1*
X945057Y2524115D2*
X935507D1*
X934556Y2515515D1*
X935507Y2516466D1*
X938381Y2517438D1*
X941233D1*
X944107Y2516466D1*
X946030Y2514564D1*
X946981Y2511690D1*
Y2509789D1*
X946030Y2506915D1*
X944107Y2504992D1*
X941233Y2504041D1*
X938381D1*
X935507Y2504992D1*
X934556Y2505964D1*
X933583Y2507866D1*
X830313Y2791799D2*
X838913D1*
X841787Y2792772D1*
X842760Y2793722D1*
X843711Y2795624D1*
Y2797547D1*
X842760Y2799448D1*
X841787Y2800421D1*
X838913Y2801372D1*
X830313D1*
X830314Y2781276D1*
X837012Y2791799D2*
X843711Y2781276D1*
X849886Y2797525D2*
X851810Y2798498D1*
X854684Y2801350D1*
Y2781276D1*
X872333Y2798498D2*
X871383Y2800400D1*
X868509Y2801350D1*
X866607D1*
X863733Y2800399D1*
X861810Y2797525D1*
X860859Y2792750D1*
X860860Y2787975D1*
X861810Y2784150D1*
X863734Y2782227D1*
X866608Y2781276D1*
X867558D1*
X870410Y2782227D1*
X872334Y2784150D1*
X873284Y2787024D1*
Y2787975D1*
X872333Y2790849D1*
X870410Y2792750D1*
X867558Y2793701D1*
X866607D1*
X863733Y2792750D1*
X861810Y2790849D1*
X860860Y2787975D1*
X2303343Y2704126D2*
X2311943D1*
X2314817Y2705099D1*
X2315790Y2706049D1*
X2316740Y2707951D1*
Y2709874D1*
X2315790Y2711775D1*
X2314817Y2712748D1*
X2311943Y2713699D1*
X2303343D1*
Y2693603D1*
X2310042Y2704126D2*
X2316740Y2693603D1*
X2322916Y2709852D2*
X2324839Y2710825D1*
X2327713Y2713677D1*
Y2693603D1*
X2337714D2*
X2347286Y2713677D1*
X2333889D1*
X2126616Y3114157D2*
X2135216D1*
X2138090Y3115130D1*
X2139063Y3116081D1*
X2140014Y3117982D1*
Y3119906D1*
X2139063Y3121807D1*
X2138090Y3122780D1*
X2135216Y3123730D1*
X2126616D1*
Y3103634D1*
X2133315Y3114157D2*
X2140014Y3103634D1*
X2146189Y3119883D2*
X2148113Y3120856D1*
X2150987Y3123708D1*
Y3103634D1*
X2161938Y3123708D2*
X2159086Y3122757D1*
X2158113Y3120856D1*
Y3118933D1*
X2159086Y3117032D1*
X2160987Y3116059D1*
X2164812Y3115108D1*
X2167686Y3114157D1*
X2169587Y3112234D1*
X2170538Y3110333D1*
Y3107459D1*
X2169587Y3105558D1*
X2168636Y3104585D1*
X2165762Y3103634D1*
X2161938D1*
X2159086Y3104585D1*
X2158113Y3105558D1*
X2157163Y3107459D1*
Y3110333D1*
X2158113Y3112234D1*
X2160037Y3114157D1*
X2162888Y3115108D1*
X2166713Y3116059D1*
X2168636Y3117032D1*
X2169587Y3118933D1*
Y3120856D1*
X2168636Y3122757D1*
X2165762Y3123708D1*
X2161938D1*
X2347563Y3525246D2*
Y3533846D1*
X2346590Y3536720D1*
X2345639Y3537693D1*
X2343738Y3538644D1*
X2341815D1*
X2339913Y3537693D1*
X2338941Y3536720D1*
X2337990Y3533846D1*
Y3525246D1*
X2358086D1*
X2347563Y3531945D2*
X2358086Y3538644D1*
X2341837Y3544819D2*
X2340864Y3546743D1*
X2338012Y3549617D1*
X2358086D1*
X2344689Y3568239D2*
X2347563Y3567266D1*
X2349486Y3565365D1*
X2350437Y3562491D1*
Y3561541D1*
X2349486Y3558667D1*
X2347563Y3556765D1*
X2344689Y3555792D1*
X2343738D1*
X2340864Y3556765D1*
X2338963Y3558667D1*
X2338012Y3561541D1*
Y3562491D1*
X2338963Y3565365D1*
X2340864Y3567266D1*
X2344689Y3568239D1*
X2349486D1*
X2354261Y3567266D1*
X2357135Y3565365D1*
X2358086Y3562491D1*
Y3560590D1*
X2357135Y3557716D1*
X2355212Y3556765D1*
X2115822Y3245672D2*
X2124422D1*
X2127296Y3246645D1*
X2128269Y3247595D1*
X2129220Y3249497D1*
Y3251420D1*
X2128269Y3253321D1*
X2127296Y3254294D1*
X2124422Y3255245D1*
X2115822D1*
Y3235149D1*
X2122521Y3245672D2*
X2129220Y3235149D1*
X2136368Y3250447D2*
Y3251398D1*
X2137319Y3253321D1*
X2138269Y3254272D1*
X2140193Y3255223D1*
X2144018D1*
X2145919Y3254272D1*
X2146869Y3253321D1*
X2147842Y3251398D1*
Y3249497D1*
X2146869Y3247573D1*
X2144968Y3244721D1*
X2135395Y3235149D1*
X2148793D1*
X2160717Y3255223D2*
X2157843Y3254272D1*
X2155919Y3251398D1*
X2154969Y3246623D1*
Y3243749D1*
X2155919Y3238973D1*
X2157843Y3236099D1*
X2160717Y3235149D1*
X2162618D1*
X2165492Y3236099D1*
X2167393Y3238973D1*
X2168366Y3243749D1*
Y3246623D1*
X2167393Y3251398D1*
X2165492Y3254272D1*
X2162618Y3255223D1*
X2160717D1*
X2167393Y3251398D2*
X2155919Y3238973D1*
X2023875Y3471014D2*
X2032475D1*
X2035349Y3471987D1*
X2036322Y3472938D1*
X2037272Y3474839D1*
Y3476762D1*
X2036322Y3478664D1*
X2035349Y3479636D1*
X2032475Y3480587D1*
X2023875D1*
Y3460491D1*
X2030574Y3471014D2*
X2037272Y3460491D1*
X2044421Y3475790D2*
Y3476740D1*
X2045371Y3478664D1*
X2046322Y3479614D1*
X2048245Y3480565D1*
X2052070D1*
X2053971Y3479614D1*
X2054922Y3478664D1*
X2055895Y3476740D1*
Y3474839D1*
X2054922Y3472916D1*
X2053021Y3470064D1*
X2043448Y3460491D1*
X2056845D1*
X2063994Y3475790D2*
Y3476740D1*
X2064944Y3478664D1*
X2065895Y3479614D1*
X2067818Y3480565D1*
X2071643D1*
X2073544Y3479614D1*
X2074495Y3478664D1*
X2075468Y3476740D1*
Y3474839D1*
X2074495Y3472916D1*
X2072594Y3470064D1*
X2063021Y3460491D1*
X2076418D1*
X830268Y4590852D2*
X838868D1*
X841742Y4591825D1*
X842715Y4592776D1*
X843665Y4594677D1*
Y4596601D1*
X842715Y4598502D1*
X841742Y4599474D1*
X838868Y4600425D1*
X830268D1*
Y4580329D1*
X836967Y4590852D2*
X843666Y4580329D1*
X850814Y4595628D2*
Y4596579D1*
X851764Y4598502D1*
X852715Y4599453D1*
X854638Y4600403D1*
X858463D1*
X860364Y4599453D1*
X861315Y4598502D1*
X862288Y4596579D1*
Y4594678D1*
X861315Y4592754D1*
X859414Y4589902D1*
X849842Y4580329D1*
X863239Y4580330D1*
X871337Y4600404D2*
X881839D1*
X876113Y4592754D1*
X878987Y4592755D1*
X880888Y4591804D1*
X881839Y4590853D1*
X882812Y4587979D1*
Y4586078D1*
X881839Y4583204D1*
X879938Y4581281D1*
X877064Y4580330D1*
X874190D1*
X871338Y4581280D1*
X870387Y4582253D1*
X869414Y4584154D1*
X1557825Y2843478D2*
X1566425D1*
X1569299Y2844450D1*
X1570272Y2845401D1*
X1571222Y2847302D1*
Y2849226D1*
X1570272Y2851127D1*
X1569299Y2852100D1*
X1566425Y2853050D1*
X1557825D1*
Y2832954D1*
X1564523Y2843478D2*
X1571222Y2832954D1*
X1578371Y2848253D2*
Y2849204D1*
X1579321Y2851127D1*
X1580272Y2852078D1*
X1582195Y2853028D1*
X1586020D1*
X1587921Y2852078D1*
X1588872Y2851127D1*
X1589845Y2849204D1*
Y2847302D1*
X1588872Y2845379D1*
X1586971Y2842527D1*
X1577398Y2832954D1*
X1590795D1*
X1606544D2*
Y2853028D1*
X1596971Y2839653D1*
X1611319D1*
X2340506Y3712920D2*
Y3721520D1*
X2339533Y3724394D1*
X2338583Y3725367D1*
X2336682Y3726317D1*
X2334758D1*
X2332857Y3725367D1*
X2331884Y3724394D1*
X2330934Y3721520D1*
Y3712920D1*
X2351030D1*
X2340506Y3719619D2*
X2351030Y3726317D1*
X2335731Y3733466D2*
X2334780D1*
X2332857Y3734416D1*
X2331906Y3735367D1*
X2330956Y3737290D1*
Y3741115D1*
X2331906Y3743016D1*
X2332857Y3743967D1*
X2334780Y3744940D1*
X2336682D1*
X2338605Y3743967D1*
X2341457Y3742066D1*
X2351030Y3732493D1*
Y3745890D1*
X2330956Y3763540D2*
Y3753989D1*
X2339556Y3753039D1*
X2338605Y3753989D1*
X2337632Y3756863D1*
Y3759715D1*
X2338605Y3762589D1*
X2340506Y3764513D1*
X2343380Y3765463D1*
X2345281D1*
X2348156Y3764513D1*
X2350079Y3762589D1*
X2351030Y3759715D1*
Y3756863D1*
X2350079Y3753989D1*
X2349106Y3753039D1*
X2347205Y3752066D1*
X1557269Y2702898D2*
X1565869D1*
X1568743Y2703870D1*
X1569716Y2704821D1*
X1570667Y2706722D1*
Y2708646D1*
X1569716Y2710547D1*
X1568743Y2711520D1*
X1565869Y2712470D1*
X1557269D1*
Y2692374D1*
X1563968Y2702898D2*
X1570667Y2692374D1*
X1577815Y2707673D2*
Y2708624D1*
X1578766Y2710547D1*
X1579716Y2711498D1*
X1581640Y2712448D1*
X1585465D1*
X1587366Y2711498D1*
X1588316Y2710547D1*
X1589289Y2708624D1*
Y2706722D1*
X1588316Y2704799D1*
X1586415Y2701947D1*
X1576842Y2692374D1*
X1590240D1*
X1607889Y2709596D2*
X1606939Y2711498D1*
X1604065Y2712448D1*
X1602164D1*
X1599290Y2711498D1*
X1597366Y2708624D1*
X1596416Y2703848D1*
Y2699073D1*
X1597366Y2695248D1*
X1599290Y2693325D1*
X1602164Y2692374D1*
X1603114D1*
X1605966Y2693325D1*
X1607889Y2695248D1*
X1608840Y2698122D1*
Y2699073D1*
X1607889Y2701947D1*
X1605966Y2703848D1*
X1603114Y2704799D1*
X1602164D1*
X1599290Y2703848D1*
X1597366Y2701947D1*
X1596416Y2699073D1*
X657624Y2514314D2*
X666224D1*
X669098Y2515286D1*
X670071Y2516237D1*
X671022Y2518138D1*
Y2520062D1*
X670071Y2521963D1*
X669098Y2522936D1*
X666224Y2523886D1*
X657624D1*
Y2503790D1*
X664323Y2514314D2*
X671022Y2503790D1*
X678170Y2519089D2*
Y2520040D1*
X679121Y2521963D1*
X680071Y2522914D1*
X681995Y2523864D1*
X685819D1*
X687721Y2522914D1*
X688671Y2521963D1*
X689644Y2520040D1*
Y2518138D1*
X688671Y2516215D1*
X686770Y2513363D1*
X677197Y2503790D1*
X690595D1*
X700595D2*
X710168Y2523864D1*
X696770D1*
X711657Y2791374D2*
X720257D1*
X723131Y2792346D1*
X724104Y2793297D1*
X725055Y2795198D1*
Y2797122D1*
X724104Y2799023D1*
X723131Y2799996D1*
X720257Y2800946D1*
X711657D1*
X711658Y2780850D1*
X718356Y2791374D2*
X725055Y2780850D1*
X732203Y2796149D2*
Y2797100D1*
X733154Y2799023D1*
X734104Y2799974D1*
X736028Y2800925D1*
X739852D1*
X741754Y2799974D1*
X742704Y2799023D1*
X743677Y2797100D1*
Y2795199D1*
X742704Y2793275D1*
X740803Y2790423D1*
X731231Y2780851D1*
X744628D1*
X755579Y2800925D2*
X752727Y2799974D1*
X751754Y2798073D1*
Y2796150D1*
X752727Y2794248D1*
X754628Y2793276D1*
X758453Y2792325D1*
X761327Y2791374D1*
X763228Y2789451D1*
X764179Y2787550D1*
Y2784676D1*
X763228Y2782775D1*
X762278Y2781802D1*
X759404Y2780851D1*
X755579D1*
X752727Y2781802D1*
X751754Y2782774D1*
X750804Y2784676D1*
Y2787550D1*
X751754Y2789451D1*
X753678Y2791374D1*
X756529Y2792325D1*
X760354Y2793276D1*
X762277Y2794248D1*
X763228Y2796150D1*
Y2798073D1*
X762277Y2799974D1*
X759403Y2800925D1*
X755579D1*
X1559539Y2950647D2*
X1568139D1*
X1571013Y2951620D1*
X1571986Y2952570D1*
X1572937Y2954472D1*
Y2956395D1*
X1571986Y2958296D1*
X1571013Y2959269D1*
X1568139Y2960220D1*
X1559539D1*
Y2940124D1*
X1566238Y2950647D2*
X1572937Y2940124D1*
X1580085Y2955422D2*
Y2956373D1*
X1581036Y2958296D1*
X1581986Y2959247D1*
X1583910Y2960198D1*
X1587734D1*
X1589636Y2959247D1*
X1590586Y2958296D1*
X1591559Y2956373D1*
Y2954472D1*
X1590586Y2952548D1*
X1588685Y2949696D1*
X1579112Y2940124D1*
X1592510D1*
X1611132Y2953521D2*
X1610159Y2950647D1*
X1608258Y2948724D1*
X1605384Y2947773D1*
X1604433D1*
X1601559Y2948724D1*
X1599658Y2950647D1*
X1598685Y2953521D1*
Y2954472D1*
X1599658Y2957346D1*
X1601559Y2959247D1*
X1604433Y2960198D1*
X1605384D1*
X1608258Y2959247D1*
X1610159Y2957346D1*
X1611132Y2953521D1*
Y2948724D1*
X1610159Y2943948D1*
X1608258Y2941074D1*
X1605384Y2940124D1*
X1603483D1*
X1600609Y2941074D1*
X1599658Y2942998D1*
X2027064Y3570320D2*
Y3561720D1*
X2028037Y3558846D1*
X2028987Y3557874D1*
X2030889Y3556923D1*
X2032812D1*
X2034713Y3557874D1*
X2035686Y3558846D1*
X2036637Y3561720D1*
Y3570320D1*
X2016541D1*
X2027064Y3563622D2*
X2016541Y3556923D1*
X2036615Y3548824D2*
Y3538323D1*
X2028965Y3544049D1*
Y3541175D1*
X2028015Y3539273D1*
X2027064Y3538323D1*
X2024190Y3537350D1*
X2022289D1*
X2019415Y3538323D1*
X2017491Y3540224D1*
X2016541Y3543098D1*
Y3545972D1*
X2017491Y3548824D1*
X2018464Y3549774D1*
X2020365Y3550747D1*
X2036615Y3525426D2*
X2035664Y3528300D1*
X2032790Y3530224D1*
X2028015Y3531174D1*
X2025141D1*
X2020365Y3530224D1*
X2017491Y3528300D1*
X2016541Y3525426D1*
Y3523525D1*
X2017491Y3520651D1*
X2020365Y3518750D1*
X2025141Y3517777D1*
X2028015D1*
X2032790Y3518750D1*
X2035664Y3520651D1*
X2036615Y3523525D1*
Y3525426D1*
X2032790Y3518750D2*
X2020365Y3530224D1*
X1559175Y3175461D2*
X1567775Y3175462D1*
X1570649Y3176435D1*
X1571622Y3177385D1*
X1572572Y3179286D1*
Y3181210D1*
X1571622Y3183111D1*
X1570649Y3184084D1*
X1567775Y3185034D1*
X1559175D1*
Y3164938D1*
X1565874Y3175462D2*
X1572573Y3164938D1*
X1580671Y3185013D2*
X1591173D1*
X1585447Y3177363D1*
X1588321Y3177364D1*
X1590222Y3176413D1*
X1591173Y3175462D1*
X1592146Y3172588D1*
Y3170687D1*
X1591173Y3167813D1*
X1589272Y3165890D1*
X1586398Y3164939D1*
X1583524D1*
X1580672Y3165889D1*
X1579721Y3166862D1*
X1578748Y3168763D1*
X1598321Y3181188D2*
X1600244Y3182161D1*
X1603118Y3185013D1*
X1603119Y3164939D1*
X466724Y1092264D2*
X475324D1*
X478198Y1093237D1*
X479171Y1094187D1*
X480121Y1096088D1*
Y1098012D1*
X479171Y1099913D1*
X478198Y1100886D1*
X475324Y1101836D1*
X466724D1*
Y1081740D1*
X473423Y1092264D2*
X480121Y1081740D1*
X488220Y1101814D2*
X498722D1*
X492996Y1094165D1*
X495870D1*
X497771Y1093214D1*
X498722Y1092264D1*
X499694Y1089390D1*
Y1087489D1*
X498722Y1084614D1*
X496820Y1082691D1*
X493946Y1081740D1*
X491072D1*
X488220Y1082691D1*
X487270Y1083664D1*
X486297Y1085565D1*
X506843Y1097039D2*
Y1097990D1*
X507793Y1099913D1*
X508744Y1100864D1*
X510667Y1101814D1*
X514492D1*
X516393Y1100864D1*
X517344Y1099913D1*
X518317Y1097990D1*
Y1096088D1*
X517344Y1094165D1*
X515443Y1091313D1*
X505870Y1081740D1*
X519267D1*
X1292284Y1064550D2*
X1300884D1*
X1303758Y1065523D1*
X1304731Y1066473D1*
X1305682Y1068375D1*
Y1070298D1*
X1304731Y1072199D1*
X1303758Y1073172D1*
X1300884Y1074123D1*
X1292284D1*
Y1054027D1*
X1298983Y1064550D2*
X1305682Y1054027D1*
X1313781Y1074100D2*
X1324282D1*
X1318556Y1066451D1*
X1321430D1*
X1323331Y1065501D1*
X1324282Y1064550D1*
X1325255Y1061676D1*
Y1059775D1*
X1324282Y1056901D1*
X1322381Y1054977D1*
X1319507Y1054027D1*
X1316633D1*
X1313781Y1054977D1*
X1312830Y1055950D1*
X1311857Y1057851D1*
X1333354Y1074100D2*
X1343855D1*
X1338129Y1066451D1*
X1341003D1*
X1342904Y1065501D1*
X1343855Y1064550D1*
X1344828Y1061676D1*
Y1059775D1*
X1343855Y1056901D1*
X1341954Y1054977D1*
X1339080Y1054027D1*
X1336206D1*
X1333354Y1054977D1*
X1332403Y1055950D1*
X1331430Y1057851D1*
X454308Y1506119D2*
X462908D1*
X465782Y1507092D1*
X466754Y1508043D1*
X467705Y1509944D1*
Y1511867D1*
X466754Y1513769D1*
X465782Y1514741D1*
X462908Y1515692D1*
X454308D1*
Y1495596D1*
X461006Y1506119D2*
X467705Y1495596D1*
X475804Y1515670D2*
X486305D1*
X480579Y1508021D1*
X483453D1*
X485355Y1507070D1*
X486305Y1506119D1*
X487278Y1503245D1*
Y1501344D1*
X486305Y1498470D1*
X484404Y1496547D1*
X481530Y1495596D1*
X478656D1*
X475804Y1496547D1*
X474854Y1497519D1*
X473881Y1499421D1*
X503027Y1495596D2*
Y1515670D1*
X493454Y1502295D1*
X507802D1*
X472551Y1329391D2*
X481151D1*
X484025Y1330364D1*
X484998Y1331315D1*
X485949Y1333216D1*
Y1335139D1*
X484998Y1337041D1*
X484025Y1338013D1*
X481151Y1338964D1*
X472551D1*
X472552Y1318868D1*
X479250Y1329391D2*
X485949Y1318868D1*
X494048Y1338942D2*
X504549D1*
X498823Y1331293D1*
X501697D1*
X503598Y1330342D1*
X504549Y1329392D1*
X505522Y1326518D1*
Y1324617D1*
X504549Y1321743D1*
X502648Y1319819D1*
X499774Y1318868D1*
X496900D1*
X494048Y1319819D1*
X493097Y1320792D1*
X492125Y1322693D1*
X523171Y1338943D2*
X513621D1*
X512670Y1330343D1*
X513621Y1331293D1*
X516495Y1332266D1*
X519347D1*
X522221Y1331294D1*
X524144Y1329392D1*
X525095Y1326518D1*
Y1324617D1*
X524144Y1321743D1*
X522221Y1319820D1*
X519347Y1318869D1*
X516495D1*
X513621Y1319819D1*
X512670Y1320792D1*
X511698Y1322693D1*
X458546Y1205996D2*
X467146D1*
X470020Y1206969D1*
X470993Y1207919D1*
X471944Y1209821D1*
Y1211744D1*
X470993Y1213645D1*
X470020Y1214618D1*
X467146Y1215569D1*
X458546D1*
Y1195473D1*
X465245Y1205996D2*
X471944Y1195473D1*
X480043Y1215547D2*
X490544D1*
X484818Y1207897D1*
X487692D1*
X489593Y1206947D1*
X490544Y1205996D1*
X491517Y1203122D1*
Y1201221D1*
X490544Y1198347D1*
X488643Y1196423D1*
X485769Y1195473D1*
X482895D1*
X480043Y1196423D1*
X479092Y1197396D1*
X478119Y1199297D1*
X509166Y1212695D2*
X508216Y1214596D1*
X505342Y1215547D1*
X503440D1*
X500566Y1214596D1*
X498643Y1211722D1*
X497692Y1206947D1*
Y1202171D1*
X498643Y1198347D1*
X500566Y1196423D1*
X503440Y1195473D1*
X504391D1*
X507243Y1196423D1*
X509166Y1198347D1*
X510117Y1201221D1*
Y1202171D1*
X509166Y1205045D1*
X507243Y1206947D1*
X504391Y1207897D1*
X503440D1*
X500566Y1206947D1*
X498643Y1205045D1*
X497692Y1202171D1*
X1288275Y1360987D2*
X1296875D1*
X1299749Y1361960D1*
X1300722Y1362910D1*
X1301673Y1364812D1*
Y1366735D1*
X1300722Y1368636D1*
X1299749Y1369609D1*
X1296875Y1370560D1*
X1288275D1*
Y1350464D1*
X1294974Y1360987D2*
X1301673Y1350464D1*
X1309772Y1370537D2*
X1320273D1*
X1314547Y1362888D1*
X1317421D1*
X1319322Y1361938D1*
X1320273Y1360987D1*
X1321246Y1358113D1*
Y1356212D1*
X1320273Y1353338D1*
X1318372Y1351414D1*
X1315498Y1350464D1*
X1312624D1*
X1309772Y1351414D1*
X1308821Y1352387D1*
X1307848Y1354288D1*
X1331246Y1350464D2*
X1340819Y1370537D1*
X1327421D1*
X1284603Y1510303D2*
X1293202D1*
X1296076Y1511276D1*
X1297049Y1512227D1*
X1298000Y1514128D1*
Y1516051D1*
X1297049Y1517952D1*
X1296076Y1518925D1*
X1293202Y1519876D1*
X1284603D1*
Y1499780D1*
X1291301Y1510303D2*
X1298000Y1499780D1*
X1306099Y1519854D2*
X1316600D1*
X1310874Y1512204D1*
X1313748D1*
X1315650Y1511254D1*
X1316600Y1510303D1*
X1317573Y1507429D1*
Y1505528D1*
X1316600Y1502654D1*
X1314699Y1500730D1*
X1311825Y1499780D1*
X1308951D1*
X1306099Y1500730D1*
X1305148Y1501703D1*
X1304176Y1503604D1*
X1328524Y1519854D2*
X1325672Y1518903D1*
X1324699Y1517002D1*
Y1515078D1*
X1325672Y1513177D1*
X1327573Y1512204D1*
X1331398Y1511254D1*
X1334272Y1510303D1*
X1336173Y1508380D1*
X1337124Y1506479D1*
Y1503604D1*
X1336173Y1501703D1*
X1335223Y1500730D1*
X1332349Y1499780D1*
X1328524D1*
X1325672Y1500730D1*
X1324699Y1501703D1*
X1323749Y1503604D1*
Y1506479D1*
X1324699Y1508380D1*
X1326623Y1510303D1*
X1329475Y1511254D1*
X1333299Y1512204D1*
X1335223Y1513177D1*
X1336173Y1515078D1*
Y1517002D1*
X1335223Y1518903D1*
X1332349Y1519854D1*
X1328524D1*
X1285789Y1210245D2*
X1294389D1*
X1297263Y1211218D1*
X1298236Y1212169D1*
X1299187Y1214070D1*
Y1215993D1*
X1298236Y1217895D1*
X1297263Y1218867D1*
X1294389Y1219818D1*
X1285789D1*
X1285790Y1199722D1*
X1292488Y1210245D2*
X1299187Y1199722D1*
X1314935D2*
Y1219796D1*
X1305362Y1206421D1*
X1319710D1*
X1331634Y1219797D2*
X1328760Y1218846D1*
X1326837Y1215972D1*
X1325886Y1211196D1*
Y1208322D1*
X1326837Y1203547D1*
X1328760Y1200673D1*
X1331634Y1199723D1*
X1333536D1*
X1336410Y1200673D1*
X1338311Y1203547D1*
X1339283Y1208323D1*
Y1211197D1*
X1338310Y1215972D1*
X1336409Y1218846D1*
X1333535Y1219797D1*
X1331634D1*
X1338310Y1215972D2*
X1326837Y1203547D1*
X1490818Y1361770D2*
X1499418D1*
X1502292Y1362743D1*
X1503264Y1363694D1*
X1504215Y1365595D1*
Y1367518D1*
X1503264Y1369420D1*
X1502292Y1370392D1*
X1499418Y1371343D1*
X1490818D1*
Y1351247D1*
X1497516Y1361770D2*
X1504215Y1351247D1*
X1519963D2*
Y1371321D1*
X1510391Y1357946D1*
X1524739D1*
X1530914Y1367496D2*
X1532838Y1368469D1*
X1535712Y1371321D1*
Y1351247D1*
X1469054Y1491940D2*
X1477654D1*
X1480528Y1492912D1*
X1481501Y1493863D1*
X1482452Y1495764D1*
Y1497688D1*
X1481501Y1499589D1*
X1480528Y1500562D1*
X1477654Y1501512D1*
X1469054D1*
Y1481416D1*
X1475753Y1491940D2*
X1482452Y1481416D1*
X1498200D2*
Y1501490D1*
X1488628Y1488115D1*
X1502975D1*
X1510124Y1496715D2*
Y1497666D1*
X1511075Y1499589D1*
X1512025Y1500540D1*
X1513949Y1501490D1*
X1517773D1*
X1519674Y1500540D1*
X1520625Y1499589D1*
X1521598Y1497666D1*
Y1495764D1*
X1520625Y1493841D1*
X1518724Y1490989D1*
X1509151Y1481416D1*
X1522549D1*
X1456422Y1205764D2*
X1465022D1*
X1467896Y1206737D1*
X1468868Y1207687D1*
X1469819Y1209588D1*
Y1211512D1*
X1468868Y1213413D1*
X1467896Y1214386D1*
X1465022Y1215336D1*
X1456422D1*
Y1195240D1*
X1463120Y1205764D2*
X1469819Y1195240D1*
X1485567D2*
Y1215314D1*
X1475995Y1201939D1*
X1490343D1*
X1506091Y1195240D2*
Y1215314D1*
X1496518Y1201939D1*
X1510866D1*
X1470051Y1061829D2*
X1478650D1*
X1481524Y1062802D1*
X1482497Y1063753D1*
X1483448Y1065654D1*
Y1067577D1*
X1482497Y1069479D1*
X1481524Y1070451D1*
X1478650Y1071402D1*
X1470051D1*
Y1051306D1*
X1476749Y1061829D2*
X1483448Y1051306D1*
X1499196D2*
Y1071380D1*
X1489624Y1058005D1*
X1503972D1*
X1521621Y1071380D2*
X1512071D1*
X1511120Y1062780D1*
X1512071Y1063731D1*
X1514945Y1064703D1*
X1517797D1*
X1520671Y1063731D1*
X1522594Y1061829D1*
X1523545Y1058955D1*
Y1057054D1*
X1522594Y1054180D1*
X1520671Y1052257D1*
X1517797Y1051306D1*
X1514945D1*
X1512071Y1052257D1*
X1511120Y1053229D1*
X1510147Y1055131D1*
X2237142Y1206586D2*
X2245742Y1206587D1*
X2248616Y1207559D1*
X2249589Y1208510D1*
X2250540Y1210411D1*
Y1212335D1*
X2249589Y1214236D1*
X2248616Y1215209D1*
X2245742Y1216159D1*
X2237142D1*
X2237143Y1196063D1*
X2243841Y1206587D2*
X2250540Y1196064D1*
X2266289D2*
X2266288Y1216138D1*
X2256716Y1202762D1*
X2271064Y1202763D1*
X2281064Y1196065D2*
X2290636Y1216139D1*
X2277239Y1216138D1*
X2203478Y1057638D2*
X2212078D1*
X2214952Y1058611D1*
X2215924Y1059561D1*
X2216875Y1061462D1*
Y1063386D1*
X2215924Y1065287D1*
X2214952Y1066260D1*
X2212078Y1067210D1*
X2203478D1*
Y1047114D1*
X2210176Y1057638D2*
X2216875Y1047114D1*
X2232623D2*
Y1067188D1*
X2223051Y1053813D1*
X2237399D1*
X2248350Y1067188D2*
X2245498Y1066238D1*
X2244525Y1064336D1*
Y1062413D1*
X2245498Y1060512D1*
X2247399Y1059539D1*
X2251224Y1058588D1*
X2254098Y1057638D1*
X2255999Y1055714D1*
X2256950Y1053813D1*
Y1050939D1*
X2255999Y1049038D1*
X2255048Y1048065D1*
X2252174Y1047114D1*
X2248350D1*
X2245498Y1048065D1*
X2244525Y1049038D1*
X2243574Y1050939D1*
Y1053813D1*
X2244525Y1055714D1*
X2246448Y1057638D1*
X2249300Y1058588D1*
X2253125Y1059539D1*
X2255048Y1060512D1*
X2255999Y1062413D1*
Y1064336D1*
X2255048Y1066238D1*
X2252174Y1067188D1*
X2248350D1*
X2241543Y1509374D2*
X2250143D1*
X2253017Y1510347D1*
X2253990Y1511297D1*
X2254940Y1513199D1*
Y1515122D1*
X2253990Y1517023D1*
X2253017Y1517996D1*
X2250143Y1518947D1*
X2241543D1*
Y1498851D1*
X2248242Y1509374D2*
X2254940Y1498851D1*
X2272590Y1518925D2*
X2263039D1*
X2262089Y1510325D1*
X2263039Y1511275D1*
X2265913Y1512248D1*
X2268765D1*
X2271639Y1511275D1*
X2273563Y1509374D1*
X2274513Y1506500D1*
Y1504599D1*
X2273563Y1501725D1*
X2271639Y1499801D1*
X2268765Y1498851D1*
X2265913D1*
X2263039Y1499801D1*
X2262089Y1500774D1*
X2261116Y1502675D1*
X2286437Y1518925D2*
X2283563Y1517974D1*
X2281640Y1515100D1*
X2280689Y1510325D1*
Y1507451D1*
X2281640Y1502675D1*
X2283563Y1499801D1*
X2286437Y1498851D1*
X2288338D1*
X2291212Y1499801D1*
X2293114Y1502675D1*
X2294086Y1507451D1*
Y1510325D1*
X2293114Y1515100D1*
X2291212Y1517974D1*
X2288338Y1518925D1*
X2286437D1*
X2293114Y1515100D2*
X2281640Y1502675D1*
X2201975Y1364299D2*
X2210575D1*
X2213449Y1365272D1*
X2214422Y1366223D1*
X2215373Y1368124D1*
Y1370047D1*
X2214422Y1371949D1*
X2213449Y1372921D1*
X2210575Y1373872D1*
X2201975D1*
Y1353776D1*
X2208674Y1364299D2*
X2215373Y1353776D1*
X2233022Y1373850D2*
X2223472D1*
X2222521Y1365250D1*
X2223472Y1366200D1*
X2226346Y1367173D1*
X2229198D1*
X2232072Y1366200D1*
X2233995Y1364299D1*
X2234946Y1361425D1*
Y1359524D1*
X2233995Y1356650D1*
X2232072Y1354727D1*
X2229198Y1353776D1*
X2226346D1*
X2223472Y1354727D1*
X2222521Y1355699D1*
X2221548Y1357601D1*
X2241122Y1370025D2*
X2243045Y1370998D1*
X2245919Y1373850D1*
Y1353776D1*
X1454420Y1423415D2*
X1463019D1*
X1465894Y1424387D1*
X1466866Y1425338D1*
X1467817Y1427239D1*
Y1429163D1*
X1466866Y1431064D1*
X1465894Y1432037D1*
X1463019Y1432987D1*
X1454420D1*
Y1412891D1*
X1461118Y1423415D2*
X1467817Y1412891D1*
X1485467Y1432965D2*
X1475916D1*
X1474965Y1424365D1*
X1475916Y1425316D1*
X1478790Y1426289D1*
X1481642D1*
X1484516Y1425316D1*
X1486439Y1423415D1*
X1487390Y1420541D1*
Y1418639D1*
X1486439Y1415765D1*
X1484516Y1413842D1*
X1481642Y1412891D1*
X1478790D1*
X1475916Y1413842D1*
X1474965Y1414815D1*
X1473993Y1416716D1*
X1494538Y1428190D2*
Y1429141D1*
X1495489Y1431064D1*
X1496440Y1432015D1*
X1498363Y1432965D1*
X1502188D1*
X1504089Y1432015D1*
X1505040Y1431064D1*
X1506012Y1429141D1*
Y1427239D1*
X1505040Y1425316D1*
X1503138Y1422464D1*
X1493566Y1412891D1*
X1506963D1*
X1466553Y1163600D2*
X1475153D1*
X1478027Y1164572D1*
X1479000Y1165523D1*
X1479951Y1167424D1*
Y1169348D1*
X1479000Y1171249D1*
X1478027Y1172222D1*
X1475153Y1173172D1*
X1466553D1*
Y1153076D1*
X1473252Y1163600D2*
X1479951Y1153076D1*
X1497600Y1173150D2*
X1488050D1*
X1487099Y1164550D1*
X1488050Y1165501D1*
X1490924Y1166474D1*
X1493776D1*
X1496650Y1165501D1*
X1498573Y1163600D1*
X1499524Y1160726D1*
Y1158824D1*
X1498573Y1155950D1*
X1496650Y1154027D1*
X1493776Y1153076D1*
X1490924D1*
X1488050Y1154027D1*
X1487099Y1155000D1*
X1486126Y1156901D1*
X1507623Y1173150D2*
X1518124D1*
X1512398Y1165501D1*
X1515272D1*
X1517173Y1164550D1*
X1518124Y1163600D1*
X1519097Y1160726D1*
Y1158824D1*
X1518124Y1155950D1*
X1516223Y1154027D1*
X1513349Y1153076D1*
X1510475D1*
X1507623Y1154027D1*
X1506672Y1155000D1*
X1505699Y1156901D1*
X2238788Y1134475D2*
X2247388D1*
X2250262Y1135448D1*
X2251235Y1136398D1*
X2252185Y1138300D1*
Y1140223D1*
X2251235Y1142124D1*
X2250262Y1143097D1*
X2247388Y1144048D1*
X2238788D1*
Y1123952D1*
X2245487Y1134475D2*
X2252185Y1123952D1*
X2269835Y1144026D2*
X2260284D1*
X2259334Y1135426D1*
X2260284Y1136376D1*
X2263159Y1137349D1*
X2266010D1*
X2268884Y1136376D1*
X2270808Y1134475D1*
X2271758Y1131601D1*
Y1129700D1*
X2270808Y1126826D1*
X2268884Y1124902D1*
X2266010Y1123952D1*
X2263159D1*
X2260284Y1124902D1*
X2259334Y1125875D1*
X2258361Y1127776D1*
X2287507Y1123952D2*
Y1144026D1*
X2277934Y1130650D1*
X2292282D1*
X2237486Y1432281D2*
X2246086D1*
X2248960Y1433254D1*
X2249933Y1434204D1*
X2250884Y1436106D1*
Y1438029D1*
X2249933Y1439930D1*
X2248960Y1440903D1*
X2246086Y1441854D1*
X2237486D1*
Y1421758D1*
X2244185Y1432281D2*
X2250884Y1421758D1*
X2268533Y1441831D2*
X2258983D1*
X2258032Y1433231D1*
X2258983Y1434182D1*
X2261857Y1435155D1*
X2264709D1*
X2267583Y1434182D1*
X2269506Y1432281D1*
X2270457Y1429407D1*
Y1427506D1*
X2269506Y1424632D1*
X2267583Y1422708D1*
X2264709Y1421758D1*
X2261857D1*
X2258983Y1422708D1*
X2258032Y1423681D1*
X2257060Y1425582D1*
X2288107Y1441831D2*
X2278556D1*
X2277605Y1433231D1*
X2278556Y1434182D1*
X2281430Y1435155D1*
X2284282D1*
X2287156Y1434182D1*
X2289079Y1432281D1*
X2290030Y1429407D1*
Y1427506D1*
X2289079Y1424632D1*
X2287156Y1422708D1*
X2284282Y1421758D1*
X2281430D1*
X2278556Y1422708D1*
X2277605Y1423681D1*
X2276633Y1425582D1*
X1555178Y2469518D2*
X1563778D1*
X1566652Y2470491D1*
X1567625Y2471442D1*
X1568575Y2473343D1*
Y2475266D1*
X1567625Y2477168D1*
X1566652Y2478140D1*
X1563778Y2479091D1*
X1555178D1*
Y2458995D1*
X1561877Y2469518D2*
X1568575Y2458995D1*
X1586225Y2479069D2*
X1576675D1*
X1575724Y2470469D1*
X1576675Y2471420D1*
X1579549Y2472392D1*
X1582400D1*
X1585274Y2471420D1*
X1587198Y2469518D1*
X1588148Y2466644D1*
Y2464743D1*
X1587198Y2461869D1*
X1585274Y2459946D1*
X1582400Y2458995D1*
X1579549D1*
X1576675Y2459946D1*
X1575724Y2460918D1*
X1574751Y2462820D1*
X1598149Y2458995D2*
X1607721Y2479069D1*
X1594324D1*
X1560802Y2622375D2*
X1569402D1*
X1572276Y2623348D1*
X1573249Y2624299D1*
X1574199Y2626200D1*
Y2628123D1*
X1573249Y2630025D1*
X1572276Y2630997D1*
X1569402Y2631948D1*
X1560802D1*
Y2611852D1*
X1567501Y2622375D2*
X1574199Y2611852D1*
X1591849Y2631926D2*
X1582298D1*
X1581348Y2623326D1*
X1582298Y2624277D1*
X1585172Y2625249D1*
X1588024D1*
X1590898Y2624277D1*
X1592822Y2622375D1*
X1593772Y2619501D1*
Y2617600D1*
X1592822Y2614726D1*
X1590898Y2612803D1*
X1588024Y2611852D1*
X1585172D1*
X1582298Y2612803D1*
X1581348Y2613775D1*
X1580375Y2615677D1*
X1604723Y2631926D2*
X1601871Y2630975D1*
X1600899Y2629074D1*
Y2627151D1*
X1601871Y2625249D1*
X1603773Y2624277D1*
X1607597Y2623326D1*
X1610471Y2622375D1*
X1612373Y2620452D1*
X1613323Y2618551D1*
Y2615677D1*
X1612373Y2613775D1*
X1611422Y2612803D1*
X1608548Y2611852D1*
X1604723D1*
X1601871Y2612803D1*
X1600899Y2613775D1*
X1599948Y2615677D1*
Y2618551D1*
X1600899Y2620452D1*
X1602822Y2622375D1*
X1605674Y2623326D1*
X1609499Y2624277D1*
X1611422Y2625249D1*
X1612373Y2627151D1*
Y2629074D1*
X1611422Y2630975D1*
X1608548Y2631926D1*
X1604723D1*
X1603401Y715181D2*
X1605302Y713257D1*
X1608176Y712307D1*
X1612001D1*
X1614875Y713257D1*
X1616798Y715181D1*
Y717082D1*
X1615825Y719005D1*
X1614875Y719956D1*
X1612973Y720907D1*
X1607225Y722830D1*
X1605302Y723781D1*
X1604351Y724753D1*
X1603401Y726655D1*
Y729529D1*
X1605302Y731430D1*
X1608176Y732403D1*
X1612001D1*
X1614875Y731430D1*
X1616798Y729529D1*
X1587652Y712307D2*
Y727605D1*
X1588603Y730479D1*
X1589576Y731430D1*
X1591477Y732403D1*
X1593400D1*
X1595301Y731430D1*
X1596252Y730479D1*
X1597225Y727605D1*
Y725704D1*
X1581476Y716153D2*
X1579553Y715181D1*
X1576679Y712329D1*
Y732403D1*
X923682Y1411569D2*
Y1397221D1*
X924633Y1394347D1*
X926556Y1392445D1*
X929430Y1391473D1*
X931331D1*
X934205Y1392445D1*
X936129Y1394347D1*
X937079Y1397221D1*
Y1411569D1*
X943255Y1407722D2*
X945178Y1408695D1*
X948052Y1411547D1*
Y1391473D1*
X2066883Y1297985D2*
X2052535D1*
X2049661Y1297035D1*
X2047760Y1295111D1*
X2046787Y1292237D1*
Y1290336D1*
X2047760Y1287462D1*
X2049661Y1285538D1*
X2052535Y1284588D1*
X2066883D1*
X2062086Y1277439D2*
X2063037D1*
X2064960Y1276489D1*
X2065911Y1275538D1*
X2066861Y1273615D1*
Y1269790D1*
X2065911Y1267889D1*
X2064960Y1266938D1*
X2063037Y1265965D1*
X2061135D1*
X2059212Y1266938D1*
X2056360Y1268839D1*
X2046787Y1278412D1*
Y1265015D1*
X2141883Y2535485D2*
X2127535D1*
X2124661Y2534535D1*
X2122760Y2532611D1*
X2121787Y2529737D1*
Y2527836D1*
X2122760Y2524962D1*
X2124661Y2523038D1*
X2127535Y2522088D1*
X2141883D1*
X2141861Y2513989D2*
Y2503488D1*
X2134212Y2509213D1*
Y2506339D1*
X2133261Y2504438D1*
X2132311Y2503488D1*
X2129437Y2502515D1*
X2127535D1*
X2124661Y2503488D1*
X2122738Y2505389D1*
X2121787Y2508263D1*
Y2511137D1*
X2122738Y2513989D1*
X2123711Y2514939D1*
X2125612Y2515912D1*
X2250589Y2625699D2*
X2249638Y2627600D1*
X2247715Y2629524D1*
X2245814Y2630474D1*
X2241989D1*
X2240065Y2629524D1*
X2238164Y2627600D1*
X2237191Y2625699D1*
X2236241Y2622825D1*
Y2618028D1*
X2237191Y2615176D1*
X2238164Y2613252D1*
X2240065Y2611351D1*
X2241989Y2610378D1*
X2245814D1*
X2247715Y2611351D1*
X2249638Y2613252D1*
X2250589Y2615176D1*
X2258688Y2630452D2*
X2269189D1*
X2263463Y2622803D1*
X2266337D1*
X2268238Y2621852D1*
X2269189Y2620902D1*
X2270162Y2618028D1*
Y2616126D1*
X2269189Y2613252D1*
X2267288Y2611329D1*
X2264414Y2610378D1*
X2261540D1*
X2258688Y2611329D1*
X2257737Y2612302D1*
X2256764Y2614203D1*
X2277310Y2625677D2*
Y2626628D1*
X2278261Y2628551D1*
X2279212Y2629502D1*
X2281135Y2630452D1*
X2284960D1*
X2286861Y2629502D1*
X2287811Y2628551D1*
X2288784Y2626628D1*
Y2624726D1*
X2287811Y2622803D1*
X2285910Y2619951D1*
X2276338Y2610378D1*
X2289735D1*
X2358053Y2403351D2*
Y2411951D1*
X2357081Y2414825D1*
X2356130Y2415797D1*
X2354229Y2416748D1*
X2352305D1*
X2350404Y2415797D1*
X2349431Y2414825D1*
X2348481Y2411951D1*
Y2403351D1*
X2368577D1*
X2358053Y2410049D2*
X2368577Y2416748D1*
X2348503Y2434398D2*
Y2424847D1*
X2357103Y2423896D1*
X2356152Y2424847D1*
X2355179Y2427721D1*
Y2430573D1*
X2356152Y2433447D1*
X2358053Y2435370D1*
X2360927Y2436321D1*
X2362829D1*
X2365703Y2435370D1*
X2367626Y2433447D1*
X2368577Y2430573D1*
Y2427721D1*
X2367626Y2424847D1*
X2366653Y2423896D1*
X2364752Y2422924D1*
X2355179Y2454943D2*
X2358053Y2453971D1*
X2359977Y2452069D1*
X2360927Y2449195D1*
Y2448245D1*
X2359977Y2445371D1*
X2358053Y2443469D1*
X2355179Y2442497D1*
X2354229D1*
X2351355Y2443469D1*
X2349454Y2445371D1*
X2348503Y2448245D1*
Y2449195D1*
X2349454Y2452069D1*
X2351355Y2453971D1*
X2355179Y2454943D1*
X2359977D1*
X2364752Y2453971D1*
X2367626Y2452069D1*
X2368577Y2449195D1*
Y2447294D1*
X2367626Y2444420D1*
X2365703Y2443469D1*
X2344741Y2481530D2*
Y2490130D1*
X2343768Y2493004D1*
X2342818Y2493976D1*
X2340916Y2494927D1*
X2338993D1*
X2337092Y2493976D1*
X2336119Y2493004D1*
X2335168Y2490130D1*
Y2481530D1*
X2355264D1*
X2344741Y2488228D2*
X2355264Y2494927D1*
X2338042Y2512577D2*
X2336141Y2511626D1*
X2335191Y2508752D1*
Y2506851D1*
X2336141Y2503977D1*
X2339015Y2502053D1*
X2343790Y2501103D1*
X2348566D1*
X2352390Y2502053D1*
X2354314Y2503977D1*
X2355264Y2506851D1*
Y2507801D1*
X2354314Y2510653D1*
X2352390Y2512577D1*
X2349516Y2513527D1*
X2348566D1*
X2345692Y2512577D1*
X2343790Y2510653D1*
X2342840Y2507801D1*
Y2506851D1*
X2343790Y2503977D1*
X2345692Y2502053D1*
X2348566Y2501103D1*
X2335191Y2525451D2*
X2336141Y2522577D1*
X2339015Y2520654D1*
X2343790Y2519703D1*
X2346664D1*
X2351440Y2520654D1*
X2354314Y2522577D1*
X2355264Y2525451D1*
Y2527352D1*
X2354314Y2530226D1*
X2351440Y2532128D1*
X2346664Y2533100D1*
X2343790D1*
X2339015Y2532128D1*
X2336141Y2530226D1*
X2335191Y2527352D1*
Y2525451D1*
X2339015Y2532128D2*
X2351440Y2520654D1*
X788429Y3127004D2*
Y3112656D1*
X789380Y3109782D1*
X791303Y3107881D1*
X794177Y3106908D1*
X796079D1*
X798953Y3107881D1*
X800876Y3109782D1*
X801827Y3112656D1*
Y3127004D1*
X822350Y3122229D2*
X821400Y3124130D1*
X819476Y3126054D1*
X817575Y3127004D1*
X813750D1*
X811827Y3126054D1*
X809926Y3124130D1*
X808953Y3122229D1*
X808002Y3119355D1*
Y3114558D1*
X808953Y3111706D1*
X809926Y3109782D1*
X811827Y3107881D1*
X813750Y3106908D1*
X817575D1*
X819476Y3107881D1*
X821400Y3109782D1*
X822350Y3111706D1*
X828526Y3123158D2*
X830449Y3124130D1*
X833323Y3126982D1*
Y3106908D1*
X1711307Y2394065D2*
X1710356Y2395966D1*
X1708433Y2397890D1*
X1706531Y2398840D1*
X1702707D1*
X1700783Y2397890D1*
X1698882Y2395966D1*
X1697909Y2394065D1*
X1696959Y2391191D1*
Y2386394D1*
X1697909Y2383542D1*
X1698882Y2381618D1*
X1700783Y2379717D1*
X1702707Y2378744D1*
X1706531D1*
X1708433Y2379717D1*
X1710356Y2381618D1*
X1711307Y2383542D1*
X1719406Y2398818D2*
X1729907D1*
X1724181Y2391169D1*
X1727055D1*
X1728956Y2390218D1*
X1729907Y2389268D1*
X1730880Y2386394D1*
Y2384492D1*
X1729907Y2381618D1*
X1728006Y2379695D1*
X1725132Y2378744D1*
X1722258D1*
X1719406Y2379695D1*
X1718455Y2380668D1*
X1717482Y2382569D1*
X1738979Y2398818D2*
X1749480D1*
X1743754Y2391169D1*
X1746628D1*
X1748529Y2390218D1*
X1749480Y2389268D1*
X1750453Y2386394D1*
Y2384492D1*
X1749480Y2381618D1*
X1747579Y2379695D1*
X1744705Y2378744D1*
X1741831D1*
X1738979Y2379695D1*
X1738028Y2380668D1*
X1737055Y2382569D1*
X1993997Y2637803D2*
X1993046Y2639704D1*
X1991123Y2641627D1*
X1989221Y2642578D1*
X1985397D1*
X1983473Y2641627D1*
X1981572Y2639704D1*
X1980599Y2637803D1*
X1979649Y2634929D1*
Y2630131D1*
X1980599Y2627279D1*
X1981572Y2625356D1*
X1983473Y2623455D1*
X1985397Y2622482D1*
X1989221D1*
X1991123Y2623455D1*
X1993046Y2625356D1*
X1993997Y2627279D1*
X2002096Y2642556D2*
X2012597D1*
X2006871Y2634907D1*
X2009745D1*
X2011646Y2633956D1*
X2012597Y2633005D1*
X2013570Y2630131D1*
Y2628230D1*
X2012597Y2625356D1*
X2010696Y2623433D1*
X2007822Y2622482D1*
X2004948D1*
X2002096Y2623433D1*
X2001145Y2624405D1*
X2000172Y2626307D1*
X2029318Y2622482D2*
Y2642556D1*
X2019745Y2629181D1*
X2034093D1*
X1983527Y2215466D2*
Y2201118D1*
X1984478Y2198244D1*
X1986401Y2196343D1*
X1989275Y2195370D1*
X1991177D1*
X1994051Y2196343D1*
X1995974Y2198244D1*
X1996925Y2201118D1*
Y2215466D1*
X2012673Y2195370D2*
Y2215444D1*
X2003100Y2202069D1*
X2017448D1*
X2215868Y2083853D2*
X2224467D1*
X2227341Y2084826D1*
X2228314Y2085776D1*
X2229265Y2087678D1*
Y2089601D1*
X2228314Y2091502D1*
X2227341Y2092475D1*
X2224467Y2093426D1*
X2215868D1*
Y2073330D1*
X2222566Y2083853D2*
X2229265Y2073330D1*
X2235441Y2093426D2*
Y2073330D1*
X2246915D1*
X2265515Y2093426D2*
X2253090D1*
Y2073330D1*
X2265515D1*
X2253090Y2083853D2*
X2260740D1*
X2271690Y2093426D2*
Y2073330D1*
X2278389D1*
X2281263Y2074302D1*
X2283187Y2076204D1*
X2284137Y2078127D1*
X2285088Y2080979D1*
Y2085776D1*
X2284137Y2088650D1*
X2283187Y2090552D1*
X2281263Y2092475D1*
X2278389Y2093426D1*
X2271690D1*
X2291264Y2089579D2*
X2293187Y2090552D1*
X2296061Y2093404D1*
Y2073330D1*
X2206155Y2182178D2*
X2214755D1*
X2217629Y2183151D1*
X2218602Y2184102D1*
X2219553Y2186003D1*
Y2187927D1*
X2218602Y2189828D1*
X2217629Y2190801D1*
X2214755Y2191751D1*
X2206155D1*
Y2171655D1*
X2212854Y2182178D2*
X2219553Y2171655D1*
X2225729Y2191751D2*
Y2171655D1*
X2237202D1*
X2255803Y2191751D2*
X2243378D1*
Y2171655D1*
X2255803D1*
X2243378Y2182178D2*
X2251027D1*
X2261978Y2191751D2*
Y2171655D1*
X2268677D1*
X2271551Y2172628D1*
X2273475Y2174529D1*
X2274425Y2176453D1*
X2275376Y2179304D1*
Y2184102D1*
X2274425Y2186976D1*
X2273475Y2188877D1*
X2271551Y2190801D1*
X2268677Y2191751D1*
X2261978D1*
X2282524Y2186954D2*
Y2187904D1*
X2283475Y2189828D1*
X2284426Y2190778D1*
X2286349Y2191729D1*
X2290174D1*
X2292075Y2190778D1*
X2293025Y2189828D1*
X2293998Y2187904D1*
Y2186003D1*
X2293025Y2184080D1*
X2291124Y2181228D1*
X2281551Y2171655D1*
X2294949D1*
X1610985Y2118902D2*
X1619585D1*
X1622459Y2119874D1*
X1623432Y2120825D1*
X1624382Y2122726D1*
Y2124650D1*
X1623432Y2126551D1*
X1622459Y2127524D1*
X1619585Y2128474D1*
X1610985D1*
Y2108378D1*
X1617684Y2118902D2*
X1624382Y2108378D1*
X1630558Y2128474D2*
Y2108378D1*
X1642032D1*
X1660632Y2128474D2*
X1648208D1*
Y2108378D1*
X1660632D1*
X1648208Y2118902D2*
X1655857D1*
X1666808Y2128474D2*
Y2108378D1*
X1673507D1*
X1676381Y2109351D1*
X1678304Y2111252D1*
X1679255Y2113176D1*
X1680205Y2116028D1*
Y2120825D1*
X1679255Y2123699D1*
X1678304Y2125600D1*
X1676381Y2127524D1*
X1673507Y2128474D1*
X1666808D1*
X1688304Y2128452D2*
X1698805D1*
X1693080Y2120803D1*
X1695954D1*
X1697855Y2119852D1*
X1698805Y2118902D1*
X1699778Y2116028D1*
Y2114126D1*
X1698805Y2111252D1*
X1696904Y2109329D1*
X1694030Y2108378D1*
X1691156D1*
X1688304Y2109329D1*
X1687354Y2110302D1*
X1686381Y2112203D1*
X1592918Y2064135D2*
X1601518D1*
X1604392Y2065108D1*
X1605364Y2066059D1*
X1606315Y2067960D1*
Y2069883D1*
X1605364Y2071784D1*
X1604392Y2072757D1*
X1601518Y2073708D1*
X1592918D1*
Y2053612D1*
X1599616Y2064135D2*
X1606315Y2053612D1*
X1612491Y2073708D2*
Y2053612D1*
X1623965D1*
X1642565Y2073708D2*
X1630140D1*
Y2053612D1*
X1642565D1*
X1630140Y2064135D2*
X1637790D1*
X1648741Y2073708D2*
Y2053612D1*
X1655439D1*
X1658313Y2054585D1*
X1660237Y2056486D1*
X1661187Y2058409D1*
X1662138Y2061261D1*
Y2066059D1*
X1661187Y2068933D1*
X1660237Y2070834D1*
X1658313Y2072757D1*
X1655439Y2073708D1*
X1648741D1*
X1677886Y2053612D2*
Y2073686D1*
X1668314Y2060311D1*
X1682662D1*
X2245087Y2233174D2*
X2244137Y2235075D1*
X2242213Y2236999D1*
X2240312Y2237949D1*
X2236488D1*
X2234564Y2236999D1*
X2232663Y2235075D1*
X2231690Y2233174D1*
X2230740Y2230300D1*
Y2225503D1*
X2231690Y2222651D1*
X2232663Y2220727D1*
X2234564Y2218826D1*
X2236488Y2217853D1*
X2240312D1*
X2242213Y2218826D1*
X2244137Y2220727D1*
X2245087Y2222651D1*
X2253187Y2237927D2*
X2263688D1*
X2257962Y2230278D1*
X2260836D1*
X2262737Y2229327D1*
X2263688Y2228377D1*
X2264661Y2225503D1*
Y2223601D1*
X2263688Y2220727D1*
X2261787Y2218804D1*
X2258912Y2217853D1*
X2256038D1*
X2253187Y2218804D1*
X2252236Y2219777D1*
X2251263Y2221678D1*
X2282310Y2237927D2*
X2272760D1*
X2271809Y2229327D1*
X2272760Y2230278D1*
X2275634Y2231251D1*
X2278486D1*
X2281360Y2230278D1*
X2283283Y2228377D1*
X2284234Y2225503D1*
Y2223601D1*
X2283283Y2220727D1*
X2281360Y2218804D1*
X2278486Y2217853D1*
X2275634D1*
X2272760Y2218804D1*
X2271809Y2219777D1*
X2270836Y2221678D1*
X1656601Y1876531D2*
X1655651Y1878432D1*
X1653727Y1880356D1*
X1651826Y1881306D1*
X1648001D1*
X1646078Y1880356D1*
X1644177Y1878432D1*
X1643204Y1876531D1*
X1642253Y1873657D1*
Y1868860D1*
X1643204Y1866008D1*
X1644177Y1864084D1*
X1646078Y1862183D1*
X1648001Y1861210D1*
X1651826D1*
X1653727Y1862183D1*
X1655651Y1864084D1*
X1656601Y1866008D1*
X1664700Y1881284D2*
X1675202D1*
X1669476Y1873635D1*
X1672350D1*
X1674251Y1872684D1*
X1675202Y1871734D1*
X1676174Y1868860D1*
Y1866958D1*
X1675202Y1864084D1*
X1673300Y1862161D1*
X1670426Y1861210D1*
X1667552D1*
X1664700Y1862161D1*
X1663750Y1863134D1*
X1662777Y1865035D1*
X1693824Y1878432D2*
X1692873Y1880334D1*
X1689999Y1881284D1*
X1688098D1*
X1685224Y1880334D1*
X1683301Y1877460D1*
X1682350Y1872684D1*
Y1867909D1*
X1683301Y1864084D1*
X1685224Y1862161D1*
X1688098Y1861210D1*
X1689049D1*
X1691901Y1862161D1*
X1693824Y1864084D1*
X1694775Y1866958D1*
Y1867909D1*
X1693824Y1870783D1*
X1691901Y1872684D1*
X1689049Y1873635D1*
X1688098D1*
X1685224Y1872684D1*
X1683301Y1870783D1*
X1682350Y1867909D1*
M02*
