G04 DipTrace 4.1.1.0*
G04 alps_final1.GTP*
%MOIN*%
G04 #@! TF.FileFunction,Paste,Top*
G04 #@! TF.Part,Single*
%AMOUTLINE12*
4,1,4,
-0.0125,-0.025,
0.0125,-0.025,
0.0125,0.025,
-0.0125,0.025,
-0.0125,-0.025,
0*%
%ADD63R,0.03137X0.002*%
%ADD65R,0.002X0.03137*%
%ADD71R,0.03137X0.047118*%
%ADD73R,0.11011X0.086488*%
%ADD75R,0.025465X0.019559*%
%ADD81R,0.03137X0.019559*%
%ADD83R,0.062866X0.007748*%
%ADD85R,0.032157X0.008142*%
%ADD87R,0.019559X0.03137*%
%ADD89R,0.142X0.071*%
%ADD91R,0.051X0.071*%
%ADD93R,0.03137X0.078614*%
%ADD95R,0.03137X0.035307*%
%ADD97R,0.035307X0.03137*%
%ADD99R,0.047118X0.094362*%
%ADD117OUTLINE12*%
%FSLAX26Y26*%
G04*
G70*
G90*
G75*
G01*
G04 TopPaste*
%LPD*%
D99*
X1877384Y3601694D3*
X1877381Y3763112D3*
X1632281Y3601694D3*
X1632278Y3763112D3*
D97*
X597987Y3173382D3*
X531057D3*
D99*
X1125489Y3594000D3*
X1125486Y3755417D3*
D97*
X1486714Y3316748D3*
X1553643D3*
X885332Y2905811D3*
X952261D3*
X752261D3*
X685332D3*
X641742Y3559855D3*
X574813Y3559854D3*
X774589Y4306934D3*
X707660Y4306932D3*
D95*
X975785Y3565457D3*
X975784Y3632386D3*
D97*
X1858952Y3269000D3*
X1792023D3*
X1636097Y3333360D3*
X1703026D3*
X1634277Y3266244D3*
X1701206D3*
X2297737Y2819661D3*
X2230808D3*
Y2969093D3*
X2297737D3*
X621452Y1281500D3*
X554523D3*
X2297737Y3181593D3*
X2230808D3*
X2067687Y3737299D3*
X2134616D3*
X1633106Y2746596D3*
X1700035D3*
Y2890346D3*
X1633106D3*
X1737988Y3031500D3*
X1671059D3*
X2135098Y3627500D3*
X2068169D3*
X1633106Y3115346D3*
X1700035D3*
X2242417Y3031501D3*
X2175488Y3031499D3*
X621452Y1431500D3*
X554523D3*
Y1131500D3*
X621452D3*
X1221452Y1131501D3*
X1154523Y1131499D3*
X1221452Y1431500D3*
X1154523D3*
X2171452Y1281500D3*
X2104523D3*
X1633952D3*
X1567023D3*
X1696452Y2506500D3*
X1629523D3*
D93*
X1750488Y4044000D3*
X1850488D3*
Y4268803D3*
X1750488D3*
D91*
X843257Y4060163D3*
X933257D3*
X1023257D3*
D89*
X932257Y4308163D3*
D87*
X1987988Y3344000D3*
X2025389Y3257386D3*
X1950586D3*
D85*
X1762199Y3415197D3*
Y3440787D3*
Y3466378D3*
Y3491969D3*
X1573223D3*
Y3466378D3*
Y3440787D3*
Y3415197D3*
D83*
X1837988Y3106500D3*
Y3080909D3*
Y3055319D3*
Y3029728D3*
Y3004138D3*
Y2978547D3*
X1837996Y2952957D3*
X2066334D3*
Y2978547D3*
Y3004138D3*
Y3029728D3*
Y3055319D3*
Y3080909D3*
Y3106500D3*
D81*
X2311853Y3643660D3*
X2225239Y3606259D3*
Y3681062D3*
D75*
X1415788Y3248290D3*
X1478780D3*
D73*
X907637Y3016948D3*
X708010D3*
D71*
X1012988Y2702102D3*
X1050389Y2615488D3*
X975586D3*
X587988Y2702102D3*
X625389Y2615488D3*
X550586D3*
D95*
X1225488Y2681500D3*
X1225487Y2748429D3*
D97*
X573379Y3642058D3*
X640308D3*
D95*
X1262485Y3957020D3*
Y3890091D3*
X1287988Y3706500D3*
Y3639571D3*
D97*
X1265403Y3326136D3*
X1198473Y3326134D3*
X1264914Y3394591D3*
X1197985Y3394590D3*
X1792023Y3331500D3*
X1858952D3*
X1864185Y4620496D3*
X1931114D3*
X1983952Y3419000D3*
X1917023D3*
X475488Y3319000D3*
X542417D3*
X2230808Y2894661D3*
X2297737D3*
X1046452Y2514602D3*
X979523D3*
D95*
X850488Y2677102D3*
X850487Y2744031D3*
D97*
X2297737Y2750912D3*
X2230808D3*
Y3106593D3*
X2297737D3*
X2300488Y3544000D3*
X2233559D3*
X2297737Y3250343D3*
X2230808D3*
X1983952Y3481500D3*
X1917023D3*
X901757Y4632611D3*
X834828Y4632609D3*
X1700035Y2815346D3*
X1633106D3*
X2226286Y3737579D3*
X2293215D3*
X1633106Y2671597D3*
X1700035D3*
X619237Y2514602D3*
X552308D3*
D95*
X737988Y2677102D3*
X737987Y2744031D3*
D97*
X1700035Y2959096D3*
X1633106D3*
X2066973Y3544256D3*
X2133903D3*
X1633106Y3184095D3*
X1700035Y3184097D3*
X621452Y1056500D3*
X554523D3*
X1154523D3*
X1221452D3*
X554523Y1506500D3*
X621452D3*
Y1356501D3*
X554523Y1356499D3*
Y1206500D3*
X621452D3*
X1154523Y1356500D3*
X1221452D3*
Y1506500D3*
X1154523D3*
X1221452Y1206501D3*
X1154523Y1206499D3*
X1567023Y1356500D3*
X1633952D3*
X1567023Y1506500D3*
X1633952D3*
X1567023Y1206500D3*
X1633952D3*
X1567023Y1056500D3*
X1633952D3*
X2171452Y1206501D3*
X2104523Y1206499D3*
X2171452Y1056500D3*
X2104523D3*
X2171452Y1506500D3*
X2104523D3*
X2171452Y1356500D3*
X2104523D3*
X1633952Y1431500D3*
X1567023D3*
X1633952Y1131500D3*
X1567023D3*
X2104523D3*
X2171452D3*
X2104523Y1431500D3*
X2171452D3*
X1629523Y2431500D3*
X1696452D3*
Y2581500D3*
X1629523D3*
G36*
X1636706Y741596D2*
Y821659D1*
X1556771D1*
Y741596D1*
X1636706D1*
G37*
D117*
X1614488Y781596D3*
X1581023D3*
D83*
X773815Y1358272D3*
Y1332681D3*
Y1307091D3*
Y1281500D3*
Y1255909D3*
Y1230319D3*
X773822Y1204728D3*
X1002161D3*
Y1230319D3*
Y1255909D3*
Y1281500D3*
Y1307091D3*
Y1332681D3*
Y1358272D3*
X1773815D3*
Y1332681D3*
Y1307091D3*
Y1281500D3*
Y1255909D3*
Y1230319D3*
X1773822Y1204728D3*
X2002161D3*
Y1230319D3*
Y1255909D3*
Y1281500D3*
Y1307091D3*
Y1332681D3*
Y1358272D3*
X1848815Y2557386D3*
Y2531795D3*
Y2506205D3*
Y2480614D3*
X2077161D3*
Y2506205D3*
Y2531795D3*
Y2557386D3*
D97*
X2296452Y2581500D3*
X2229523D3*
Y2431500D3*
X2296452D3*
Y2506500D3*
X2229523D3*
D65*
X700488Y3181500D3*
X720173D3*
X739858D3*
X759543D3*
X779228D3*
X798913D3*
X818598D3*
X838283D3*
X857968D3*
X877653D3*
X897338D3*
X917023D3*
D63*
X976078Y3240555D3*
Y3260240D3*
Y3279925D3*
Y3299610D3*
Y3319295D3*
Y3338980D3*
Y3358665D3*
Y3378350D3*
Y3398035D3*
Y3417720D3*
Y3437406D3*
Y3457091D3*
D65*
X917023Y3516146D3*
X897338D3*
X877653D3*
X857968D3*
X838283D3*
X818598D3*
X798913D3*
X779228D3*
X759543D3*
X739858D3*
X720173D3*
X700488D3*
D63*
X641433Y3457091D3*
Y3437406D3*
Y3417720D3*
Y3398035D3*
Y3378350D3*
Y3358665D3*
Y3338980D3*
Y3319295D3*
Y3299610D3*
Y3279925D3*
Y3260240D3*
Y3240555D3*
D97*
X1792023Y2406500D3*
X1858952D3*
X2067023Y2631500D3*
X2133952D3*
D83*
X1886315Y2164522D3*
Y2138932D3*
Y2113341D3*
Y2087751D3*
Y2062160D3*
Y2036570D3*
X1886322Y2010979D3*
X2114661D3*
Y2036570D3*
Y2062160D3*
Y2087751D3*
Y2113341D3*
Y2138932D3*
Y2164522D3*
D97*
X2210773Y2037751D3*
X2277702D3*
X2204523Y2137751D3*
X2271452D3*
X1790202Y2144000D3*
X1723273D3*
X1790202Y2044000D3*
X1723273D3*
X2189595Y2223738D3*
X2122666D3*
X1701979Y1913165D3*
X1635050D3*
M02*
