M48
INCH
T01C0.0118
T02C0.024
T03C0.032
T04C0.0394
T05C0.04
T06C0.043
T07C0.052
T08C0.084
%
T01
X+016752Y+021123
X+016567Y+021493
X+016067Y+021947
X+015817Y+022190
X+015462Y+020809
X+017626Y+020899
X+019285Y+020622
X+019304Y+021116
X+020068Y+021134
X+020634Y+020838
X+020442Y+020565
X+019898Y+020099
X+021192Y+019758
X+021677Y+020622
X+021636Y+021133
X+020826Y+022258
X+020892Y+024033
X+021130Y+024690
X+021630Y+025060
X+021630Y+024315
X+021630Y+025815
X+022954Y+025332
X+023255Y+025815
X+023327Y+024315
X+023391Y+027576
X+022731Y+028634
X+022005Y+028190
X+022005Y+027440
X+021880Y+028940
X+021564Y+029341
X+021880Y+029690
X+021880Y+031065
X+021880Y+031816
X+021880Y+032440
X+020632Y+031866
X+020092Y+030303
X+018828Y+030043
X+018380Y+029440
X+018755Y+028940
X+017312Y+028934
X+017380Y+029690
X+017877Y+030310
X+017431Y+031138
X+017422Y+031816
X+016191Y+032178
X+015448Y+032073
X+015949Y+031208
X+015986Y+029846
X+015926Y+028145
X+015926Y+027449
X+015953Y+026690
X+015942Y+025878
X+015942Y+025063
X+015942Y+024315
X+017255Y+024315
X+017255Y+025065
X+017630Y+025940
X+017318Y+026716
X+017318Y+027465
X+017312Y+028153
X+018380Y+027440
X+019630Y+027065
X+019304Y+025065
X+016797Y+026145
X+014317Y+028224
X+012192Y+027815
X+010686Y+027109
X+008046Y+029117
X+005848Y+027671
X+006268Y+027021
X+004832Y+028587
X+004518Y+028283
X+004832Y+030905
X+004518Y+031120
X+004630Y+031690
X+004835Y+032061
X+005947Y+032380
X+005947Y+031488
X+007880Y+032690
X+007848Y+033390
X+008112Y+033980
X+008636Y+033832
X+009162Y+033930
X+008424Y+034539
X+007566Y+034673
X+007062Y+034220
X+006277Y+034751
X+005772Y+034481
X+006052Y+034177
X+005630Y+033940
X+005130Y+035690
X+005016Y+036433
X+006861Y+035559
X+007399Y+035630
X+008395Y+035572
X+009130Y+035940
X+010126Y+035603
X+010630Y+035690
X+010630Y+036440
X+011007Y+034645
X+011405Y+034566
X+010532Y+034269
X+010128Y+033980
X+010126Y+034652
X+008880Y+032940
X+009997Y+032358
X+009954Y+031586
X+010504Y+031216
X+011002Y+030837
X+011176Y+032634
X+012541Y+032665
X+012909Y+032876
X+013849Y+033041
X+014100Y+034354
X+012880Y+035940
X+014975Y+036403
X+015630Y+035690
X+016804Y+037784
X+017630Y+037824
X+017630Y+037324
X+018676Y+036678
X+019876Y+036771
X+020713Y+036831
X+019876Y+037879
X+019630Y+038940
X+019630Y+039442
X+020130Y+040190
X+020880Y+038940
X+021706Y+040256
X+022359Y+039726
X+022903Y+037668
X+023045Y+035151
X+022564Y+034110
X+023322Y+032544
X+023380Y+031815
X+023391Y+031061
X+018935Y+031067
X+019630Y+035190
X+020623Y+035103
X+017380Y+038940
X+018096Y+039726
X+018505Y+041051
X+018630Y+041690
X+017880Y+041440
X+016759Y+040599
X+015537Y+040148
X+015046Y+039442
X+014679Y+038371
X+012541Y+038622
X+012103Y+038934
X+011285Y+038178
X+011285Y+039744
X+011005Y+041440
X+010630Y+041440
X+010630Y+041815
X+011005Y+041815
X+011005Y+042190
X+010630Y+042190
X+009323Y+042604
X+009333Y+041428
X+009333Y+039768
X+009691Y+043900
X+007441Y+046293
X+006630Y+045274
X+005650Y+045611
X+018430Y+044254
X+019386Y+042946
X+020323Y+046163
X+005915Y+024245
X+004975Y+024743
X+007439Y+021483
X+008630Y+021223
X+009067Y+021815
X+010608Y+020809
X+011255Y+018878
X+012089Y+017128
X+012630Y+015065
X+012630Y+014315
X+012630Y+013565
X+011209Y+013565
X+011209Y+014269
X+009840Y+013809
X+009151Y+014811
X+008085Y+015050
X+006630Y+015065
X+006630Y+014315
X+006630Y+013565
X+006755Y+012065
X+006136Y+011823
X+006630Y+011315
X+006630Y+010565
X+005672Y+009758
X+005240Y+010572
X+005240Y+011318
X+005240Y+012065
X+004908Y+013593
X+005255Y+014315
X+005255Y+015065
X+004631Y+015440
X+006442Y+017003
X+006005Y+017565
X+006519Y+018888
X+004755Y+020229
X+004484Y+020500
X+008394Y+013572
X+008822Y+012071
X+009514Y+012047
X+011130Y+011815
X+011139Y+012207
X+011130Y+011315
X+011130Y+010565
X+012630Y+010690
X+012630Y+011315
X+012630Y+012065
X+014625Y+012440
X+015317Y+012097
X+015333Y+011443
X+016707Y+011249
X+016707Y+010563
X+017317Y+011940
X+016755Y+012440
X+017196Y+012815
X+016987Y+013583
X+017255Y+013940
X+016755Y+014315
X+016755Y+015065
X+017255Y+015190
X+018534Y+016440
X+018316Y+017086
X+018987Y+017398
X+019380Y+016815
X+020619Y+016856
X+021233Y+017094
X+021468Y+017503
X+020577Y+017788
X+021880Y+018878
X+022783Y+018009
X+022955Y+015928
X+022130Y+015065
X+022130Y+014315
X+022130Y+013315
X+022130Y+012065
X+022130Y+011315
X+020755Y+012065
X+020249Y+011820
X+020505Y+011315
X+020505Y+010565
X+020755Y+009315
X+019259Y+012018
X+019136Y+012559
X+019380Y+013065
X+018454Y+012991
X+020597Y+012815
X+020630Y+013565
X+020630Y+014315
X+020637Y+015077
X+016755Y+017615
X+017393Y+019098
X+014630Y+015440
X+015255Y+014315
X+015255Y+013565
X+013136Y+007816
X+007178Y+006753
X+005381Y+007816
X+005750Y+005128
X+004356Y+010690
T02
X+006987Y+040638
X+006987Y+040138
X+006487Y+040138
X+006487Y+040638
X+005987Y+040638
X+005987Y+040138
X+005487Y+040138
X+005487Y+040638
X+004987Y+040638
X+004987Y+040138
T03
X+013380Y+026940
X+014380Y+026940
X+014380Y+033690
X+013380Y+033690
X+013380Y+035690
X+014380Y+035690
X+014380Y+037690
X+013380Y+037690
X+013380Y+039690
X+014380Y+039690
X+017880Y+045065
X+017880Y+046065
X+009880Y+046065
X+009880Y+045065
T04
X+022235Y+015928
X+021255Y+015925
X+020275Y+015928
X+017360Y+015928
X+016380Y+015925
X+015400Y+015928
X+012360Y+015928
X+011380Y+015925
X+010400Y+015928
X+007485Y+015928
X+006505Y+015925
X+005525Y+015928
X+012992Y+022284
X+014768Y+022287
X+014764Y+024846
X+012992Y+024843
X+012996Y+029034
X+014768Y+029037
X+014768Y+031596
X+012992Y+031593
X+007610Y+041490
X+006630Y+041487
X+005650Y+041490
X+011367Y+043409
X+013143Y+043412
X+014617Y+043409
X+016393Y+043412
X+016389Y+045971
X+014617Y+045968
X+013139Y+045971
X+011367Y+045968
X+020150Y+041490
X+021130Y+041487
X+022110Y+041490
T05
X+018885Y+005940
X+018875Y+005940
X+018885Y+009940
X+018875Y+009940
X+008885Y+009940
X+008875Y+009940
X+008875Y+005940
X+008885Y+005940
X+011880Y+041458
X+011880Y+042458
X+012880Y+042458
X+012880Y+041458
X+013880Y+041458
X+013880Y+042458
X+014880Y+042458
X+014880Y+041458
X+015880Y+041458
X+015880Y+042458
T06
X+022380Y+023066
X+021380Y+023066
X+020380Y+023066
X+019130Y+023066
X+018130Y+023066
X+017130Y+023066
X+016130Y+023066
X+011630Y+023066
X+010630Y+023066
X+009630Y+023066
X+008630Y+023066
X+007380Y+023066
X+006380Y+023066
X+005380Y+023066
X+004380Y+023066
X+004380Y+038814
X+006380Y+038814
X+008630Y+038814
X+010630Y+038814
X+016130Y+038814
X+018130Y+038814
X+020380Y+038814
X+022380Y+038814
X+023380Y+023066
T07
X+019885Y+005940
X+017875Y+005940
X+014625Y+005940
X+013135Y+005940
X+009885Y+005940
X+007875Y+005940
X+004625Y+005940
X+004625Y+009940
X+007875Y+009940
X+009885Y+009940
X+013135Y+009940
X+014625Y+009940
X+017875Y+009940
X+019885Y+009940
X+023135Y+009940
X+023135Y+005940
T08
X+019385Y+018878
X+018250Y+018878
X+014510Y+018878
X+013250Y+018878
X+009510Y+018878
X+008375Y+018878
X+004635Y+018878
X+023125Y+018878
X+023000Y+044440
X+019260Y+044440
X+008500Y+044440
X+004760Y+044440
T00
M30
