G04 DipTrace 4.1.1.0*
G04 alps_panel02.GTO*
%MOIN*%
G04 #@! TF.FileFunction,Legend,Top*
G04 #@! TF.Part,Single*
%ADD19C,0.005984*%
%ADD21C,0.006*%
%ADD35C,0.009264*%
%ADD36C,0.006176*%
%ADD37C,0.00772*%
%FSLAX26Y26*%
G04*
G70*
G90*
G75*
G01*
G04 TopSilk*
%LPD*%
X554000Y756500D2*
D19*
X604000D1*
Y819000D1*
X654000D1*
Y756500D1*
X704000D1*
X1566500D2*
X1616500D1*
X1304000Y4631500D2*
X1354000D1*
Y4694000D1*
X1404000D1*
Y4631500D1*
X1454000D1*
X2354000Y2956500D2*
D21*
Y2800249D1*
X1616500Y756500D2*
D19*
Y819000D1*
X1666500D1*
Y756500D1*
X1716500D1*
X583632Y2662109D2*
D35*
X589402Y2665028D1*
X598024Y2673583D1*
Y2613362D1*
X986550Y2659257D2*
Y2662109D1*
X989402Y2667879D1*
X992254Y2670731D1*
X998024Y2673583D1*
X1009498D1*
X1015202Y2670731D1*
X1018054Y2667879D1*
X1020972Y2662109D1*
Y2656405D1*
X1018054Y2650635D1*
X1012350Y2642080D1*
X983632Y2613362D1*
X1023824D1*
X559730Y4627041D2*
D37*
X554921Y4624665D1*
X550168Y4619856D1*
X547736Y4615103D1*
X545360Y4607918D1*
Y4595925D1*
X547736Y4588795D1*
X550168Y4583986D1*
X554921Y4579233D1*
X559730Y4576801D1*
X569292D1*
X574045Y4579233D1*
X578853Y4583986D1*
X581230Y4588795D1*
X583606Y4595925D1*
Y4607918D1*
X581230Y4615103D1*
X578853Y4619856D1*
X574045Y4624665D1*
X569292Y4627041D1*
X559730D1*
X599046D2*
Y4591171D1*
X601422Y4583986D1*
X606231Y4579233D1*
X613416Y4576801D1*
X618169D1*
X625354Y4579233D1*
X630162Y4583986D1*
X632539Y4591171D1*
Y4627041D1*
X664725D2*
Y4576801D1*
X647978Y4627041D2*
X681471D1*
X745512Y4617424D2*
X750320Y4619856D1*
X757505Y4626986D1*
Y4576801D1*
X1997230Y4627041D2*
X1992421Y4624665D1*
X1987668Y4619856D1*
X1985236Y4615103D1*
X1982860Y4607918D1*
Y4595925D1*
X1985236Y4588795D1*
X1987668Y4583986D1*
X1992421Y4579233D1*
X1997230Y4576801D1*
X2006792D1*
X2011545Y4579233D1*
X2016353Y4583986D1*
X2018730Y4588795D1*
X2021106Y4595925D1*
Y4607918D1*
X2018730Y4615103D1*
X2016353Y4619856D1*
X2011545Y4624665D1*
X2006792Y4627041D1*
X1997230D1*
X2036546D2*
Y4591171D1*
X2038922Y4583986D1*
X2043731Y4579233D1*
X2050916Y4576801D1*
X2055669D1*
X2062854Y4579233D1*
X2067662Y4583986D1*
X2070039Y4591171D1*
Y4627041D1*
X2102225D2*
Y4576801D1*
X2085478Y4627041D2*
X2118971D1*
X2185444Y4615048D2*
Y4617424D1*
X2187820Y4622233D1*
X2190197Y4624609D1*
X2195005Y4626986D1*
X2204567D1*
X2209320Y4624609D1*
X2211697Y4622233D1*
X2214128Y4617424D1*
Y4612671D1*
X2211697Y4607863D1*
X2206943Y4600733D1*
X2183012Y4576801D1*
X2216505D1*
X1481937Y4380433D2*
D36*
X1457088D1*
Y4340241D1*
X1481937D1*
X1457088Y4361288D2*
X1472386D1*
X1521083Y4380433D2*
Y4340241D1*
X1494288Y4380433D1*
Y4340241D1*
X1533434Y4380433D2*
X1548733Y4340241D1*
X1564032Y4380433D1*
X1457088Y4180433D2*
Y4140241D1*
X1480036D1*
X1517281Y4180433D2*
X1492387D1*
Y4140241D1*
Y4161288D2*
X1507686D1*
X1541128Y4180433D2*
X1537281Y4178532D1*
X1533479Y4174685D1*
X1531533Y4170882D1*
X1529632Y4165134D1*
Y4155540D1*
X1531533Y4149836D1*
X1533479Y4145989D1*
X1537281Y4142187D1*
X1541128Y4140241D1*
X1548777D1*
X1552580Y4142187D1*
X1556427Y4145989D1*
X1558328Y4149836D1*
X1560229Y4155540D1*
Y4165134D1*
X1558328Y4170882D1*
X1556427Y4174685D1*
X1552580Y4178532D1*
X1548777Y4180433D1*
X1541128D1*
X1457985Y3992933D2*
Y3952741D1*
X1444588Y3992933D2*
X1471383D1*
X1514375Y3952741D2*
X1499033Y3992933D1*
X1483734Y3952741D1*
X1489482Y3966138D2*
X1508627D1*
X1526727Y3971886D2*
X1543971D1*
X1549675Y3973788D1*
X1551620Y3975733D1*
X1553521Y3979536D1*
Y3985284D1*
X1551620Y3989086D1*
X1549675Y3991032D1*
X1543971Y3992933D1*
X1526727D1*
Y3952741D1*
X1457088Y3780433D2*
Y3740241D1*
X1470485D1*
X1476233Y3742187D1*
X1480080Y3745989D1*
X1481981Y3749836D1*
X1483883Y3755540D1*
Y3765134D1*
X1481981Y3770882D1*
X1480080Y3774685D1*
X1476233Y3778532D1*
X1470485Y3780433D1*
X1457088D1*
X1496234Y3761288D2*
X1513434D1*
X1519182Y3763233D1*
X1521127Y3765134D1*
X1523029Y3768937D1*
Y3772784D1*
X1521127Y3776586D1*
X1519182Y3778532D1*
X1513434Y3780433D1*
X1496234D1*
Y3740241D1*
X1509631Y3761288D2*
X1523029Y3740241D1*
X1535380Y3780433D2*
Y3751737D1*
X1537281Y3745989D1*
X1541128Y3742187D1*
X1546876Y3740241D1*
X1550679D1*
X1556427Y3742187D1*
X1560273Y3745989D1*
X1562175Y3751737D1*
Y3780433D1*
X1605123Y3740241D2*
Y3780433D1*
X1589825Y3740241D1*
X1574526Y3780433D1*
Y3740241D1*
X1496383Y3112185D2*
X1492580Y3116032D1*
X1486832Y3117933D1*
X1479183D1*
X1473435Y3116032D1*
X1469588Y3112185D1*
Y3108382D1*
X1471533Y3104536D1*
X1473435Y3102634D1*
X1477237Y3100733D1*
X1488733Y3096886D1*
X1492580Y3094985D1*
X1494481Y3093040D1*
X1496383Y3089237D1*
Y3083489D1*
X1492580Y3079687D1*
X1486832Y3077741D1*
X1479183D1*
X1473435Y3079687D1*
X1469588Y3083489D1*
X1508734Y3096886D2*
X1525978D1*
X1531682Y3098788D1*
X1533627Y3100733D1*
X1535529Y3104536D1*
Y3110284D1*
X1533627Y3114086D1*
X1531682Y3116032D1*
X1525978Y3117933D1*
X1508734D1*
Y3077741D1*
X1547880Y3117933D2*
Y3077741D1*
X1570828D1*
X1583179Y3117933D2*
Y3077741D1*
X1608928Y3117933D2*
Y3077741D1*
X1595531Y3117933D2*
X1622325D1*
X1739402Y2673583D2*
D35*
X1770906D1*
X1753728Y2650635D1*
X1762350D1*
X1768054Y2647783D1*
X1770906Y2644932D1*
X1773824Y2636309D1*
Y2630606D1*
X1770906Y2621984D1*
X1765202Y2616213D1*
X1756580Y2613362D1*
X1747958D1*
X1739402Y2616213D1*
X1736550Y2619132D1*
X1733632Y2624836D1*
X2187350Y2613362D2*
Y2673583D1*
X2158632Y2633458D1*
X2201676D1*
X1059730Y814541D2*
D37*
X1054921Y812165D1*
X1050168Y807356D1*
X1047736Y802603D1*
X1045360Y795418D1*
Y783425D1*
X1047736Y776295D1*
X1050168Y771486D1*
X1054921Y766733D1*
X1059730Y764301D1*
X1069292D1*
X1074045Y766733D1*
X1078853Y771486D1*
X1081230Y776295D1*
X1083606Y783425D1*
Y795418D1*
X1081230Y802603D1*
X1078853Y807356D1*
X1074045Y812165D1*
X1069292Y814541D1*
X1059730D1*
X1099046D2*
Y778671D1*
X1101422Y771486D1*
X1106231Y766733D1*
X1113416Y764301D1*
X1118169D1*
X1125354Y766733D1*
X1130162Y771486D1*
X1132539Y778671D1*
Y814541D1*
X1164725D2*
Y764301D1*
X1147978Y814541D2*
X1181471D1*
X858632Y812109D2*
D35*
X864402Y815028D1*
X873024Y823583D1*
Y763362D1*
X2072230Y814541D2*
D37*
X2067421Y812165D1*
X2062668Y807356D1*
X2060236Y802603D1*
X2057860Y795418D1*
Y783425D1*
X2060236Y776295D1*
X2062668Y771486D1*
X2067421Y766733D1*
X2072230Y764301D1*
X2081792D1*
X2086545Y766733D1*
X2091353Y771486D1*
X2093730Y776295D1*
X2096106Y783425D1*
Y795418D1*
X2093730Y802603D1*
X2091353Y807356D1*
X2086545Y812165D1*
X2081792Y814541D1*
X2072230D1*
X2111546D2*
Y778671D1*
X2113922Y771486D1*
X2118731Y766733D1*
X2125916Y764301D1*
X2130669D1*
X2137854Y766733D1*
X2142662Y771486D1*
X2145039Y778671D1*
Y814541D1*
X2177225D2*
Y764301D1*
X2160478Y814541D2*
X2193971D1*
X1874050Y809257D2*
D35*
Y812109D1*
X1876902Y817879D1*
X1879754Y820731D1*
X1885524Y823583D1*
X1896998D1*
X1902702Y820731D1*
X1905554Y817879D1*
X1908472Y812109D1*
Y806405D1*
X1905554Y800635D1*
X1899850Y792080D1*
X1871132Y763362D1*
X1911324D1*
M02*
