G04 DipTrace 4.1.1.0*
G04 alps_panel02.GTL*
%MOIN*%
G04 #@! TF.FileFunction,Copper,L1,Top*
G04 #@! TF.Part,Single*
G04 #@! TA.AperFunction,CopperBalancing*
%ADD18C,0.01*%
G04 #@! TA.AperFunction,ComponentPad*
%ADD22C,0.32*%
%ADD23O,0.299213X0.177165*%
%FSLAX26Y26*%
G04*
G70*
G90*
G75*
G01*
G04 Top*
%LPD*%
X421412Y5209138D2*
D18*
X415714Y5203440D1*
X449697Y5209138D2*
X415714Y5175156D1*
X477980Y5209138D2*
X415714Y5146871D1*
X506265Y5209138D2*
X415714Y5118587D1*
X534550Y5209138D2*
X415714Y5090303D1*
X562833Y5209138D2*
X415714Y5062018D1*
X591118Y5209138D2*
X415714Y5033734D1*
X619402Y5209138D2*
X415714Y5005450D1*
X647686Y5209138D2*
X415714Y4977165D1*
X675971Y5209138D2*
X415714Y4948882D1*
X704255Y5209138D2*
X415714Y4920597D1*
X732539Y5209138D2*
X415714Y4892312D1*
X760824Y5209138D2*
X415714Y4864029D1*
X789108Y5209138D2*
X586110Y5006140D1*
X491861Y4911891D2*
X415714Y4835744D1*
X817392Y5209138D2*
X625995Y5017741D1*
X480260Y4872005D2*
X415714Y4807461D1*
X845676Y5209138D2*
X656642Y5020104D1*
X477898Y4841360D2*
X415714Y4779176D1*
X873961Y5209138D2*
X682688Y5017866D1*
X480135Y4815312D2*
X415714Y4750891D1*
X902245Y5209138D2*
X705655Y5012549D1*
X485453Y4792345D2*
X415714Y4722608D1*
X930529Y5209138D2*
X726247Y5004856D1*
X493144Y4771753D2*
X415714Y4694323D1*
X958814Y5209138D2*
X744850Y4995175D1*
X502827Y4753151D2*
X415714Y4666038D1*
X987097Y5209138D2*
X761672Y4983713D1*
X514289Y4736329D2*
X415714Y4637755D1*
X1015382Y5209138D2*
X776836Y4970592D1*
X527409Y4721165D2*
X415714Y4609470D1*
X1043667Y5209138D2*
X790385Y4955856D1*
X542131Y4707604D2*
X415714Y4581186D1*
X1071950Y5209138D2*
X802303Y4939490D1*
X558510Y4695698D2*
X522912Y4660100D1*
X512894Y4650081D2*
X415714Y4552902D1*
X1100235Y5209138D2*
X812467Y4921370D1*
X576630Y4685534D2*
X551197Y4660100D1*
X512894Y4621798D2*
X415714Y4524617D1*
X1128520Y5209138D2*
X941832Y5022451D1*
X913059Y4993677D2*
X820713Y4901331D1*
X596669Y4677289D2*
X579482Y4660100D1*
X512894Y4593513D2*
X415714Y4496333D1*
X1156803Y5209138D2*
X980308Y5032643D1*
X902853Y4955188D2*
X826706Y4879041D1*
X618946Y4671281D2*
X607765Y4660100D1*
X512894Y4565230D2*
X415714Y4468049D1*
X1185088Y5209138D2*
X1004436Y5028486D1*
X907024Y4931073D2*
X829869Y4853919D1*
X644081Y4668133D2*
X636050Y4660100D1*
X516346Y4540398D2*
X415714Y4439765D1*
X1213371Y5209138D2*
X1023135Y5018902D1*
X916608Y4912374D2*
X828971Y4824738D1*
X673264Y4669030D2*
X664333Y4660100D1*
X544631Y4540398D2*
X415714Y4411480D1*
X1241656Y5209138D2*
X1037829Y5005312D1*
X930198Y4897680D2*
X820781Y4788264D1*
X709738Y4677220D2*
X692618Y4660100D1*
X572916Y4540398D2*
X415714Y4383196D1*
X1269941Y5209138D2*
X1048643Y4987841D1*
X947655Y4886852D2*
X720903Y4660100D1*
X601199Y4540398D2*
X415714Y4354912D1*
X1298224Y5209138D2*
X1054678Y4965592D1*
X969903Y4880816D2*
X749186Y4660100D1*
X629484Y4540398D2*
X415714Y4326627D1*
X1326509Y5209138D2*
X1051543Y4934173D1*
X1001323Y4883951D2*
X777471Y4660100D1*
X657768Y4540398D2*
X415714Y4298344D1*
X1354793Y5209138D2*
X795108Y4649451D1*
X686052Y4540398D2*
X415714Y4270059D1*
X1383077Y5209138D2*
X1161573Y4987634D1*
X1097860Y4923920D2*
X795108Y4621168D1*
X714337Y4540398D2*
X415714Y4241774D1*
X1411362Y5209138D2*
X1201362Y4999139D1*
X1086369Y4884146D2*
X795108Y4592883D1*
X742621Y4540398D2*
X415714Y4213491D1*
X1439646Y5209138D2*
X1229978Y4999470D1*
X1086024Y4855516D2*
X795108Y4564600D1*
X770906Y4540398D2*
X415714Y4185206D1*
X1467930Y5209138D2*
X1253690Y4994899D1*
X1090609Y4831816D2*
X523727Y4264936D1*
X509331Y4250539D2*
X415714Y4156921D1*
X1496215Y5209138D2*
X1274102Y4987026D1*
X1098467Y4811391D2*
X552965Y4265888D1*
X508392Y4221315D2*
X415714Y4128638D1*
X1524499Y5209138D2*
X1291933Y4976572D1*
X1108936Y4793575D2*
X581249Y4265888D1*
X508392Y4193031D2*
X415714Y4100353D1*
X1552783Y5209138D2*
X1307455Y4963811D1*
X1121682Y4778038D2*
X609533Y4265888D1*
X508392Y4164747D2*
X415714Y4072070D1*
X1581067Y5209138D2*
X1320811Y4948882D1*
X1136612Y4764682D2*
X636615Y4264686D1*
X508392Y4136463D2*
X415714Y4043785D1*
X1609352Y5209138D2*
X1331915Y4931701D1*
X1153793Y4753579D2*
X649501Y4249287D1*
X508392Y4108178D2*
X415714Y4015500D1*
X1637636Y5209138D2*
X1340533Y4912034D1*
X1173459Y4744961D2*
X649791Y4221294D1*
X508392Y4079894D2*
X415714Y3987217D1*
X1665920Y5209138D2*
X1346112Y4889329D1*
X1196164Y4739382D2*
X649791Y4193009D1*
X508392Y4051610D2*
X415714Y3958932D1*
X1694205Y5209138D2*
X1347396Y4862329D1*
X1223177Y4738112D2*
X649791Y4164724D1*
X508392Y4023325D2*
X415714Y3930648D1*
X1722488Y5209138D2*
X1509202Y4995852D1*
X1414648Y4901298D2*
X1340436Y4827085D1*
X1258408Y4745058D2*
X649791Y4136441D1*
X508392Y3995041D2*
X415714Y3902364D1*
X1750773Y5209138D2*
X1541740Y5000105D1*
X1410395Y4868760D2*
X1276740Y4735106D1*
X1262896Y4721262D2*
X649791Y4108156D1*
X508392Y3966757D2*
X415714Y3874079D1*
X1779058Y5209138D2*
X1567538Y4997619D1*
X1412881Y4842962D2*
X1305025Y4735106D1*
X1262896Y4692978D2*
X649791Y4079871D1*
X508392Y3938472D2*
X415714Y3845795D1*
X1807341Y5209138D2*
X1589442Y4991239D1*
X1419261Y4821058D2*
X1333310Y4735106D1*
X1262896Y4664693D2*
X649791Y4051588D1*
X508392Y3910189D2*
X415714Y3817510D1*
X1835626Y5209138D2*
X1608487Y4982000D1*
X1428501Y4802013D2*
X1361593Y4735106D1*
X1262896Y4636409D2*
X649791Y4023303D1*
X508392Y3881904D2*
X415714Y3789226D1*
X1863911Y5209138D2*
X1625115Y4970344D1*
X1440157Y4785385D2*
X1389878Y4735106D1*
X1262896Y4608125D2*
X649791Y3995020D1*
X508392Y3853619D2*
X415714Y3760942D1*
X1892194Y5209138D2*
X1639534Y4956478D1*
X1454022Y4770967D2*
X1418163Y4735106D1*
X1273449Y4590392D2*
X947315Y4264259D1*
X933816Y4250760D2*
X649791Y3966735D1*
X508392Y3825336D2*
X415714Y3732657D1*
X1920479Y5209138D2*
X1651756Y4940416D1*
X1470085Y4758744D2*
X1446446Y4735106D1*
X1301732Y4590392D2*
X976773Y4265432D1*
X932642Y4221302D2*
X649791Y3938450D1*
X508392Y3797051D2*
X415714Y3704374D1*
X1948762Y5209138D2*
X1771867Y5032243D1*
X1703264Y4963639D2*
X1661644Y4922020D1*
X1488480Y4748856D2*
X1474731Y4735106D1*
X1330017Y4590392D2*
X1005058Y4265432D1*
X932642Y4193017D2*
X649791Y3910167D1*
X508392Y3768768D2*
X415714Y3676089D1*
X1977047Y5209138D2*
X1798245Y5030337D1*
X1705171Y4937261D2*
X1668812Y4900903D1*
X1509597Y4741688D2*
X1495101Y4727193D1*
X1358301Y4590392D2*
X1033341Y4265432D1*
X932642Y4164734D2*
X649791Y3881882D1*
X508392Y3740483D2*
X415714Y3647804D1*
X2005332Y5209138D2*
X1818244Y5022050D1*
X1713442Y4917249D2*
X1672430Y4876238D1*
X1534262Y4738070D2*
X1495101Y4698908D1*
X1386585Y4590392D2*
X1268799Y4472606D1*
X1250399Y4454205D2*
X1060534Y4264341D1*
X932642Y4136449D2*
X649791Y3853598D1*
X508392Y3712198D2*
X415714Y3619521D1*
X2033615Y5209138D2*
X1834029Y5009551D1*
X1725941Y4901463D2*
X1670415Y4845937D1*
X1564563Y4740087D2*
X1495101Y4670623D1*
X1414870Y4590392D2*
X1297084Y4472606D1*
X1250399Y4425921D2*
X1073682Y4249205D1*
X932642Y4108164D2*
X649791Y3825314D1*
X508392Y3683915D2*
X415714Y3591236D1*
X2061900Y5209138D2*
X1845990Y4993227D1*
X1742265Y4889504D2*
X1651770Y4799008D1*
X1611492Y4758731D2*
X1495101Y4642340D1*
X1443154Y4590392D2*
X1325369Y4472606D1*
X1250399Y4397636D2*
X1074055Y4221294D1*
X932642Y4079881D2*
X649791Y3797029D1*
X508392Y3655630D2*
X415714Y3562953D1*
X2090184Y5209138D2*
X1853571Y4972525D1*
X1762969Y4881921D2*
X1495101Y4614055D1*
X1471438Y4590392D2*
X1353652Y4472606D1*
X1250399Y4369352D2*
X1074055Y4193009D1*
X932642Y4051596D2*
X649791Y3768745D1*
X508392Y3627345D2*
X415714Y3534668D1*
X2118469Y5209138D2*
X1854123Y4944794D1*
X1790714Y4881383D2*
X1381937Y4472606D1*
X1250399Y4341068D2*
X1074055Y4164724D1*
X932642Y4023312D2*
X649791Y3740461D1*
X508392Y3599062D2*
X415714Y3506383D1*
X2146755Y5209139D2*
X1410223Y4472608D1*
X1250386Y4312772D2*
X1074043Y4136428D1*
X932644Y3995029D2*
X649793Y3712178D1*
X508394Y3570778D2*
X415702Y3478087D1*
X2175038Y5209139D2*
X1438507Y4472608D1*
X1250386Y4284487D2*
X1074043Y4108144D1*
X932644Y3966745D2*
X649793Y3683894D1*
X508394Y3542495D2*
X415702Y3449803D1*
X2203323Y5209139D2*
X1466791Y4472608D1*
X1250386Y4256203D2*
X1074043Y4079860D1*
X932644Y3938461D2*
X649793Y3655609D1*
X508394Y3514210D2*
X415702Y3421518D1*
X2231608Y5209139D2*
X2021677Y4999209D1*
X1948793Y4926324D2*
X1495075Y4472608D1*
X1250386Y4227919D2*
X1074043Y4051576D1*
X932644Y3910176D2*
X649793Y3627325D1*
X508394Y3485927D2*
X415702Y3393235D1*
X2259891Y5209139D2*
X2066685Y5015934D1*
X1932067Y4881316D2*
X1523360Y4472608D1*
X1250386Y4199634D2*
X1074043Y4023291D1*
X932644Y3881892D2*
X649793Y3599041D1*
X508394Y3457642D2*
X415702Y3364950D1*
X2288176Y5209139D2*
X2099058Y5020022D1*
X1927979Y4848944D2*
X1551644Y4472608D1*
X1250386Y4171350D2*
X1074043Y3995007D1*
X932644Y3853608D2*
X649793Y3570757D1*
X508394Y3429357D2*
X415702Y3336665D1*
X2316461Y5209139D2*
X2126113Y5018793D1*
X1929209Y4821888D2*
X1579928Y4472608D1*
X1250386Y4143066D2*
X1074043Y3966723D1*
X932644Y3825323D2*
X649793Y3542472D1*
X508394Y3401073D2*
X415702Y3308382D1*
X2342286Y5206681D2*
X2149812Y5014207D1*
X1933794Y4798189D2*
X1608213Y4472608D1*
X1250386Y4114781D2*
X1074043Y3938438D1*
X932644Y3797039D2*
X649793Y3514188D1*
X508394Y3372789D2*
X415702Y3280097D1*
X2342286Y5178398D2*
X2170984Y5007094D1*
X1940892Y4777004D2*
X1636497Y4472608D1*
X1250386Y4086497D2*
X1074043Y3910154D1*
X932644Y3768755D2*
X649793Y3485904D1*
X508394Y3344505D2*
X415702Y3251812D1*
X2342286Y5150113D2*
X2190098Y4997925D1*
X1950076Y4757903D2*
X1645101Y4452928D1*
X1250386Y4058213D2*
X1074043Y3881870D1*
X932644Y3740471D2*
X649793Y3457619D1*
X508394Y3316220D2*
X415702Y3223529D1*
X2342286Y5121828D2*
X2207375Y4986917D1*
X1961084Y4740626D2*
X1645101Y4424643D1*
X1250386Y4029929D2*
X1074043Y3853585D1*
X932644Y3712186D2*
X649793Y3429336D1*
X508394Y3287936D2*
X415702Y3195244D1*
X2342286Y5093545D2*
X2222982Y4974239D1*
X1973762Y4725020D2*
X1645101Y4396360D1*
X1250386Y4001644D2*
X1074043Y3825302D1*
X932644Y3683902D2*
X649793Y3401051D1*
X508394Y3259652D2*
X415702Y3166961D1*
X2342286Y5065260D2*
X2236958Y4959932D1*
X1988070Y4711043D2*
X1645101Y4368075D1*
X1250386Y3973360D2*
X1074043Y3797017D1*
X932644Y3655618D2*
X649793Y3372766D1*
X508394Y3231367D2*
X415702Y3138676D1*
X2342286Y5036976D2*
X2249304Y4943993D1*
X2004008Y4698697D2*
X1965412Y4660101D1*
X1950394Y4645084D2*
X1645101Y4339790D1*
X1250386Y3945076D2*
X1074043Y3768732D1*
X932644Y3627333D2*
X649793Y3344483D1*
X508394Y3203083D2*
X415702Y3110391D1*
X2342286Y5008692D2*
X2259953Y4926358D1*
X2021643Y4688049D2*
X1993696Y4660101D1*
X1950394Y4616799D2*
X1645101Y4311507D1*
X1250386Y3916791D2*
X1074043Y3740449D1*
X932644Y3599050D2*
X649793Y3316198D1*
X508394Y3174799D2*
X415702Y3082108D1*
X2342286Y4980407D2*
X2268736Y4906857D1*
X2041144Y4679265D2*
X2021980Y4660101D1*
X1950394Y4588516D2*
X1645101Y4283222D1*
X1250386Y3888508D2*
X1074043Y3712164D1*
X932644Y3570765D2*
X649793Y3287913D1*
X508394Y3146514D2*
X415702Y3053823D1*
X2342286Y4952123D2*
X2275365Y4885202D1*
X2062799Y4672636D2*
X2050265Y4660101D1*
X1950394Y4560231D2*
X1645101Y4254938D1*
X1250386Y3860223D2*
X1074043Y3683881D1*
X932644Y3542480D2*
X649793Y3259630D1*
X508394Y3118231D2*
X415702Y3025539D1*
X2342286Y4923839D2*
X2279356Y4860909D1*
X2087092Y4668644D2*
X2078549Y4660101D1*
X1958846Y4540399D2*
X1645101Y4226654D1*
X1250386Y3831938D2*
X1074043Y3655596D1*
X932644Y3514197D2*
X649793Y3231345D1*
X508394Y3089946D2*
X415702Y2997255D1*
X2342286Y4895554D2*
X2279715Y4832984D1*
X2115017Y4668286D2*
X2106833Y4660101D1*
X1987130Y4540399D2*
X1712608Y4265875D1*
X1683392Y4236660D2*
X1645101Y4198369D1*
X1250386Y3803655D2*
X1074043Y3627311D1*
X932644Y3485912D2*
X649793Y3203062D1*
X508394Y3061661D2*
X415702Y2968970D1*
X2342286Y4867270D2*
X2274052Y4799037D1*
X2148965Y4673949D2*
X2135118Y4660101D1*
X2015415Y4540399D2*
X1740891Y4265875D1*
X1683392Y4208377D2*
X1645101Y4170085D1*
X1250386Y3775370D2*
X1074043Y3599028D1*
X932644Y3457627D2*
X649793Y3174777D1*
X508394Y3033378D2*
X415702Y2940686D1*
X2342286Y4838986D2*
X2250520Y4747219D1*
X2200782Y4697482D2*
X2163402Y4660101D1*
X2043699Y4540399D2*
X1769176Y4265875D1*
X1683392Y4180092D2*
X1645101Y4141801D1*
X1250386Y3747087D2*
X1074043Y3570743D1*
X932644Y3429344D2*
X649793Y3146492D1*
X508394Y3005093D2*
X415702Y2912402D1*
X2342286Y4810702D2*
X2191686Y4660101D1*
X2071983Y4540399D2*
X1797461Y4265875D1*
X1683392Y4151808D2*
X1645101Y4113517D1*
X1250386Y3718802D2*
X1074043Y3542458D1*
X932644Y3401059D2*
X649793Y3118209D1*
X508394Y2976810D2*
X415702Y2884117D1*
X2342286Y4782417D2*
X2219970Y4660101D1*
X2100268Y4540399D2*
X1819406Y4259537D1*
X1683392Y4123524D2*
X1645101Y4085232D1*
X1250386Y3690517D2*
X1074043Y3514175D1*
X932644Y3372776D2*
X649793Y3089924D1*
X508394Y2948525D2*
X415702Y2855833D1*
X2342286Y4754133D2*
X2248255Y4660101D1*
X2128552Y4540399D2*
X1824791Y4236639D1*
X1683392Y4095239D2*
X1645101Y4056948D1*
X1250386Y3662234D2*
X1074043Y3485890D1*
X932644Y3344491D2*
X649793Y3061640D1*
X508394Y2920240D2*
X415702Y2827549D1*
X2342286Y4725849D2*
X2257605Y4641167D1*
X2156836Y4540399D2*
X1824791Y4208354D1*
X1683392Y4066955D2*
X1645101Y4028664D1*
X1250386Y3633949D2*
X1074043Y3457606D1*
X932644Y3316206D2*
X649793Y3033356D1*
X508394Y2891957D2*
X415702Y2799265D1*
X2342286Y4697564D2*
X2257605Y4612883D1*
X2185121Y4540399D2*
X1824791Y4180070D1*
X1683392Y4038671D2*
X1645101Y4000379D1*
X1272608Y3627886D2*
X1074043Y3429322D1*
X932644Y3287923D2*
X649793Y3005071D1*
X508394Y2863672D2*
X415702Y2770980D1*
X2342286Y4669281D2*
X2257605Y4584598D1*
X2213404Y4540399D2*
X1824791Y4151786D1*
X1683392Y4010387D2*
X1645101Y3972094D1*
X1300891Y3627886D2*
X1074043Y3401037D1*
X932644Y3259638D2*
X649793Y2976787D1*
X508394Y2835387D2*
X415702Y2742696D1*
X2342286Y4640996D2*
X2257605Y4556315D1*
X2241689Y4540399D2*
X1824791Y4123501D1*
X1683392Y3982102D2*
X1645101Y3943811D1*
X1329176Y3627886D2*
X1074043Y3372753D1*
X932644Y3231354D2*
X649793Y2948503D1*
X508394Y2807104D2*
X415702Y2714412D1*
X2342286Y4612711D2*
X1824791Y4095218D1*
X1683392Y3953818D2*
X1645101Y3915526D1*
X1357461Y3627886D2*
X1074043Y3344469D1*
X932644Y3203070D2*
X649793Y2920218D1*
X508394Y2778819D2*
X415702Y2686127D1*
X2342286Y4584428D2*
X1824791Y4066933D1*
X1683392Y3925534D2*
X1645101Y3887243D1*
X1385744Y3627886D2*
X1074043Y3316185D1*
X932644Y3174785D2*
X649793Y2891934D1*
X508394Y2750535D2*
X415702Y2657844D1*
X2342286Y4556143D2*
X1824791Y4038648D1*
X1683392Y3897249D2*
X1645101Y3858958D1*
X1414029Y3627886D2*
X1343669Y3557526D1*
X1252983Y3466840D2*
X1074043Y3287900D1*
X932644Y3146501D2*
X649793Y2863650D1*
X515492Y2729349D2*
X508744Y2722601D1*
X500404Y2714261D2*
X415702Y2629559D1*
X2342286Y4527858D2*
X1824791Y4010365D1*
X1683392Y3868965D2*
X1645101Y3830673D1*
X1442314Y3627886D2*
X1376995Y3562567D1*
X1247928Y3433501D2*
X1074043Y3259615D1*
X932644Y3118217D2*
X649793Y2835366D1*
X500398Y2685970D2*
X415702Y2601274D1*
X2342286Y4499575D2*
X1824791Y3982080D1*
X1683392Y3840681D2*
X1645101Y3802390D1*
X1470597Y3627886D2*
X1403180Y3560467D1*
X1250028Y3407316D2*
X1074043Y3231332D1*
X932644Y3089932D2*
X649793Y2807081D1*
X500398Y2657686D2*
X415702Y2572991D1*
X2342286Y4471290D2*
X2136871Y4265875D1*
X2108388Y4237392D2*
X1824791Y3953795D1*
X1683392Y3812396D2*
X1645101Y3774105D1*
X1498882Y3627886D2*
X1425345Y3554349D1*
X1256146Y3385150D2*
X1074043Y3203047D1*
X932644Y3061648D2*
X649793Y2778797D1*
X500398Y2629402D2*
X415702Y2544706D1*
X2342286Y4443007D2*
X2165156Y4265875D1*
X2108388Y4209109D2*
X1824791Y3925512D1*
X1683392Y3784113D2*
X1645101Y3745822D1*
X1527165Y3627886D2*
X1444597Y3545318D1*
X1265192Y3365911D2*
X1074043Y3174764D1*
X932644Y3033364D2*
X649793Y2750513D1*
X500398Y2601117D2*
X415702Y2516421D1*
X2342286Y4414722D2*
X2193440Y4265875D1*
X2108388Y4180824D2*
X1824791Y3897227D1*
X1683392Y3755828D2*
X1645101Y3717537D1*
X1555450Y3627886D2*
X1461406Y3533841D1*
X1276668Y3349104D2*
X1074043Y3146479D1*
X932644Y3005080D2*
X650165Y2722601D1*
X500398Y2572833D2*
X415702Y2488138D1*
X2342286Y4386437D2*
X2221724Y4265875D1*
X2108388Y4152539D2*
X1824791Y3868944D1*
X1683392Y3727543D2*
X1645101Y3689252D1*
X1583735Y3627886D2*
X1475990Y3520140D1*
X1290354Y3334505D2*
X1074043Y3118194D1*
X932644Y2976795D2*
X678450Y2722601D1*
X521238Y2565388D2*
X415702Y2459853D1*
X2342286Y4358154D2*
X2244042Y4259909D1*
X2108388Y4124256D2*
X1824791Y3840659D1*
X1683392Y3699260D2*
X1645101Y3660969D1*
X1612018Y3627886D2*
X1488391Y3504259D1*
X1306251Y3322118D2*
X1074043Y3089911D1*
X932644Y2948510D2*
X695105Y2710972D1*
X549522Y2565388D2*
X415702Y2431570D1*
X2342286Y4329869D2*
X2249802Y4237385D1*
X2108388Y4095971D2*
X1824791Y3812374D1*
X1683392Y3670975D2*
X1645101Y3632684D1*
X1640302Y3627886D2*
X1498459Y3486042D1*
X1324453Y3312035D2*
X1074043Y3061626D1*
X932644Y2920227D2*
X695105Y2682689D1*
X577806Y2565388D2*
X415702Y2403285D1*
X2342286Y4301585D2*
X2249802Y4209100D1*
X2108388Y4067688D2*
X1824791Y3784091D1*
X1683392Y3642692D2*
X1505861Y3465160D1*
X1345335Y3304634D2*
X1263304Y3222604D1*
X1250386Y3209685D2*
X1074043Y3033341D1*
X932644Y2891942D2*
X695105Y2654404D1*
X587887Y2547186D2*
X415702Y2375000D1*
X2342286Y4273301D2*
X2249802Y4180816D1*
X2108388Y4039403D2*
X1824791Y3755806D1*
X1683392Y3614407D2*
X1509811Y3440825D1*
X1369669Y3300684D2*
X1291589Y3222604D1*
X1250386Y3181400D2*
X1074043Y3005058D1*
X932644Y2863659D2*
X695105Y2626121D1*
X587887Y2518903D2*
X415702Y2346717D1*
X2342286Y4245016D2*
X2249802Y4152531D1*
X2108388Y4011118D2*
X1824791Y3727522D1*
X1683392Y3586122D2*
X1508388Y3411119D1*
X1399390Y3302119D2*
X1319873Y3222604D1*
X1250386Y3153117D2*
X1074043Y2976773D1*
X932644Y2835374D2*
X695105Y2597836D1*
X587887Y2490618D2*
X415702Y2318432D1*
X2342286Y4216732D2*
X2249802Y4124247D1*
X2108388Y3982835D2*
X1824791Y3699238D1*
X1683392Y3557839D2*
X1492727Y3367173D1*
X1443335Y3317781D2*
X1348157Y3222604D1*
X1250386Y3124832D2*
X1074043Y2948490D1*
X932644Y2807089D2*
X695105Y2569551D1*
X587887Y2462333D2*
X576735Y2451180D1*
X478066Y2352512D2*
X415702Y2290148D1*
X2342286Y4188448D2*
X2249802Y4095963D1*
X2108388Y3954550D2*
X1824791Y3670953D1*
X1683392Y3529554D2*
X1376442Y3222604D1*
X1250386Y3096547D2*
X1074043Y2920205D1*
X932644Y2778806D2*
X695105Y2541268D1*
X467417Y2313579D2*
X415702Y2261864D1*
X2342286Y4160163D2*
X2249802Y4067678D1*
X2108388Y3926265D2*
X1824791Y3642669D1*
X1683392Y3501270D2*
X1404726Y3222604D1*
X1250386Y3068264D2*
X1074043Y2891920D1*
X932644Y2750521D2*
X695105Y2512983D1*
X465429Y2283306D2*
X415702Y2233579D1*
X2342286Y4131879D2*
X2249802Y4039395D1*
X2108388Y3897982D2*
X1824791Y3614385D1*
X1683392Y3472986D2*
X1433010Y3222604D1*
X1250386Y3039979D2*
X1074043Y2863636D1*
X939508Y2729101D2*
X695105Y2484698D1*
X467900Y2257493D2*
X415702Y2205295D1*
X2342286Y4103594D2*
X2249802Y4011110D1*
X2108388Y3869697D2*
X1824791Y3586101D1*
X1683392Y3444701D2*
X1461294Y3222604D1*
X1250386Y3011696D2*
X1074043Y2835352D1*
X937892Y2699201D2*
X695105Y2456415D1*
X473383Y2234693D2*
X415702Y2177010D1*
X2342286Y4075311D2*
X2249802Y3982825D1*
X2108388Y3841413D2*
X1824791Y3557816D1*
X1683392Y3416417D2*
X1489579Y3222604D1*
X1250386Y2983411D2*
X1074043Y2807068D1*
X937892Y2670916D2*
X715007Y2448031D1*
X481214Y2214239D2*
X415702Y2148726D1*
X2342286Y4047026D2*
X2249802Y3954542D1*
X2108388Y3813129D2*
X1824791Y3529531D1*
X1683392Y3388133D2*
X1517864Y3222604D1*
X1260647Y2965387D2*
X1074043Y2778783D1*
X937892Y2642633D2*
X733486Y2438226D1*
X491020Y2195760D2*
X415702Y2120442D1*
X2342286Y4018741D2*
X2249802Y3926257D1*
X2108388Y3784844D2*
X1824791Y3501248D1*
X1683392Y3359848D2*
X1546147Y3222604D1*
X1288932Y2965387D2*
X1074043Y2750499D1*
X937892Y2614348D2*
X750210Y2426667D1*
X502593Y2179049D2*
X415702Y2092157D1*
X2342286Y3990458D2*
X2249802Y3897974D1*
X2108388Y3756560D2*
X1824791Y3472963D1*
X1683392Y3331564D2*
X1574432Y3222604D1*
X1317217Y2965387D2*
X1074429Y2722601D1*
X937892Y2586063D2*
X765264Y2413436D1*
X515810Y2163982D2*
X415702Y2063874D1*
X2342286Y3962173D2*
X2249802Y3869689D1*
X2108388Y3728276D2*
X1824791Y3444678D1*
X1683392Y3303280D2*
X1602715Y3222604D1*
X1345500Y2965387D2*
X1102714Y2722601D1*
X945501Y2565388D2*
X778715Y2398602D1*
X530656Y2150543D2*
X415702Y2035589D1*
X2342286Y3933890D2*
X2249802Y3841404D1*
X2108388Y3699992D2*
X1824791Y3416395D1*
X1683392Y3274996D2*
X1631000Y3222604D1*
X1373785Y2965387D2*
X1130999Y2722601D1*
X973786Y2565388D2*
X790509Y2382113D1*
X547133Y2138736D2*
X415702Y2007304D1*
X2342286Y3905605D2*
X2249802Y3813121D1*
X2108388Y3671707D2*
X1824791Y3388110D1*
X1683392Y3246711D2*
X1645101Y3208420D1*
X1402068Y2965387D2*
X1159282Y2722601D1*
X1002070Y2565388D2*
X800564Y2363883D1*
X565362Y2128681D2*
X415702Y1979021D1*
X2342286Y3877320D2*
X2249802Y3784836D1*
X2108388Y3643423D2*
X1824791Y3359827D1*
X1683392Y3218427D2*
X1645101Y3180135D1*
X1430353Y2965387D2*
X1348862Y2883896D1*
X1251601Y2786636D2*
X1182609Y2717643D1*
X1030354Y2565388D2*
X808671Y2343706D1*
X585539Y2120575D2*
X415702Y1950736D1*
X2342286Y3849037D2*
X2249802Y3756551D1*
X2108388Y3615139D2*
X1824791Y3331542D1*
X1683392Y3190143D2*
X1645101Y3151852D1*
X1458638Y2965387D2*
X1380848Y2887597D1*
X1247900Y2754651D2*
X1182609Y2689360D1*
X1058639Y2565388D2*
X814513Y2321264D1*
X587887Y2094638D2*
X415702Y1922453D1*
X2342286Y3820752D2*
X2249802Y3728268D1*
X2108388Y3586854D2*
X1824791Y3303257D1*
X1683392Y3161858D2*
X1645101Y3123567D1*
X1486921Y2965387D2*
X1406383Y2884849D1*
X1250663Y2729129D2*
X1182609Y2661075D1*
X1075391Y2553857D2*
X817454Y2295920D1*
X587887Y2066354D2*
X415702Y1894168D1*
X2342286Y3792469D2*
X2249802Y3699983D1*
X2108388Y3558570D2*
X1824791Y3274974D1*
X1683392Y3133575D2*
X1645101Y3095282D1*
X1515206Y2965387D2*
X1428108Y2878289D1*
X1257209Y2707390D2*
X1182609Y2632790D1*
X1075391Y2525572D2*
X816211Y2266394D1*
X587887Y2038070D2*
X415702Y1865883D1*
X2342286Y3764184D2*
X2249802Y3671699D1*
X2108388Y3530286D2*
X1824791Y3246689D1*
X1683392Y3105290D2*
X1645101Y3066999D1*
X1543490Y2965387D2*
X1447000Y2868898D1*
X1266600Y2688497D2*
X1182609Y2604507D1*
X1075391Y2497289D2*
X807290Y2229188D1*
X700058Y2121955D2*
X695105Y2117003D1*
X587887Y2009785D2*
X415702Y1837600D1*
X2342286Y3735899D2*
X2249802Y3643415D1*
X2108388Y3502001D2*
X1824791Y3218406D1*
X1683392Y3077005D2*
X1645101Y3038714D1*
X1571774Y2965387D2*
X1463504Y2857118D1*
X1278381Y2671993D2*
X1182609Y2576222D1*
X1075391Y2469004D2*
X1052181Y2445794D1*
X970954Y2364568D2*
X695105Y2088719D1*
X587887Y1981501D2*
X415702Y1809315D1*
X2342286Y3707615D2*
X2249802Y3615130D1*
X2108388Y3473718D2*
X1824791Y3190121D1*
X1683392Y3048722D2*
X1645101Y3010430D1*
X1600059Y2965387D2*
X1477798Y2843127D1*
X1292370Y2657699D2*
X1182609Y2547938D1*
X956343Y2321672D2*
X695105Y2060434D1*
X587887Y1953217D2*
X415702Y1781030D1*
X2342286Y3679331D2*
X2249802Y3586846D1*
X2108388Y3445433D2*
X1824791Y3161836D1*
X1683392Y3020437D2*
X1645101Y2982146D1*
X1628343Y2965387D2*
X1489896Y2826941D1*
X1308571Y2645615D2*
X1182609Y2519654D1*
X952917Y2289963D2*
X695105Y2032151D1*
X587887Y1924933D2*
X415702Y1752747D1*
X2342286Y3651046D2*
X2249802Y3558562D1*
X2108388Y3417148D2*
X1824791Y3133552D1*
X1683392Y2992152D2*
X1499633Y2808394D1*
X1327105Y2635865D2*
X1182609Y2491369D1*
X954507Y2263266D2*
X695105Y2003866D1*
X587887Y1896648D2*
X415702Y1724462D1*
X2342286Y3622762D2*
X2249802Y3530278D1*
X2108388Y3388865D2*
X1824791Y3105268D1*
X1683392Y2963869D2*
X1506621Y2787097D1*
X1348400Y2628877D2*
X1182609Y2463085D1*
X959367Y2239844D2*
X695105Y1975581D1*
X587887Y1868364D2*
X415702Y1696178D1*
X2342286Y3594478D2*
X2249802Y3501993D1*
X2108388Y3360580D2*
X1824791Y3076983D1*
X1683392Y2935584D2*
X1510005Y2762197D1*
X1373301Y2625493D2*
X1197883Y2450075D1*
X966688Y2218879D2*
X695105Y1947298D1*
X587887Y1840080D2*
X415702Y1667894D1*
X2342286Y3566194D2*
X2249802Y3473709D1*
X2108388Y3332297D2*
X1824791Y3048699D1*
X1683392Y2907301D2*
X1507533Y2731441D1*
X1404058Y2627965D2*
X1216804Y2440711D1*
X976037Y2199945D2*
X695105Y1919013D1*
X587887Y1811795D2*
X415702Y1639609D1*
X2342286Y3537909D2*
X2249802Y3445425D1*
X2108388Y3304012D2*
X1824791Y3020415D1*
X1683392Y2879016D2*
X1485864Y2681487D1*
X1454010Y2649634D2*
X1233916Y2429539D1*
X987210Y2182833D2*
X695105Y1890730D1*
X587887Y1783512D2*
X415702Y1611325D1*
X2342286Y3509625D2*
X2249802Y3417140D1*
X2108388Y3275727D2*
X1824791Y2992131D1*
X1683392Y2850731D2*
X1249370Y2416709D1*
X1000039Y2167379D2*
X695105Y1862445D1*
X587887Y1755227D2*
X415702Y1583041D1*
X2342286Y3481341D2*
X2249802Y3388856D1*
X2108388Y3247444D2*
X1824791Y2963846D1*
X1683392Y2822448D2*
X1583547Y2722601D1*
X1575399Y2714454D2*
X1263194Y2402249D1*
X1014500Y2153555D2*
X695105Y1834160D1*
X587887Y1726942D2*
X415702Y1554757D1*
X2342286Y3453056D2*
X2249802Y3360572D1*
X2108388Y3219159D2*
X1824791Y2935562D1*
X1683392Y2794163D2*
X1611831Y2722601D1*
X1575392Y2686164D2*
X1275375Y2386146D1*
X1030602Y2141374D2*
X695105Y1805877D1*
X587887Y1698659D2*
X415702Y1526472D1*
X2342286Y3424773D2*
X2249802Y3332287D1*
X2108388Y3190874D2*
X1824791Y2907278D1*
X1683392Y2765879D2*
X1640115Y2722601D1*
X1575392Y2657879D2*
X1285857Y2368344D1*
X1048406Y2130891D2*
X695105Y1777592D1*
X587887Y1670374D2*
X415702Y1498188D1*
X2342286Y3396488D2*
X2249802Y3304004D1*
X2108388Y3162591D2*
X1824791Y2878993D1*
X1684345Y2738547D2*
X1668399Y2722601D1*
X1575392Y2629594D2*
X1294448Y2348650D1*
X1068098Y2122301D2*
X695105Y1749307D1*
X587887Y1642089D2*
X415702Y1469904D1*
X2342286Y3368203D2*
X2249802Y3275719D1*
X2108388Y3134306D2*
X1824791Y2850710D1*
X1699164Y2725081D2*
X1696684Y2722601D1*
X1575392Y2601311D2*
X1300870Y2326787D1*
X1075391Y2101308D2*
X695105Y1721024D1*
X587887Y1613806D2*
X415702Y1441619D1*
X2342286Y3339920D2*
X2249802Y3247434D1*
X2108388Y3106022D2*
X1824791Y2822425D1*
X1575392Y2573026D2*
X1304571Y2302205D1*
X1075391Y2073025D2*
X695105Y1692739D1*
X587887Y1585521D2*
X538617Y1536251D1*
X499251Y1496885D2*
X415702Y1413335D1*
X2342286Y3311635D2*
X2249802Y3219151D1*
X2108388Y3077738D2*
X1824791Y2794140D1*
X1575392Y2544741D2*
X1304501Y2273852D1*
X1075391Y2044740D2*
X695105Y1664455D1*
X472140Y1441490D2*
X415702Y1385051D1*
X2342286Y3283350D2*
X2249802Y3190866D1*
X2108388Y3049453D2*
X1824791Y2765857D1*
X1575392Y2516458D2*
X1298010Y2239076D1*
X1075391Y2016455D2*
X695105Y1636171D1*
X465925Y1406991D2*
X415702Y1356766D1*
X2342286Y3255067D2*
X2249802Y3162583D1*
X2108388Y3021169D2*
X1809820Y2722601D1*
X1575392Y2488173D2*
X1268732Y2181513D1*
X1235236Y2148017D2*
X1182609Y2095390D1*
X1075391Y1988172D2*
X695105Y1607886D1*
X465995Y1378776D2*
X415702Y1328483D1*
X2342286Y3226782D2*
X2249802Y3134298D1*
X2108388Y2992885D2*
X1832609Y2717105D1*
X1575392Y2459890D2*
X1568231Y2452727D1*
X1464024Y2348520D2*
X1182609Y2067105D1*
X1075391Y1959887D2*
X695105Y1579602D1*
X469793Y1354289D2*
X415702Y1300198D1*
X2342286Y3198499D2*
X2249802Y3106013D1*
X2108388Y2964601D2*
X1832609Y2688820D1*
X1709177Y2565388D2*
X1682610Y2538823D1*
X1454495Y2310706D2*
X1182609Y2038822D1*
X1075391Y1931604D2*
X703020Y1559231D1*
X476270Y1332482D2*
X415702Y1271913D1*
X2342286Y3170214D2*
X2249802Y3077730D1*
X2108388Y2936316D2*
X1832609Y2660537D1*
X1737461Y2565388D2*
X1682610Y2510538D1*
X1453003Y2280930D2*
X1182609Y2010537D1*
X1075391Y1903319D2*
X722644Y1550572D1*
X484929Y1312857D2*
X415702Y1243630D1*
X2342286Y3141929D2*
X2249802Y3049445D1*
X2108388Y2908031D2*
X1832609Y2632252D1*
X1765745Y2565388D2*
X1682610Y2482255D1*
X1455765Y2255408D2*
X1182609Y1982252D1*
X1075391Y1875034D2*
X740404Y1540049D1*
X495453Y1295097D2*
X415702Y1215345D1*
X2342286Y3113646D2*
X2249802Y3021160D1*
X2108388Y2879748D2*
X1832609Y2603967D1*
X1794030Y2565388D2*
X1683909Y2455268D1*
X1461483Y2232841D2*
X1182609Y1953969D1*
X1075391Y1846751D2*
X756438Y1527798D1*
X507689Y1279049D2*
X415702Y1187062D1*
X2342286Y3085361D2*
X2249802Y2992877D1*
X2108388Y2851463D2*
X1832609Y2575684D1*
X1822314Y2565388D2*
X1704182Y2447259D1*
X1469492Y2212567D2*
X1182609Y1925684D1*
X1075391Y1818466D2*
X770857Y1513932D1*
X521570Y1264644D2*
X415702Y1158777D1*
X2342286Y3057077D2*
X2249802Y2964592D1*
X2108388Y2823180D2*
X1722509Y2437301D1*
X1479450Y2194240D2*
X1182609Y1897399D1*
X1075391Y1790182D2*
X783646Y1498437D1*
X537064Y1251856D2*
X415702Y1130492D1*
X2342286Y3028793D2*
X2249802Y2936308D1*
X2108388Y2794895D2*
X1739083Y2425589D1*
X1491161Y2177668D2*
X1182609Y1869115D1*
X1075391Y1761898D2*
X794764Y1481270D1*
X554231Y1240738D2*
X415702Y1102209D1*
X2342286Y3000508D2*
X2249802Y2908024D1*
X2108388Y2766610D2*
X1753997Y2412220D1*
X1504530Y2162752D2*
X1182609Y1840831D1*
X1075391Y1733613D2*
X804072Y1462294D1*
X573207Y1231429D2*
X415702Y1073924D1*
X2342286Y2972224D2*
X2249802Y2879739D1*
X2109161Y2739100D2*
X2092664Y2722601D1*
X2062896Y2692833D2*
X1767298Y2397236D1*
X1519514Y2149453D2*
X1182609Y1812547D1*
X1075391Y1705329D2*
X811323Y1441260D1*
X594240Y1224178D2*
X415702Y1045639D1*
X2342286Y2943940D2*
X2249802Y2851455D1*
X2123567Y2725220D2*
X2120948Y2722601D1*
X2062896Y2664550D2*
X1778954Y2380608D1*
X1536143Y2137797D2*
X1182609Y1784262D1*
X1075391Y1677045D2*
X816087Y1417741D1*
X617760Y1219413D2*
X415702Y1017356D1*
X2342286Y2915655D2*
X2249802Y2823171D1*
X2062896Y2636265D2*
X1788843Y2362211D1*
X1554538Y2127908D2*
X1182609Y1755978D1*
X1075391Y1648760D2*
X817564Y1390934D1*
X644567Y1217936D2*
X588224Y1161594D1*
X473908Y1047278D2*
X415702Y989071D1*
X2342286Y2887371D2*
X2249802Y2794887D1*
X2062896Y2607982D2*
X1796783Y2341869D1*
X1574882Y2119967D2*
X1182609Y1727694D1*
X1075391Y1620476D2*
X813933Y1359018D1*
X676470Y1221555D2*
X624077Y1169163D1*
X466327Y1011411D2*
X415702Y960787D1*
X2342286Y2859087D2*
X2249802Y2766602D1*
X2062896Y2579697D2*
X1802391Y2319192D1*
X1575392Y2092194D2*
X1182609Y1699409D1*
X1075391Y1592192D2*
X1030207Y1547009D1*
X963483Y1480283D2*
X798714Y1315514D1*
X719987Y1236787D2*
X652970Y1169770D1*
X465719Y982520D2*
X415702Y932503D1*
X2342286Y2830803D2*
X2246445Y2734962D1*
X2239451Y2727969D2*
X2234085Y2722601D1*
X2062896Y2551412D2*
X1805029Y2293545D1*
X1575392Y2063909D2*
X1182609Y1671126D1*
X945087Y1433604D2*
X677911Y1166428D1*
X469060Y957577D2*
X415702Y904218D1*
X2342286Y2802518D2*
X2257605Y2717837D1*
X2062896Y2523129D2*
X1803329Y2263562D1*
X1575392Y2035625D2*
X1182609Y1642841D1*
X940558Y1400790D2*
X700064Y1160297D1*
X475206Y935438D2*
X415702Y875934D1*
X2342286Y2774234D2*
X2257605Y2689552D1*
X2062896Y2494844D2*
X1793331Y2225280D1*
X1691471Y2123420D2*
X1682610Y2114559D1*
X1575392Y2007341D2*
X1182609Y1614556D1*
X941524Y1373472D2*
X719979Y1151927D1*
X483576Y915524D2*
X415702Y847650D1*
X2342286Y2745950D2*
X2257605Y2661268D1*
X2062896Y2466560D2*
X2044340Y2448004D1*
X1956249Y2359913D2*
X1682610Y2086274D1*
X1575392Y1979056D2*
X1182609Y1586273D1*
X945929Y1349593D2*
X737988Y1141652D1*
X493850Y897514D2*
X415702Y819366D1*
X2342286Y2717665D2*
X2257605Y2632984D1*
X2190009Y2565388D2*
X2170114Y2545493D1*
X1943268Y2318647D2*
X1682610Y2057991D1*
X1575392Y1950773D2*
X1182609Y1557988D1*
X952890Y1328270D2*
X754270Y1129650D1*
X505852Y881232D2*
X484727Y860108D1*
X475400Y850780D2*
X415702Y791081D1*
X2342286Y2689382D2*
X2257605Y2604699D1*
X2218294Y2565388D2*
X2170114Y2517209D1*
X1940395Y2287491D2*
X1682610Y2029706D1*
X1575392Y1922488D2*
X1201461Y1548555D1*
X961950Y1309046D2*
X768909Y1116005D1*
X519497Y866593D2*
X513012Y860108D1*
X475400Y822495D2*
X415702Y762797D1*
X2342286Y2661097D2*
X2257605Y2576416D1*
X2246577Y2565388D2*
X2170114Y2488925D1*
X1942315Y2261126D2*
X1682610Y2001421D1*
X1575392Y1894203D2*
X1218848Y1537659D1*
X972846Y1291657D2*
X781933Y1100744D1*
X475400Y794211D2*
X415702Y734513D1*
X2342286Y2632812D2*
X2170114Y2460640D1*
X1947411Y2237938D2*
X1682610Y1973138D1*
X1575392Y1865920D2*
X1234551Y1525077D1*
X985428Y1275955D2*
X793286Y1083812D1*
X475400Y765927D2*
X415702Y706228D1*
X2342286Y2604529D2*
X2187087Y2449329D1*
X1954911Y2217152D2*
X1682610Y1944853D1*
X1575392Y1837635D2*
X1248623Y1510866D1*
X999626Y1261867D2*
X802857Y1065098D1*
X475400Y737642D2*
X415702Y677944D1*
X2342286Y2576244D2*
X2205856Y2439814D1*
X1964440Y2198398D2*
X1682610Y1916568D1*
X1575392Y1809350D2*
X1261081Y1495039D1*
X1015466Y1249425D2*
X810425Y1044383D1*
X493934Y727892D2*
X426143Y660101D1*
X2342286Y2547959D2*
X2222815Y2428490D1*
X1975751Y2181424D2*
X1682610Y1888285D1*
X1575392Y1781067D2*
X1271840Y1477513D1*
X1032992Y1238667D2*
X815591Y1021264D1*
X522218Y727892D2*
X454427Y660101D1*
X2342286Y2519676D2*
X2238131Y2415521D1*
X1988732Y2166122D2*
X1682610Y1860000D1*
X1575392Y1752782D2*
X1280734Y1458123D1*
X1052369Y1229759D2*
X817606Y994996D1*
X550503Y727892D2*
X482711Y660101D1*
X2342286Y2491391D2*
X2251818Y2400923D1*
X2003331Y2152436D2*
X1682610Y1831717D1*
X1575392Y1724499D2*
X1287529Y1436634D1*
X1073871Y1222978D2*
X814899Y964005D1*
X578786Y727892D2*
X510996Y660101D1*
X2342286Y2463108D2*
X2263861Y2384682D1*
X2019572Y2140392D2*
X1682610Y1803432D1*
X1575392Y1696214D2*
X1291699Y1412521D1*
X1097986Y1218806D2*
X1019656Y1140478D1*
X970029Y1090850D2*
X802360Y923181D1*
X607071Y727892D2*
X539280Y660101D1*
X2342286Y2434823D2*
X2274177Y2366714D1*
X2037539Y2130076D2*
X1682610Y1775147D1*
X1575392Y1667929D2*
X1292335Y1384871D1*
X1125634Y1218171D2*
X1071516Y1164052D1*
X946454Y1038991D2*
X767571Y860108D1*
X635356Y727892D2*
X567564Y660101D1*
X2342286Y2406538D2*
X2282602Y2346854D1*
X2057399Y2121652D2*
X1682610Y1746864D1*
X1575392Y1639646D2*
X1287184Y1351436D1*
X1159056Y1223308D2*
X1105462Y1169715D1*
X940793Y1005045D2*
X795854Y860108D1*
X663639Y727892D2*
X595848Y660101D1*
X2342286Y2378255D2*
X2288803Y2324772D1*
X2062896Y2098865D2*
X1682610Y1718579D1*
X1575392Y1611361D2*
X1266219Y1302186D1*
X1208304Y1244273D2*
X1133387Y1169356D1*
X941138Y977105D2*
X824139Y860108D1*
X691924Y727892D2*
X624133Y660101D1*
X2342286Y2349970D2*
X2292228Y2299912D1*
X2062896Y2070580D2*
X1682610Y1690295D1*
X1575392Y1583077D2*
X1157694Y1165378D1*
X945129Y952812D2*
X852423Y860108D1*
X720207Y727892D2*
X652417Y660101D1*
X2342286Y2321686D2*
X2291744Y2271144D1*
X2062896Y2042295D2*
X1682610Y1662010D1*
X1477227Y1456626D2*
X1179336Y1158735D1*
X951772Y931172D2*
X880707Y860108D1*
X748492Y727892D2*
X680701Y660101D1*
X2342286Y2293402D2*
X2284438Y2235554D1*
X2062896Y2014012D2*
X1682610Y1633726D1*
X1467186Y1418302D2*
X1198836Y1149951D1*
X960542Y911657D2*
X908992Y860108D1*
X776777Y727892D2*
X708986Y660101D1*
X2342286Y2265117D2*
X2170114Y2092945D1*
X2062896Y1985727D2*
X1682610Y1605442D1*
X1465459Y1388291D2*
X1216472Y1139303D1*
X971189Y894021D2*
X937276Y860108D1*
X805060Y727892D2*
X737269Y660101D1*
X2342286Y2236833D2*
X2170114Y2064660D1*
X2062896Y1957442D2*
X1682610Y1577157D1*
X1468097Y1362644D2*
X1232409Y1126957D1*
X983537Y878083D2*
X965560Y860108D1*
X833345Y727892D2*
X765554Y660101D1*
X2342286Y2208549D2*
X2170114Y2036377D1*
X2062896Y1929159D2*
X1695538Y1561801D1*
X1473692Y1339954D2*
X1246732Y1112995D1*
X997513Y863776D2*
X993846Y860109D1*
X861629Y727892D2*
X793839Y660101D1*
X2342286Y2180264D2*
X2170114Y2008092D1*
X2062896Y1900874D2*
X1715894Y1553873D1*
X1481618Y1319597D2*
X1259409Y1097388D1*
X889913Y727892D2*
X822122Y660101D1*
X2342286Y2151980D2*
X2170114Y1979808D1*
X2062896Y1872591D2*
X1734290Y1543984D1*
X1491507Y1301201D2*
X1270417Y1080112D1*
X918198Y727892D2*
X850407Y660101D1*
X2342286Y2123696D2*
X2170114Y1951524D1*
X2062896Y1844306D2*
X1750932Y1532343D1*
X1503163Y1284572D2*
X1279601Y1061010D1*
X946482Y727892D2*
X878692Y660101D1*
X2342286Y2095412D2*
X2170114Y1923239D1*
X2062896Y1816021D2*
X1765916Y1519042D1*
X1516449Y1269575D2*
X1286699Y1039825D1*
X974766Y727892D2*
X906975Y660101D1*
X2342286Y2067127D2*
X2170114Y1894955D1*
X2062896Y1787738D2*
X1779285Y1504127D1*
X1531365Y1256206D2*
X1291299Y1016140D1*
X1003051Y727892D2*
X935260Y660101D1*
X2342286Y2038843D2*
X2170114Y1866671D1*
X2062896Y1759453D2*
X1791010Y1487568D1*
X1547937Y1244495D2*
X1292514Y989071D1*
X1031335Y727892D2*
X963543Y660101D1*
X2342286Y2010559D2*
X2170114Y1838387D1*
X2062896Y1731169D2*
X1800982Y1469255D1*
X1566251Y1234522D2*
X1288440Y956713D1*
X1059619Y727892D2*
X991828Y660101D1*
X2342286Y1982274D2*
X2170114Y1810102D1*
X2062896Y1702885D2*
X1808992Y1448980D1*
X1586510Y1226499D2*
X1271730Y911718D1*
X1087903Y727892D2*
X1020113Y660101D1*
X2342286Y1953991D2*
X2170114Y1781818D1*
X2062896Y1674600D2*
X1814710Y1426413D1*
X1609077Y1220781D2*
X1248403Y860108D1*
X1116188Y727892D2*
X1048396Y660101D1*
X2342286Y1925706D2*
X2170114Y1753534D1*
X2062896Y1646316D2*
X1817500Y1400920D1*
X1634585Y1218005D2*
X1572042Y1155462D1*
X1480043Y1063463D2*
X1276688Y860108D1*
X1144472Y727892D2*
X1076681Y660101D1*
X2342286Y1897421D2*
X2170114Y1725249D1*
X2062896Y1618031D2*
X1816022Y1371157D1*
X1664348Y1219483D2*
X1612425Y1167560D1*
X1467946Y1023081D2*
X1282612Y837748D1*
X1172756Y727892D2*
X1104965Y660101D1*
X2342286Y1869138D2*
X2170114Y1696965D1*
X2062896Y1589747D2*
X1806547Y1333399D1*
X1702106Y1228957D2*
X1643251Y1170101D1*
X1465391Y992243D2*
X1282612Y809463D1*
X1201041Y727892D2*
X1133249Y660101D1*
X2342286Y1840853D2*
X2170114Y1668681D1*
X1948999Y1447567D2*
X1669421Y1167988D1*
X1467517Y966085D2*
X1282612Y781178D1*
X1229324Y727892D2*
X1161534Y660101D1*
X2342286Y1812568D2*
X2170114Y1640396D1*
X1941348Y1411631D2*
X1692471Y1162755D1*
X1472752Y943034D2*
X1282612Y752895D1*
X1257609Y727892D2*
X1189818Y660101D1*
X2342286Y1784285D2*
X2170114Y1612113D1*
X1940713Y1382711D2*
X1713133Y1155131D1*
X1480375Y922374D2*
X1218102Y660101D1*
X2342286Y1756000D2*
X2170114Y1583828D1*
X1944028Y1357741D2*
X1731790Y1145505D1*
X1490001Y903715D2*
X1246387Y660101D1*
X2342286Y1727717D2*
X2174906Y1560336D1*
X1950159Y1335589D2*
X1748667Y1134097D1*
X1501395Y886825D2*
X1274671Y660101D1*
X2342286Y1699432D2*
X2194849Y1551995D1*
X1958514Y1315660D2*
X1763886Y1121033D1*
X1514461Y871606D2*
X1502962Y860108D1*
X1487888Y845034D2*
X1302955Y660101D1*
X2342286Y1671147D2*
X2212871Y1541734D1*
X1968776Y1297638D2*
X1777490Y1106352D1*
X1487888Y816749D2*
X1331239Y660101D1*
X2342286Y1642864D2*
X2229155Y1529732D1*
X1980764Y1281341D2*
X1789450Y1090028D1*
X1487888Y788466D2*
X1359524Y660101D1*
X2342286Y1614579D2*
X2243807Y1516101D1*
X1994395Y1266688D2*
X1799669Y1071963D1*
X1487888Y760181D2*
X1387808Y660101D1*
X2342286Y1586295D2*
X2256845Y1500853D1*
X2009642Y1253651D2*
X1807984Y1051992D1*
X1487888Y731898D2*
X1416092Y660101D1*
X2342286Y1558010D2*
X2268211Y1483936D1*
X2026560Y1242285D2*
X1814060Y1029785D1*
X1512168Y727892D2*
X1444377Y660101D1*
X2342286Y1529726D2*
X2277795Y1465236D1*
X2045260Y1232699D2*
X1817320Y1004760D1*
X1540451Y727892D2*
X1472660Y660101D1*
X2342286Y1501442D2*
X2285378Y1444534D1*
X2065962Y1225118D2*
X1816575Y975730D1*
X1568736Y727892D2*
X1500945Y660101D1*
X2342286Y1473157D2*
X2290556Y1421428D1*
X2089067Y1219938D2*
X1808730Y939601D1*
X1597020Y727892D2*
X1529230Y660101D1*
X2342286Y1444873D2*
X2292601Y1395188D1*
X2115307Y1217895D2*
X2056783Y1159370D1*
X1951126Y1053714D2*
X1757520Y860108D1*
X1625304Y727892D2*
X1557513Y660101D1*
X2342286Y1416589D2*
X2289936Y1364239D1*
X2146257Y1220560D2*
X2094307Y1168610D1*
X1941900Y1016203D2*
X1785804Y860108D1*
X1653589Y727892D2*
X1585798Y660101D1*
X2342286Y1388304D2*
X2277520Y1323538D1*
X2186957Y1232976D2*
X2123958Y1169978D1*
X1940520Y986538D2*
X1814088Y860108D1*
X1681873Y727892D2*
X1614083Y660101D1*
X2342286Y1360021D2*
X2149398Y1167133D1*
X1943365Y961098D2*
X1842373Y860108D1*
X1710157Y727892D2*
X1642366Y660101D1*
X2342286Y1331736D2*
X2171909Y1161360D1*
X1949138Y938588D2*
X1870657Y860108D1*
X1738442Y727892D2*
X1670651Y660101D1*
X2342286Y1303451D2*
X2192129Y1153294D1*
X1957203Y918369D2*
X1898941Y860108D1*
X1766726Y727892D2*
X1698934Y660101D1*
X2342286Y1275168D2*
X2210413Y1143295D1*
X1967202Y900084D2*
X1927226Y860108D1*
X1795010Y727892D2*
X1727219Y660101D1*
X2342286Y1246883D2*
X2226945Y1131542D1*
X1978954Y883552D2*
X1955509Y860108D1*
X1823294Y727892D2*
X1755504Y660101D1*
X2342286Y1218600D2*
X2241819Y1118133D1*
X1992365Y868678D2*
X1983794Y860108D1*
X1851579Y727892D2*
X1783787Y660101D1*
X2342286Y1190315D2*
X2255091Y1103119D1*
X1879864Y727892D2*
X1812072Y660101D1*
X2342286Y1162030D2*
X2266706Y1086450D1*
X1908147Y727892D2*
X1840356Y660101D1*
X2342286Y1133747D2*
X2276552Y1068013D1*
X1936432Y727892D2*
X1868640Y660101D1*
X2342286Y1105462D2*
X2284438Y1047614D1*
X1964715Y727892D2*
X1896925Y660101D1*
X2342286Y1077177D2*
X2289991Y1024882D1*
X1993000Y727892D2*
X1925209Y660101D1*
X2342286Y1048894D2*
X2292546Y999154D1*
X2021285Y727892D2*
X1953493Y660101D1*
X2342286Y1020609D2*
X2290723Y969046D1*
X2049568Y727892D2*
X1981777Y660101D1*
X2342286Y992325D2*
X2280420Y930459D1*
X2077853Y727892D2*
X2010062Y660101D1*
X2342286Y964041D2*
X2238352Y860108D1*
X2106138Y727892D2*
X2038346Y660101D1*
X2342286Y935756D2*
X2266636Y860108D1*
X2134421Y727892D2*
X2066630Y660101D1*
X2342286Y907472D2*
X2294921Y860108D1*
X2162706Y727892D2*
X2094915Y660101D1*
X2342286Y879188D2*
X2295114Y832016D1*
X2190990Y727892D2*
X2123199Y660101D1*
X2342286Y850904D2*
X2295114Y803732D1*
X2219274Y727892D2*
X2151483Y660101D1*
X2342286Y822619D2*
X2295114Y775448D1*
X2247559Y727892D2*
X2179768Y660101D1*
X2342286Y794335D2*
X2295114Y747163D1*
X2275843Y727892D2*
X2208051Y660101D1*
X2342286Y766051D2*
X2236336Y660101D1*
X2342286Y737766D2*
X2264621Y660101D1*
X2342286Y709483D2*
X2292904Y660101D1*
X2342286Y681198D2*
X2321189Y660101D1*
X2336588Y5209138D2*
X2342286Y5203440D1*
X2308303Y5209138D2*
X2342286Y5175156D1*
X2280020Y5209138D2*
X2342286Y5146871D1*
X2251735Y5209138D2*
X2342286Y5118587D1*
X2223450Y5209138D2*
X2342286Y5090303D1*
X2195167Y5209138D2*
X2342286Y5062018D1*
X2166882Y5209138D2*
X2342286Y5033734D1*
X2138598Y5209138D2*
X2342286Y5005450D1*
X2110314Y5209138D2*
X2342286Y4977165D1*
X2082029Y5209138D2*
X2342286Y4948882D1*
X2053745Y5209138D2*
X2342286Y4920597D1*
X2025461Y5209138D2*
X2342286Y4892312D1*
X1997176Y5209138D2*
X2342286Y4864029D1*
X1968892Y5209138D2*
X2171890Y5006140D1*
X2266139Y4911891D2*
X2342286Y4835744D1*
X1940608Y5209138D2*
X2132005Y5017741D1*
X2277740Y4872005D2*
X2342286Y4807461D1*
X1912324Y5209138D2*
X2101358Y5020104D1*
X2280102Y4841360D2*
X2342286Y4779176D1*
X1884039Y5209138D2*
X2075312Y5017866D1*
X2277865Y4815312D2*
X2342286Y4750891D1*
X1855755Y5209138D2*
X2052345Y5012549D1*
X2272547Y4792345D2*
X2342286Y4722608D1*
X1827471Y5209138D2*
X2031753Y5004856D1*
X2264856Y4771753D2*
X2342286Y4694323D1*
X1799186Y5209138D2*
X2013150Y4995175D1*
X2255173Y4753151D2*
X2342286Y4666038D1*
X1770903Y5209138D2*
X1996328Y4983713D1*
X2243711Y4736329D2*
X2342286Y4637755D1*
X1742618Y5209138D2*
X1981164Y4970592D1*
X2230591Y4721165D2*
X2342286Y4609470D1*
X1714333Y5209138D2*
X1967615Y4955856D1*
X2215869Y4707604D2*
X2342286Y4581186D1*
X1686050Y5209138D2*
X1955697Y4939490D1*
X2199490Y4695698D2*
X2235088Y4660100D1*
X2257605Y4637583D2*
X2342286Y4552902D1*
X1657765Y5209138D2*
X1945533Y4921370D1*
X2181370Y4685534D2*
X2206803Y4660100D1*
X2257605Y4609299D2*
X2342286Y4524617D1*
X1629480Y5209138D2*
X1816168Y5022451D1*
X1844941Y4993677D2*
X1937287Y4901331D1*
X2161331Y4677289D2*
X2178518Y4660100D1*
X2257605Y4581014D2*
X2342286Y4496333D1*
X1601197Y5209138D2*
X1777692Y5032643D1*
X1855147Y4955188D2*
X1931294Y4879041D1*
X2139054Y4671281D2*
X2150235Y4660100D1*
X2257605Y4552731D2*
X2342286Y4468049D1*
X1572912Y5209138D2*
X1753564Y5028486D1*
X1850976Y4931073D2*
X1928131Y4853919D1*
X2113919Y4668133D2*
X2121950Y4660100D1*
X2241654Y4540398D2*
X2342286Y4439765D1*
X1544629Y5209138D2*
X1734865Y5018902D1*
X1841392Y4912374D2*
X1929029Y4824738D1*
X2084736Y4669030D2*
X2093667Y4660100D1*
X2213369Y4540398D2*
X2342286Y4411480D1*
X1516344Y5209138D2*
X1720171Y5005312D1*
X1827802Y4897680D2*
X1937219Y4788264D1*
X2048262Y4677220D2*
X2065382Y4660100D1*
X2185084Y4540398D2*
X2342286Y4383196D1*
X1488059Y5209138D2*
X1709357Y4987841D1*
X1810345Y4886852D2*
X2037097Y4660100D1*
X2156801Y4540398D2*
X2342286Y4354912D1*
X1459776Y5209138D2*
X1703322Y4965592D1*
X1788097Y4880816D2*
X2008814Y4660100D1*
X2128516Y4540398D2*
X2342286Y4326627D1*
X1431491Y5209138D2*
X1706457Y4934173D1*
X1756677Y4883951D2*
X1980529Y4660100D1*
X2100232Y4540398D2*
X2342286Y4298344D1*
X1403207Y5209138D2*
X1952245Y4660100D1*
X2071948Y4540398D2*
X2342286Y4270059D1*
X1374923Y5209138D2*
X1596427Y4987634D1*
X1660140Y4923920D2*
X1950394Y4633667D1*
X2043663Y4540398D2*
X2342286Y4241774D1*
X1346638Y5209138D2*
X1556638Y4999139D1*
X1671631Y4884146D2*
X1950394Y4605382D1*
X2015379Y4540398D2*
X2342286Y4213491D1*
X1318354Y5209138D2*
X1528022Y4999470D1*
X1671976Y4855516D2*
X1950394Y4577098D1*
X1987094Y4540398D2*
X2342286Y4185206D1*
X1290070Y5209138D2*
X1504310Y4994899D1*
X1667391Y4831816D2*
X1950394Y4548814D1*
X1958811Y4540398D2*
X2234190Y4265018D1*
X2248932Y4250277D2*
X2342286Y4156921D1*
X1261785Y5209138D2*
X1483898Y4987026D1*
X1659533Y4811391D2*
X2205035Y4265888D1*
X2249802Y4221122D2*
X2342286Y4128638D1*
X1233501Y5209138D2*
X1466067Y4976572D1*
X1649064Y4793575D2*
X2176751Y4265888D1*
X2249802Y4192837D2*
X2342286Y4100353D1*
X1205217Y5209138D2*
X1450545Y4963811D1*
X1636318Y4778038D2*
X2148467Y4265888D1*
X2249802Y4164554D2*
X2342286Y4072070D1*
X1176933Y5209138D2*
X1437189Y4948882D1*
X1621388Y4764682D2*
X2121440Y4264631D1*
X2249802Y4136269D2*
X2342286Y4043785D1*
X1148648Y5209138D2*
X1426085Y4931701D1*
X1604207Y4753579D2*
X2108651Y4249135D1*
X2249802Y4107986D2*
X2342286Y4015500D1*
X1120364Y5209138D2*
X1417467Y4912034D1*
X1584541Y4744961D2*
X2108388Y4221114D1*
X2249802Y4079701D2*
X2342286Y3987217D1*
X1092080Y5209138D2*
X1411888Y4889329D1*
X1561836Y4739382D2*
X2108388Y4192829D1*
X2249802Y4051416D2*
X2342286Y3958932D1*
X1063795Y5209138D2*
X1410604Y4862329D1*
X1534823Y4738112D2*
X2108388Y4164546D1*
X2249802Y4023133D2*
X2342286Y3930648D1*
X1035512Y5209138D2*
X1248798Y4995852D1*
X1343352Y4901298D2*
X1417564Y4827085D1*
X1499592Y4745058D2*
X2108388Y4136261D1*
X2249802Y3994848D2*
X2342286Y3902364D1*
X1007227Y5209138D2*
X1216260Y5000105D1*
X1347605Y4868760D2*
X1481260Y4735106D1*
X1495104Y4721262D2*
X2108388Y4107976D1*
X2249802Y3966564D2*
X2342286Y3874079D1*
X978942Y5209138D2*
X1190462Y4997619D1*
X1345119Y4842962D2*
X1452975Y4735106D1*
X1495104Y4692978D2*
X2108388Y4079693D1*
X2249802Y3938280D2*
X2342286Y3845795D1*
X950659Y5209138D2*
X1168558Y4991239D1*
X1338739Y4821058D2*
X1424690Y4735106D1*
X1495104Y4664693D2*
X2108388Y4051408D1*
X2249802Y3909995D2*
X2342286Y3817510D1*
X922374Y5209138D2*
X1149513Y4982000D1*
X1329499Y4802013D2*
X1396407Y4735106D1*
X1495104Y4636409D2*
X2108388Y4023123D1*
X2249802Y3881711D2*
X2342286Y3789226D1*
X894089Y5209138D2*
X1132885Y4970344D1*
X1317843Y4785385D2*
X1368122Y4735106D1*
X1495104Y4608125D2*
X1630622Y4472606D1*
X1645101Y4458127D2*
X2108388Y3994840D1*
X2249802Y3853427D2*
X2342286Y3760942D1*
X865806Y5209138D2*
X1118466Y4956478D1*
X1303978Y4770967D2*
X1339837Y4735106D1*
X1484551Y4590392D2*
X1602337Y4472606D1*
X1645101Y4429843D2*
X1810299Y4264646D1*
X1823563Y4251382D2*
X2108388Y3966555D1*
X2249802Y3825142D2*
X2342286Y3732657D1*
X837521Y5209138D2*
X1106244Y4940416D1*
X1287915Y4758744D2*
X1311554Y4735106D1*
X1456268Y4590392D2*
X1574054Y4472606D1*
X1645101Y4401559D2*
X1780772Y4265888D1*
X1824791Y4221867D2*
X2108388Y3938272D1*
X2249802Y3796858D2*
X2342286Y3704374D1*
X809238Y5209138D2*
X986133Y5032243D1*
X1054736Y4963639D2*
X1096356Y4922020D1*
X1269520Y4748856D2*
X1283269Y4735106D1*
X1427983Y4590392D2*
X1545769Y4472606D1*
X1645101Y4373274D2*
X1752487Y4265888D1*
X1824791Y4193584D2*
X2108388Y3909987D1*
X2249802Y3768573D2*
X2342286Y3676089D1*
X780953Y5209138D2*
X959755Y5030337D1*
X1052829Y4937261D2*
X1089188Y4900903D1*
X1248403Y4741688D2*
X1262899Y4727193D1*
X1399699Y4590392D2*
X1517484Y4472606D1*
X1645101Y4344990D2*
X1724203Y4265888D1*
X1824791Y4165299D2*
X2108388Y3881702D1*
X2249802Y3740290D2*
X2342286Y3647804D1*
X752668Y5209138D2*
X939756Y5022050D1*
X1044558Y4917249D2*
X1085570Y4876238D1*
X1223738Y4738070D2*
X1262899Y4698908D1*
X1371415Y4590392D2*
X1489201Y4472606D1*
X1645101Y4316706D2*
X1696982Y4264824D1*
X1824791Y4137016D2*
X2108388Y3853419D1*
X2249802Y3712005D2*
X2342286Y3619521D1*
X724385Y5209138D2*
X923971Y5009551D1*
X1032059Y4901463D2*
X1087585Y4845937D1*
X1193437Y4740087D2*
X1262899Y4670623D1*
X1343130Y4590392D2*
X1460916Y4472606D1*
X1645101Y4288421D2*
X1683765Y4249757D1*
X1824791Y4108731D2*
X2108388Y3825134D1*
X2249802Y3683720D2*
X2342286Y3591236D1*
X696100Y5209138D2*
X912010Y4993227D1*
X1015735Y4889504D2*
X1106230Y4799008D1*
X1146508Y4758731D2*
X1262899Y4642340D1*
X1314846Y4590392D2*
X1432631Y4472606D1*
X1645101Y4260138D2*
X1683392Y4221846D1*
X1824791Y4080446D2*
X2108388Y3796850D1*
X2249802Y3655437D2*
X2342286Y3562953D1*
X667816Y5209138D2*
X904429Y4972525D1*
X995031Y4881921D2*
X1262899Y4614055D1*
X1286562Y4590392D2*
X1404348Y4472606D1*
X1645101Y4231853D2*
X1683392Y4193562D1*
X1824791Y4052163D2*
X2108388Y3768566D1*
X2249802Y3627152D2*
X2342286Y3534668D1*
X639531Y5209138D2*
X903877Y4944794D1*
X967286Y4881383D2*
X1376063Y4472606D1*
X1645101Y4203568D2*
X1683392Y4165277D1*
X1824791Y4023878D2*
X2108388Y3740281D1*
X2249802Y3598869D2*
X2342286Y3506383D1*
X611245Y5209139D2*
X1347777Y4472608D1*
X1645113Y4175272D2*
X1683391Y4136995D1*
X1824790Y3995596D2*
X2108387Y3711999D1*
X2249799Y3570585D2*
X2342298Y3478087D1*
X582962Y5209139D2*
X1319493Y4472608D1*
X1645113Y4146988D2*
X1683391Y4108710D1*
X1824790Y3967311D2*
X2108387Y3683714D1*
X2249799Y3542302D2*
X2342298Y3449803D1*
X554677Y5209139D2*
X1291209Y4472608D1*
X1645113Y4118703D2*
X1683391Y4080427D1*
X1824790Y3939026D2*
X2108387Y3655430D1*
X2249799Y3514017D2*
X2342298Y3421518D1*
X526392Y5209139D2*
X736323Y4999209D1*
X809207Y4926324D2*
X1262925Y4472608D1*
X1645113Y4090420D2*
X1683391Y4052142D1*
X1824790Y3910743D2*
X2108387Y3627146D1*
X2249799Y3485732D2*
X2342298Y3393235D1*
X498109Y5209139D2*
X691315Y5015934D1*
X825933Y4881316D2*
X1250399Y4456850D1*
X1645113Y4062135D2*
X1683391Y4023857D1*
X1824790Y3882458D2*
X2108387Y3598861D1*
X2249799Y3457449D2*
X2342298Y3364950D1*
X469824Y5209139D2*
X658942Y5020022D1*
X830021Y4848944D2*
X1250399Y4428566D1*
X1645113Y4033850D2*
X1683391Y3995573D1*
X1824790Y3854175D2*
X2108387Y3570577D1*
X2249799Y3429164D2*
X2342298Y3336665D1*
X441539Y5209139D2*
X631887Y5018793D1*
X828791Y4821888D2*
X1250399Y4400281D1*
X1645113Y4005567D2*
X1683391Y3967289D1*
X1824790Y3825890D2*
X2108387Y3542293D1*
X2249799Y3400879D2*
X2342298Y3308382D1*
X415714Y5206681D2*
X608188Y5014207D1*
X824206Y4798189D2*
X1250399Y4371997D1*
X1645113Y3977282D2*
X1683391Y3939005D1*
X1824790Y3797605D2*
X2108387Y3514009D1*
X2249799Y3372596D2*
X2342298Y3280097D1*
X415714Y5178398D2*
X587016Y5007094D1*
X817108Y4777004D2*
X1250399Y4343713D1*
X1645113Y3948999D2*
X1683391Y3910720D1*
X1824790Y3769322D2*
X2108387Y3485724D1*
X2249799Y3344311D2*
X2342298Y3251812D1*
X415714Y5150113D2*
X567902Y4997925D1*
X807924Y4757903D2*
X1250399Y4315429D1*
X1645113Y3920714D2*
X1683391Y3882436D1*
X1824790Y3741037D2*
X2108387Y3457440D1*
X2249799Y3316028D2*
X2342298Y3223529D1*
X415714Y5121828D2*
X550625Y4986917D1*
X796916Y4740626D2*
X1250399Y4287144D1*
X1645113Y3892429D2*
X1683391Y3854152D1*
X1824790Y3712752D2*
X2108387Y3429156D1*
X2249799Y3287743D2*
X2342298Y3195244D1*
X415714Y5093545D2*
X535018Y4974239D1*
X784238Y4725020D2*
X1250399Y4258860D1*
X1645113Y3864146D2*
X1683391Y3825867D1*
X1824790Y3684469D2*
X2108387Y3400871D1*
X2249799Y3259458D2*
X2342298Y3166961D1*
X415714Y5065260D2*
X521042Y4959932D1*
X769930Y4711043D2*
X1250399Y4230576D1*
X1645113Y3835861D2*
X1683391Y3797584D1*
X1824790Y3656184D2*
X2108387Y3372588D1*
X2249799Y3231175D2*
X2342298Y3138676D1*
X415714Y5036976D2*
X508696Y4943993D1*
X753992Y4698697D2*
X792588Y4660101D1*
X795102Y4657588D2*
X1250399Y4202291D1*
X1645113Y3807576D2*
X1683391Y3769299D1*
X1824790Y3627900D2*
X2108387Y3344303D1*
X2249799Y3202890D2*
X2342298Y3110391D1*
X415714Y5008692D2*
X498047Y4926358D1*
X736357Y4688049D2*
X764304Y4660101D1*
X795108Y4629298D2*
X1250399Y4174007D1*
X1645113Y3779293D2*
X1683391Y3741014D1*
X1824790Y3599615D2*
X2108387Y3316018D1*
X2249799Y3174606D2*
X2342298Y3082108D1*
X415714Y4980407D2*
X489264Y4906857D1*
X716856Y4679265D2*
X736020Y4660101D1*
X795108Y4601014D2*
X1250399Y4145723D1*
X1645113Y3751008D2*
X1683391Y3712731D1*
X1824790Y3571331D2*
X2108387Y3287735D1*
X2249799Y3146322D2*
X2342298Y3053823D1*
X415714Y4952123D2*
X482635Y4885202D1*
X695201Y4672636D2*
X707735Y4660101D1*
X795108Y4572730D2*
X1250399Y4117438D1*
X1645113Y3722724D2*
X1683391Y3684446D1*
X1824790Y3543047D2*
X2108387Y3259450D1*
X2249799Y3118037D2*
X2342298Y3025539D1*
X415714Y4923839D2*
X478644Y4860909D1*
X670908Y4668644D2*
X679451Y4660101D1*
X795108Y4544445D2*
X1250399Y4089155D1*
X1645113Y3694440D2*
X1683391Y3656161D1*
X1824790Y3514762D2*
X2108387Y3231165D1*
X2249799Y3089753D2*
X2342298Y2997255D1*
X415714Y4895554D2*
X478285Y4832984D1*
X642983Y4668286D2*
X651167Y4660101D1*
X770870Y4540399D2*
X1045835Y4265434D1*
X1074055Y4237213D2*
X1250399Y4060870D1*
X1645113Y3666155D2*
X1683391Y3627878D1*
X1824790Y3486479D2*
X2108387Y3202882D1*
X2249799Y3061469D2*
X2342298Y2968970D1*
X415714Y4867270D2*
X483948Y4799037D1*
X609035Y4673949D2*
X622882Y4660101D1*
X742585Y4540399D2*
X1017550Y4265434D1*
X1074055Y4208929D2*
X1250399Y4032585D1*
X1645113Y3637871D2*
X1683391Y3599593D1*
X1824790Y3458194D2*
X2108387Y3174597D1*
X2249799Y3033184D2*
X2342298Y2940686D1*
X415714Y4838986D2*
X507480Y4747219D1*
X557218Y4697482D2*
X594598Y4660101D1*
X714301Y4540399D2*
X989266Y4265434D1*
X1074055Y4180644D2*
X1250399Y4004302D1*
X1626814Y3627886D2*
X1683391Y3571310D1*
X1824790Y3429909D2*
X2108387Y3146314D1*
X2249799Y3004900D2*
X2342298Y2912402D1*
X415714Y4810702D2*
X566314Y4660101D1*
X686017Y4540399D2*
X960982Y4265434D1*
X1074055Y4152361D2*
X1250399Y3976017D1*
X1598530Y3627886D2*
X1683391Y3543025D1*
X1824790Y3401626D2*
X2108387Y3118029D1*
X2249799Y2976615D2*
X2342298Y2884117D1*
X415714Y4782417D2*
X538030Y4660101D1*
X657732Y4540399D2*
X938525Y4259606D1*
X1074055Y4124076D2*
X1250399Y3947734D1*
X1570245Y3627886D2*
X1683391Y3514740D1*
X1824790Y3373341D2*
X2108387Y3089744D1*
X2249799Y2948332D2*
X2342298Y2855833D1*
X415714Y4754133D2*
X512894Y4656953D1*
X629448Y4540399D2*
X932642Y4237205D1*
X1074055Y4095791D2*
X1250399Y3919449D1*
X1541961Y3627886D2*
X1683391Y3486457D1*
X1824790Y3345058D2*
X2108387Y3061461D1*
X2249799Y2920047D2*
X2342298Y2827549D1*
X415714Y4725849D2*
X512894Y4628668D1*
X601164Y4540399D2*
X932642Y4208921D1*
X1074055Y4067508D2*
X1250399Y3891164D1*
X1513677Y3627886D2*
X1683391Y3458172D1*
X1824790Y3316773D2*
X2108387Y3033176D1*
X2249799Y2891762D2*
X2342298Y2799265D1*
X415714Y4697564D2*
X512894Y4600385D1*
X572879Y4540399D2*
X932642Y4180636D1*
X1074055Y4039223D2*
X1250399Y3862881D1*
X1485392Y3627886D2*
X1683391Y3429888D1*
X1824790Y3288488D2*
X2108387Y3004892D1*
X2249799Y2863479D2*
X2342298Y2770980D1*
X415714Y4669281D2*
X512894Y4572100D1*
X544596Y4540399D2*
X932642Y4152352D1*
X1074055Y4010940D2*
X1250399Y3834596D1*
X1457109Y3627886D2*
X1683391Y3401604D1*
X1824790Y3260205D2*
X2108387Y2976608D1*
X2249799Y2835194D2*
X2342298Y2742696D1*
X415714Y4640996D2*
X512894Y4543816D1*
X516311Y4540399D2*
X932642Y4124068D1*
X1074055Y3982655D2*
X1250399Y3806312D1*
X1428824Y3627886D2*
X1683391Y3373319D1*
X1824790Y3231920D2*
X2108387Y2948323D1*
X2249799Y2806911D2*
X2342298Y2714412D1*
X415714Y4612711D2*
X932642Y4095783D1*
X1074055Y3954370D2*
X1250399Y3778028D1*
X1400539Y3627886D2*
X1683391Y3345035D1*
X1824790Y3203635D2*
X2108387Y2920039D1*
X2249799Y2778626D2*
X2342298Y2686127D1*
X415714Y4584428D2*
X932642Y4067499D1*
X1074055Y3926087D2*
X1250399Y3749743D1*
X1372256Y3627886D2*
X1683391Y3316751D1*
X1824790Y3175352D2*
X2108387Y2891755D1*
X2249799Y2750341D2*
X2342298Y2657844D1*
X415714Y4556143D2*
X932642Y4039215D1*
X1074055Y3897802D2*
X1250399Y3721459D1*
X1343971Y3627886D2*
X1414331Y3557526D1*
X1505017Y3466840D2*
X1683391Y3288466D1*
X1824790Y3147067D2*
X2108387Y2863470D1*
X2242605Y2729253D2*
X2249256Y2722601D1*
X2257596Y2714261D2*
X2342298Y2629559D1*
X415714Y4527858D2*
X932642Y4010930D1*
X1074055Y3869517D2*
X1250399Y3693175D1*
X1315686Y3627886D2*
X1381005Y3562567D1*
X1510072Y3433501D2*
X1683391Y3260182D1*
X1824790Y3118783D2*
X2108387Y2835186D1*
X2257602Y2685970D2*
X2342298Y2601274D1*
X415714Y4499575D2*
X932642Y3982647D1*
X1074055Y3841234D2*
X1250399Y3664890D1*
X1287403Y3627886D2*
X1354820Y3560467D1*
X1507972Y3407316D2*
X1683391Y3231898D1*
X1824790Y3090499D2*
X2108387Y2806902D1*
X2257602Y2657686D2*
X2342298Y2572991D1*
X415714Y4471290D2*
X621129Y4265875D1*
X649791Y4237213D2*
X932642Y3954362D1*
X1074055Y3812949D2*
X1250399Y3636606D1*
X1259118Y3627886D2*
X1332655Y3554349D1*
X1501854Y3385150D2*
X1683391Y3203614D1*
X1824790Y3062214D2*
X2108387Y2778618D1*
X2257602Y2629402D2*
X2342298Y2544706D1*
X415714Y4443007D2*
X592844Y4265875D1*
X649791Y4208929D2*
X932642Y3926077D1*
X1074055Y3784665D2*
X1313403Y3545318D1*
X1492808Y3365911D2*
X1636117Y3222604D1*
X1645113Y3213608D2*
X1683391Y3175329D1*
X1824790Y3033930D2*
X2108387Y2750333D1*
X2257602Y2601117D2*
X2342298Y2516421D1*
X415714Y4414722D2*
X564560Y4265875D1*
X649791Y4180644D2*
X932642Y3897794D1*
X1074055Y3756381D2*
X1296594Y3533841D1*
X1481332Y3349104D2*
X1607832Y3222604D1*
X1645113Y3185323D2*
X1683391Y3147045D1*
X1824790Y3005646D2*
X2107835Y2722601D1*
X2257602Y2572833D2*
X2342298Y2488138D1*
X415714Y4386437D2*
X536276Y4265875D1*
X649791Y4152361D2*
X932642Y3869509D1*
X1074055Y3728096D2*
X1282010Y3520140D1*
X1467646Y3334505D2*
X1579549Y3222604D1*
X1645113Y3157038D2*
X1683391Y3118761D1*
X1824790Y2977362D2*
X2079550Y2722601D1*
X2236762Y2565388D2*
X2342298Y2459853D1*
X415714Y4358154D2*
X514041Y4259827D1*
X649791Y4124076D2*
X932642Y3841226D1*
X1074055Y3699812D2*
X1269609Y3504259D1*
X1451749Y3322118D2*
X1551264Y3222604D1*
X1645113Y3128755D2*
X1683391Y3090476D1*
X1824790Y2949077D2*
X2062895Y2710972D1*
X2208478Y2565388D2*
X2342298Y2431570D1*
X415714Y4329869D2*
X508392Y4237192D1*
X649791Y4095791D2*
X932642Y3812941D1*
X1074055Y3671528D2*
X1259541Y3486042D1*
X1433547Y3312035D2*
X1522980Y3222604D1*
X1645113Y3100470D2*
X1683391Y3062193D1*
X1824790Y2920793D2*
X2062895Y2682689D1*
X2180194Y2565388D2*
X2342298Y2403285D1*
X415714Y4301585D2*
X508392Y4208907D1*
X649791Y4067508D2*
X932642Y3784656D1*
X1074055Y3643244D2*
X1252139Y3465160D1*
X1412665Y3304634D2*
X1494696Y3222604D1*
X1645113Y3072185D2*
X1683391Y3033908D1*
X1824790Y2892509D2*
X2062895Y2654404D1*
X2170113Y2547186D2*
X2342298Y2375000D1*
X415714Y4273301D2*
X508392Y4180622D1*
X649791Y4039223D2*
X932642Y3756373D1*
X1074055Y3614959D2*
X1248189Y3440825D1*
X1388331Y3300684D2*
X1466411Y3222604D1*
X1645113Y3043902D2*
X1683391Y3005623D1*
X1824790Y2864224D2*
X2062895Y2626121D1*
X2170113Y2518903D2*
X2342298Y2346717D1*
X415714Y4245016D2*
X508392Y4152339D1*
X649791Y4010940D2*
X932642Y3728088D1*
X1074055Y3586675D2*
X1249612Y3411119D1*
X1358610Y3302119D2*
X1438127Y3222604D1*
X1645113Y3015617D2*
X1683391Y2977340D1*
X1824790Y2835940D2*
X2062895Y2597836D1*
X2170113Y2490618D2*
X2342298Y2318432D1*
X415714Y4216732D2*
X508392Y4124054D1*
X649791Y3982655D2*
X932642Y3699803D1*
X1074055Y3558391D2*
X1265273Y3367173D1*
X1314665Y3317781D2*
X1409843Y3222604D1*
X1645113Y2987333D2*
X1683391Y2949055D1*
X1824790Y2807656D2*
X2062895Y2569551D1*
X2170113Y2462333D2*
X2181265Y2451180D1*
X2279934Y2352512D2*
X2342298Y2290148D1*
X415714Y4188448D2*
X508392Y4095770D1*
X649791Y3954370D2*
X932642Y3671520D1*
X1074055Y3530106D2*
X1381558Y3222604D1*
X1638774Y2965387D2*
X1683391Y2920770D1*
X1824790Y2779371D2*
X2062895Y2541268D1*
X2290583Y2313579D2*
X2342298Y2261864D1*
X415714Y4160163D2*
X508392Y4067486D1*
X649791Y3926087D2*
X932642Y3643235D1*
X1074055Y3501822D2*
X1353274Y3222604D1*
X1610490Y2965387D2*
X1683391Y2892487D1*
X1824790Y2751088D2*
X2062895Y2512983D1*
X2292571Y2283306D2*
X2342298Y2233579D1*
X415714Y4131879D2*
X508392Y4039201D1*
X649791Y3897802D2*
X932642Y3614951D1*
X1074055Y3473538D2*
X1324990Y3222604D1*
X1582206Y2965387D2*
X1683391Y2864202D1*
X1817995Y2729598D2*
X1824992Y2722601D1*
X1832617Y2714976D2*
X2062895Y2484698D1*
X2290100Y2257493D2*
X2342298Y2205295D1*
X415714Y4103594D2*
X508392Y4010917D1*
X649791Y3869517D2*
X932642Y3586667D1*
X1074055Y3445253D2*
X1296706Y3222604D1*
X1553921Y2965387D2*
X1683391Y2835919D1*
X1832606Y2686702D2*
X2062895Y2456415D1*
X2284617Y2234693D2*
X2342298Y2177010D1*
X415714Y4075311D2*
X508392Y3982633D1*
X649791Y3841234D2*
X932642Y3558382D1*
X1074055Y3416970D2*
X1268421Y3222604D1*
X1525636Y2965387D2*
X1683391Y2807634D1*
X1832606Y2658417D2*
X2042993Y2448031D1*
X2276786Y2214239D2*
X2342298Y2148726D1*
X415714Y4047026D2*
X508392Y3954348D1*
X649791Y3812949D2*
X932642Y3530098D1*
X1074055Y3388685D2*
X1250399Y3212343D1*
X1497353Y2965387D2*
X1683391Y2779349D1*
X1832606Y2630134D2*
X2024514Y2438226D1*
X2266980Y2195760D2*
X2342298Y2120442D1*
X415714Y4018741D2*
X508392Y3926064D1*
X649791Y3784665D2*
X932642Y3501814D1*
X1074055Y3360400D2*
X1250399Y3184058D1*
X1469068Y2965387D2*
X1683391Y2751066D1*
X1832606Y2601849D2*
X2007790Y2426667D1*
X2255407Y2179049D2*
X2342298Y2092157D1*
X415714Y3990458D2*
X508392Y3897780D1*
X649791Y3756381D2*
X932642Y3473530D1*
X1074055Y3332117D2*
X1250399Y3155773D1*
X1440783Y2965387D2*
X1683571Y2722601D1*
X1832606Y2573564D2*
X1992736Y2413436D1*
X2242190Y2163982D2*
X2342298Y2063874D1*
X415714Y3962173D2*
X508392Y3869496D1*
X649791Y3728096D2*
X932642Y3445245D1*
X1074055Y3303832D2*
X1250399Y3127490D1*
X1412500Y2965387D2*
X1655286Y2722601D1*
X1812499Y2565388D2*
X1979285Y2398602D1*
X2227344Y2150543D2*
X2342298Y2035589D1*
X415714Y3933890D2*
X508392Y3841211D1*
X649791Y3699812D2*
X932642Y3416961D1*
X1074055Y3275549D2*
X1250399Y3099205D1*
X1384215Y2965387D2*
X1627001Y2722601D1*
X1784214Y2565388D2*
X1967491Y2382113D1*
X2210867Y2138736D2*
X2342298Y2007304D1*
X415714Y3905605D2*
X508392Y3812927D1*
X649791Y3671528D2*
X932642Y3388677D1*
X1074055Y3247264D2*
X1250399Y3070921D1*
X1355932Y2965387D2*
X1598718Y2722601D1*
X1755930Y2565388D2*
X1957436Y2363883D1*
X2192638Y2128681D2*
X2342298Y1979021D1*
X415714Y3877320D2*
X508392Y3784643D1*
X649791Y3643244D2*
X932642Y3360392D1*
X1074055Y3218979D2*
X1250399Y3042636D1*
X1327647Y2965387D2*
X1409138Y2883896D1*
X1506399Y2786636D2*
X1575391Y2717643D1*
X1727646Y2565388D2*
X1949329Y2343706D1*
X2172461Y2120575D2*
X2342298Y1950736D1*
X415714Y3849037D2*
X508392Y3756358D1*
X649791Y3614959D2*
X932642Y3332108D1*
X1074055Y3190696D2*
X1250399Y3014352D1*
X1299362Y2965387D2*
X1377152Y2887597D1*
X1510100Y2754651D2*
X1575391Y2689360D1*
X1699361Y2565388D2*
X1943487Y2321264D1*
X2170113Y2094638D2*
X2342298Y1922453D1*
X415714Y3820752D2*
X508392Y3728075D1*
X649791Y3586675D2*
X932642Y3303824D1*
X1074055Y3162411D2*
X1250399Y2986068D1*
X1271079Y2965387D2*
X1351617Y2884849D1*
X1507337Y2729129D2*
X1575391Y2661075D1*
X1682609Y2553857D2*
X1940546Y2295920D1*
X2170113Y2066354D2*
X2342298Y1894168D1*
X415714Y3792469D2*
X508392Y3699790D1*
X649791Y3558391D2*
X932642Y3275539D1*
X1074055Y3134126D2*
X1329892Y2878289D1*
X1500791Y2707390D2*
X1575391Y2632790D1*
X1682609Y2525572D2*
X1941789Y2266394D1*
X2170113Y2038070D2*
X2342298Y1865883D1*
X415714Y3764184D2*
X508392Y3671505D1*
X649791Y3530106D2*
X932642Y3247256D1*
X1074055Y3105843D2*
X1311000Y2868898D1*
X1491400Y2688497D2*
X1575391Y2604507D1*
X1682609Y2497289D2*
X1950710Y2229188D1*
X2057942Y2121955D2*
X2062895Y2117003D1*
X2170113Y2009785D2*
X2342298Y1837600D1*
X415714Y3735899D2*
X508392Y3643222D1*
X649791Y3501822D2*
X932642Y3218971D1*
X1074055Y3077558D2*
X1294496Y2857118D1*
X1479619Y2671993D2*
X1575391Y2576222D1*
X1682609Y2469004D2*
X1705819Y2445794D1*
X1787046Y2364568D2*
X2062895Y2088719D1*
X2170113Y1981501D2*
X2342298Y1809315D1*
X415714Y3707615D2*
X508392Y3614937D1*
X649791Y3473538D2*
X932642Y3190686D1*
X1074055Y3049274D2*
X1280202Y2843127D1*
X1465630Y2657699D2*
X1575391Y2547938D1*
X1801657Y2321672D2*
X2062895Y2060434D1*
X2170113Y1953217D2*
X2342298Y1781030D1*
X415714Y3679331D2*
X508392Y3586652D1*
X649791Y3445253D2*
X932642Y3162403D1*
X1074055Y3020990D2*
X1268104Y2826941D1*
X1449429Y2645615D2*
X1575391Y2519654D1*
X1805083Y2289963D2*
X2062895Y2032151D1*
X2170113Y1924933D2*
X2342298Y1752747D1*
X415714Y3651046D2*
X508392Y3558369D1*
X649791Y3416970D2*
X932642Y3134118D1*
X1074055Y2992705D2*
X1258367Y2808394D1*
X1430895Y2635865D2*
X1575391Y2491369D1*
X1803493Y2263266D2*
X2062895Y2003866D1*
X2170113Y1896648D2*
X2342298Y1724462D1*
X415714Y3622762D2*
X508392Y3530084D1*
X649791Y3388685D2*
X932642Y3105835D1*
X1074055Y2964421D2*
X1251379Y2787097D1*
X1409600Y2628877D2*
X1575391Y2463085D1*
X1798633Y2239844D2*
X2062895Y1975581D1*
X2170113Y1868364D2*
X2342298Y1696178D1*
X415714Y3594478D2*
X508392Y3501801D1*
X649791Y3360400D2*
X932642Y3077550D1*
X1074055Y2936136D2*
X1247995Y2762197D1*
X1384699Y2625493D2*
X1560117Y2450075D1*
X1791312Y2218879D2*
X2062895Y1947298D1*
X2170113Y1840080D2*
X2342298Y1667894D1*
X415714Y3566194D2*
X508392Y3473516D1*
X649791Y3332117D2*
X932642Y3049265D1*
X1074055Y2907853D2*
X1250467Y2731441D1*
X1353942Y2627965D2*
X1541196Y2440711D1*
X1781963Y2199945D2*
X2062895Y1919013D1*
X2170113Y1811795D2*
X2342298Y1639609D1*
X415714Y3537909D2*
X508392Y3445231D1*
X649791Y3303832D2*
X932642Y3020982D1*
X1074055Y2879568D2*
X1272136Y2681487D1*
X1303990Y2649634D2*
X1524084Y2429539D1*
X1770790Y2182833D2*
X2062895Y1890730D1*
X2170113Y1783512D2*
X2342298Y1611325D1*
X415714Y3509625D2*
X508392Y3416948D1*
X649791Y3275549D2*
X932642Y2992697D1*
X1074055Y2851283D2*
X1508630Y2416709D1*
X1757961Y2167379D2*
X2062895Y1862445D1*
X2170113Y1755227D2*
X2342298Y1583041D1*
X415714Y3481341D2*
X508392Y3388663D1*
X649791Y3247264D2*
X932642Y2964412D1*
X1074055Y2823000D2*
X1174453Y2722601D1*
X1182601Y2714454D2*
X1494806Y2402249D1*
X1743500Y2153555D2*
X2062895Y1834160D1*
X2170113Y1726942D2*
X2342298Y1554757D1*
X415714Y3453056D2*
X508392Y3360379D1*
X649791Y3218979D2*
X932642Y2936129D1*
X1074055Y2794715D2*
X1146169Y2722601D1*
X1182608Y2686164D2*
X1482625Y2386146D1*
X1727398Y2141374D2*
X2062895Y1805877D1*
X2170113Y1698659D2*
X2342298Y1526472D1*
X415714Y3424773D2*
X508392Y3332094D1*
X649791Y3190696D2*
X932642Y2907844D1*
X1074055Y2766430D2*
X1117885Y2722601D1*
X1182608Y2657879D2*
X1472143Y2368344D1*
X1709594Y2130891D2*
X2062895Y1777592D1*
X2170113Y1670374D2*
X2342298Y1498188D1*
X415714Y3396488D2*
X508392Y3303810D1*
X649791Y3162411D2*
X932642Y2879560D1*
X1073337Y2738865D2*
X1089601Y2722601D1*
X1182608Y2629594D2*
X1463552Y2348650D1*
X1689902Y2122301D2*
X2062895Y1749307D1*
X2170113Y1642089D2*
X2342298Y1469904D1*
X415714Y3368203D2*
X508392Y3275526D1*
X649791Y3134126D2*
X932642Y2851276D1*
X1059098Y2724819D2*
X1061316Y2722601D1*
X1182608Y2601311D2*
X1457130Y2326787D1*
X1682609Y2101308D2*
X2062895Y1721024D1*
X2170113Y1613806D2*
X2342298Y1441619D1*
X415714Y3339920D2*
X508392Y3247241D1*
X649791Y3105843D2*
X932642Y2822991D1*
X1182608Y2573026D2*
X1453429Y2302205D1*
X1682609Y2073025D2*
X2062895Y1692739D1*
X2170113Y1585521D2*
X2219383Y1536251D1*
X2258749Y1496885D2*
X2342298Y1413335D1*
X415714Y3311635D2*
X508392Y3218957D1*
X649791Y3077558D2*
X932642Y2794707D1*
X1182608Y2544741D2*
X1453499Y2273852D1*
X1682609Y2044740D2*
X2062895Y1664455D1*
X2285860Y1441490D2*
X2342298Y1385051D1*
X415714Y3283350D2*
X508392Y3190673D1*
X649791Y3049274D2*
X932642Y2766423D1*
X1182608Y2516458D2*
X1459990Y2239076D1*
X1682609Y2016455D2*
X2062895Y1636171D1*
X2292075Y1406991D2*
X2342298Y1356766D1*
X415714Y3255067D2*
X508392Y3162388D1*
X649791Y3020990D2*
X935514Y2735266D1*
X943738Y2727043D2*
X948180Y2722601D1*
X1182608Y2488173D2*
X1489268Y2181513D1*
X1522764Y2148017D2*
X1575391Y2095390D1*
X1682609Y1988172D2*
X2062895Y1607886D1*
X2292005Y1378776D2*
X2342298Y1328483D1*
X415714Y3226782D2*
X508392Y3134105D1*
X649791Y2992705D2*
X937890Y2704606D1*
X1182608Y2459890D2*
X1189769Y2452727D1*
X1293976Y2348520D2*
X1575391Y2067105D1*
X1682609Y1959887D2*
X2062895Y1579602D1*
X2288207Y1354289D2*
X2342298Y1300198D1*
X415714Y3198499D2*
X508392Y3105820D1*
X649791Y2964421D2*
X937890Y2676322D1*
X1048823Y2565388D2*
X1075390Y2538823D1*
X1303505Y2310706D2*
X1575391Y2038822D1*
X1682609Y1931604D2*
X2054980Y1559231D1*
X2281730Y1332482D2*
X2342298Y1271913D1*
X415714Y3170214D2*
X508392Y3077535D1*
X649791Y2936136D2*
X937890Y2648038D1*
X1020539Y2565388D2*
X1075390Y2510538D1*
X1304997Y2280930D2*
X1575391Y2010537D1*
X1682609Y1903319D2*
X2035356Y1550572D1*
X2273071Y1312857D2*
X2342298Y1243630D1*
X415714Y3141929D2*
X508392Y3049252D1*
X649791Y2907853D2*
X937890Y2619753D1*
X992255Y2565388D2*
X1075390Y2482255D1*
X1302235Y2255408D2*
X1575391Y1982252D1*
X1682609Y1875034D2*
X2017596Y1540049D1*
X2262547Y1295097D2*
X2342298Y1215345D1*
X415714Y3113646D2*
X508392Y3020967D1*
X649791Y2879568D2*
X937890Y2591469D1*
X963970Y2565388D2*
X1074091Y2455268D1*
X1296517Y2232841D2*
X1575391Y1953969D1*
X1682609Y1846751D2*
X2001562Y1527798D1*
X2250311Y1279049D2*
X2342298Y1187062D1*
X415714Y3085361D2*
X508392Y2992684D1*
X649791Y2851283D2*
X1053818Y2447259D1*
X1288508Y2212567D2*
X1575391Y1925684D1*
X1682609Y1818466D2*
X1987143Y1513932D1*
X2236430Y1264644D2*
X2342298Y1158777D1*
X415714Y3057077D2*
X508392Y2964399D1*
X649791Y2823000D2*
X1035491Y2437301D1*
X1278550Y2194240D2*
X1575391Y1897399D1*
X1682609Y1790182D2*
X1974354Y1498437D1*
X2220936Y1251856D2*
X2342298Y1130492D1*
X415714Y3028793D2*
X508392Y2936114D1*
X649791Y2794715D2*
X1018917Y2425589D1*
X1266839Y2177668D2*
X1575391Y1869115D1*
X1682609Y1761898D2*
X1963236Y1481270D1*
X2203769Y1240738D2*
X2342298Y1102209D1*
X415714Y3000508D2*
X508392Y2907831D1*
X649791Y2766430D2*
X1004003Y2412220D1*
X1253470Y2162752D2*
X1575391Y1840831D1*
X1682609Y1733613D2*
X1953928Y1462294D1*
X2184793Y1231429D2*
X2342298Y1073924D1*
X415714Y2972224D2*
X508392Y2879546D1*
X648976Y2738962D2*
X665336Y2722601D1*
X695104Y2692833D2*
X990702Y2397236D1*
X1238486Y2149453D2*
X1575391Y1812547D1*
X1682609Y1705329D2*
X1946677Y1441260D1*
X2163760Y1224178D2*
X2342298Y1045639D1*
X415714Y2943940D2*
X508392Y2851261D1*
X634475Y2725178D2*
X637052Y2722601D1*
X695104Y2664550D2*
X979046Y2380608D1*
X1221857Y2137797D2*
X1575391Y1784262D1*
X1682609Y1677045D2*
X1941913Y1417741D1*
X2140240Y1219413D2*
X2342298Y1017356D1*
X415714Y2915655D2*
X508392Y2822978D1*
X695104Y2636265D2*
X969157Y2362211D1*
X1203462Y2127908D2*
X1575391Y1755978D1*
X1682609Y1648760D2*
X1940436Y1390934D1*
X2113433Y1217936D2*
X2169776Y1161594D1*
X2284092Y1047278D2*
X2342298Y989071D1*
X415714Y2887371D2*
X508392Y2794693D1*
X695104Y2607982D2*
X961217Y2341869D1*
X1183118Y2119967D2*
X1575391Y1727694D1*
X1682609Y1620476D2*
X1944067Y1359018D1*
X2081530Y1221555D2*
X2133923Y1169163D1*
X2291673Y1011411D2*
X2342298Y960787D1*
X415714Y2859087D2*
X508392Y2766409D1*
X695104Y2579697D2*
X955609Y2319192D1*
X1182608Y2092194D2*
X1575391Y1699409D1*
X1682609Y1592192D2*
X1727793Y1547009D1*
X1794517Y1480283D2*
X1959286Y1315514D1*
X2038013Y1236787D2*
X2105030Y1169770D1*
X2292281Y982520D2*
X2342298Y932503D1*
X415714Y2830803D2*
X512148Y2734369D1*
X518136Y2728379D2*
X523915Y2722601D1*
X695104Y2551412D2*
X952971Y2293545D1*
X1182608Y2063909D2*
X1575391Y1671126D1*
X1812913Y1433604D2*
X2080089Y1166428D1*
X2288940Y957577D2*
X2342298Y904218D1*
X415714Y2802518D2*
X500395Y2717837D1*
X695104Y2523129D2*
X954671Y2263562D1*
X1182608Y2035625D2*
X1575391Y1642841D1*
X1817442Y1400790D2*
X2057936Y1160297D1*
X2282794Y935438D2*
X2342298Y875934D1*
X415714Y2774234D2*
X500395Y2689552D1*
X695104Y2494844D2*
X964669Y2225280D1*
X1066529Y2123420D2*
X1075390Y2114559D1*
X1182608Y2007341D2*
X1575391Y1614556D1*
X1816476Y1373472D2*
X2038021Y1151927D1*
X2274424Y915524D2*
X2342298Y847650D1*
X415714Y2745950D2*
X500395Y2661268D1*
X695104Y2466560D2*
X713660Y2448004D1*
X801751Y2359913D2*
X1075390Y2086274D1*
X1182608Y1979056D2*
X1575391Y1586273D1*
X1812071Y1349593D2*
X2020012Y1141652D1*
X2264150Y897514D2*
X2342298Y819366D1*
X415714Y2717665D2*
X500395Y2632984D1*
X567991Y2565388D2*
X587886Y2545493D1*
X814732Y2318647D2*
X1075390Y2057991D1*
X1182608Y1950773D2*
X1575391Y1557988D1*
X1805110Y1328270D2*
X2003730Y1129650D1*
X2252148Y881232D2*
X2273273Y860108D1*
X2295113Y838266D2*
X2342298Y791081D1*
X415714Y2689382D2*
X500395Y2604699D1*
X539706Y2565388D2*
X587886Y2517209D1*
X817605Y2287491D2*
X1075390Y2029706D1*
X1182608Y1922488D2*
X1556539Y1548555D1*
X1796050Y1309046D2*
X1989091Y1116005D1*
X2238503Y866593D2*
X2244988Y860108D1*
X2295113Y809983D2*
X2342298Y762797D1*
X415714Y2661097D2*
X500395Y2576416D1*
X511423Y2565388D2*
X587886Y2488925D1*
X815685Y2261126D2*
X1075390Y2001421D1*
X1182608Y1894203D2*
X1539152Y1537659D1*
X1785154Y1291657D2*
X1976067Y1100744D1*
X2295113Y781698D2*
X2342298Y734513D1*
X415714Y2632812D2*
X587886Y2460640D1*
X810589Y2237938D2*
X1075390Y1973138D1*
X1182608Y1865920D2*
X1523449Y1525077D1*
X1772572Y1275955D2*
X1964714Y1083812D1*
X2295113Y753415D2*
X2342298Y706228D1*
X415714Y2604529D2*
X570913Y2449329D1*
X803089Y2217152D2*
X1075390Y1944853D1*
X1182608Y1837635D2*
X1509377Y1510866D1*
X1758374Y1261867D2*
X1955143Y1065098D1*
X2292350Y727892D2*
X2342298Y677944D1*
X415714Y2576244D2*
X552144Y2439814D1*
X793560Y2198398D2*
X1075390Y1916568D1*
X1182608Y1809350D2*
X1496919Y1495039D1*
X1742534Y1249425D2*
X1947575Y1044383D1*
X2264066Y727892D2*
X2331857Y660101D1*
X415714Y2547959D2*
X535185Y2428490D1*
X782249Y2181424D2*
X1075390Y1888285D1*
X1182608Y1781067D2*
X1486160Y1477513D1*
X1725008Y1238667D2*
X1942409Y1021264D1*
X2235782Y727892D2*
X2303573Y660101D1*
X415714Y2519676D2*
X519869Y2415521D1*
X769268Y2166122D2*
X1075390Y1860000D1*
X1182608Y1752782D2*
X1477266Y1458123D1*
X1705631Y1229759D2*
X1940394Y994996D1*
X2207497Y727892D2*
X2275289Y660101D1*
X415714Y2491391D2*
X506182Y2400923D1*
X754669Y2152436D2*
X1075390Y1831717D1*
X1182608Y1724499D2*
X1470471Y1436634D1*
X1684129Y1222978D2*
X1943101Y964005D1*
X2179214Y727892D2*
X2247004Y660101D1*
X415714Y2463108D2*
X494139Y2384682D1*
X738428Y2140392D2*
X1075390Y1803432D1*
X1182608Y1696214D2*
X1466301Y1412521D1*
X1660014Y1218806D2*
X1738344Y1140478D1*
X1787971Y1090850D2*
X1955640Y923181D1*
X2150929Y727892D2*
X2218720Y660101D1*
X415714Y2434823D2*
X483823Y2366714D1*
X720461Y2130076D2*
X1075390Y1775147D1*
X1182608Y1667929D2*
X1465665Y1384871D1*
X1632366Y1218171D2*
X1686484Y1164052D1*
X1811546Y1038991D2*
X1990429Y860108D1*
X2122644Y727892D2*
X2190436Y660101D1*
X415714Y2406538D2*
X475398Y2346854D1*
X700601Y2121652D2*
X1075390Y1746864D1*
X1182608Y1639646D2*
X1470816Y1351436D1*
X1598944Y1223308D2*
X1652538Y1169715D1*
X1817207Y1005045D2*
X1962146Y860108D1*
X2094361Y727892D2*
X2162152Y660101D1*
X415714Y2378255D2*
X469197Y2324772D1*
X695104Y2098865D2*
X1075390Y1718579D1*
X1182608Y1611361D2*
X1491781Y1302186D1*
X1549696Y1244273D2*
X1624613Y1169356D1*
X1816862Y977105D2*
X1933861Y860108D1*
X2066076Y727892D2*
X2133867Y660101D1*
X415714Y2349970D2*
X465772Y2299912D1*
X695104Y2070580D2*
X1075390Y1690295D1*
X1182608Y1583077D2*
X1600306Y1165378D1*
X1812871Y952812D2*
X1905577Y860108D1*
X2037793Y727892D2*
X2105583Y660101D1*
X415714Y2321686D2*
X466256Y2271144D1*
X695104Y2042295D2*
X1075390Y1662010D1*
X1280773Y1456626D2*
X1578664Y1158735D1*
X1806228Y931172D2*
X1877293Y860108D1*
X2009508Y727892D2*
X2077299Y660101D1*
X415714Y2293402D2*
X473562Y2235554D1*
X695104Y2014012D2*
X1075390Y1633726D1*
X1290814Y1418302D2*
X1559164Y1149951D1*
X1797458Y911657D2*
X1849008Y860108D1*
X1981223Y727892D2*
X2049014Y660101D1*
X415714Y2265117D2*
X587886Y2092945D1*
X695104Y1985727D2*
X1075390Y1605442D1*
X1292541Y1388291D2*
X1541528Y1139303D1*
X1786811Y894021D2*
X1820724Y860108D1*
X1952940Y727892D2*
X2020731Y660101D1*
X415714Y2236833D2*
X587886Y2064660D1*
X695104Y1957442D2*
X1075390Y1577157D1*
X1289903Y1362644D2*
X1525591Y1126957D1*
X1774463Y878083D2*
X1792440Y860108D1*
X1924655Y727892D2*
X1992446Y660101D1*
X415714Y2208549D2*
X587886Y2036377D1*
X695104Y1929159D2*
X1062462Y1561801D1*
X1284308Y1339954D2*
X1511268Y1112995D1*
X1760487Y863776D2*
X1764154Y860109D1*
X1896371Y727892D2*
X1964161Y660101D1*
X415714Y2180264D2*
X587886Y2008092D1*
X695104Y1900874D2*
X1042106Y1553873D1*
X1276382Y1319597D2*
X1498591Y1097388D1*
X1868087Y727892D2*
X1935878Y660101D1*
X415714Y2151980D2*
X587886Y1979808D1*
X695104Y1872591D2*
X1023710Y1543984D1*
X1266493Y1301201D2*
X1487583Y1080112D1*
X1839802Y727892D2*
X1907593Y660101D1*
X415714Y2123696D2*
X587886Y1951524D1*
X695104Y1844306D2*
X1007068Y1532343D1*
X1254837Y1284572D2*
X1478399Y1061010D1*
X1811518Y727892D2*
X1879308Y660101D1*
X415714Y2095412D2*
X587886Y1923239D1*
X695104Y1816021D2*
X992084Y1519042D1*
X1241551Y1269575D2*
X1471301Y1039825D1*
X1783234Y727892D2*
X1851025Y660101D1*
X415714Y2067127D2*
X587886Y1894955D1*
X695104Y1787738D2*
X978715Y1504127D1*
X1226635Y1256206D2*
X1466701Y1016140D1*
X1754949Y727892D2*
X1822740Y660101D1*
X415714Y2038843D2*
X587886Y1866671D1*
X695104Y1759453D2*
X966990Y1487568D1*
X1210063Y1244495D2*
X1465486Y989071D1*
X1726665Y727892D2*
X1794457Y660101D1*
X415714Y2010559D2*
X587886Y1838387D1*
X695104Y1731169D2*
X957018Y1469255D1*
X1191749Y1234522D2*
X1469560Y956713D1*
X1698381Y727892D2*
X1766172Y660101D1*
X415714Y1982274D2*
X587886Y1810102D1*
X695104Y1702885D2*
X949008Y1448980D1*
X1171490Y1226499D2*
X1486270Y911718D1*
X1670097Y727892D2*
X1737887Y660101D1*
X415714Y1953991D2*
X587886Y1781818D1*
X695104Y1674600D2*
X943290Y1426413D1*
X1148923Y1220781D2*
X1509597Y860108D1*
X1641812Y727892D2*
X1709604Y660101D1*
X415714Y1925706D2*
X587886Y1753534D1*
X695104Y1646316D2*
X940500Y1400920D1*
X1123415Y1218005D2*
X1185958Y1155462D1*
X1277957Y1063463D2*
X1487887Y853533D1*
X1613528Y727892D2*
X1681319Y660101D1*
X415714Y1897421D2*
X587886Y1725249D1*
X695104Y1618031D2*
X941978Y1371157D1*
X1093652Y1219483D2*
X1145575Y1167560D1*
X1290054Y1023081D2*
X1487887Y825249D1*
X1585244Y727892D2*
X1653035Y660101D1*
X415714Y1869138D2*
X587886Y1696965D1*
X695104Y1589747D2*
X951453Y1333399D1*
X1055894Y1228957D2*
X1114749Y1170101D1*
X1292609Y992243D2*
X1487887Y796965D1*
X1556959Y727892D2*
X1624751Y660101D1*
X415714Y1840853D2*
X587886Y1668681D1*
X809001Y1447567D2*
X1088579Y1167988D1*
X1290483Y966085D2*
X1487887Y768680D1*
X1528676Y727892D2*
X1596466Y660101D1*
X415714Y1812568D2*
X587886Y1640396D1*
X816652Y1411631D2*
X1065529Y1162755D1*
X1285248Y943034D2*
X1487887Y740396D1*
X1500391Y727892D2*
X1568182Y660101D1*
X415714Y1784285D2*
X587886Y1612113D1*
X817287Y1382711D2*
X1044867Y1155131D1*
X1277625Y922374D2*
X1539898Y660101D1*
X415714Y1756000D2*
X587886Y1583828D1*
X813972Y1357741D2*
X1026210Y1145505D1*
X1267999Y903715D2*
X1511613Y660101D1*
X415714Y1727717D2*
X583094Y1560336D1*
X807841Y1335589D2*
X1009333Y1134097D1*
X1256605Y886825D2*
X1483329Y660101D1*
X415714Y1699432D2*
X563151Y1551995D1*
X799486Y1315660D2*
X994114Y1121033D1*
X1243539Y871606D2*
X1255038Y860108D1*
X1282610Y832535D2*
X1455045Y660101D1*
X415714Y1671147D2*
X545129Y1541734D1*
X789224Y1297638D2*
X980510Y1106352D1*
X1282610Y804251D2*
X1426761Y660101D1*
X415714Y1642864D2*
X528845Y1529732D1*
X777236Y1281341D2*
X968550Y1090028D1*
X1282610Y775967D2*
X1398476Y660101D1*
X415714Y1614579D2*
X514193Y1516101D1*
X763605Y1266688D2*
X958331Y1071963D1*
X1282610Y747682D2*
X1370192Y660101D1*
X415714Y1586295D2*
X501155Y1500853D1*
X748358Y1253651D2*
X950016Y1051992D1*
X1274117Y727892D2*
X1341908Y660101D1*
X415714Y1558010D2*
X489789Y1483936D1*
X731440Y1242285D2*
X943940Y1029785D1*
X1245832Y727892D2*
X1313623Y660101D1*
X415714Y1529726D2*
X480205Y1465236D1*
X712740Y1232699D2*
X940680Y1004760D1*
X1217549Y727892D2*
X1285340Y660101D1*
X415714Y1501442D2*
X472622Y1444534D1*
X692038Y1225118D2*
X941425Y975730D1*
X1189264Y727892D2*
X1257055Y660101D1*
X415714Y1473157D2*
X467444Y1421428D1*
X668933Y1219938D2*
X949270Y939601D1*
X1160980Y727892D2*
X1228770Y660101D1*
X415714Y1444873D2*
X465399Y1395188D1*
X642693Y1217895D2*
X701217Y1159370D1*
X806874Y1053714D2*
X1000480Y860108D1*
X1132696Y727892D2*
X1200487Y660101D1*
X415714Y1416589D2*
X468064Y1364239D1*
X611743Y1220560D2*
X663693Y1168610D1*
X816100Y1016203D2*
X972196Y860108D1*
X1104411Y727892D2*
X1172202Y660101D1*
X415714Y1388304D2*
X480480Y1323538D1*
X571043Y1232976D2*
X634042Y1169978D1*
X817480Y986538D2*
X943912Y860108D1*
X1076127Y727892D2*
X1143917Y660101D1*
X415714Y1360021D2*
X608602Y1167133D1*
X814635Y961098D2*
X915627Y860108D1*
X1047843Y727892D2*
X1115634Y660101D1*
X415714Y1331736D2*
X586091Y1161360D1*
X808862Y938588D2*
X887343Y860108D1*
X1019558Y727892D2*
X1087349Y660101D1*
X415714Y1303451D2*
X565871Y1153294D1*
X800797Y918369D2*
X859059Y860108D1*
X991274Y727892D2*
X1059066Y660101D1*
X415714Y1275168D2*
X547587Y1143295D1*
X790798Y900084D2*
X830774Y860108D1*
X962990Y727892D2*
X1030781Y660101D1*
X415714Y1246883D2*
X531055Y1131542D1*
X779046Y883552D2*
X802491Y860108D1*
X934706Y727892D2*
X1002496Y660101D1*
X415714Y1218600D2*
X516181Y1118133D1*
X765635Y868678D2*
X774206Y860108D1*
X906421Y727892D2*
X974213Y660101D1*
X415714Y1190315D2*
X502909Y1103119D1*
X878136Y727892D2*
X945928Y660101D1*
X415714Y1162030D2*
X491294Y1086450D1*
X849853Y727892D2*
X917644Y660101D1*
X415714Y1133747D2*
X481448Y1068013D1*
X821568Y727892D2*
X889360Y660101D1*
X415714Y1105462D2*
X473562Y1047614D1*
X793285Y727892D2*
X861075Y660101D1*
X415714Y1077177D2*
X468009Y1024882D1*
X765000Y727892D2*
X832791Y660101D1*
X415714Y1048894D2*
X465454Y999154D1*
X736715Y727892D2*
X804507Y660101D1*
X415714Y1020609D2*
X467277Y969046D1*
X708432Y727892D2*
X776223Y660101D1*
X415714Y992325D2*
X477580Y930459D1*
X680147Y727892D2*
X747938Y660101D1*
X415714Y964041D2*
X519648Y860108D1*
X651862Y727892D2*
X719654Y660101D1*
X415714Y935756D2*
X491364Y860108D1*
X623579Y727892D2*
X691370Y660101D1*
X415714Y907472D2*
X475398Y847787D1*
X595294Y727892D2*
X663085Y660101D1*
X415714Y879188D2*
X475398Y819504D1*
X567010Y727892D2*
X634801Y660101D1*
X415714Y850904D2*
X475398Y791219D1*
X538726Y727892D2*
X606517Y660101D1*
X415714Y822619D2*
X475398Y762936D1*
X510441Y727892D2*
X578232Y660101D1*
X415714Y794335D2*
X475398Y734651D1*
X482159Y727890D2*
X549949Y660101D1*
X415714Y766051D2*
X521664Y660101D1*
X415714Y737766D2*
X493379Y660101D1*
X415714Y709483D2*
X465096Y660101D1*
X415714Y681198D2*
X436811Y660101D1*
X1054274Y4951504D2*
X1053777Y4946529D1*
X1052953Y4941598D1*
X1051803Y4936734D1*
X1050335Y4931955D1*
X1048552Y4927285D1*
X1046465Y4922743D1*
X1044081Y4918348D1*
X1041411Y4914122D1*
X1038467Y4910081D1*
X1035262Y4906244D1*
X1031811Y4902629D1*
X1028127Y4899249D1*
X1024227Y4896121D1*
X1020129Y4893259D1*
X1015850Y4890673D1*
X1011409Y4888377D1*
X1006827Y4886381D1*
X1002122Y4884692D1*
X997315Y4883318D1*
X992428Y4882265D1*
X987482Y4881539D1*
X982499Y4881142D1*
X977500Y4881076D1*
X972508Y4881340D1*
X967545Y4881936D1*
X962631Y4882858D1*
X957790Y4884104D1*
X953042Y4885668D1*
X948407Y4887542D1*
X943907Y4889719D1*
X939562Y4892190D1*
X935388Y4894944D1*
X931408Y4897967D1*
X927635Y4901248D1*
X924089Y4904770D1*
X920783Y4908521D1*
X917734Y4912482D1*
X914953Y4916636D1*
X912454Y4920966D1*
X910247Y4925451D1*
X908341Y4930073D1*
X906745Y4934811D1*
X905469Y4939644D1*
X904513Y4944551D1*
X903885Y4949510D1*
X903587Y4954500D1*
X903621Y4959500D1*
X903984Y4964486D1*
X904678Y4969436D1*
X905698Y4974329D1*
X907039Y4979146D1*
X908698Y4983862D1*
X910664Y4988458D1*
X912930Y4992913D1*
X915487Y4997210D1*
X918323Y5001327D1*
X921425Y5005247D1*
X924780Y5008953D1*
X928373Y5012429D1*
X932188Y5015659D1*
X936209Y5018629D1*
X940417Y5021327D1*
X944797Y5023740D1*
X949324Y5025857D1*
X953983Y5027671D1*
X958752Y5029171D1*
X963609Y5030353D1*
X968534Y5031210D1*
X973505Y5031739D1*
X978500Y5031938D1*
X983497Y5031806D1*
X988475Y5031343D1*
X993411Y5030550D1*
X998283Y5029433D1*
X1003072Y5027996D1*
X1007755Y5026244D1*
X1012310Y5024186D1*
X1016720Y5021832D1*
X1020965Y5019190D1*
X1025024Y5016274D1*
X1028882Y5013094D1*
X1032521Y5009667D1*
X1035924Y5006005D1*
X1039077Y5002126D1*
X1041967Y4998047D1*
X1044581Y4993786D1*
X1046907Y4989360D1*
X1048934Y4984790D1*
X1050654Y4980097D1*
X1052059Y4975299D1*
X1053144Y4970420D1*
X1053903Y4965478D1*
X1054333Y4960497D1*
X1054440Y4956500D1*
X1054274Y4951504D1*
X1346798Y4864001D2*
X1346031Y4854033D1*
X1344504Y4844152D1*
X1342224Y4834419D1*
X1339206Y4824888D1*
X1335465Y4815617D1*
X1331025Y4806659D1*
X1325912Y4798067D1*
X1320156Y4789894D1*
X1313791Y4782184D1*
X1306853Y4774986D1*
X1299385Y4768339D1*
X1291429Y4762285D1*
X1283033Y4756858D1*
X1274245Y4752089D1*
X1265118Y4748009D1*
X1255706Y4744640D1*
X1246063Y4742001D1*
X1236245Y4740110D1*
X1226312Y4738976D1*
X1216322Y4738606D1*
X1206332Y4739004D1*
X1196403Y4740164D1*
X1186591Y4742083D1*
X1176954Y4744748D1*
X1167551Y4748143D1*
X1158436Y4752248D1*
X1149661Y4757039D1*
X1141280Y4762490D1*
X1133340Y4768566D1*
X1125890Y4775232D1*
X1118972Y4782450D1*
X1112627Y4790177D1*
X1106894Y4798366D1*
X1101804Y4806971D1*
X1097390Y4815941D1*
X1093675Y4825223D1*
X1090681Y4834762D1*
X1088428Y4844503D1*
X1086928Y4854387D1*
X1086189Y4864357D1*
X1086217Y4874354D1*
X1087009Y4884320D1*
X1088564Y4894197D1*
X1090870Y4903924D1*
X1093916Y4913448D1*
X1097681Y4922709D1*
X1102146Y4931654D1*
X1107282Y4940231D1*
X1113060Y4948390D1*
X1119446Y4956081D1*
X1126404Y4963261D1*
X1133890Y4969887D1*
X1141862Y4975920D1*
X1150274Y4981324D1*
X1159073Y4986067D1*
X1168213Y4990123D1*
X1177634Y4993467D1*
X1187285Y4996079D1*
X1197106Y4997944D1*
X1207042Y4999050D1*
X1217034Y4999392D1*
X1227022Y4998969D1*
X1236949Y4997781D1*
X1246756Y4995835D1*
X1256385Y4993144D1*
X1265778Y4989723D1*
X1274883Y4985593D1*
X1283644Y4980777D1*
X1292010Y4975304D1*
X1299933Y4969206D1*
X1307366Y4962520D1*
X1314264Y4955283D1*
X1320587Y4947539D1*
X1326298Y4939333D1*
X1331365Y4930715D1*
X1335755Y4921734D1*
X1339445Y4912441D1*
X1342412Y4902894D1*
X1344638Y4893147D1*
X1346112Y4883260D1*
X1346823Y4873287D1*
X1346798Y4864001D1*
X1854274Y4951504D2*
X1853777Y4946529D1*
X1852953Y4941598D1*
X1851803Y4936734D1*
X1850335Y4931955D1*
X1848552Y4927285D1*
X1846465Y4922743D1*
X1844081Y4918348D1*
X1841411Y4914122D1*
X1838467Y4910081D1*
X1835262Y4906244D1*
X1831811Y4902629D1*
X1828127Y4899249D1*
X1824227Y4896121D1*
X1820129Y4893259D1*
X1815850Y4890673D1*
X1811409Y4888377D1*
X1806827Y4886381D1*
X1802122Y4884692D1*
X1797315Y4883318D1*
X1792428Y4882265D1*
X1787482Y4881539D1*
X1782499Y4881142D1*
X1777500Y4881076D1*
X1772508Y4881340D1*
X1767545Y4881936D1*
X1762631Y4882858D1*
X1757790Y4884104D1*
X1753042Y4885668D1*
X1748407Y4887542D1*
X1743907Y4889719D1*
X1739562Y4892190D1*
X1735388Y4894944D1*
X1731408Y4897967D1*
X1727635Y4901248D1*
X1724089Y4904770D1*
X1720783Y4908521D1*
X1717734Y4912482D1*
X1714953Y4916636D1*
X1712454Y4920966D1*
X1710247Y4925451D1*
X1708341Y4930073D1*
X1706745Y4934811D1*
X1705469Y4939644D1*
X1704513Y4944551D1*
X1703885Y4949510D1*
X1703587Y4954500D1*
X1703621Y4959500D1*
X1703984Y4964486D1*
X1704678Y4969436D1*
X1705698Y4974329D1*
X1707039Y4979146D1*
X1708698Y4983862D1*
X1710664Y4988458D1*
X1712930Y4992913D1*
X1715487Y4997210D1*
X1718323Y5001327D1*
X1721425Y5005247D1*
X1724780Y5008953D1*
X1728373Y5012429D1*
X1732188Y5015659D1*
X1736209Y5018629D1*
X1740417Y5021327D1*
X1744797Y5023740D1*
X1749324Y5025857D1*
X1753983Y5027671D1*
X1758752Y5029171D1*
X1763609Y5030353D1*
X1768534Y5031210D1*
X1773505Y5031739D1*
X1778500Y5031938D1*
X1783497Y5031806D1*
X1788475Y5031343D1*
X1793411Y5030550D1*
X1798283Y5029433D1*
X1803072Y5027996D1*
X1807755Y5026244D1*
X1812310Y5024186D1*
X1816720Y5021832D1*
X1820965Y5019190D1*
X1825024Y5016274D1*
X1828882Y5013094D1*
X1832521Y5009667D1*
X1835924Y5006005D1*
X1839077Y5002126D1*
X1841967Y4998047D1*
X1844581Y4993786D1*
X1846907Y4989360D1*
X1848934Y4984790D1*
X1850654Y4980097D1*
X1852059Y4975299D1*
X1853144Y4970420D1*
X1853903Y4965478D1*
X1854333Y4960497D1*
X1854440Y4956500D1*
X1854274Y4951504D1*
X1671798Y4864001D2*
X1671031Y4854033D1*
X1669504Y4844152D1*
X1667224Y4834419D1*
X1664206Y4824888D1*
X1660465Y4815617D1*
X1656025Y4806659D1*
X1650912Y4798067D1*
X1645156Y4789894D1*
X1638791Y4782184D1*
X1631853Y4774986D1*
X1624385Y4768339D1*
X1616429Y4762285D1*
X1608033Y4756858D1*
X1599245Y4752089D1*
X1590118Y4748009D1*
X1580706Y4744640D1*
X1571063Y4742001D1*
X1561245Y4740110D1*
X1551312Y4738976D1*
X1541322Y4738606D1*
X1531332Y4739004D1*
X1521403Y4740164D1*
X1511591Y4742083D1*
X1501954Y4744748D1*
X1492551Y4748143D1*
X1483436Y4752248D1*
X1474661Y4757039D1*
X1466280Y4762490D1*
X1458340Y4768566D1*
X1450890Y4775232D1*
X1443972Y4782450D1*
X1437627Y4790177D1*
X1431894Y4798366D1*
X1426804Y4806971D1*
X1422390Y4815941D1*
X1418675Y4825223D1*
X1415681Y4834762D1*
X1413428Y4844503D1*
X1411928Y4854387D1*
X1411189Y4864357D1*
X1411217Y4874354D1*
X1412009Y4884320D1*
X1413564Y4894197D1*
X1415870Y4903924D1*
X1418916Y4913448D1*
X1422681Y4922709D1*
X1427146Y4931654D1*
X1432282Y4940231D1*
X1438060Y4948390D1*
X1444446Y4956081D1*
X1451404Y4963261D1*
X1458890Y4969887D1*
X1466862Y4975920D1*
X1475274Y4981324D1*
X1484073Y4986067D1*
X1493213Y4990123D1*
X1502634Y4993467D1*
X1512285Y4996079D1*
X1522106Y4997944D1*
X1532042Y4999050D1*
X1542034Y4999392D1*
X1552022Y4998969D1*
X1561949Y4997781D1*
X1571756Y4995835D1*
X1581385Y4993144D1*
X1590778Y4989723D1*
X1599883Y4985593D1*
X1608644Y4980777D1*
X1617010Y4975304D1*
X1624933Y4969206D1*
X1632366Y4962520D1*
X1639264Y4955283D1*
X1645587Y4947539D1*
X1651298Y4939333D1*
X1656365Y4930715D1*
X1660755Y4921734D1*
X1664445Y4912441D1*
X1667412Y4902894D1*
X1669638Y4893147D1*
X1671112Y4883260D1*
X1671823Y4873287D1*
X1671798Y4864001D1*
X1816828Y989001D2*
X1816259Y979018D1*
X1815121Y969084D1*
X1813420Y959232D1*
X1811159Y949492D1*
X1808348Y939896D1*
X1804993Y930478D1*
X1801108Y921265D1*
X1796705Y912289D1*
X1791795Y903577D1*
X1786399Y895160D1*
X1780531Y887064D1*
X1774213Y879315D1*
X1767462Y871940D1*
X1760302Y864961D1*
X1753934Y859396D1*
X2004050Y859400D1*
X1998462Y864261D1*
X1991261Y871198D1*
X1984467Y878534D1*
X1978102Y886245D1*
X1972186Y894306D1*
X1966740Y902692D1*
X1961781Y911374D1*
X1957324Y920324D1*
X1953385Y929513D1*
X1949975Y938913D1*
X1947106Y948491D1*
X1944789Y958218D1*
X1943029Y968060D1*
X1941832Y977987D1*
X1941203Y987966D1*
X1941144Y997965D1*
X1941656Y1007950D1*
X1942735Y1017890D1*
X1944378Y1027753D1*
X1946581Y1037505D1*
X1949336Y1047117D1*
X1952635Y1056556D1*
X1956466Y1065791D1*
X1960816Y1074794D1*
X1965673Y1083534D1*
X1971020Y1091983D1*
X1976840Y1100114D1*
X1983113Y1107899D1*
X1989820Y1115315D1*
X1996938Y1122336D1*
X2004445Y1128941D1*
X2012316Y1135106D1*
X2020526Y1140814D1*
X2029049Y1146043D1*
X2037854Y1150780D1*
X2046915Y1155007D1*
X2056202Y1158710D1*
X2065686Y1161878D1*
X2075335Y1164501D1*
X2085117Y1166570D1*
X2095001Y1168077D1*
X2104955Y1169020D1*
X2114948Y1169394D1*
X2124944Y1169197D1*
X2134913Y1168430D1*
X2144823Y1167098D1*
X2154640Y1165203D1*
X2164333Y1162752D1*
X2173871Y1159752D1*
X2183223Y1156214D1*
X2192358Y1152148D1*
X2201245Y1147568D1*
X2209858Y1142490D1*
X2218168Y1136929D1*
X2226147Y1130903D1*
X2233770Y1124433D1*
X2241012Y1117539D1*
X2247849Y1110243D1*
X2254260Y1102570D1*
X2260222Y1094543D1*
X2265718Y1086190D1*
X2270728Y1077538D1*
X2275239Y1068614D1*
X2279232Y1059448D1*
X2282697Y1050070D1*
X2285622Y1040508D1*
X2287997Y1030795D1*
X2289815Y1020963D1*
X2291070Y1011043D1*
X2291757Y1001068D1*
X2291900Y994000D1*
X2291615Y984005D1*
X2290761Y974043D1*
X2289341Y964146D1*
X2287358Y954346D1*
X2284822Y944675D1*
X2281738Y935163D1*
X2278117Y925844D1*
X2273970Y916745D1*
X2269312Y907898D1*
X2264157Y899329D1*
X2258524Y891070D1*
X2252428Y883144D1*
X2245890Y875579D1*
X2238932Y868399D1*
X2231576Y861626D1*
X2228934Y859396D1*
X2294400Y859400D1*
Y728600D1*
X1488600D1*
Y859400D1*
X1529050D1*
X1523462Y864261D1*
X1516261Y871198D1*
X1509467Y878534D1*
X1503102Y886245D1*
X1497186Y894306D1*
X1491740Y902692D1*
X1486781Y911374D1*
X1482324Y920324D1*
X1478385Y929513D1*
X1474975Y938913D1*
X1472106Y948491D1*
X1469789Y958218D1*
X1468029Y968060D1*
X1466832Y977987D1*
X1466203Y987966D1*
X1466144Y997965D1*
X1466656Y1007950D1*
X1467735Y1017890D1*
X1469378Y1027753D1*
X1471581Y1037505D1*
X1474336Y1047117D1*
X1477635Y1056556D1*
X1481466Y1065791D1*
X1485816Y1074794D1*
X1490673Y1083534D1*
X1496020Y1091983D1*
X1501840Y1100114D1*
X1508113Y1107899D1*
X1514820Y1115315D1*
X1521938Y1122336D1*
X1529445Y1128941D1*
X1537316Y1135106D1*
X1545526Y1140814D1*
X1554049Y1146043D1*
X1562854Y1150780D1*
X1571915Y1155007D1*
X1581202Y1158710D1*
X1590686Y1161878D1*
X1600335Y1164501D1*
X1610117Y1166570D1*
X1620001Y1168077D1*
X1629955Y1169020D1*
X1639948Y1169394D1*
X1649944Y1169197D1*
X1659913Y1168430D1*
X1669823Y1167098D1*
X1679640Y1165203D1*
X1689333Y1162752D1*
X1698871Y1159752D1*
X1708223Y1156214D1*
X1717358Y1152148D1*
X1726245Y1147568D1*
X1734858Y1142490D1*
X1743168Y1136929D1*
X1751147Y1130903D1*
X1758770Y1124433D1*
X1766012Y1117539D1*
X1772849Y1110243D1*
X1779260Y1102570D1*
X1785222Y1094543D1*
X1790718Y1086190D1*
X1795728Y1077538D1*
X1800239Y1068614D1*
X1804232Y1059448D1*
X1807697Y1050070D1*
X1810622Y1040508D1*
X1812997Y1030795D1*
X1814815Y1020963D1*
X1816070Y1011043D1*
X1816757Y1001068D1*
X1816900Y994000D1*
X1816828Y989001D1*
X816828D2*
X816259Y979018D1*
X815121Y969084D1*
X813420Y959232D1*
X811159Y949492D1*
X808348Y939896D1*
X804993Y930478D1*
X801108Y921265D1*
X796705Y912289D1*
X791795Y903577D1*
X786399Y895160D1*
X780531Y887064D1*
X774213Y879315D1*
X767462Y871940D1*
X760302Y864961D1*
X753934Y859396D1*
X1004050Y859400D1*
X998462Y864261D1*
X991261Y871198D1*
X984467Y878534D1*
X978102Y886245D1*
X972186Y894306D1*
X966740Y902692D1*
X961781Y911374D1*
X957324Y920324D1*
X953385Y929513D1*
X949975Y938913D1*
X947106Y948491D1*
X944789Y958218D1*
X943029Y968060D1*
X941832Y977987D1*
X941203Y987966D1*
X941144Y997965D1*
X941656Y1007950D1*
X942735Y1017890D1*
X944378Y1027753D1*
X946581Y1037505D1*
X949336Y1047117D1*
X952635Y1056556D1*
X956466Y1065791D1*
X960816Y1074794D1*
X965673Y1083534D1*
X971020Y1091983D1*
X976840Y1100114D1*
X983113Y1107899D1*
X989820Y1115315D1*
X996938Y1122336D1*
X1004445Y1128941D1*
X1012316Y1135106D1*
X1020526Y1140814D1*
X1029049Y1146043D1*
X1037854Y1150780D1*
X1046915Y1155007D1*
X1056202Y1158710D1*
X1065686Y1161878D1*
X1075335Y1164501D1*
X1085117Y1166570D1*
X1095001Y1168077D1*
X1104955Y1169020D1*
X1114948Y1169394D1*
X1124944Y1169197D1*
X1134913Y1168430D1*
X1144823Y1167098D1*
X1154640Y1165203D1*
X1164333Y1162752D1*
X1173871Y1159752D1*
X1183223Y1156214D1*
X1192358Y1152148D1*
X1201245Y1147568D1*
X1209858Y1142490D1*
X1218168Y1136929D1*
X1226147Y1130903D1*
X1233770Y1124433D1*
X1241012Y1117539D1*
X1247849Y1110243D1*
X1254260Y1102570D1*
X1260222Y1094543D1*
X1265718Y1086190D1*
X1270728Y1077538D1*
X1275239Y1068614D1*
X1279232Y1059448D1*
X1282697Y1050070D1*
X1285622Y1040508D1*
X1287997Y1030795D1*
X1289815Y1020963D1*
X1291070Y1011043D1*
X1291757Y1001068D1*
X1291900Y994000D1*
X1291615Y984005D1*
X1290761Y974043D1*
X1289341Y964146D1*
X1287358Y954346D1*
X1284822Y944675D1*
X1281738Y935163D1*
X1278117Y925844D1*
X1273970Y916745D1*
X1269312Y907898D1*
X1264157Y899329D1*
X1258524Y891070D1*
X1252428Y883144D1*
X1245890Y875579D1*
X1238932Y868399D1*
X1231576Y861626D1*
X1228934Y859396D1*
X1281900Y859400D1*
Y728600D1*
X476100D1*
Y859400D1*
X529050D1*
X523462Y864261D1*
X516261Y871198D1*
X509467Y878534D1*
X503102Y886245D1*
X497186Y894306D1*
X491740Y902692D1*
X486781Y911374D1*
X482324Y920324D1*
X478385Y929513D1*
X474975Y938913D1*
X472106Y948491D1*
X469789Y958218D1*
X468029Y968060D1*
X466832Y977987D1*
X466203Y987966D1*
X466144Y997965D1*
X466656Y1007950D1*
X467735Y1017890D1*
X469378Y1027753D1*
X471581Y1037505D1*
X474336Y1047117D1*
X477635Y1056556D1*
X481466Y1065791D1*
X485816Y1074794D1*
X490673Y1083534D1*
X496020Y1091983D1*
X501840Y1100114D1*
X508113Y1107899D1*
X514820Y1115315D1*
X521938Y1122336D1*
X529445Y1128941D1*
X537316Y1135106D1*
X545526Y1140814D1*
X554049Y1146043D1*
X562854Y1150780D1*
X571915Y1155007D1*
X581202Y1158710D1*
X590686Y1161878D1*
X600335Y1164501D1*
X610117Y1166570D1*
X620001Y1168077D1*
X629955Y1169020D1*
X639948Y1169394D1*
X649944Y1169197D1*
X659913Y1168430D1*
X669823Y1167098D1*
X679640Y1165203D1*
X689333Y1162752D1*
X698871Y1159752D1*
X708223Y1156214D1*
X717358Y1152148D1*
X726245Y1147568D1*
X734858Y1142490D1*
X743168Y1136929D1*
X751147Y1130903D1*
X758770Y1124433D1*
X766012Y1117539D1*
X772849Y1110243D1*
X779260Y1102570D1*
X785222Y1094543D1*
X790718Y1086190D1*
X795728Y1077538D1*
X800239Y1068614D1*
X804232Y1059448D1*
X807697Y1050070D1*
X810622Y1040508D1*
X812997Y1030795D1*
X814815Y1020963D1*
X816070Y1011043D1*
X816757Y1001068D1*
X816900Y994000D1*
X816828Y989001D1*
Y1389001D2*
X816259Y1379018D1*
X815121Y1369084D1*
X813420Y1359232D1*
X811159Y1349492D1*
X808348Y1339896D1*
X804993Y1330478D1*
X801108Y1321265D1*
X796705Y1312289D1*
X791795Y1303577D1*
X786399Y1295160D1*
X780531Y1287064D1*
X774213Y1279315D1*
X767462Y1271940D1*
X760302Y1264961D1*
X752756Y1258400D1*
X744849Y1252281D1*
X736605Y1246622D1*
X728052Y1241442D1*
X719219Y1236759D1*
X710134Y1232585D1*
X700824Y1228937D1*
X691322Y1225824D1*
X681659Y1223259D1*
X671864Y1221248D1*
X661971Y1219799D1*
X652012Y1218915D1*
X642017Y1218601D1*
X632022Y1218856D1*
X622058Y1219681D1*
X612156Y1221072D1*
X602350Y1223025D1*
X592672Y1225534D1*
X583151Y1228589D1*
X573820Y1232184D1*
X564710Y1236303D1*
X555849Y1240934D1*
X547266Y1246064D1*
X538990Y1251673D1*
X531046Y1257747D1*
X523462Y1264261D1*
X516261Y1271198D1*
X509467Y1278534D1*
X503102Y1286245D1*
X497186Y1294306D1*
X491740Y1302692D1*
X486781Y1311374D1*
X482324Y1320324D1*
X478385Y1329513D1*
X474975Y1338913D1*
X472106Y1348491D1*
X469789Y1358218D1*
X468029Y1368060D1*
X466832Y1377987D1*
X466203Y1387966D1*
X466144Y1397965D1*
X466656Y1407950D1*
X467735Y1417890D1*
X469378Y1427753D1*
X471581Y1437505D1*
X474336Y1447117D1*
X477635Y1456556D1*
X481466Y1465791D1*
X485816Y1474794D1*
X490673Y1483534D1*
X496020Y1491983D1*
X501840Y1500114D1*
X508113Y1507899D1*
X514820Y1515315D1*
X521938Y1522336D1*
X529445Y1528941D1*
X537316Y1535106D1*
X545526Y1540814D1*
X554049Y1546043D1*
X562854Y1550780D1*
X571915Y1555007D1*
X581202Y1558710D1*
X588583Y1561209D1*
X588600Y2120533D1*
X578461Y2124071D1*
X569236Y2127929D1*
X560247Y2132306D1*
X551521Y2137189D1*
X543088Y2142560D1*
X534975Y2148404D1*
X527207Y2154701D1*
X519812Y2161429D1*
X512811Y2168568D1*
X506230Y2176094D1*
X500087Y2183984D1*
X494404Y2192211D1*
X489198Y2200748D1*
X484488Y2209567D1*
X480289Y2218642D1*
X476613Y2227940D1*
X473472Y2237432D1*
X470878Y2247089D1*
X468839Y2256877D1*
X467360Y2266765D1*
X466448Y2276723D1*
X466104Y2286715D1*
X466329Y2296711D1*
X467125Y2306678D1*
X468486Y2316584D1*
X470411Y2326395D1*
X472890Y2336081D1*
X475919Y2345612D1*
X479484Y2354951D1*
X483576Y2364075D1*
X488182Y2372950D1*
X493286Y2381547D1*
X498871Y2389840D1*
X504921Y2397802D1*
X511413Y2405406D1*
X518329Y2412627D1*
X525644Y2419442D1*
X533337Y2425831D1*
X541381Y2431769D1*
X549749Y2437240D1*
X558417Y2442226D1*
X567354Y2446709D1*
X576533Y2450675D1*
X585921Y2454113D1*
X588583Y2454959D1*
X588600Y2566119D1*
X501100Y2566100D1*
Y2721900D1*
X694400D1*
Y2454966D1*
X703572Y2451801D1*
X712819Y2447996D1*
X721835Y2443672D1*
X730589Y2438841D1*
X739054Y2433520D1*
X747201Y2427724D1*
X755005Y2421474D1*
X762441Y2414789D1*
X769483Y2407690D1*
X776109Y2400203D1*
X782298Y2392350D1*
X788030Y2384157D1*
X793285Y2375651D1*
X798047Y2366860D1*
X802301Y2357811D1*
X806031Y2348534D1*
X809227Y2339060D1*
X811879Y2329419D1*
X813976Y2319643D1*
X815513Y2309764D1*
X816484Y2299812D1*
X816887Y2289822D1*
X816828Y2282752D1*
X816259Y2272769D1*
X815121Y2262835D1*
X813420Y2252983D1*
X811159Y2243243D1*
X808348Y2233647D1*
X804993Y2224228D1*
X801108Y2215016D1*
X796705Y2206039D1*
X791795Y2197328D1*
X786399Y2188911D1*
X780531Y2180815D1*
X774213Y2173066D1*
X767462Y2165690D1*
X760302Y2158711D1*
X752756Y2152151D1*
X744849Y2146031D1*
X736605Y2140373D1*
X728052Y2135193D1*
X719219Y2130509D1*
X710134Y2126336D1*
X700824Y2122688D1*
X694399Y2120534D1*
X694400Y1561217D1*
X703572Y1558050D1*
X712819Y1554245D1*
X721835Y1549921D1*
X730589Y1545091D1*
X739054Y1539769D1*
X747201Y1533974D1*
X755005Y1527723D1*
X762441Y1521038D1*
X769483Y1513940D1*
X776109Y1506453D1*
X782298Y1498600D1*
X788030Y1490407D1*
X793285Y1481900D1*
X798047Y1473109D1*
X802301Y1464060D1*
X806031Y1454783D1*
X809227Y1445310D1*
X811879Y1435668D1*
X813976Y1425892D1*
X815513Y1416013D1*
X816484Y1406062D1*
X816887Y1396071D1*
X816828Y1389001D1*
X1291828D2*
X1291259Y1379018D1*
X1290121Y1369084D1*
X1288420Y1359232D1*
X1286159Y1349492D1*
X1283348Y1339896D1*
X1279993Y1330478D1*
X1276108Y1321265D1*
X1271705Y1312289D1*
X1266795Y1303577D1*
X1261399Y1295160D1*
X1255531Y1287064D1*
X1249213Y1279315D1*
X1242462Y1271940D1*
X1235302Y1264961D1*
X1227756Y1258400D1*
X1219849Y1252281D1*
X1211605Y1246622D1*
X1203052Y1241442D1*
X1194219Y1236759D1*
X1185134Y1232585D1*
X1175824Y1228937D1*
X1166322Y1225824D1*
X1156659Y1223259D1*
X1146864Y1221248D1*
X1136971Y1219799D1*
X1127012Y1218915D1*
X1117017Y1218601D1*
X1107022Y1218856D1*
X1097058Y1219681D1*
X1087156Y1221072D1*
X1077350Y1223025D1*
X1067672Y1225534D1*
X1058151Y1228589D1*
X1048820Y1232184D1*
X1039710Y1236303D1*
X1030849Y1240934D1*
X1022266Y1246064D1*
X1013990Y1251673D1*
X1006046Y1257747D1*
X998462Y1264261D1*
X991261Y1271198D1*
X984467Y1278534D1*
X978102Y1286245D1*
X972186Y1294306D1*
X966740Y1302692D1*
X961781Y1311374D1*
X957324Y1320324D1*
X953385Y1329513D1*
X949975Y1338913D1*
X947106Y1348491D1*
X944789Y1358218D1*
X943029Y1368060D1*
X941832Y1377987D1*
X941203Y1387966D1*
X941144Y1397965D1*
X941656Y1407950D1*
X942735Y1417890D1*
X944378Y1427753D1*
X946581Y1437505D1*
X949336Y1447117D1*
X952635Y1456556D1*
X956466Y1465791D1*
X960816Y1474794D1*
X965673Y1483534D1*
X971020Y1491983D1*
X976840Y1500114D1*
X983113Y1507899D1*
X989820Y1515315D1*
X996938Y1522336D1*
X1004445Y1528941D1*
X1012316Y1535106D1*
X1020526Y1540814D1*
X1029049Y1546043D1*
X1037854Y1550780D1*
X1046915Y1555007D1*
X1056202Y1558710D1*
X1065686Y1561878D1*
X1076115Y1564677D1*
X1076100Y2120533D1*
X1065961Y2124071D1*
X1056736Y2127929D1*
X1047747Y2132306D1*
X1039021Y2137189D1*
X1030588Y2142560D1*
X1022475Y2148404D1*
X1014707Y2154701D1*
X1007312Y2161429D1*
X1000311Y2168568D1*
X993730Y2176094D1*
X987587Y2183984D1*
X981904Y2192211D1*
X976698Y2200748D1*
X971988Y2209567D1*
X967789Y2218642D1*
X964113Y2227940D1*
X960972Y2237432D1*
X958378Y2247089D1*
X956339Y2256877D1*
X954860Y2266765D1*
X953948Y2276723D1*
X953604Y2286715D1*
X953829Y2296711D1*
X954625Y2306678D1*
X955986Y2316584D1*
X957911Y2326395D1*
X960390Y2336081D1*
X963419Y2345612D1*
X966984Y2354951D1*
X971076Y2364075D1*
X975682Y2372950D1*
X980786Y2381547D1*
X986371Y2389840D1*
X992421Y2397802D1*
X998913Y2405406D1*
X1005829Y2412627D1*
X1013144Y2419442D1*
X1020837Y2425831D1*
X1028881Y2431769D1*
X1037249Y2437240D1*
X1045917Y2442226D1*
X1054854Y2446709D1*
X1064033Y2450675D1*
X1073421Y2454113D1*
X1076083Y2454959D1*
X1076100Y2566119D1*
X938600Y2566100D1*
Y2721900D1*
X1181900D1*
Y2454966D1*
X1191072Y2451801D1*
X1200319Y2447996D1*
X1209335Y2443672D1*
X1218089Y2438841D1*
X1226554Y2433520D1*
X1234701Y2427724D1*
X1242505Y2421474D1*
X1249941Y2414789D1*
X1256983Y2407690D1*
X1263609Y2400203D1*
X1269798Y2392350D1*
X1275530Y2384157D1*
X1280785Y2375651D1*
X1285547Y2366860D1*
X1289801Y2357811D1*
X1293531Y2348534D1*
X1296727Y2339060D1*
X1299379Y2329419D1*
X1301476Y2319643D1*
X1303013Y2309764D1*
X1303984Y2299812D1*
X1304387Y2289822D1*
X1304328Y2282752D1*
X1303759Y2272769D1*
X1302621Y2262835D1*
X1300920Y2252983D1*
X1298659Y2243243D1*
X1295848Y2233647D1*
X1292493Y2224228D1*
X1288608Y2215016D1*
X1284205Y2206039D1*
X1279295Y2197328D1*
X1273899Y2188911D1*
X1268031Y2180815D1*
X1261713Y2173066D1*
X1254962Y2165690D1*
X1247802Y2158711D1*
X1240256Y2152151D1*
X1232349Y2146031D1*
X1224105Y2140373D1*
X1215552Y2135193D1*
X1206719Y2130509D1*
X1197634Y2126336D1*
X1188324Y2122688D1*
X1181899Y2120534D1*
X1181900Y1556762D1*
X1192358Y1552148D1*
X1201245Y1547568D1*
X1209858Y1542490D1*
X1218168Y1536929D1*
X1226147Y1530903D1*
X1233770Y1524433D1*
X1241012Y1517539D1*
X1247849Y1510243D1*
X1254260Y1502570D1*
X1260222Y1494543D1*
X1265718Y1486190D1*
X1270728Y1477538D1*
X1275239Y1468614D1*
X1279232Y1459448D1*
X1282697Y1450070D1*
X1285622Y1440508D1*
X1287997Y1430795D1*
X1289815Y1420963D1*
X1291070Y1411043D1*
X1291757Y1401068D1*
X1291900Y1394000D1*
X1291828Y1389001D1*
X1816828D2*
X1816259Y1379018D1*
X1815121Y1369084D1*
X1813420Y1359232D1*
X1811159Y1349492D1*
X1808348Y1339896D1*
X1804993Y1330478D1*
X1801108Y1321265D1*
X1796705Y1312289D1*
X1791795Y1303577D1*
X1786399Y1295160D1*
X1780531Y1287064D1*
X1774213Y1279315D1*
X1767462Y1271940D1*
X1760302Y1264961D1*
X1752756Y1258400D1*
X1744849Y1252281D1*
X1736605Y1246622D1*
X1728052Y1241442D1*
X1719219Y1236759D1*
X1710134Y1232585D1*
X1700824Y1228937D1*
X1691322Y1225824D1*
X1681659Y1223259D1*
X1671864Y1221248D1*
X1661971Y1219799D1*
X1652012Y1218915D1*
X1642017Y1218601D1*
X1632022Y1218856D1*
X1622058Y1219681D1*
X1612156Y1221072D1*
X1602350Y1223025D1*
X1592672Y1225534D1*
X1583151Y1228589D1*
X1573820Y1232184D1*
X1564710Y1236303D1*
X1555849Y1240934D1*
X1547266Y1246064D1*
X1538990Y1251673D1*
X1531046Y1257747D1*
X1523462Y1264261D1*
X1516261Y1271198D1*
X1509467Y1278534D1*
X1503102Y1286245D1*
X1497186Y1294306D1*
X1491740Y1302692D1*
X1486781Y1311374D1*
X1482324Y1320324D1*
X1478385Y1329513D1*
X1474975Y1338913D1*
X1472106Y1348491D1*
X1469789Y1358218D1*
X1468029Y1368060D1*
X1466832Y1377987D1*
X1466203Y1387966D1*
X1466144Y1397965D1*
X1466656Y1407950D1*
X1467735Y1417890D1*
X1469378Y1427753D1*
X1471581Y1437505D1*
X1474336Y1447117D1*
X1477635Y1456556D1*
X1481466Y1465791D1*
X1485816Y1474794D1*
X1490673Y1483534D1*
X1496020Y1491983D1*
X1501840Y1500114D1*
X1508113Y1507899D1*
X1514820Y1515315D1*
X1521938Y1522336D1*
X1529445Y1528941D1*
X1537316Y1535106D1*
X1545526Y1540814D1*
X1554049Y1546043D1*
X1562854Y1550780D1*
X1571915Y1555007D1*
X1576118Y1556752D1*
X1576100Y2120533D1*
X1565961Y2124071D1*
X1556736Y2127929D1*
X1547747Y2132306D1*
X1539021Y2137189D1*
X1530588Y2142560D1*
X1522475Y2148404D1*
X1514707Y2154701D1*
X1507312Y2161429D1*
X1500311Y2168568D1*
X1493730Y2176094D1*
X1487587Y2183984D1*
X1481904Y2192211D1*
X1476698Y2200748D1*
X1471988Y2209567D1*
X1467789Y2218642D1*
X1464113Y2227940D1*
X1460972Y2237432D1*
X1458378Y2247089D1*
X1456339Y2256877D1*
X1454860Y2266765D1*
X1453948Y2276723D1*
X1453604Y2286715D1*
X1453829Y2296711D1*
X1454625Y2306678D1*
X1455986Y2316584D1*
X1457911Y2326395D1*
X1460390Y2336081D1*
X1463419Y2345612D1*
X1466984Y2354951D1*
X1471076Y2364075D1*
X1475682Y2372950D1*
X1480786Y2381547D1*
X1486371Y2389840D1*
X1492421Y2397802D1*
X1498913Y2405406D1*
X1505829Y2412627D1*
X1513144Y2419442D1*
X1520837Y2425831D1*
X1528881Y2431769D1*
X1537249Y2437240D1*
X1545917Y2442226D1*
X1554854Y2446709D1*
X1564033Y2450675D1*
X1573421Y2454113D1*
X1576083Y2454959D1*
X1576100Y2721900D1*
X1831900D1*
Y2566100D1*
X1681881D1*
X1681900Y2454966D1*
X1691072Y2451801D1*
X1700319Y2447996D1*
X1709335Y2443672D1*
X1718089Y2438841D1*
X1726554Y2433520D1*
X1734701Y2427724D1*
X1742505Y2421474D1*
X1749941Y2414789D1*
X1756983Y2407690D1*
X1763609Y2400203D1*
X1769798Y2392350D1*
X1775530Y2384157D1*
X1780785Y2375651D1*
X1785547Y2366860D1*
X1789801Y2357811D1*
X1793531Y2348534D1*
X1796727Y2339060D1*
X1799379Y2329419D1*
X1801476Y2319643D1*
X1803013Y2309764D1*
X1803984Y2299812D1*
X1804387Y2289822D1*
X1804328Y2282752D1*
X1803759Y2272769D1*
X1802621Y2262835D1*
X1800920Y2252983D1*
X1798659Y2243243D1*
X1795848Y2233647D1*
X1792493Y2224228D1*
X1788608Y2215016D1*
X1784205Y2206039D1*
X1779295Y2197328D1*
X1773899Y2188911D1*
X1768031Y2180815D1*
X1761713Y2173066D1*
X1754962Y2165690D1*
X1747802Y2158711D1*
X1740256Y2152151D1*
X1732349Y2146031D1*
X1724105Y2140373D1*
X1715552Y2135193D1*
X1706719Y2130509D1*
X1697634Y2126336D1*
X1688324Y2122688D1*
X1681899Y2120534D1*
X1681900Y1564693D1*
X1689333Y1562752D1*
X1698871Y1559752D1*
X1708223Y1556214D1*
X1717358Y1552148D1*
X1726245Y1547568D1*
X1734858Y1542490D1*
X1743168Y1536929D1*
X1751147Y1530903D1*
X1758770Y1524433D1*
X1766012Y1517539D1*
X1772849Y1510243D1*
X1779260Y1502570D1*
X1785222Y1494543D1*
X1790718Y1486190D1*
X1795728Y1477538D1*
X1800239Y1468614D1*
X1804232Y1459448D1*
X1807697Y1450070D1*
X1810622Y1440508D1*
X1812997Y1430795D1*
X1814815Y1420963D1*
X1816070Y1411043D1*
X1816757Y1401068D1*
X1816900Y1394000D1*
X1816828Y1389001D1*
X2291828D2*
X2291259Y1379018D1*
X2290121Y1369084D1*
X2288420Y1359232D1*
X2286159Y1349492D1*
X2283348Y1339896D1*
X2279993Y1330478D1*
X2276108Y1321265D1*
X2271705Y1312289D1*
X2266795Y1303577D1*
X2261399Y1295160D1*
X2255531Y1287064D1*
X2249213Y1279315D1*
X2242462Y1271940D1*
X2235302Y1264961D1*
X2227756Y1258400D1*
X2219849Y1252281D1*
X2211605Y1246622D1*
X2203052Y1241442D1*
X2194219Y1236759D1*
X2185134Y1232585D1*
X2175824Y1228937D1*
X2166322Y1225824D1*
X2156659Y1223259D1*
X2146864Y1221248D1*
X2136971Y1219799D1*
X2127012Y1218915D1*
X2117017Y1218601D1*
X2107022Y1218856D1*
X2097058Y1219681D1*
X2087156Y1221072D1*
X2077350Y1223025D1*
X2067672Y1225534D1*
X2058151Y1228589D1*
X2048820Y1232184D1*
X2039710Y1236303D1*
X2030849Y1240934D1*
X2022266Y1246064D1*
X2013990Y1251673D1*
X2006046Y1257747D1*
X1998462Y1264261D1*
X1991261Y1271198D1*
X1984467Y1278534D1*
X1978102Y1286245D1*
X1972186Y1294306D1*
X1966740Y1302692D1*
X1961781Y1311374D1*
X1957324Y1320324D1*
X1953385Y1329513D1*
X1949975Y1338913D1*
X1947106Y1348491D1*
X1944789Y1358218D1*
X1943029Y1368060D1*
X1941832Y1377987D1*
X1941203Y1387966D1*
X1941144Y1397965D1*
X1941656Y1407950D1*
X1942735Y1417890D1*
X1944378Y1427753D1*
X1946581Y1437505D1*
X1949336Y1447117D1*
X1952635Y1456556D1*
X1956466Y1465791D1*
X1960816Y1474794D1*
X1965673Y1483534D1*
X1971020Y1491983D1*
X1976840Y1500114D1*
X1983113Y1507899D1*
X1989820Y1515315D1*
X1996938Y1522336D1*
X2004445Y1528941D1*
X2012316Y1535106D1*
X2020526Y1540814D1*
X2029049Y1546043D1*
X2037854Y1550780D1*
X2046915Y1555007D1*
X2056202Y1558710D1*
X2063583Y1561209D1*
X2063600Y2120533D1*
X2053461Y2124071D1*
X2044236Y2127929D1*
X2035247Y2132306D1*
X2026521Y2137189D1*
X2018088Y2142560D1*
X2009975Y2148404D1*
X2002207Y2154701D1*
X1994812Y2161429D1*
X1987811Y2168568D1*
X1981230Y2176094D1*
X1975087Y2183984D1*
X1969404Y2192211D1*
X1964198Y2200748D1*
X1959488Y2209567D1*
X1955289Y2218642D1*
X1951613Y2227940D1*
X1948472Y2237432D1*
X1945878Y2247089D1*
X1943839Y2256877D1*
X1942360Y2266765D1*
X1941448Y2276723D1*
X1941104Y2286715D1*
X1941329Y2296711D1*
X1942125Y2306678D1*
X1943486Y2316584D1*
X1945411Y2326395D1*
X1947890Y2336081D1*
X1950919Y2345612D1*
X1954484Y2354951D1*
X1958576Y2364075D1*
X1963182Y2372950D1*
X1968286Y2381547D1*
X1973871Y2389840D1*
X1979921Y2397802D1*
X1986413Y2405406D1*
X1993329Y2412627D1*
X2000644Y2419442D1*
X2008337Y2425831D1*
X2016381Y2431769D1*
X2024749Y2437240D1*
X2033417Y2442226D1*
X2042354Y2446709D1*
X2051533Y2450675D1*
X2060921Y2454113D1*
X2063583Y2454959D1*
X2063600Y2721900D1*
X2256900D1*
Y2566100D1*
X2169420D1*
X2169400Y2454966D1*
X2178572Y2451801D1*
X2187819Y2447996D1*
X2196835Y2443672D1*
X2205589Y2438841D1*
X2214054Y2433520D1*
X2222201Y2427724D1*
X2230005Y2421474D1*
X2237441Y2414789D1*
X2244483Y2407690D1*
X2251109Y2400203D1*
X2257298Y2392350D1*
X2263030Y2384157D1*
X2268285Y2375651D1*
X2273047Y2366860D1*
X2277301Y2357811D1*
X2281031Y2348534D1*
X2284227Y2339060D1*
X2286879Y2329419D1*
X2288976Y2319643D1*
X2290513Y2309764D1*
X2291484Y2299812D1*
X2291887Y2289822D1*
X2291828Y2282752D1*
X2291259Y2272769D1*
X2290121Y2262835D1*
X2288420Y2252983D1*
X2286159Y2243243D1*
X2283348Y2233647D1*
X2279993Y2224228D1*
X2276108Y2215016D1*
X2271705Y2206039D1*
X2266795Y2197328D1*
X2261399Y2188911D1*
X2255531Y2180815D1*
X2249213Y2173066D1*
X2242462Y2165690D1*
X2235302Y2158711D1*
X2227756Y2152151D1*
X2219849Y2146031D1*
X2211605Y2140373D1*
X2203052Y2135193D1*
X2194219Y2130509D1*
X2185134Y2126336D1*
X2175824Y2122688D1*
X2169399Y2120534D1*
X2169400Y1561217D1*
X2178572Y1558050D1*
X2187819Y1554245D1*
X2196835Y1549921D1*
X2205589Y1545091D1*
X2214054Y1539769D1*
X2222201Y1533974D1*
X2230005Y1527723D1*
X2237441Y1521038D1*
X2244483Y1513940D1*
X2251109Y1506453D1*
X2257298Y1498600D1*
X2263030Y1490407D1*
X2268285Y1481900D1*
X2273047Y1473109D1*
X2277301Y1464060D1*
X2281031Y1454783D1*
X2284227Y1445310D1*
X2286879Y1435668D1*
X2288976Y1425892D1*
X2290513Y1416013D1*
X2291484Y1406062D1*
X2291887Y1396071D1*
X2291828Y1389001D1*
X829328Y4839001D2*
X828759Y4829018D1*
X827621Y4819084D1*
X825920Y4809232D1*
X823659Y4799492D1*
X820848Y4789896D1*
X817493Y4780478D1*
X813608Y4771265D1*
X809205Y4762289D1*
X804295Y4753577D1*
X798899Y4745160D1*
X793031Y4737064D1*
X786713Y4729315D1*
X779962Y4721940D1*
X772802Y4714961D1*
X765256Y4708400D1*
X757349Y4702281D1*
X749105Y4696622D1*
X740552Y4691442D1*
X731719Y4686759D1*
X722634Y4682585D1*
X713324Y4678937D1*
X703822Y4675824D1*
X694159Y4673259D1*
X684364Y4671248D1*
X674471Y4669799D1*
X664512Y4668915D1*
X654517Y4668601D1*
X644522Y4668856D1*
X634558Y4669681D1*
X624656Y4671072D1*
X614850Y4673025D1*
X605172Y4675534D1*
X595651Y4678589D1*
X586320Y4682184D1*
X577210Y4686303D1*
X568349Y4690934D1*
X559766Y4696064D1*
X551490Y4701673D1*
X543546Y4707747D1*
X535962Y4714261D1*
X528761Y4721198D1*
X521967Y4728534D1*
X515602Y4736245D1*
X509686Y4744306D1*
X504240Y4752692D1*
X499281Y4761374D1*
X494824Y4770324D1*
X490885Y4779513D1*
X487475Y4788913D1*
X484606Y4798491D1*
X482289Y4808218D1*
X480529Y4818060D1*
X479332Y4827987D1*
X478703Y4837966D1*
X478644Y4847965D1*
X479156Y4857950D1*
X480235Y4867890D1*
X481878Y4877753D1*
X484081Y4887505D1*
X486836Y4897117D1*
X490135Y4906556D1*
X493966Y4915791D1*
X498316Y4924794D1*
X503173Y4933534D1*
X508520Y4941983D1*
X514340Y4950114D1*
X520613Y4957899D1*
X527320Y4965315D1*
X534438Y4972336D1*
X541945Y4978941D1*
X549816Y4985106D1*
X558026Y4990814D1*
X566549Y4996043D1*
X575354Y5000780D1*
X584415Y5005007D1*
X593702Y5008710D1*
X603186Y5011878D1*
X612835Y5014501D1*
X622617Y5016570D1*
X632501Y5018077D1*
X642455Y5019020D1*
X652448Y5019394D1*
X662444Y5019197D1*
X672413Y5018430D1*
X682323Y5017098D1*
X692140Y5015203D1*
X701833Y5012752D1*
X711371Y5009752D1*
X720723Y5006214D1*
X729858Y5002148D1*
X738745Y4997568D1*
X747358Y4992490D1*
X755668Y4986929D1*
X763647Y4980903D1*
X771270Y4974433D1*
X778512Y4967539D1*
X785349Y4960243D1*
X791760Y4952570D1*
X797722Y4944543D1*
X803218Y4936190D1*
X808228Y4927538D1*
X812739Y4918614D1*
X816732Y4909448D1*
X820197Y4900070D1*
X823122Y4890508D1*
X825497Y4880795D1*
X827315Y4870963D1*
X828570Y4861043D1*
X829257Y4851068D1*
X829400Y4844000D1*
X829328Y4839001D1*
X2279328D2*
X2278759Y4829018D1*
X2277621Y4819084D1*
X2275920Y4809232D1*
X2273659Y4799492D1*
X2270848Y4789896D1*
X2267493Y4780478D1*
X2263608Y4771265D1*
X2259205Y4762289D1*
X2254295Y4753577D1*
X2248899Y4745160D1*
X2243031Y4737064D1*
X2236713Y4729315D1*
X2229962Y4721940D1*
X2222802Y4714961D1*
X2215256Y4708400D1*
X2207349Y4702281D1*
X2199105Y4696622D1*
X2190552Y4691442D1*
X2181719Y4686759D1*
X2172634Y4682585D1*
X2163324Y4678937D1*
X2153822Y4675824D1*
X2144159Y4673259D1*
X2134364Y4671248D1*
X2124471Y4669799D1*
X2114512Y4668915D1*
X2104517Y4668601D1*
X2094522Y4668856D1*
X2084558Y4669681D1*
X2074656Y4671072D1*
X2064850Y4673025D1*
X2055172Y4675534D1*
X2045651Y4678589D1*
X2036320Y4682184D1*
X2027210Y4686303D1*
X2018349Y4690934D1*
X2009766Y4696064D1*
X2001490Y4701673D1*
X1993546Y4707747D1*
X1985962Y4714261D1*
X1978761Y4721198D1*
X1971967Y4728534D1*
X1965602Y4736245D1*
X1959686Y4744306D1*
X1954240Y4752692D1*
X1949281Y4761374D1*
X1944824Y4770324D1*
X1940885Y4779513D1*
X1937475Y4788913D1*
X1934606Y4798491D1*
X1932289Y4808218D1*
X1930529Y4818060D1*
X1929332Y4827987D1*
X1928703Y4837966D1*
X1928644Y4847965D1*
X1929156Y4857950D1*
X1930235Y4867890D1*
X1931878Y4877753D1*
X1934081Y4887505D1*
X1936836Y4897117D1*
X1940135Y4906556D1*
X1943966Y4915791D1*
X1948316Y4924794D1*
X1953173Y4933534D1*
X1958520Y4941983D1*
X1964340Y4950114D1*
X1970613Y4957899D1*
X1977320Y4965315D1*
X1984438Y4972336D1*
X1991945Y4978941D1*
X1999816Y4985106D1*
X2008026Y4990814D1*
X2016549Y4996043D1*
X2025354Y5000780D1*
X2034415Y5005007D1*
X2043702Y5008710D1*
X2053186Y5011878D1*
X2062835Y5014501D1*
X2072617Y5016570D1*
X2082501Y5018077D1*
X2092455Y5019020D1*
X2102448Y5019394D1*
X2112444Y5019197D1*
X2122413Y5018430D1*
X2132323Y5017098D1*
X2142140Y5015203D1*
X2151833Y5012752D1*
X2161371Y5009752D1*
X2170723Y5006214D1*
X2179858Y5002148D1*
X2188745Y4997568D1*
X2197358Y4992490D1*
X2205668Y4986929D1*
X2213647Y4980903D1*
X2221270Y4974433D1*
X2228512Y4967539D1*
X2235349Y4960243D1*
X2241760Y4952570D1*
X2247722Y4944543D1*
X2253218Y4936190D1*
X2258228Y4927538D1*
X2262739Y4918614D1*
X2266732Y4909448D1*
X2270197Y4900070D1*
X2273122Y4890508D1*
X2275497Y4880795D1*
X2277315Y4870963D1*
X2278570Y4861043D1*
X2279257Y4851068D1*
X2279400Y4844000D1*
X2279328Y4839001D1*
X1509298Y3426501D2*
X1508531Y3416533D1*
X1507004Y3406652D1*
X1504724Y3396919D1*
X1501706Y3387388D1*
X1497965Y3378117D1*
X1493525Y3369159D1*
X1488412Y3360567D1*
X1482656Y3352394D1*
X1476291Y3344684D1*
X1469353Y3337486D1*
X1461885Y3330839D1*
X1453929Y3324785D1*
X1445533Y3319358D1*
X1436745Y3314589D1*
X1427618Y3310509D1*
X1418206Y3307140D1*
X1408563Y3304501D1*
X1398745Y3302610D1*
X1388812Y3301476D1*
X1378822Y3301106D1*
X1368832Y3301504D1*
X1358903Y3302664D1*
X1349091Y3304583D1*
X1339454Y3307248D1*
X1330051Y3310643D1*
X1320936Y3314748D1*
X1312161Y3319539D1*
X1303780Y3324990D1*
X1295840Y3331066D1*
X1288390Y3337732D1*
X1281472Y3344950D1*
X1275127Y3352677D1*
X1269394Y3360866D1*
X1264304Y3369471D1*
X1259890Y3378441D1*
X1256175Y3387723D1*
X1253181Y3397262D1*
X1250928Y3407003D1*
X1249428Y3416887D1*
X1248689Y3426857D1*
X1248717Y3436854D1*
X1249509Y3446820D1*
X1251064Y3456697D1*
X1253370Y3466424D1*
X1256416Y3475948D1*
X1260181Y3485209D1*
X1264646Y3494154D1*
X1269782Y3502731D1*
X1275560Y3510890D1*
X1281946Y3518581D1*
X1288904Y3525761D1*
X1296390Y3532387D1*
X1304362Y3538420D1*
X1312774Y3543824D1*
X1321573Y3548567D1*
X1330713Y3552623D1*
X1340134Y3555967D1*
X1349785Y3558579D1*
X1359606Y3560444D1*
X1369542Y3561550D1*
X1379534Y3561892D1*
X1389522Y3561469D1*
X1399449Y3560281D1*
X1409256Y3558335D1*
X1418885Y3555644D1*
X1428278Y3552223D1*
X1437383Y3548093D1*
X1446144Y3543277D1*
X1454510Y3537804D1*
X1462433Y3531706D1*
X1469866Y3525020D1*
X1476764Y3517783D1*
X1483087Y3510039D1*
X1488798Y3501833D1*
X1493865Y3493215D1*
X1498255Y3484234D1*
X1501945Y3474941D1*
X1504912Y3465394D1*
X1507138Y3455647D1*
X1508612Y3445760D1*
X1509323Y3435787D1*
X1509298Y3426501D1*
Y2751501D2*
X1508531Y2741533D1*
X1507004Y2731652D1*
X1504724Y2721919D1*
X1501706Y2712388D1*
X1497965Y2703117D1*
X1493525Y2694159D1*
X1488412Y2685567D1*
X1482656Y2677394D1*
X1476291Y2669684D1*
X1469353Y2662486D1*
X1461885Y2655839D1*
X1453929Y2649785D1*
X1445533Y2644358D1*
X1436745Y2639589D1*
X1427618Y2635509D1*
X1418206Y2632140D1*
X1408563Y2629501D1*
X1398745Y2627610D1*
X1388812Y2626476D1*
X1378822Y2626106D1*
X1368832Y2626504D1*
X1358903Y2627664D1*
X1349091Y2629583D1*
X1339454Y2632248D1*
X1330051Y2635643D1*
X1320936Y2639748D1*
X1312161Y2644539D1*
X1303780Y2649990D1*
X1295840Y2656066D1*
X1288390Y2662732D1*
X1281472Y2669950D1*
X1275127Y2677677D1*
X1269394Y2685866D1*
X1264304Y2694471D1*
X1259890Y2703441D1*
X1256175Y2712723D1*
X1253181Y2722262D1*
X1250928Y2732003D1*
X1249428Y2741887D1*
X1248689Y2751857D1*
X1248717Y2761854D1*
X1249509Y2771820D1*
X1251064Y2781697D1*
X1253370Y2791424D1*
X1256416Y2800948D1*
X1260181Y2810209D1*
X1264646Y2819154D1*
X1269782Y2827731D1*
X1275560Y2835890D1*
X1281946Y2843581D1*
X1288904Y2850761D1*
X1296390Y2857387D1*
X1304362Y2863420D1*
X1312774Y2868824D1*
X1321573Y2873567D1*
X1330713Y2877623D1*
X1340134Y2880967D1*
X1349785Y2883579D1*
X1359606Y2885444D1*
X1369542Y2886550D1*
X1379534Y2886892D1*
X1389522Y2886469D1*
X1399449Y2885281D1*
X1409256Y2883335D1*
X1418885Y2880644D1*
X1428278Y2877223D1*
X1437383Y2873093D1*
X1446144Y2868277D1*
X1454510Y2862804D1*
X1462433Y2856706D1*
X1469866Y2850020D1*
X1476764Y2842783D1*
X1483087Y2835039D1*
X1488798Y2826833D1*
X1493865Y2818215D1*
X1498255Y2809234D1*
X1501945Y2799941D1*
X1504912Y2790394D1*
X1507138Y2780647D1*
X1508612Y2770760D1*
X1509323Y2760787D1*
X1509298Y2751501D1*
X1268600Y4734400D2*
X1494400D1*
Y4591100D1*
X1263600D1*
Y4734400D1*
X1268600D1*
X518600Y4659400D2*
X794400D1*
Y4541100D1*
X513600D1*
Y4659400D1*
X518600D1*
X1956100D2*
X2256900D1*
Y4541100D1*
X1951100D1*
Y4659400D1*
X1956100D1*
X1256100Y4471900D2*
X1644400D1*
Y3628600D1*
X1251100D1*
Y4471900D1*
X1256100D1*
Y3221900D2*
X1644400D1*
Y2966100D1*
X1251100D1*
Y3221900D1*
X1256100D1*
X2343010Y5209849D2*
X415003D1*
X415000Y659416D1*
X2342999Y659400D1*
X2343000Y5209857D1*
X529117Y4265175D2*
X630656Y4265113D1*
X633756Y4264622D1*
X636740Y4263652D1*
X639537Y4262227D1*
X642076Y4260383D1*
X644295Y4258164D1*
X646139Y4255625D1*
X647564Y4252828D1*
X648534Y4249844D1*
X649025Y4246744D1*
X649087Y4220175D1*
X649025Y2743762D1*
X648534Y2740663D1*
X647564Y2737678D1*
X646139Y2734882D1*
X644295Y2732343D1*
X642076Y2730123D1*
X639537Y2728280D1*
X636740Y2726854D1*
X633756Y2725885D1*
X630656Y2725394D1*
X604087Y2725332D1*
X527528Y2725394D1*
X524428Y2725885D1*
X521444Y2726854D1*
X518647Y2728280D1*
X516108Y2730123D1*
X513888Y2732343D1*
X512045Y2734882D1*
X510619Y2737678D1*
X509650Y2740663D1*
X509159Y2743762D1*
X509097Y2770332D1*
X509159Y4246744D1*
X509650Y4249844D1*
X510619Y4252828D1*
X512045Y4255625D1*
X513888Y4258164D1*
X516108Y4260383D1*
X518647Y4262227D1*
X521444Y4263652D1*
X524428Y4264622D1*
X527528Y4265113D1*
X529104Y4265175D1*
X953373Y4264722D2*
X1054912Y4264660D1*
X1058012Y4264169D1*
X1060996Y4263199D1*
X1063793Y4261774D1*
X1066332Y4259930D1*
X1068551Y4257711D1*
X1070395Y4255172D1*
X1071820Y4252375D1*
X1072790Y4249391D1*
X1073281Y4246291D1*
X1073343Y4219722D1*
X1073281Y2743310D1*
X1072790Y2740210D1*
X1071820Y2737226D1*
X1070395Y2734429D1*
X1068551Y2731890D1*
X1066332Y2729671D1*
X1063793Y2727827D1*
X1060996Y2726402D1*
X1058012Y2725432D1*
X1054912Y2724941D1*
X1028343Y2724879D1*
X951783Y2724941D1*
X948684Y2725432D1*
X945699Y2726402D1*
X942903Y2727827D1*
X940364Y2729671D1*
X938144Y2731890D1*
X936301Y2734429D1*
X934875Y2737226D1*
X933906Y2740210D1*
X933415Y2743310D1*
X933353Y2769879D1*
X933415Y4246291D1*
X933906Y4249391D1*
X934875Y4252375D1*
X936301Y4255172D1*
X938144Y4257711D1*
X940364Y4259930D1*
X942903Y4261774D1*
X945699Y4263199D1*
X948684Y4264169D1*
X951783Y4264660D1*
X953360Y4264722D1*
X1709098Y4265175D2*
X1805657Y4265113D1*
X1808757Y4264622D1*
X1811741Y4263652D1*
X1814538Y4262227D1*
X1817077Y4260383D1*
X1819297Y4258164D1*
X1821140Y4255625D1*
X1822566Y4252828D1*
X1823535Y4249844D1*
X1824026Y4246744D1*
X1824088Y4220175D1*
X1824026Y2743762D1*
X1823535Y2740663D1*
X1822566Y2737678D1*
X1821140Y2734882D1*
X1819297Y2732343D1*
X1817077Y2730123D1*
X1814538Y2728280D1*
X1811741Y2726854D1*
X1808757Y2725885D1*
X1805657Y2725394D1*
X1779088Y2725332D1*
X1702529Y2725394D1*
X1699429Y2725885D1*
X1696445Y2726854D1*
X1693648Y2728280D1*
X1691109Y2730123D1*
X1688890Y2732343D1*
X1687046Y2734882D1*
X1685621Y2737678D1*
X1684651Y2740663D1*
X1684160Y2743762D1*
X1684098Y2770332D1*
X1684160Y4246744D1*
X1684651Y4249844D1*
X1685621Y4252828D1*
X1687046Y4255625D1*
X1688890Y4258164D1*
X1691109Y4260383D1*
X1693648Y4262227D1*
X1696445Y4263652D1*
X1699429Y4264622D1*
X1702529Y4265113D1*
X1709098Y4265175D1*
X2129118D2*
X2230657Y4265113D1*
X2233757Y4264622D1*
X2236741Y4263652D1*
X2239538Y4262227D1*
X2242077Y4260383D1*
X2244297Y4258164D1*
X2246140Y4255625D1*
X2247566Y4252828D1*
X2248535Y4249844D1*
X2249026Y4246744D1*
X2249088Y4220175D1*
X2249026Y2743762D1*
X2248535Y2740663D1*
X2247566Y2737678D1*
X2246140Y2734882D1*
X2244297Y2732343D1*
X2242077Y2730123D1*
X2239538Y2728280D1*
X2236741Y2726854D1*
X2233757Y2725885D1*
X2230657Y2725394D1*
X2204088Y2725332D1*
X2127529Y2725394D1*
X2124429Y2725885D1*
X2121445Y2726854D1*
X2118648Y2728280D1*
X2116109Y2730123D1*
X2113890Y2732343D1*
X2112046Y2734882D1*
X2110621Y2737678D1*
X2109651Y2740663D1*
X2109160Y2743762D1*
X2109098Y2770332D1*
X2109160Y4246744D1*
X2109651Y4249844D1*
X2110621Y4252828D1*
X2112046Y4255625D1*
X2113890Y4258164D1*
X2116109Y4260383D1*
X2118648Y4262227D1*
X2121445Y4263652D1*
X2124429Y4264622D1*
X2127529Y4265113D1*
X2129105Y4265175D1*
X416260Y5422881D2*
X560530D1*
X797471D2*
X1960530D1*
X2197471D2*
X2341741D1*
X416260Y5413012D2*
X547112D1*
X810890D2*
X1947112D1*
X2210890D2*
X2341741D1*
X416260Y5403143D2*
X537073D1*
X820928D2*
X1937073D1*
X2220928D2*
X2341741D1*
X416260Y5393274D2*
X529280D1*
X828722D2*
X1929280D1*
X2228722D2*
X2341741D1*
X416260Y5383406D2*
X523147D1*
X834854D2*
X1923147D1*
X2234854D2*
X2341741D1*
X416260Y5373537D2*
X518382D1*
X839619D2*
X1918382D1*
X2239619D2*
X2341741D1*
X416260Y5363668D2*
X514787D1*
X843214D2*
X1914787D1*
X2243214D2*
X2341741D1*
X416260Y5353799D2*
X512230D1*
X845752D2*
X1912230D1*
X2245752D2*
X2341741D1*
X416260Y5343930D2*
X510667D1*
X847335D2*
X1910667D1*
X2247335D2*
X2341741D1*
X416260Y5334062D2*
X510022D1*
X847979D2*
X1910022D1*
X2247979D2*
X2341741D1*
X416260Y5324193D2*
X510276D1*
X847726D2*
X1910276D1*
X2247726D2*
X2341741D1*
X416260Y5314324D2*
X511467D1*
X846534D2*
X1911467D1*
X2246534D2*
X2341741D1*
X416260Y5304455D2*
X513596D1*
X844406D2*
X1913596D1*
X2244406D2*
X2341741D1*
X416260Y5294587D2*
X516741D1*
X841260D2*
X1916741D1*
X2241260D2*
X2341741D1*
X416260Y5284718D2*
X521018D1*
X836983D2*
X1921018D1*
X2236983D2*
X2341741D1*
X416260Y5274849D2*
X526546D1*
X831455D2*
X1926546D1*
X2231455D2*
X2341741D1*
X416260Y5264980D2*
X533596D1*
X824406D2*
X1933596D1*
X2224406D2*
X2341741D1*
X416260Y5255112D2*
X542581D1*
X815420D2*
X1942581D1*
X2215420D2*
X2341741D1*
X416260Y5245243D2*
X554378D1*
X803623D2*
X1954378D1*
X2203623D2*
X2341741D1*
X416260Y5235374D2*
X571058D1*
X786944D2*
X1971058D1*
X2186944D2*
X2341741D1*
X775925Y5432752D2*
X783709Y5429657D1*
X792633Y5425154D1*
X801097Y5419836D1*
X809029Y5413752D1*
X816358Y5406955D1*
X823021Y5399503D1*
X828959Y5391462D1*
X834122Y5382900D1*
X838462Y5373896D1*
X841942Y5364525D1*
X844533Y5354870D1*
X846211Y5345016D1*
X846963Y5335047D1*
X846781Y5325052D1*
X845667Y5315119D1*
X843629Y5305332D1*
X840688Y5295778D1*
X836867Y5286541D1*
X832202Y5277699D1*
X826731Y5269333D1*
X820504Y5261514D1*
X813573Y5254310D1*
X806001Y5247785D1*
X797853Y5241993D1*
X789199Y5236990D1*
X780117Y5232814D1*
X772969Y5230247D1*
X1984912Y5230249D1*
X1978902Y5232408D1*
X1969777Y5236491D1*
X1961072Y5241406D1*
X1952865Y5247113D1*
X1945227Y5253560D1*
X1938223Y5260693D1*
X1931915Y5268449D1*
X1926360Y5276759D1*
X1921604Y5285551D1*
X1917689Y5294749D1*
X1914650Y5304272D1*
X1912512Y5314038D1*
X1911297Y5323959D1*
X1911012Y5333951D1*
X1911660Y5343927D1*
X1913238Y5353798D1*
X1915730Y5363479D1*
X1919114Y5372885D1*
X1923362Y5381934D1*
X1928436Y5390547D1*
X1934291Y5398650D1*
X1940878Y5406169D1*
X1948136Y5413042D1*
X1956005Y5419206D1*
X1964416Y5424610D1*
X1973294Y5429205D1*
X1982031Y5432751D1*
X776018Y5432749D1*
X584995Y5230253D2*
X578902Y5232408D1*
X569777Y5236491D1*
X561072Y5241406D1*
X552865Y5247113D1*
X545227Y5253560D1*
X538223Y5260693D1*
X531915Y5268449D1*
X526360Y5276759D1*
X521604Y5285551D1*
X517689Y5294749D1*
X514650Y5304272D1*
X512512Y5314038D1*
X511297Y5323959D1*
X511012Y5333951D1*
X511660Y5343927D1*
X513238Y5353798D1*
X515730Y5363479D1*
X519114Y5372885D1*
X523362Y5381934D1*
X528436Y5390547D1*
X534291Y5398650D1*
X540878Y5406169D1*
X548136Y5413042D1*
X556005Y5419206D1*
X564416Y5424610D1*
X573294Y5429205D1*
X582031Y5432751D1*
X415251Y5432690D1*
Y5230248D1*
X584912Y5230249D1*
X2175925Y5432752D2*
X2183709Y5429657D1*
X2192633Y5425154D1*
X2201097Y5419836D1*
X2209029Y5413752D1*
X2216358Y5406955D1*
X2223021Y5399503D1*
X2228959Y5391462D1*
X2234122Y5382900D1*
X2238462Y5373896D1*
X2241942Y5364525D1*
X2244533Y5354870D1*
X2246211Y5345016D1*
X2246963Y5335047D1*
X2246781Y5325052D1*
X2245667Y5315119D1*
X2243629Y5305332D1*
X2240688Y5295778D1*
X2236867Y5286541D1*
X2232202Y5277701D1*
X2226731Y5269333D1*
X2220504Y5261514D1*
X2213573Y5254310D1*
X2206001Y5247785D1*
X2197853Y5241993D1*
X2189199Y5236990D1*
X2180117Y5232814D1*
X2172969Y5230247D1*
X2342751Y5230308D1*
Y5432751D1*
X2176018Y5432749D1*
X416260Y629131D2*
X2341741D1*
X416260Y619262D2*
X2341741D1*
X416260Y609394D2*
X580159D1*
X777843D2*
X1980159D1*
X2177843D2*
X2341741D1*
X416260Y599525D2*
X560608D1*
X797394D2*
X1960608D1*
X2197394D2*
X2341741D1*
X416260Y589656D2*
X547659D1*
X810343D2*
X1947659D1*
X2210343D2*
X2341741D1*
X416260Y579787D2*
X537991D1*
X820010D2*
X1937991D1*
X2220010D2*
X2341741D1*
X416260Y569919D2*
X530510D1*
X827491D2*
X1930510D1*
X2227491D2*
X2341741D1*
X416260Y560050D2*
X524690D1*
X833311D2*
X1924690D1*
X2233311D2*
X2341741D1*
X416260Y550181D2*
X520198D1*
X837803D2*
X1920198D1*
X2237803D2*
X2341741D1*
X416260Y540312D2*
X516878D1*
X841123D2*
X1916878D1*
X2241123D2*
X2341741D1*
X416260Y530444D2*
X514612D1*
X843390D2*
X1914612D1*
X2243390D2*
X2341741D1*
X416260Y520575D2*
X513343D1*
X844659D2*
X1913343D1*
X2244659D2*
X2341741D1*
X416260Y510706D2*
X513010D1*
X844991D2*
X1913010D1*
X2244991D2*
X2341741D1*
X416260Y500837D2*
X513615D1*
X844386D2*
X1913615D1*
X2244386D2*
X2341741D1*
X416260Y490969D2*
X515178D1*
X842823D2*
X1915178D1*
X2242823D2*
X2341741D1*
X416260Y481100D2*
X517738D1*
X840264D2*
X1917738D1*
X2240264D2*
X2341741D1*
X416260Y471231D2*
X521390D1*
X836612D2*
X1921390D1*
X2236612D2*
X2341741D1*
X416260Y461362D2*
X526234D1*
X831768D2*
X1926234D1*
X2231768D2*
X2341741D1*
X416260Y451493D2*
X532522D1*
X825479D2*
X1932522D1*
X2225479D2*
X2341741D1*
X416260Y441625D2*
X540570D1*
X817432D2*
X1940570D1*
X2217432D2*
X2341741D1*
X416260Y431756D2*
X551018D1*
X806963D2*
X1951018D1*
X2206963D2*
X2341741D1*
X416260Y421887D2*
X565354D1*
X792647D2*
X1965354D1*
X2192647D2*
X2341741D1*
X416260Y412018D2*
X588948D1*
X769054D2*
X1988948D1*
X2169054D2*
X2341741D1*
X2023062Y616133D2*
X2145022Y616012D1*
X2154971Y615052D1*
X2164783Y613142D1*
X2174366Y610298D1*
X2183633Y606546D1*
X2192495Y601923D1*
X2200873Y596470D1*
X2208688Y590238D1*
X2215869Y583283D1*
X2222348Y575672D1*
X2228067Y567472D1*
X2232972Y558764D1*
X2237020Y549622D1*
X2240169Y540136D1*
X2242394Y530390D1*
X2243672Y520476D1*
X2243993Y510486D1*
X2243353Y500509D1*
X2241757Y490642D1*
X2239222Y480972D1*
X2235770Y471591D1*
X2231433Y462585D1*
X2226252Y454037D1*
X2220273Y446025D1*
X2213552Y438625D1*
X2206154Y431904D1*
X2198142Y425925D1*
X2189594Y420743D1*
X2180588Y416406D1*
X2171207Y412953D1*
X2166118Y411501D1*
X2342764Y411500D1*
X2342751Y639007D1*
X415238Y639000D1*
X415251Y411493D1*
X591865Y411500D1*
X583634Y414001D1*
X574367Y417753D1*
X565505Y422377D1*
X557127Y427829D1*
X549312Y434062D1*
X542131Y441016D1*
X535651Y448627D1*
X529933Y456827D1*
X525028Y465535D1*
X520980Y474676D1*
X517831Y484163D1*
X515606Y493909D1*
X514328Y503823D1*
X514007Y513814D1*
X514647Y523790D1*
X516243Y533657D1*
X518778Y543327D1*
X522230Y552709D1*
X526567Y561714D1*
X531748Y570262D1*
X537727Y578274D1*
X544448Y585675D1*
X551846Y592395D1*
X559857Y598374D1*
X568406Y603556D1*
X577412Y607894D1*
X586793Y611346D1*
X596462Y613882D1*
X606329Y615478D1*
X616306Y616119D1*
X740024Y616133D1*
X750008Y615652D1*
X759900Y614215D1*
X769609Y611835D1*
X779045Y608533D1*
X788119Y604341D1*
X796749Y599297D1*
X804856Y593448D1*
X812362Y586846D1*
X819199Y579555D1*
X825307Y571640D1*
X830625Y563177D1*
X835106Y554241D1*
X838709Y544917D1*
X841399Y535290D1*
X843152Y525449D1*
X843953Y515484D1*
X843793Y505490D1*
X842673Y495556D1*
X840606Y485777D1*
X837609Y476240D1*
X833710Y467035D1*
X828945Y458248D1*
X823358Y449959D1*
X817003Y442244D1*
X809934Y435176D1*
X802219Y428819D1*
X793930Y423231D1*
X785143Y418466D1*
X775940Y414567D1*
X766403Y411568D1*
X775244Y411500D1*
X1991865D1*
X1983634Y414001D1*
X1974367Y417753D1*
X1965505Y422377D1*
X1957127Y427829D1*
X1949312Y434062D1*
X1942131Y441016D1*
X1935652Y448627D1*
X1929933Y456827D1*
X1925028Y465535D1*
X1920980Y474677D1*
X1917831Y484163D1*
X1915606Y493909D1*
X1914328Y503823D1*
X1914007Y513814D1*
X1914647Y523790D1*
X1916243Y533657D1*
X1918778Y543327D1*
X1922230Y552709D1*
X1926567Y561714D1*
X1931748Y570262D1*
X1937727Y578274D1*
X1944448Y585675D1*
X1951846Y592395D1*
X1959858Y598374D1*
X1968406Y603556D1*
X1977412Y607894D1*
X1986793Y611346D1*
X1996462Y613882D1*
X2006329Y615478D1*
X2016306Y616119D1*
X2023062Y616133D1*
D22*
X1641500Y994000D3*
X641500D3*
X654000Y4844000D3*
X2104000D3*
X1116500Y994000D3*
D23*
X2079000Y512150D3*
X679000D3*
Y5332000D3*
X2079000D3*
D22*
X2116500Y994000D3*
X641500Y1394000D3*
X1116500D3*
X1641500D3*
X2116500D3*
X641500Y2287751D3*
X1129000D3*
X1629000D3*
X2116500D3*
G36*
X516500Y2706500D2*
X679000D1*
Y2581500D1*
X516500D1*
Y2706500D1*
G37*
G36*
X2079000Y2581500D2*
X2154000D1*
Y1519000D1*
X2079000D1*
Y2581500D1*
G37*
G36*
X954000Y2706500D2*
X1116500D1*
Y2581500D1*
X954000D1*
Y2706500D1*
G37*
G36*
X1591500D2*
X1666500D1*
Y1519000D1*
X1591500D1*
Y2706500D1*
G37*
G36*
X1091500D2*
X1166500D1*
Y1544000D1*
X1091500D1*
Y2706500D1*
G37*
G36*
X604000Y2581500D2*
X679000D1*
Y1556500D1*
X604000D1*
Y2581500D1*
G37*
G36*
X1654000Y2706500D2*
X1816500D1*
Y2581500D1*
X1654000D1*
Y2706500D1*
G37*
G36*
X1504000Y844000D2*
X2279000D1*
Y744000D1*
X1504000D1*
Y844000D1*
G37*
G36*
X491500D2*
X1266500D1*
Y744000D1*
X491500D1*
Y844000D1*
G37*
G36*
X1279000Y4719000D2*
X1479000D1*
Y4606500D1*
X1279000D1*
Y4719000D1*
G37*
G36*
X529000Y4644000D2*
X779000D1*
Y4556500D1*
X529000D1*
Y4644000D1*
G37*
G36*
X1966500D2*
X2241500D1*
Y4556500D1*
X1966500D1*
Y4644000D1*
G37*
G36*
X1266500Y4456500D2*
X1629000D1*
Y3644000D1*
X1266500D1*
Y4456500D1*
G37*
G36*
Y3206500D2*
X1629000D1*
Y2981500D1*
X1266500D1*
Y3206500D1*
G37*
G36*
X2079000Y2706500D2*
X2241500D1*
Y2581500D1*
X2079000D1*
Y2706500D1*
G37*
M02*
