M48
INCH
T01C0.1201
T02C0.126
T03C0.212
T04C0.2362
T05C0.2677
%
T01
X+013790Y+043690
X+013790Y+041690
X+013790Y+039690
X+013790Y+037690
X+013790Y+030940
X+017790Y+049565
X+009790Y+049565
T02
X+020298Y+005121G85X+021282Y+005121
X+006298Y+005121G85X+007282Y+005121
X+006298Y+053320G85X+007282Y+053320
X+020298Y+053320G85X+021282Y+053320
T03
X+012165Y+048690
X+015415Y+048690
X+013790Y+034315
X+013790Y+027565
T04
X+016415Y+009940
X+016415Y+013940
X+021165Y+013940
X+021165Y+009940
X+011165Y+009940
X+011165Y+013940
X+006415Y+013940
X+006415Y+009940
T05
X+006540Y+048440
X+021040Y+048440
X+021165Y+022878
X+016290Y+022878
X+011290Y+022878
X+006415Y+022878
T00
M30
