G04 DipTrace 4.1.1.0*
G04 alps_panel02.GBL*
%MOIN*%
G04 #@! TF.FileFunction,Copper,L2,Bot*
G04 #@! TF.Part,Single*
G04 #@! TA.AperFunction,Conductor*
%ADD16C,0.007*%
G04 #@! TA.AperFunction,CopperBalancing*
%ADD17C,0.009*%
G04 #@! TA.AperFunction,ComponentPad*
%ADD22C,0.32*%
%ADD23O,0.299213X0.177165*%
%FSLAX26Y26*%
G04*
G70*
G90*
G75*
G01*
G04 Bottom*
%LPD*%
X529001Y1937749D2*
D16*
Y1806500D1*
X554001Y1781500D1*
X415408Y5420631D2*
D17*
X565713D1*
X792302D2*
X1965705D1*
X2192294D2*
X2342597D1*
X415408Y5411762D2*
X552793D1*
X805203D2*
X1952785D1*
X2205214D2*
X2342597D1*
X415408Y5402894D2*
X543125D1*
X814871D2*
X1943134D1*
X2214882D2*
X2342597D1*
X415408Y5394025D2*
X535549D1*
X822448D2*
X1935541D1*
X2222458D2*
X2342597D1*
X415408Y5385156D2*
X529501D1*
X828495D2*
X1929510D1*
X2228504D2*
X2342597D1*
X415408Y5376287D2*
X524702D1*
X833294D2*
X1924694D1*
X2233303D2*
X2342597D1*
X415408Y5367419D2*
X520958D1*
X837055D2*
X1920950D1*
X2237047D2*
X2342597D1*
X415408Y5358550D2*
X518129D1*
X839867D2*
X1918138D1*
X2239860D2*
X2342597D1*
X415408Y5349681D2*
X516177D1*
X841836D2*
X1916169D1*
X2241828D2*
X2342597D1*
X415408Y5340812D2*
X515017D1*
X842979D2*
X1915009D1*
X2242990D2*
X2342597D1*
X415408Y5331944D2*
X514630D1*
X843366D2*
X1914640D1*
X2243358D2*
X2342597D1*
X415408Y5323075D2*
X515017D1*
X842979D2*
X1915026D1*
X2242971D2*
X2342597D1*
X415408Y5314206D2*
X516194D1*
X841802D2*
X1916186D1*
X2241811D2*
X2342597D1*
X415408Y5305337D2*
X518164D1*
X839832D2*
X1918156D1*
X2239843D2*
X2342597D1*
X415408Y5296469D2*
X520993D1*
X837003D2*
X1920986D1*
X2237012D2*
X2342597D1*
X415408Y5287600D2*
X524756D1*
X833240D2*
X1924748D1*
X2233251D2*
X2342597D1*
X415408Y5278731D2*
X529572D1*
X828424D2*
X1929564D1*
X2228434D2*
X2342597D1*
X415408Y5269862D2*
X535636D1*
X822378D2*
X1935629D1*
X2222370D2*
X2342597D1*
X415408Y5260993D2*
X543230D1*
X814766D2*
X1943240D1*
X2214759D2*
X2342597D1*
X415408Y5252125D2*
X552933D1*
X805063D2*
X1952925D1*
X2205073D2*
X2342597D1*
X415408Y5243256D2*
X565906D1*
X792108D2*
X1965898D1*
X2192100D2*
X2342597D1*
X415408Y5234387D2*
X585997D1*
X772016D2*
X1985990D1*
X2172008D2*
X2342597D1*
X415408Y5225518D2*
X2342597D1*
X415408Y5216650D2*
X2342597D1*
X415408Y5207781D2*
X2342597D1*
X415408Y5198912D2*
X2342597D1*
X415408Y5190043D2*
X2342597D1*
X415408Y5181175D2*
X2342597D1*
X415408Y5172306D2*
X2342597D1*
X415408Y5163437D2*
X2342597D1*
X415408Y5154568D2*
X2342597D1*
X415408Y5145699D2*
X2342597D1*
X415408Y5136831D2*
X2342597D1*
X415408Y5127962D2*
X2342597D1*
X415408Y5119093D2*
X2342597D1*
X415408Y5110224D2*
X2342597D1*
X415408Y5101356D2*
X2342597D1*
X415408Y5092487D2*
X2342597D1*
X415408Y5083618D2*
X2342597D1*
X415408Y5074749D2*
X2342597D1*
X415408Y5065881D2*
X2342597D1*
X415408Y5057012D2*
X2342597D1*
X415408Y5048143D2*
X2342597D1*
X415408Y5039274D2*
X2342597D1*
X415408Y5030406D2*
X2342597D1*
X415408Y5021537D2*
X943009D1*
X1014999D2*
X1743007D1*
X1814996D2*
X2342597D1*
X415408Y5012668D2*
X610923D1*
X697063D2*
X930072D1*
X1027919D2*
X1730070D1*
X1827916D2*
X2060925D1*
X2147066D2*
X2342597D1*
X415408Y5003799D2*
X584609D1*
X723395D2*
X921318D1*
X1036672D2*
X1721316D1*
X1836688D2*
X2034610D1*
X2173398D2*
X2342597D1*
X415408Y4994930D2*
X566802D1*
X741202D2*
X914972D1*
X1043018D2*
X1183759D1*
X1249244D2*
X1508761D1*
X1574247D2*
X1714988D1*
X1843016D2*
X2016804D1*
X2191203D2*
X2342597D1*
X415408Y4986062D2*
X552862D1*
X755123D2*
X910366D1*
X1047623D2*
X1159308D1*
X1273696D2*
X1484310D1*
X1598698D2*
X1710365D1*
X1847622D2*
X2002865D1*
X2205126D2*
X2342597D1*
X415408Y4977193D2*
X541349D1*
X766638D2*
X907150D1*
X1050840D2*
X1143717D1*
X1289287D2*
X1468718D1*
X1614272D2*
X1707165D1*
X1850839D2*
X1991350D1*
X2216639D2*
X2342597D1*
X415408Y4968324D2*
X531558D1*
X776428D2*
X905146D1*
X1052844D2*
X1131886D1*
X1301100D2*
X1456888D1*
X1626102D2*
X1705161D1*
X1852843D2*
X1981560D1*
X2226430D2*
X2342597D1*
X415408Y4959455D2*
X523102D1*
X784883D2*
X904266D1*
X1053740D2*
X1122377D1*
X1310627D2*
X1447378D1*
X1635630D2*
X1704265D1*
X1853739D2*
X1973105D1*
X2234886D2*
X2342597D1*
X415408Y4950587D2*
X515738D1*
X792248D2*
X904442D1*
X1053566D2*
X1114518D1*
X1318467D2*
X1439521D1*
X1643470D2*
X1704441D1*
X1853563D2*
X1965740D1*
X2242251D2*
X2342597D1*
X415408Y4941718D2*
X509304D1*
X798699D2*
X905690D1*
X1052299D2*
X1107962D1*
X1325024D2*
X1432965D1*
X1650026D2*
X1705689D1*
X1852298D2*
X1959306D1*
X2248702D2*
X2342597D1*
X415408Y4932849D2*
X503661D1*
X804343D2*
X908081D1*
X1049908D2*
X1102478D1*
X1330526D2*
X1427480D1*
X1655510D2*
X1708080D1*
X1849907D2*
X1953664D1*
X2254344D2*
X2342597D1*
X415408Y4923980D2*
X498722D1*
X809264D2*
X911738D1*
X1046252D2*
X1097908D1*
X1335079D2*
X1422909D1*
X1660080D2*
X1711736D1*
X1846268D2*
X1948724D1*
X2259266D2*
X2342597D1*
X415408Y4915112D2*
X494450D1*
X813554D2*
X916870D1*
X1041119D2*
X1094164D1*
X1338840D2*
X1419165D1*
X1663824D2*
X1716886D1*
X1841118D2*
X1944453D1*
X2263555D2*
X2342597D1*
X415408Y4906243D2*
X490759D1*
X817244D2*
X923920D1*
X1034071D2*
X1091157D1*
X1341846D2*
X1416160D1*
X1666848D2*
X1723917D1*
X1834087D2*
X1940761D1*
X2267230D2*
X2342597D1*
X415408Y4897374D2*
X487630D1*
X820356D2*
X933762D1*
X1024227D2*
X1088837D1*
X1344150D2*
X1413840D1*
X1669151D2*
X1733761D1*
X1824226D2*
X1937633D1*
X2270358D2*
X2342597D1*
X415408Y4888505D2*
X485029D1*
X822975D2*
X949161D1*
X1008846D2*
X1087185D1*
X1345819D2*
X1412186D1*
X1670822D2*
X1749160D1*
X1808844D2*
X1935030D1*
X2272959D2*
X2342597D1*
X415408Y4879636D2*
X482937D1*
X825067D2*
X1086148D1*
X1346856D2*
X1411150D1*
X1671858D2*
X1932938D1*
X2275070D2*
X2342597D1*
X415408Y4870768D2*
X481320D1*
X826684D2*
X1085726D1*
X1347278D2*
X1410710D1*
X1672280D2*
X1931322D1*
X2276686D2*
X2342597D1*
X415408Y4861899D2*
X480160D1*
X827844D2*
X1085902D1*
X1347102D2*
X1410904D1*
X1672104D2*
X1930161D1*
X2277828D2*
X2342597D1*
X415408Y4853030D2*
X479474D1*
X828530D2*
X1086693D1*
X1346311D2*
X1411694D1*
X1671314D2*
X1929476D1*
X2278531D2*
X2342597D1*
X415408Y4844161D2*
X479245D1*
X828759D2*
X1088098D1*
X1344906D2*
X1413101D1*
X1669890D2*
X1929248D1*
X2278760D2*
X2342597D1*
X415408Y4835293D2*
X479457D1*
X828547D2*
X1090156D1*
X1342848D2*
X1415157D1*
X1667850D2*
X1929458D1*
X2278550D2*
X2342597D1*
X415408Y4826424D2*
X480125D1*
X827862D2*
X1092881D1*
X1340123D2*
X1417882D1*
X1665126D2*
X1930126D1*
X2277864D2*
X2342597D1*
X415408Y4817555D2*
X481266D1*
X826738D2*
X1096325D1*
X1336678D2*
X1421328D1*
X1661680D2*
X1931269D1*
X2276739D2*
X2342597D1*
X415408Y4808686D2*
X482866D1*
X825138D2*
X1100562D1*
X1332442D2*
X1425564D1*
X1657444D2*
X1932869D1*
X2275139D2*
X2342597D1*
X415408Y4799818D2*
X484941D1*
X823046D2*
X1105660D1*
X1327344D2*
X1430661D1*
X1652328D2*
X1934942D1*
X2273047D2*
X2342597D1*
X415408Y4790949D2*
X487525D1*
X820462D2*
X1111777D1*
X1321227D2*
X1436778D1*
X1646230D2*
X1937526D1*
X2270463D2*
X2342597D1*
X415408Y4782080D2*
X490636D1*
X817367D2*
X1119072D1*
X1313932D2*
X1444073D1*
X1638934D2*
X1940638D1*
X2267352D2*
X2342597D1*
X415408Y4773211D2*
X494310D1*
X813694D2*
X1127861D1*
X1305126D2*
X1452862D1*
X1630127D2*
X1944312D1*
X2263696D2*
X2342597D1*
X415408Y4764343D2*
X498564D1*
X809440D2*
X1138672D1*
X1294332D2*
X1463656D1*
X1619335D2*
X1948566D1*
X2259442D2*
X2342597D1*
X415408Y4755474D2*
X503469D1*
X804535D2*
X1152488D1*
X1280516D2*
X1477472D1*
X1605518D2*
X1953470D1*
X2254538D2*
X2342597D1*
X415408Y4746605D2*
X509076D1*
X798911D2*
X1172105D1*
X1260899D2*
X1497106D1*
X1585902D2*
X1959077D1*
X2248912D2*
X2342597D1*
X415408Y4737736D2*
X515492D1*
X792512D2*
X1965493D1*
X2242514D2*
X2342597D1*
X415408Y4728867D2*
X522822D1*
X785182D2*
X1972824D1*
X2235184D2*
X2342597D1*
X415408Y4719999D2*
X531241D1*
X776762D2*
X1981244D1*
X2226764D2*
X2342597D1*
X415408Y4711130D2*
X540980D1*
X767024D2*
X1990965D1*
X2217026D2*
X2342597D1*
X415408Y4702261D2*
X552423D1*
X755580D2*
X2002408D1*
X2205583D2*
X2342597D1*
X415408Y4693392D2*
X566240D1*
X741764D2*
X2016241D1*
X2191766D2*
X2342597D1*
X415408Y4684524D2*
X583853D1*
X724151D2*
X2033854D1*
X2174135D2*
X2342597D1*
X415408Y4675655D2*
X609657D1*
X698346D2*
X2059660D1*
X2148348D2*
X2342597D1*
X415408Y4666786D2*
X2342597D1*
X415408Y4657917D2*
X2342597D1*
X415408Y4649049D2*
X2342597D1*
X415408Y4640180D2*
X2342597D1*
X415408Y4631311D2*
X2342597D1*
X415408Y4622442D2*
X2342597D1*
X415408Y4613573D2*
X2342597D1*
X415408Y4604705D2*
X2342597D1*
X415408Y4595836D2*
X2342597D1*
X415408Y4586967D2*
X2342597D1*
X415408Y4578098D2*
X2342597D1*
X415408Y4569230D2*
X2342597D1*
X415408Y4560361D2*
X2342597D1*
X415408Y4551492D2*
X2342597D1*
X415408Y4542623D2*
X2342597D1*
X415408Y4533755D2*
X2342597D1*
X415408Y4524886D2*
X2342597D1*
X415408Y4516017D2*
X2342597D1*
X415408Y4507148D2*
X2342597D1*
X415408Y4498280D2*
X2342597D1*
X415408Y4489411D2*
X2342597D1*
X415408Y4480542D2*
X2342597D1*
X415408Y4471673D2*
X2342597D1*
X415408Y4462804D2*
X2342597D1*
X415408Y4453936D2*
X2342597D1*
X415408Y4445067D2*
X2342597D1*
X415408Y4436198D2*
X1347358D1*
X1410647D2*
X2342597D1*
X415408Y4427329D2*
X1332734D1*
X1425272D2*
X2342597D1*
X415408Y4418461D2*
X1323189D1*
X1434799D2*
X2342597D1*
X415408Y4409592D2*
X1316350D1*
X1441655D2*
X2342597D1*
X415408Y4400723D2*
X1311358D1*
X1446647D2*
X2342597D1*
X415408Y4391854D2*
X1307825D1*
X1450180D2*
X2342597D1*
X415408Y4382986D2*
X1305541D1*
X1452466D2*
X2342597D1*
X415408Y4374117D2*
X1304381D1*
X1453626D2*
X2342597D1*
X415408Y4365248D2*
X1304293D1*
X1453696D2*
X2342597D1*
X415408Y4356379D2*
X1305294D1*
X1452711D2*
X2342597D1*
X415408Y4347510D2*
X1307386D1*
X1450602D2*
X2342597D1*
X415408Y4338642D2*
X1310726D1*
X1447280D2*
X2342597D1*
X415408Y4329773D2*
X1315472D1*
X1442534D2*
X2342597D1*
X415408Y4320904D2*
X1321993D1*
X1436012D2*
X2342597D1*
X415408Y4312035D2*
X1331029D1*
X1426978D2*
X2342597D1*
X415408Y4303167D2*
X1344529D1*
X1413478D2*
X2342597D1*
X415408Y4294298D2*
X2342597D1*
X415408Y4285429D2*
X2342597D1*
X415408Y4276560D2*
X2342597D1*
X415408Y4267692D2*
X2342597D1*
X415408Y4258823D2*
X514261D1*
X643907D2*
X938984D1*
X1067715D2*
X1689270D1*
X1818916D2*
X2114274D1*
X2243920D2*
X2342597D1*
X415408Y4249954D2*
X509286D1*
X648899D2*
X933675D1*
X1073024D2*
X1684297D1*
X1823891D2*
X2109301D1*
X2248895D2*
X2342597D1*
X415408Y4241085D2*
X508689D1*
X649479D2*
X932954D1*
X1073744D2*
X1361825D1*
X1396180D2*
X1683698D1*
X1824490D2*
X2108702D1*
X2249492D2*
X2342597D1*
X415408Y4232217D2*
X508689D1*
X649479D2*
X932954D1*
X1073744D2*
X1339836D1*
X1418171D2*
X1683698D1*
X1824490D2*
X2108702D1*
X2249492D2*
X2342597D1*
X415408Y4223348D2*
X508689D1*
X649479D2*
X932954D1*
X1073744D2*
X1328022D1*
X1429983D2*
X1683698D1*
X1824490D2*
X2108702D1*
X2249492D2*
X2342597D1*
X415408Y4214479D2*
X508689D1*
X649479D2*
X932954D1*
X1073744D2*
X1319849D1*
X1438139D2*
X1683698D1*
X1824490D2*
X2108702D1*
X2249492D2*
X2342597D1*
X415408Y4205610D2*
X508689D1*
X649479D2*
X932954D1*
X1073744D2*
X1313908D1*
X1444098D2*
X1683698D1*
X1824490D2*
X2108702D1*
X2249492D2*
X2342597D1*
X415408Y4196741D2*
X508689D1*
X649479D2*
X932954D1*
X1073744D2*
X1309601D1*
X1448387D2*
X1683698D1*
X1824490D2*
X2108702D1*
X2249492D2*
X2342597D1*
X415408Y4187873D2*
X508689D1*
X649479D2*
X932954D1*
X1073744D2*
X1306648D1*
X1451340D2*
X1683698D1*
X1824490D2*
X2108702D1*
X2249492D2*
X2342597D1*
X415408Y4179004D2*
X508689D1*
X649479D2*
X932954D1*
X1073744D2*
X1304873D1*
X1453115D2*
X1683698D1*
X1824490D2*
X2108702D1*
X2249492D2*
X2342597D1*
X415408Y4170135D2*
X508689D1*
X649479D2*
X932954D1*
X1073744D2*
X1304205D1*
X1453783D2*
X1683698D1*
X1824490D2*
X2108702D1*
X2249492D2*
X2342597D1*
X415408Y4161266D2*
X508689D1*
X649479D2*
X932954D1*
X1073744D2*
X1304609D1*
X1453398D2*
X1683698D1*
X1824490D2*
X2108702D1*
X2249492D2*
X2342597D1*
X415408Y4152398D2*
X508689D1*
X649479D2*
X932954D1*
X1073744D2*
X1306085D1*
X1451903D2*
X1683698D1*
X1824490D2*
X2108702D1*
X2249492D2*
X2342597D1*
X415408Y4143529D2*
X508689D1*
X649479D2*
X932954D1*
X1073744D2*
X1308722D1*
X1449266D2*
X1683698D1*
X1824490D2*
X2108702D1*
X2249492D2*
X2342597D1*
X415408Y4134660D2*
X508689D1*
X649479D2*
X932954D1*
X1073744D2*
X1312660D1*
X1445328D2*
X1683698D1*
X1824490D2*
X2108702D1*
X2249492D2*
X2342597D1*
X415408Y4125791D2*
X508689D1*
X649479D2*
X932954D1*
X1073744D2*
X1318144D1*
X1439844D2*
X1683698D1*
X1824490D2*
X2108702D1*
X2249492D2*
X2342597D1*
X415408Y4116923D2*
X508689D1*
X649479D2*
X932954D1*
X1073744D2*
X1325668D1*
X1432339D2*
X1683698D1*
X1824490D2*
X2108702D1*
X2249492D2*
X2342597D1*
X415408Y4108054D2*
X508689D1*
X649479D2*
X932954D1*
X1073744D2*
X1336302D1*
X1421686D2*
X1683698D1*
X1824490D2*
X2108702D1*
X2249492D2*
X2342597D1*
X415408Y4099185D2*
X508689D1*
X649479D2*
X932954D1*
X1073744D2*
X1353881D1*
X1404126D2*
X1683698D1*
X1824490D2*
X2108702D1*
X2249492D2*
X2342597D1*
X415408Y4090316D2*
X508689D1*
X649479D2*
X932954D1*
X1073744D2*
X1683698D1*
X1824490D2*
X2108702D1*
X2249492D2*
X2342597D1*
X415408Y4081448D2*
X508689D1*
X649479D2*
X932954D1*
X1073744D2*
X1683698D1*
X1824490D2*
X2108702D1*
X2249492D2*
X2342597D1*
X415408Y4072579D2*
X508689D1*
X649479D2*
X932954D1*
X1073744D2*
X1683698D1*
X1824490D2*
X2108702D1*
X2249492D2*
X2342597D1*
X415408Y4063710D2*
X508689D1*
X649479D2*
X932954D1*
X1073744D2*
X1683698D1*
X1824490D2*
X2108702D1*
X2249492D2*
X2342597D1*
X415408Y4054841D2*
X508689D1*
X649479D2*
X932954D1*
X1073744D2*
X1683698D1*
X1824490D2*
X2108702D1*
X2249492D2*
X2342597D1*
X415408Y4045972D2*
X508689D1*
X649479D2*
X932954D1*
X1073744D2*
X1683698D1*
X1824490D2*
X2108702D1*
X2249492D2*
X2342597D1*
X415408Y4037104D2*
X508689D1*
X649479D2*
X932954D1*
X1073744D2*
X1349416D1*
X1408591D2*
X1683698D1*
X1824490D2*
X2108702D1*
X2249492D2*
X2342597D1*
X415408Y4028235D2*
X508689D1*
X649479D2*
X932954D1*
X1073744D2*
X1333912D1*
X1424076D2*
X1683698D1*
X1824490D2*
X2108702D1*
X2249492D2*
X2342597D1*
X415408Y4019366D2*
X508689D1*
X649479D2*
X932954D1*
X1073744D2*
X1324014D1*
X1433974D2*
X1683698D1*
X1824490D2*
X2108702D1*
X2249492D2*
X2342597D1*
X415408Y4010497D2*
X508689D1*
X649479D2*
X932954D1*
X1073744D2*
X1316949D1*
X1441039D2*
X1683698D1*
X1824490D2*
X2108702D1*
X2249492D2*
X2342597D1*
X415408Y4001629D2*
X508689D1*
X649479D2*
X932954D1*
X1073744D2*
X1311798D1*
X1446207D2*
X1683698D1*
X1824490D2*
X2108702D1*
X2249492D2*
X2342597D1*
X415408Y3992760D2*
X508689D1*
X649479D2*
X932954D1*
X1073744D2*
X1308125D1*
X1449882D2*
X1683698D1*
X1824490D2*
X2108702D1*
X2249492D2*
X2342597D1*
X415408Y3983891D2*
X508689D1*
X649479D2*
X932954D1*
X1073744D2*
X1305717D1*
X1452290D2*
X1683698D1*
X1824490D2*
X2108702D1*
X2249492D2*
X2342597D1*
X415408Y3975022D2*
X508689D1*
X649479D2*
X932954D1*
X1073744D2*
X1304450D1*
X1453555D2*
X1683698D1*
X1824490D2*
X2108702D1*
X2249492D2*
X2342597D1*
X415408Y3966154D2*
X508689D1*
X649479D2*
X932954D1*
X1073744D2*
X1304257D1*
X1453748D2*
X1683698D1*
X1824490D2*
X2108702D1*
X2249492D2*
X2342597D1*
X415408Y3957285D2*
X508689D1*
X649479D2*
X932954D1*
X1073744D2*
X1305136D1*
X1452870D2*
X1683698D1*
X1824490D2*
X2108702D1*
X2249492D2*
X2342597D1*
X415408Y3948416D2*
X508689D1*
X649479D2*
X932954D1*
X1073744D2*
X1307122D1*
X1450883D2*
X1683698D1*
X1824490D2*
X2108702D1*
X2249492D2*
X2342597D1*
X415408Y3939547D2*
X508689D1*
X649479D2*
X932954D1*
X1073744D2*
X1310322D1*
X1447684D2*
X1683698D1*
X1824490D2*
X2108702D1*
X2249492D2*
X2342597D1*
X415408Y3930678D2*
X508689D1*
X649479D2*
X932954D1*
X1073744D2*
X1314909D1*
X1443079D2*
X1683698D1*
X1824490D2*
X2108702D1*
X2249492D2*
X2342597D1*
X415408Y3921810D2*
X508689D1*
X649479D2*
X932954D1*
X1073744D2*
X1321238D1*
X1436768D2*
X1683698D1*
X1824490D2*
X2108702D1*
X2249492D2*
X2342597D1*
X415408Y3912941D2*
X508689D1*
X649479D2*
X932954D1*
X1073744D2*
X1329957D1*
X1428050D2*
X1683698D1*
X1824490D2*
X2108702D1*
X2249492D2*
X2342597D1*
X415408Y3904072D2*
X508689D1*
X649479D2*
X932954D1*
X1073744D2*
X1342806D1*
X1415199D2*
X1683698D1*
X1824490D2*
X2108702D1*
X2249492D2*
X2342597D1*
X415408Y3895203D2*
X508689D1*
X649479D2*
X932954D1*
X1073744D2*
X1374201D1*
X1383806D2*
X1683698D1*
X1824490D2*
X2108702D1*
X2249492D2*
X2342597D1*
X415408Y3886335D2*
X508689D1*
X649479D2*
X932954D1*
X1073744D2*
X1683698D1*
X1824490D2*
X2108702D1*
X2249492D2*
X2342597D1*
X415408Y3877466D2*
X508689D1*
X649479D2*
X932954D1*
X1073744D2*
X1683698D1*
X1824490D2*
X2108702D1*
X2249492D2*
X2342597D1*
X415408Y3868597D2*
X508689D1*
X649479D2*
X932954D1*
X1073744D2*
X1683698D1*
X1824490D2*
X2108702D1*
X2249492D2*
X2342597D1*
X415408Y3859728D2*
X508689D1*
X649479D2*
X932954D1*
X1073744D2*
X1683698D1*
X1824490D2*
X2108702D1*
X2249492D2*
X2342597D1*
X415408Y3850860D2*
X508689D1*
X649479D2*
X932954D1*
X1073744D2*
X1683698D1*
X1824490D2*
X2108702D1*
X2249492D2*
X2342597D1*
X415408Y3841991D2*
X508689D1*
X649479D2*
X932954D1*
X1073744D2*
X1366554D1*
X1391451D2*
X1683698D1*
X1824490D2*
X2108702D1*
X2249492D2*
X2342597D1*
X415408Y3833122D2*
X508689D1*
X649479D2*
X932954D1*
X1073744D2*
X1341365D1*
X1416642D2*
X1683698D1*
X1824490D2*
X2108702D1*
X2249492D2*
X2342597D1*
X415408Y3824253D2*
X508689D1*
X649479D2*
X932954D1*
X1073744D2*
X1329025D1*
X1428982D2*
X1683698D1*
X1824490D2*
X2108702D1*
X2249492D2*
X2342597D1*
X415408Y3815385D2*
X508689D1*
X649479D2*
X932954D1*
X1073744D2*
X1320570D1*
X1437436D2*
X1683698D1*
X1824490D2*
X2108702D1*
X2249492D2*
X2342597D1*
X415408Y3806516D2*
X508689D1*
X649479D2*
X932954D1*
X1073744D2*
X1314434D1*
X1443571D2*
X1683698D1*
X1824490D2*
X2108702D1*
X2249492D2*
X2342597D1*
X415408Y3797647D2*
X508689D1*
X649479D2*
X932954D1*
X1073744D2*
X1309988D1*
X1448018D2*
X1683698D1*
X1824490D2*
X2108702D1*
X2249492D2*
X2342597D1*
X415408Y3788778D2*
X508689D1*
X649479D2*
X932954D1*
X1073744D2*
X1306894D1*
X1451112D2*
X1683698D1*
X1824490D2*
X2108702D1*
X2249492D2*
X2342597D1*
X415408Y3779909D2*
X508689D1*
X649479D2*
X932954D1*
X1073744D2*
X1305013D1*
X1452992D2*
X1683698D1*
X1824490D2*
X2108702D1*
X2249492D2*
X2342597D1*
X415408Y3771041D2*
X508689D1*
X649479D2*
X932954D1*
X1073744D2*
X1304222D1*
X1453766D2*
X1683698D1*
X1824490D2*
X2108702D1*
X2249492D2*
X2342597D1*
X415408Y3762172D2*
X508689D1*
X649479D2*
X932954D1*
X1073744D2*
X1304521D1*
X1453486D2*
X1683698D1*
X1824490D2*
X2108702D1*
X2249492D2*
X2342597D1*
X415408Y3753303D2*
X508689D1*
X649479D2*
X932954D1*
X1073744D2*
X1305892D1*
X1452114D2*
X1683698D1*
X1824490D2*
X2108702D1*
X2249492D2*
X2342597D1*
X415408Y3744434D2*
X508689D1*
X649479D2*
X932954D1*
X1073744D2*
X1308406D1*
X1449600D2*
X1683698D1*
X1824490D2*
X2108702D1*
X2249492D2*
X2342597D1*
X415408Y3735566D2*
X508689D1*
X649479D2*
X932954D1*
X1073744D2*
X1312202D1*
X1445803D2*
X1683698D1*
X1824490D2*
X2108702D1*
X2249492D2*
X2342597D1*
X415408Y3726697D2*
X508689D1*
X649479D2*
X932954D1*
X1073744D2*
X1317510D1*
X1440495D2*
X1683698D1*
X1824490D2*
X2108702D1*
X2249492D2*
X2342597D1*
X415408Y3717828D2*
X508689D1*
X649479D2*
X932954D1*
X1073744D2*
X1324789D1*
X1433218D2*
X1683698D1*
X1824490D2*
X2108702D1*
X2249492D2*
X2342597D1*
X415408Y3708959D2*
X508689D1*
X649479D2*
X932954D1*
X1073744D2*
X1335018D1*
X1422987D2*
X1683698D1*
X1824490D2*
X2108702D1*
X2249492D2*
X2342597D1*
X415408Y3700091D2*
X508689D1*
X649479D2*
X932954D1*
X1073744D2*
X1351402D1*
X1406587D2*
X1683698D1*
X1824490D2*
X2108702D1*
X2249492D2*
X2342597D1*
X415408Y3691222D2*
X508689D1*
X649479D2*
X932954D1*
X1073744D2*
X1683698D1*
X1824490D2*
X2108702D1*
X2249492D2*
X2342597D1*
X415408Y3682353D2*
X508689D1*
X649479D2*
X932954D1*
X1073744D2*
X1683698D1*
X1824490D2*
X2108702D1*
X2249492D2*
X2342597D1*
X415408Y3673484D2*
X508689D1*
X649479D2*
X932954D1*
X1073744D2*
X1683698D1*
X1824490D2*
X2108702D1*
X2249492D2*
X2342597D1*
X415408Y3664615D2*
X508689D1*
X649479D2*
X932954D1*
X1073744D2*
X1683698D1*
X1824490D2*
X2108702D1*
X2249492D2*
X2342597D1*
X415408Y3655747D2*
X508689D1*
X649479D2*
X932954D1*
X1073744D2*
X1683698D1*
X1824490D2*
X2108702D1*
X2249492D2*
X2342597D1*
X415408Y3646878D2*
X508689D1*
X649479D2*
X932954D1*
X1073744D2*
X1683698D1*
X1824490D2*
X2108702D1*
X2249492D2*
X2342597D1*
X415408Y3638009D2*
X508689D1*
X649479D2*
X932954D1*
X1073744D2*
X1683698D1*
X1824490D2*
X2108702D1*
X2249492D2*
X2342597D1*
X415408Y3629140D2*
X508689D1*
X649479D2*
X932954D1*
X1073744D2*
X1683698D1*
X1824490D2*
X2108702D1*
X2249492D2*
X2342597D1*
X415408Y3620272D2*
X508689D1*
X649479D2*
X932954D1*
X1073744D2*
X1683698D1*
X1824490D2*
X2108702D1*
X2249492D2*
X2342597D1*
X415408Y3611403D2*
X508689D1*
X649479D2*
X932954D1*
X1073744D2*
X1683698D1*
X1824490D2*
X2108702D1*
X2249492D2*
X2342597D1*
X415408Y3602534D2*
X508689D1*
X649479D2*
X932954D1*
X1073744D2*
X1683698D1*
X1824490D2*
X2108702D1*
X2249492D2*
X2342597D1*
X415408Y3593665D2*
X508689D1*
X649479D2*
X932954D1*
X1073744D2*
X1683698D1*
X1824490D2*
X2108702D1*
X2249492D2*
X2342597D1*
X415408Y3584797D2*
X508689D1*
X649479D2*
X932954D1*
X1073744D2*
X1683698D1*
X1824490D2*
X2108702D1*
X2249492D2*
X2342597D1*
X415408Y3575928D2*
X508689D1*
X649479D2*
X932954D1*
X1073744D2*
X1683698D1*
X1824490D2*
X2108702D1*
X2249492D2*
X2342597D1*
X415408Y3567059D2*
X508689D1*
X649479D2*
X932954D1*
X1073744D2*
X1683698D1*
X1824490D2*
X2108702D1*
X2249492D2*
X2342597D1*
X415408Y3558190D2*
X508689D1*
X649479D2*
X932954D1*
X1073744D2*
X1349433D1*
X1408573D2*
X1683698D1*
X1824490D2*
X2108702D1*
X2249492D2*
X2342597D1*
X415408Y3549322D2*
X508689D1*
X649479D2*
X932954D1*
X1073744D2*
X1323417D1*
X1434588D2*
X1683698D1*
X1824490D2*
X2108702D1*
X2249492D2*
X2342597D1*
X415408Y3540453D2*
X508689D1*
X649479D2*
X932954D1*
X1073744D2*
X1307386D1*
X1450619D2*
X1683698D1*
X1824490D2*
X2108702D1*
X2249492D2*
X2342597D1*
X415408Y3531584D2*
X508689D1*
X649479D2*
X932954D1*
X1073744D2*
X1295310D1*
X1462696D2*
X1683698D1*
X1824490D2*
X2108702D1*
X2249492D2*
X2342597D1*
X415408Y3522715D2*
X508689D1*
X649479D2*
X932954D1*
X1073744D2*
X1285625D1*
X1472382D2*
X1683698D1*
X1824490D2*
X2108702D1*
X2249492D2*
X2342597D1*
X415408Y3513846D2*
X508689D1*
X649479D2*
X932954D1*
X1073744D2*
X1277644D1*
X1480362D2*
X1683698D1*
X1824490D2*
X2108702D1*
X2249492D2*
X2342597D1*
X415408Y3504978D2*
X508689D1*
X649479D2*
X932954D1*
X1073744D2*
X1270982D1*
X1487007D2*
X1683698D1*
X1824490D2*
X2108702D1*
X2249492D2*
X2342597D1*
X415408Y3496109D2*
X508689D1*
X649479D2*
X932954D1*
X1073744D2*
X1265409D1*
X1492579D2*
X1683698D1*
X1824490D2*
X2108702D1*
X2249492D2*
X2342597D1*
X415408Y3487240D2*
X508689D1*
X649479D2*
X932954D1*
X1073744D2*
X1260769D1*
X1497219D2*
X1683698D1*
X1824490D2*
X2108702D1*
X2249492D2*
X2342597D1*
X415408Y3478371D2*
X508689D1*
X649479D2*
X932954D1*
X1073744D2*
X1256954D1*
X1501034D2*
X1683698D1*
X1824490D2*
X2108702D1*
X2249492D2*
X2342597D1*
X415408Y3469503D2*
X508689D1*
X649479D2*
X932954D1*
X1073744D2*
X1253896D1*
X1504110D2*
X1683698D1*
X1824490D2*
X2108702D1*
X2249492D2*
X2342597D1*
X415408Y3460634D2*
X508689D1*
X649479D2*
X932954D1*
X1073744D2*
X1251522D1*
X1506483D2*
X1683698D1*
X1824490D2*
X2108702D1*
X2249492D2*
X2342597D1*
X415408Y3451765D2*
X508689D1*
X649479D2*
X932954D1*
X1073744D2*
X1249801D1*
X1508206D2*
X1683698D1*
X1824490D2*
X2108702D1*
X2249492D2*
X2342597D1*
X415408Y3442896D2*
X508689D1*
X649479D2*
X932954D1*
X1073744D2*
X1248710D1*
X1509295D2*
X1683698D1*
X1824490D2*
X2108702D1*
X2249492D2*
X2342597D1*
X415408Y3434028D2*
X508689D1*
X649479D2*
X932954D1*
X1073744D2*
X1248236D1*
X1509770D2*
X1683698D1*
X1824490D2*
X2108702D1*
X2249492D2*
X2342597D1*
X415408Y3425159D2*
X508689D1*
X649479D2*
X932954D1*
X1073744D2*
X1248358D1*
X1509647D2*
X1683698D1*
X1824490D2*
X2108702D1*
X2249492D2*
X2342597D1*
X415408Y3416290D2*
X508689D1*
X649479D2*
X932954D1*
X1073744D2*
X1249097D1*
X1508908D2*
X1683698D1*
X1824490D2*
X2108702D1*
X2249492D2*
X2342597D1*
X415408Y3407421D2*
X508689D1*
X649479D2*
X932954D1*
X1073744D2*
X1250450D1*
X1507538D2*
X1683698D1*
X1824490D2*
X2108702D1*
X2249492D2*
X2342597D1*
X415408Y3398552D2*
X508689D1*
X649479D2*
X932954D1*
X1073744D2*
X1252454D1*
X1505551D2*
X1683698D1*
X1824490D2*
X2108702D1*
X2249492D2*
X2342597D1*
X415408Y3389684D2*
X508689D1*
X649479D2*
X932954D1*
X1073744D2*
X1255126D1*
X1502879D2*
X1683698D1*
X1824490D2*
X2108702D1*
X2249492D2*
X2342597D1*
X415408Y3380815D2*
X508689D1*
X649479D2*
X932954D1*
X1073744D2*
X1258501D1*
X1499504D2*
X1683698D1*
X1824490D2*
X2108702D1*
X2249492D2*
X2342597D1*
X415408Y3371946D2*
X508689D1*
X649479D2*
X932954D1*
X1073744D2*
X1262668D1*
X1495339D2*
X1683698D1*
X1824490D2*
X2108702D1*
X2249492D2*
X2342597D1*
X415408Y3363077D2*
X508689D1*
X649479D2*
X932954D1*
X1073744D2*
X1267694D1*
X1490311D2*
X1683698D1*
X1824490D2*
X2108702D1*
X2249492D2*
X2342597D1*
X415408Y3354209D2*
X508689D1*
X649479D2*
X932954D1*
X1073744D2*
X1273706D1*
X1484299D2*
X1683698D1*
X1824490D2*
X2108702D1*
X2249492D2*
X2342597D1*
X415408Y3345340D2*
X508689D1*
X649479D2*
X932954D1*
X1073744D2*
X1280896D1*
X1477110D2*
X1683698D1*
X1824490D2*
X2108702D1*
X2249492D2*
X2342597D1*
X415408Y3336471D2*
X508689D1*
X649479D2*
X932954D1*
X1073744D2*
X1289545D1*
X1468462D2*
X1683698D1*
X1824490D2*
X2108702D1*
X2249492D2*
X2342597D1*
X415408Y3327602D2*
X508689D1*
X649479D2*
X932954D1*
X1073744D2*
X1300144D1*
X1457862D2*
X1683698D1*
X1824490D2*
X2108702D1*
X2249492D2*
X2342597D1*
X415408Y3318734D2*
X508689D1*
X649479D2*
X932954D1*
X1073744D2*
X1313626D1*
X1444362D2*
X1683698D1*
X1824490D2*
X2108702D1*
X2249492D2*
X2342597D1*
X415408Y3309865D2*
X508689D1*
X649479D2*
X932954D1*
X1073744D2*
X1332522D1*
X1425483D2*
X1683698D1*
X1824490D2*
X2108702D1*
X2249492D2*
X2342597D1*
X415408Y3300996D2*
X508689D1*
X649479D2*
X932954D1*
X1073744D2*
X1683698D1*
X1824490D2*
X2108702D1*
X2249492D2*
X2342597D1*
X415408Y3292127D2*
X508689D1*
X649479D2*
X932954D1*
X1073744D2*
X1683698D1*
X1824490D2*
X2108702D1*
X2249492D2*
X2342597D1*
X415408Y3283259D2*
X508689D1*
X649479D2*
X932954D1*
X1073744D2*
X1683698D1*
X1824490D2*
X2108702D1*
X2249492D2*
X2342597D1*
X415408Y3274390D2*
X508689D1*
X649479D2*
X932954D1*
X1073744D2*
X1683698D1*
X1824490D2*
X2108702D1*
X2249492D2*
X2342597D1*
X415408Y3265521D2*
X508689D1*
X649479D2*
X932954D1*
X1073744D2*
X1683698D1*
X1824490D2*
X2108702D1*
X2249492D2*
X2342597D1*
X415408Y3256652D2*
X508689D1*
X649479D2*
X932954D1*
X1073744D2*
X1683698D1*
X1824490D2*
X2108702D1*
X2249492D2*
X2342597D1*
X415408Y3247783D2*
X508689D1*
X649479D2*
X932954D1*
X1073744D2*
X1683698D1*
X1824490D2*
X2108702D1*
X2249492D2*
X2342597D1*
X415408Y3238915D2*
X508689D1*
X649479D2*
X932954D1*
X1073744D2*
X1683698D1*
X1824490D2*
X2108702D1*
X2249492D2*
X2342597D1*
X415408Y3230046D2*
X508689D1*
X649479D2*
X932954D1*
X1073744D2*
X1683698D1*
X1824490D2*
X2108702D1*
X2249492D2*
X2342597D1*
X415408Y3221177D2*
X508689D1*
X649479D2*
X932954D1*
X1073744D2*
X1683698D1*
X1824490D2*
X2108702D1*
X2249492D2*
X2342597D1*
X415408Y3212308D2*
X508689D1*
X649479D2*
X932954D1*
X1073744D2*
X1683698D1*
X1824490D2*
X2108702D1*
X2249492D2*
X2342597D1*
X415408Y3203440D2*
X508689D1*
X649479D2*
X932954D1*
X1073744D2*
X1683698D1*
X1824490D2*
X2108702D1*
X2249492D2*
X2342597D1*
X415408Y3194571D2*
X508689D1*
X649479D2*
X932954D1*
X1073744D2*
X1683698D1*
X1824490D2*
X2108702D1*
X2249492D2*
X2342597D1*
X415408Y3185702D2*
X508689D1*
X649479D2*
X932954D1*
X1073744D2*
X1683698D1*
X1824490D2*
X2108702D1*
X2249492D2*
X2342597D1*
X415408Y3176833D2*
X508689D1*
X649479D2*
X932954D1*
X1073744D2*
X1683698D1*
X1824490D2*
X2108702D1*
X2249492D2*
X2342597D1*
X415408Y3167965D2*
X508689D1*
X649479D2*
X932954D1*
X1073744D2*
X1683698D1*
X1824490D2*
X2108702D1*
X2249492D2*
X2342597D1*
X415408Y3159096D2*
X508689D1*
X649479D2*
X932954D1*
X1073744D2*
X1343122D1*
X1414883D2*
X1683698D1*
X1824490D2*
X2108702D1*
X2249492D2*
X2342597D1*
X415408Y3150227D2*
X508689D1*
X649479D2*
X932954D1*
X1073744D2*
X1330150D1*
X1427856D2*
X1683698D1*
X1824490D2*
X2108702D1*
X2249492D2*
X2342597D1*
X415408Y3141358D2*
X508689D1*
X649479D2*
X932954D1*
X1073744D2*
X1321378D1*
X1436627D2*
X1683698D1*
X1824490D2*
X2108702D1*
X2249492D2*
X2342597D1*
X415408Y3132490D2*
X508689D1*
X649479D2*
X932954D1*
X1073744D2*
X1315014D1*
X1442991D2*
X1683698D1*
X1824490D2*
X2108702D1*
X2249492D2*
X2342597D1*
X415408Y3123621D2*
X508689D1*
X649479D2*
X932954D1*
X1073744D2*
X1310392D1*
X1447596D2*
X1683698D1*
X1824490D2*
X2108702D1*
X2249492D2*
X2342597D1*
X415408Y3114752D2*
X508689D1*
X649479D2*
X932954D1*
X1073744D2*
X1307175D1*
X1450831D2*
X1683698D1*
X1824490D2*
X2108702D1*
X2249492D2*
X2342597D1*
X415408Y3105883D2*
X508689D1*
X649479D2*
X932954D1*
X1073744D2*
X1305172D1*
X1452835D2*
X1683698D1*
X1824490D2*
X2108702D1*
X2249492D2*
X2342597D1*
X415408Y3097014D2*
X508689D1*
X649479D2*
X932954D1*
X1073744D2*
X1304257D1*
X1453731D2*
X1683698D1*
X1824490D2*
X2108702D1*
X2249492D2*
X2342597D1*
X415408Y3088146D2*
X508689D1*
X649479D2*
X932954D1*
X1073744D2*
X1304433D1*
X1453573D2*
X1683698D1*
X1824490D2*
X2108702D1*
X2249492D2*
X2342597D1*
X415408Y3079277D2*
X508689D1*
X649479D2*
X932954D1*
X1073744D2*
X1305681D1*
X1452324D2*
X1683698D1*
X1824490D2*
X2108702D1*
X2249492D2*
X2342597D1*
X415408Y3070408D2*
X508689D1*
X649479D2*
X932954D1*
X1073744D2*
X1308072D1*
X1449934D2*
X1683698D1*
X1824490D2*
X2108702D1*
X2249492D2*
X2342597D1*
X415408Y3061539D2*
X508689D1*
X649479D2*
X932954D1*
X1073744D2*
X1311710D1*
X1446295D2*
X1683698D1*
X1824490D2*
X2108702D1*
X2249492D2*
X2342597D1*
X415408Y3052671D2*
X508689D1*
X649479D2*
X932954D1*
X1073744D2*
X1316843D1*
X1441163D2*
X1683698D1*
X1824490D2*
X2108702D1*
X2249492D2*
X2342597D1*
X415408Y3043802D2*
X508689D1*
X649479D2*
X932954D1*
X1073744D2*
X1323857D1*
X1434131D2*
X1683698D1*
X1824490D2*
X2108702D1*
X2249492D2*
X2342597D1*
X415408Y3034933D2*
X508689D1*
X649479D2*
X932954D1*
X1073744D2*
X1333682D1*
X1424306D2*
X1683698D1*
X1824490D2*
X2108702D1*
X2249492D2*
X2342597D1*
X415408Y3026064D2*
X508689D1*
X649479D2*
X932954D1*
X1073744D2*
X1349010D1*
X1408995D2*
X1683698D1*
X1824490D2*
X2108702D1*
X2249492D2*
X2342597D1*
X415408Y3017196D2*
X508689D1*
X649479D2*
X932954D1*
X1073744D2*
X1683698D1*
X1824490D2*
X2108702D1*
X2249492D2*
X2342597D1*
X415408Y3008327D2*
X508689D1*
X649479D2*
X932954D1*
X1073744D2*
X1683698D1*
X1824490D2*
X2108702D1*
X2249492D2*
X2342597D1*
X415408Y2999458D2*
X508689D1*
X649479D2*
X932954D1*
X1073744D2*
X1683698D1*
X1824490D2*
X2108702D1*
X2249492D2*
X2342597D1*
X415408Y2990589D2*
X508689D1*
X649479D2*
X932954D1*
X1073744D2*
X1683698D1*
X1824490D2*
X2108702D1*
X2249492D2*
X2342597D1*
X415408Y2981720D2*
X508689D1*
X649479D2*
X932954D1*
X1073744D2*
X1683698D1*
X1824490D2*
X2108702D1*
X2249492D2*
X2342597D1*
X415408Y2972852D2*
X508689D1*
X649479D2*
X932954D1*
X1073744D2*
X1683698D1*
X1824490D2*
X2108702D1*
X2249492D2*
X2342597D1*
X415408Y2963983D2*
X508689D1*
X649479D2*
X932954D1*
X1073744D2*
X1683698D1*
X1824490D2*
X2108702D1*
X2249492D2*
X2342597D1*
X415408Y2955114D2*
X508689D1*
X649479D2*
X932954D1*
X1073744D2*
X1683698D1*
X1824490D2*
X2108702D1*
X2249492D2*
X2342597D1*
X415408Y2946245D2*
X508689D1*
X649479D2*
X932954D1*
X1073744D2*
X1683698D1*
X1824490D2*
X2108702D1*
X2249492D2*
X2342597D1*
X415408Y2937377D2*
X508689D1*
X649479D2*
X932954D1*
X1073744D2*
X1683698D1*
X1824490D2*
X2108702D1*
X2249492D2*
X2342597D1*
X415408Y2928508D2*
X508689D1*
X649479D2*
X932954D1*
X1073744D2*
X1683698D1*
X1824490D2*
X2108702D1*
X2249492D2*
X2342597D1*
X415408Y2919639D2*
X508689D1*
X649479D2*
X932954D1*
X1073744D2*
X1683698D1*
X1824490D2*
X2108702D1*
X2249492D2*
X2342597D1*
X415408Y2910770D2*
X508689D1*
X649479D2*
X932954D1*
X1073744D2*
X1683698D1*
X1824490D2*
X2108702D1*
X2249492D2*
X2342597D1*
X415408Y2901902D2*
X508689D1*
X649479D2*
X932954D1*
X1073744D2*
X1683698D1*
X1824490D2*
X2108702D1*
X2249492D2*
X2342597D1*
X415408Y2893033D2*
X508689D1*
X649479D2*
X932954D1*
X1073744D2*
X1683698D1*
X1824490D2*
X2108702D1*
X2249492D2*
X2342597D1*
X415408Y2884164D2*
X508689D1*
X649479D2*
X932954D1*
X1073744D2*
X1354144D1*
X1403862D2*
X1683698D1*
X1824490D2*
X2108702D1*
X2249492D2*
X2342597D1*
X415408Y2875295D2*
X508689D1*
X649479D2*
X932954D1*
X1073744D2*
X1325562D1*
X1432444D2*
X1683698D1*
X1824490D2*
X2108702D1*
X2249492D2*
X2342597D1*
X415408Y2866427D2*
X508689D1*
X649479D2*
X932954D1*
X1073744D2*
X1308898D1*
X1449108D2*
X1683698D1*
X1824490D2*
X2108702D1*
X2249492D2*
X2342597D1*
X415408Y2857558D2*
X508689D1*
X649479D2*
X932954D1*
X1073744D2*
X1296488D1*
X1461500D2*
X1683698D1*
X1824490D2*
X2108702D1*
X2249492D2*
X2342597D1*
X415408Y2848689D2*
X508689D1*
X649479D2*
X932954D1*
X1073744D2*
X1286591D1*
X1471415D2*
X1683698D1*
X1824490D2*
X2108702D1*
X2249492D2*
X2342597D1*
X415408Y2839820D2*
X508689D1*
X649479D2*
X932954D1*
X1073744D2*
X1278453D1*
X1479554D2*
X1683698D1*
X1824490D2*
X2108702D1*
X2249492D2*
X2342597D1*
X415408Y2830951D2*
X508689D1*
X649479D2*
X932954D1*
X1073744D2*
X1271668D1*
X1486339D2*
X1683698D1*
X1824490D2*
X2108702D1*
X2249492D2*
X2342597D1*
X415408Y2822083D2*
X508689D1*
X649479D2*
X932954D1*
X1073744D2*
X1265972D1*
X1492016D2*
X1683698D1*
X1824490D2*
X2108702D1*
X2249492D2*
X2342597D1*
X415408Y2813214D2*
X508689D1*
X649479D2*
X932954D1*
X1073744D2*
X1261244D1*
X1496762D2*
X1683698D1*
X1824490D2*
X2108702D1*
X2249492D2*
X2342597D1*
X415408Y2804345D2*
X508689D1*
X649479D2*
X932954D1*
X1073744D2*
X1257341D1*
X1500664D2*
X1683698D1*
X1824490D2*
X2108702D1*
X2249492D2*
X2342597D1*
X415408Y2795476D2*
X508689D1*
X649479D2*
X932954D1*
X1073744D2*
X1254194D1*
X1503811D2*
X1683698D1*
X1824490D2*
X2108702D1*
X2249492D2*
X2342597D1*
X415408Y2786608D2*
X508689D1*
X649479D2*
X932954D1*
X1073744D2*
X1251752D1*
X1506255D2*
X1683698D1*
X1824490D2*
X2108702D1*
X2249492D2*
X2342597D1*
X415408Y2777739D2*
X508689D1*
X649479D2*
X932954D1*
X1073744D2*
X1249958D1*
X1508047D2*
X1683698D1*
X1824490D2*
X2108702D1*
X2249492D2*
X2342597D1*
X415408Y2768870D2*
X508689D1*
X649479D2*
X932954D1*
X1073744D2*
X1248798D1*
X1509207D2*
X1683698D1*
X1824490D2*
X2108702D1*
X2249492D2*
X2342597D1*
X415408Y2760001D2*
X508689D1*
X649479D2*
X932954D1*
X1073744D2*
X1248253D1*
X1509752D2*
X1683698D1*
X1824490D2*
X2108702D1*
X2249492D2*
X2342597D1*
X415408Y2751133D2*
X508689D1*
X649479D2*
X932954D1*
X1073744D2*
X1248324D1*
X1509682D2*
X1683698D1*
X1824490D2*
X2108702D1*
X2249492D2*
X2342597D1*
X415408Y2742264D2*
X508934D1*
X649251D2*
X933130D1*
X1073570D2*
X1248992D1*
X1509014D2*
X1683945D1*
X1824243D2*
X2108949D1*
X2249247D2*
X2342597D1*
X415408Y2733395D2*
X512785D1*
X645402D2*
X936698D1*
X1070000D2*
X1250274D1*
X1507731D2*
X1687777D1*
X1820411D2*
X2112781D1*
X2245415D2*
X2342597D1*
X415408Y2724526D2*
X1252209D1*
X1505798D2*
X2342597D1*
X415408Y2715657D2*
X1254793D1*
X1503214D2*
X2342597D1*
X415408Y2706789D2*
X1258097D1*
X1499908D2*
X2342597D1*
X415408Y2697920D2*
X1262157D1*
X1495831D2*
X2342597D1*
X415408Y2689051D2*
X1267097D1*
X1490908D2*
X2342597D1*
X415408Y2680182D2*
X1272986D1*
X1485003D2*
X2342597D1*
X415408Y2671314D2*
X1280034D1*
X1477954D2*
X2342597D1*
X415408Y2662445D2*
X1288507D1*
X1469482D2*
X2342597D1*
X415408Y2653576D2*
X1298861D1*
X1459146D2*
X2342597D1*
X415408Y2644707D2*
X1311957D1*
X1446050D2*
X2342597D1*
X415408Y2635839D2*
X1330009D1*
X1427996D2*
X2342597D1*
X415408Y2626970D2*
X1368382D1*
X1389606D2*
X2342597D1*
X415408Y2618101D2*
X2342597D1*
X415408Y2609232D2*
X2342597D1*
X415408Y2600364D2*
X2342597D1*
X415408Y2591495D2*
X2342597D1*
X415408Y2582626D2*
X2342597D1*
X415408Y2573757D2*
X2342597D1*
X415408Y2564888D2*
X2342597D1*
X415408Y2556020D2*
X2342597D1*
X415408Y2547151D2*
X2342597D1*
X415408Y2538282D2*
X2342597D1*
X415408Y2529413D2*
X2342597D1*
X415408Y2520545D2*
X2342597D1*
X415408Y2511676D2*
X2342597D1*
X415408Y2502807D2*
X2342597D1*
X415408Y2493938D2*
X2342597D1*
X415408Y2485070D2*
X2342597D1*
X415408Y2476201D2*
X2342597D1*
X415408Y2467332D2*
X2342597D1*
X415408Y2458463D2*
X607672D1*
X675336D2*
X1095165D1*
X1162831D2*
X1595175D1*
X1662840D2*
X2082669D1*
X2150335D2*
X2342597D1*
X415408Y2449594D2*
X577085D1*
X705906D2*
X1064580D1*
X1193416D2*
X1564589D1*
X1693408D2*
X2052084D1*
X2180920D2*
X2342597D1*
X415408Y2440726D2*
X557978D1*
X725012D2*
X1045490D1*
X1212524D2*
X1545482D1*
X1712516D2*
X2032976D1*
X2200028D2*
X2342597D1*
X415408Y2431857D2*
X543336D1*
X739672D2*
X1030829D1*
X1227167D2*
X1530840D1*
X1727159D2*
X2018333D1*
X2214671D2*
X2342597D1*
X415408Y2422988D2*
X531346D1*
X751660D2*
X1018841D1*
X1239155D2*
X1518833D1*
X1739164D2*
X2006345D1*
X2226659D2*
X2342597D1*
X415408Y2414119D2*
X521186D1*
X761803D2*
X1008698D1*
X1249315D2*
X1508690D1*
X1749307D2*
X1996185D1*
X2236802D2*
X2342597D1*
X415408Y2405251D2*
X512450D1*
X770539D2*
X999962D1*
X1258051D2*
X1499954D1*
X1758043D2*
X1987449D1*
X2245538D2*
X2342597D1*
X415408Y2396382D2*
X504857D1*
X778151D2*
X992350D1*
X1265646D2*
X1492361D1*
X1765638D2*
X1979854D1*
X2253150D2*
X2342597D1*
X415408Y2387513D2*
X498213D1*
X784795D2*
X985706D1*
X1272290D2*
X1485717D1*
X1772282D2*
X1973210D1*
X2259794D2*
X2342597D1*
X415408Y2378644D2*
X492394D1*
X790614D2*
X979888D1*
X1278108D2*
X1479898D1*
X1778100D2*
X1967392D1*
X2265612D2*
X2342597D1*
X415408Y2369776D2*
X487314D1*
X795694D2*
X974808D1*
X1283188D2*
X1474801D1*
X1783198D2*
X1962312D1*
X2270692D2*
X2342597D1*
X415408Y2360907D2*
X482885D1*
X800123D2*
X970378D1*
X1287618D2*
X1470388D1*
X1787627D2*
X1957882D1*
X2275122D2*
X2342597D1*
X415408Y2352038D2*
X479070D1*
X803938D2*
X966564D1*
X1291432D2*
X1466556D1*
X1791442D2*
X1954068D1*
X2278936D2*
X2342597D1*
X415408Y2343169D2*
X475818D1*
X807190D2*
X963312D1*
X1294684D2*
X1463304D1*
X1794694D2*
X1950816D1*
X2282188D2*
X2342597D1*
X415408Y2334301D2*
X473093D1*
X809915D2*
X960588D1*
X1297408D2*
X1460580D1*
X1797419D2*
X1948091D1*
X2284912D2*
X2342597D1*
X415408Y2325432D2*
X470878D1*
X812130D2*
X958373D1*
X1299623D2*
X1458365D1*
X1799634D2*
X1945877D1*
X2287127D2*
X2342597D1*
X415408Y2316563D2*
X469138D1*
X813852D2*
X956650D1*
X1301364D2*
X1456642D1*
X1801356D2*
X1944136D1*
X2288850D2*
X2342597D1*
X415408Y2307694D2*
X467890D1*
X815118D2*
X955385D1*
X1302612D2*
X1455394D1*
X1802604D2*
X1942888D1*
X2290115D2*
X2342597D1*
X415408Y2298825D2*
X467098D1*
X815908D2*
X954593D1*
X1303403D2*
X1454585D1*
X1803412D2*
X1942097D1*
X2290907D2*
X2342597D1*
X415408Y2289957D2*
X466748D1*
X816243D2*
X954259D1*
X1303755D2*
X1454252D1*
X1803747D2*
X1941745D1*
X2291240D2*
X2342597D1*
X415408Y2281088D2*
X466870D1*
X816138D2*
X954365D1*
X1303631D2*
X1454374D1*
X1803623D2*
X1941869D1*
X2291135D2*
X2342597D1*
X415408Y2272219D2*
X467433D1*
X815558D2*
X954927D1*
X1303070D2*
X1454937D1*
X1803062D2*
X1942430D1*
X2290573D2*
X2342597D1*
X415408Y2263350D2*
X468453D1*
X814538D2*
X955965D1*
X1302031D2*
X1455957D1*
X1802042D2*
X1943469D1*
X2289535D2*
X2342597D1*
X415408Y2254482D2*
X469946D1*
X813043D2*
X957458D1*
X1300555D2*
X1457450D1*
X1800547D2*
X1944945D1*
X2288042D2*
X2342597D1*
X415408Y2245613D2*
X471916D1*
X811075D2*
X959427D1*
X1298570D2*
X1459420D1*
X1798579D2*
X1946930D1*
X2286073D2*
X2342597D1*
X415408Y2236744D2*
X474394D1*
X808614D2*
X961888D1*
X1296108D2*
X1461898D1*
X1796118D2*
X1949392D1*
X2283612D2*
X2342597D1*
X415408Y2227875D2*
X477382D1*
X805626D2*
X964877D1*
X1293119D2*
X1464869D1*
X1793130D2*
X1952381D1*
X2280623D2*
X2342597D1*
X415408Y2219007D2*
X480916D1*
X802092D2*
X968409D1*
X1289587D2*
X1468402D1*
X1789596D2*
X1955913D1*
X2277091D2*
X2342597D1*
X415408Y2210138D2*
X485029D1*
X797979D2*
X972522D1*
X1285474D2*
X1472533D1*
X1785483D2*
X1960026D1*
X2272978D2*
X2342597D1*
X415408Y2201269D2*
X489774D1*
X793234D2*
X977269D1*
X1280727D2*
X1477278D1*
X1780719D2*
X1964773D1*
X2268231D2*
X2342597D1*
X415408Y2192400D2*
X495224D1*
X787783D2*
X982718D1*
X1275278D2*
X1482710D1*
X1775287D2*
X1970222D1*
X2262782D2*
X2342597D1*
X415408Y2183531D2*
X501446D1*
X781562D2*
X988941D1*
X1269055D2*
X1488933D1*
X1769066D2*
X1976445D1*
X2256559D2*
X2342597D1*
X415408Y2174663D2*
X508549D1*
X774459D2*
X996042D1*
X1261954D2*
X1496052D1*
X1761946D2*
X1983546D1*
X2249458D2*
X2342597D1*
X415408Y2165794D2*
X516686D1*
X766303D2*
X1004181D1*
X1253815D2*
X1504190D1*
X1753807D2*
X1991685D1*
X2241319D2*
X2342597D1*
X415408Y2156925D2*
X526091D1*
X756899D2*
X1013585D1*
X1244411D2*
X1513594D1*
X1744403D2*
X2001089D1*
X2231915D2*
X2342597D1*
X415408Y2148056D2*
X537094D1*
X745895D2*
X1024589D1*
X1233407D2*
X1524598D1*
X1733399D2*
X2012093D1*
X2220911D2*
X2342597D1*
X415408Y2139188D2*
X550297D1*
X732711D2*
X1037790D1*
X1220206D2*
X1537782D1*
X1720215D2*
X2025294D1*
X2207710D2*
X2342597D1*
X415408Y2130319D2*
X566820D1*
X716171D2*
X1054332D1*
X1203682D2*
X1554324D1*
X1703675D2*
X2041818D1*
X2191168D2*
X2342597D1*
X415408Y2121450D2*
X589882D1*
X693108D2*
X1077394D1*
X1180602D2*
X1577386D1*
X1680612D2*
X2064898D1*
X2168106D2*
X2342597D1*
X415408Y2112581D2*
X2342597D1*
X415408Y2103713D2*
X2342597D1*
X415408Y2094844D2*
X2342597D1*
X415408Y2085975D2*
X2342597D1*
X415408Y2077106D2*
X2342597D1*
X415408Y2068238D2*
X2342597D1*
X415408Y2059369D2*
X2342597D1*
X415408Y2050500D2*
X2342597D1*
X415408Y2041631D2*
X2342597D1*
X415408Y2032762D2*
X2342597D1*
X415408Y2023894D2*
X2342597D1*
X415408Y2015025D2*
X2342597D1*
X415408Y2006156D2*
X2342597D1*
X415408Y1997287D2*
X2342597D1*
X415408Y1988419D2*
X2342597D1*
X415408Y1979550D2*
X2342597D1*
X415408Y1970681D2*
X2342597D1*
X415408Y1961812D2*
X2342597D1*
X415408Y1952944D2*
X519710D1*
X538298D2*
X2342597D1*
X415408Y1944075D2*
X511941D1*
X546067D2*
X2342597D1*
X415408Y1935206D2*
X510745D1*
X547262D2*
X2342597D1*
X415408Y1926337D2*
X510745D1*
X547262D2*
X2342597D1*
X415408Y1917469D2*
X510745D1*
X547262D2*
X2342597D1*
X415408Y1908600D2*
X510745D1*
X547262D2*
X2342597D1*
X415408Y1899731D2*
X510745D1*
X547262D2*
X2342597D1*
X415408Y1890862D2*
X510745D1*
X547262D2*
X2342597D1*
X415408Y1881993D2*
X510745D1*
X547262D2*
X2342597D1*
X415408Y1873125D2*
X510745D1*
X547262D2*
X2342597D1*
X415408Y1864256D2*
X510745D1*
X547262D2*
X2342597D1*
X415408Y1855387D2*
X510745D1*
X547262D2*
X2342597D1*
X415408Y1846518D2*
X510745D1*
X547262D2*
X2342597D1*
X415408Y1837650D2*
X510745D1*
X547262D2*
X2342597D1*
X415408Y1828781D2*
X510745D1*
X547262D2*
X2342597D1*
X415408Y1819912D2*
X510745D1*
X547262D2*
X2342597D1*
X415408Y1811043D2*
X510745D1*
X549916D2*
X2342597D1*
X415408Y1802175D2*
X511290D1*
X558776D2*
X2342597D1*
X415408Y1793306D2*
X516740D1*
X567635D2*
X2342597D1*
X415408Y1784437D2*
X525617D1*
X572012D2*
X2342597D1*
X415408Y1775568D2*
X534476D1*
X571222D2*
X2342597D1*
X415408Y1766699D2*
X544021D1*
X563979D2*
X2342597D1*
X415408Y1757831D2*
X2342597D1*
X415408Y1748962D2*
X2342597D1*
X415408Y1740093D2*
X2342597D1*
X415408Y1731224D2*
X2342597D1*
X415408Y1722356D2*
X2342597D1*
X415408Y1713487D2*
X2342597D1*
X415408Y1704618D2*
X2342597D1*
X415408Y1695749D2*
X2342597D1*
X415408Y1686881D2*
X2342597D1*
X415408Y1678012D2*
X2342597D1*
X415408Y1669143D2*
X2342597D1*
X415408Y1660274D2*
X2342597D1*
X415408Y1651406D2*
X2342597D1*
X415408Y1642537D2*
X2342597D1*
X415408Y1633668D2*
X2342597D1*
X415408Y1624799D2*
X2342597D1*
X415408Y1615930D2*
X2342597D1*
X415408Y1607062D2*
X2342597D1*
X415408Y1598193D2*
X2342597D1*
X415408Y1589324D2*
X2342597D1*
X415408Y1580455D2*
X2342597D1*
X415408Y1571587D2*
X2342597D1*
X415408Y1562718D2*
X598636D1*
X684371D2*
X1073633D1*
X1159367D2*
X1598621D1*
X1684374D2*
X2073634D1*
X2159370D2*
X2342597D1*
X415408Y1553849D2*
X572217D1*
X710774D2*
X1047230D1*
X1185770D2*
X1572218D1*
X1710776D2*
X2047214D1*
X2185772D2*
X2342597D1*
X415408Y1544980D2*
X554392D1*
X728615D2*
X1029388D1*
X1203612D2*
X1554394D1*
X1728618D2*
X2029390D1*
X2203614D2*
X2342597D1*
X415408Y1536112D2*
X540434D1*
X742555D2*
X1015449D1*
X1217551D2*
X1540437D1*
X1742558D2*
X2015450D1*
X2217554D2*
X2342597D1*
X415408Y1527243D2*
X528921D1*
X754087D2*
X1003917D1*
X1229083D2*
X1528923D1*
X1754088D2*
X2003920D1*
X2229084D2*
X2342597D1*
X415408Y1518374D2*
X519113D1*
X763878D2*
X994109D1*
X1238891D2*
X1519114D1*
X1763879D2*
X1994110D1*
X2238875D2*
X2342597D1*
X415408Y1509505D2*
X510657D1*
X772350D2*
X985654D1*
X1247346D2*
X1510660D1*
X1772352D2*
X1985656D1*
X2247348D2*
X2342597D1*
X415408Y1500636D2*
X503274D1*
X779715D2*
X978289D1*
X1254711D2*
X1503277D1*
X1779718D2*
X1978290D1*
X2254714D2*
X2342597D1*
X415408Y1491768D2*
X496841D1*
X786167D2*
X971837D1*
X1261163D2*
X1496825D1*
X1786168D2*
X1971840D1*
X2261164D2*
X2342597D1*
X415408Y1482899D2*
X491181D1*
X791810D2*
X966194D1*
X1266806D2*
X1491182D1*
X1791811D2*
X1966178D1*
X2266807D2*
X2342597D1*
X415408Y1474030D2*
X486259D1*
X796748D2*
X961256D1*
X1271744D2*
X1486261D1*
X1796751D2*
X1961257D1*
X2271747D2*
X2342597D1*
X415408Y1465161D2*
X481970D1*
X801038D2*
X956966D1*
X1276034D2*
X1481972D1*
X1801022D2*
X1956969D1*
X2276035D2*
X2342597D1*
X415408Y1456293D2*
X478278D1*
X804711D2*
X953274D1*
X1279726D2*
X1478281D1*
X1804714D2*
X1953277D1*
X2279710D2*
X2342597D1*
X415408Y1447424D2*
X475150D1*
X807840D2*
X950146D1*
X1282854D2*
X1475152D1*
X1807843D2*
X1950148D1*
X2282856D2*
X2342597D1*
X415408Y1438555D2*
X472549D1*
X810459D2*
X947545D1*
X1285455D2*
X1472550D1*
X1810462D2*
X1947546D1*
X2285458D2*
X2342597D1*
X415408Y1429686D2*
X470438D1*
X812551D2*
X945434D1*
X1287566D2*
X1470441D1*
X1812554D2*
X1945437D1*
X2287550D2*
X2342597D1*
X415408Y1420818D2*
X468822D1*
X814186D2*
X943818D1*
X1289182D2*
X1468824D1*
X1814171D2*
X1943820D1*
X2289184D2*
X2342597D1*
X415408Y1411949D2*
X467661D1*
X815328D2*
X942675D1*
X1290324D2*
X1467664D1*
X1815331D2*
X1942677D1*
X2290327D2*
X2342597D1*
X415408Y1403080D2*
X466976D1*
X816014D2*
X941972D1*
X1291028D2*
X1466978D1*
X1816016D2*
X1941974D1*
X2291030D2*
X2342597D1*
X415408Y1394211D2*
X466748D1*
X816260D2*
X941744D1*
X1291256D2*
X1466732D1*
X1816262D2*
X1941745D1*
X2291259D2*
X2342597D1*
X415408Y1385343D2*
X466958D1*
X816050D2*
X941954D1*
X1291046D2*
X1466961D1*
X1816051D2*
X1941957D1*
X2291047D2*
X2342597D1*
X415408Y1376474D2*
X467626D1*
X815382D2*
X942622D1*
X1290378D2*
X1467629D1*
X1815366D2*
X1942625D1*
X2290379D2*
X2342597D1*
X415408Y1367605D2*
X468752D1*
X814239D2*
X943748D1*
X1289252D2*
X1468753D1*
X1814240D2*
X1943749D1*
X2289238D2*
X2342597D1*
X415408Y1358736D2*
X470350D1*
X812639D2*
X945346D1*
X1287654D2*
X1470353D1*
X1812642D2*
X1945349D1*
X2287655D2*
X2342597D1*
X415408Y1349867D2*
X472442D1*
X810566D2*
X947438D1*
X1285562D2*
X1472427D1*
X1810567D2*
X1947441D1*
X2285563D2*
X2342597D1*
X415408Y1340999D2*
X475009D1*
X807982D2*
X950022D1*
X1282978D2*
X1475010D1*
X1807983D2*
X1950007D1*
X2282979D2*
X2342597D1*
X415408Y1332130D2*
X478121D1*
X804887D2*
X953117D1*
X1279883D2*
X1478122D1*
X1804871D2*
X1953118D1*
X2279886D2*
X2342597D1*
X415408Y1323261D2*
X481777D1*
X801214D2*
X956773D1*
X1276227D2*
X1481778D1*
X1801215D2*
X1956774D1*
X2276211D2*
X2342597D1*
X415408Y1314392D2*
X486030D1*
X796959D2*
X961045D1*
X1271955D2*
X1486033D1*
X1796962D2*
X1961029D1*
X2271958D2*
X2342597D1*
X415408Y1305524D2*
X490934D1*
X792055D2*
X965930D1*
X1267070D2*
X1490937D1*
X1792058D2*
X1965933D1*
X2267071D2*
X2342597D1*
X415408Y1296655D2*
X496542D1*
X786448D2*
X971538D1*
X1261462D2*
X1496545D1*
X1786450D2*
X1971541D1*
X2261446D2*
X2342597D1*
X415408Y1287786D2*
X502958D1*
X780050D2*
X977954D1*
X1255046D2*
X1502961D1*
X1780051D2*
X1977957D1*
X2255047D2*
X2342597D1*
X415408Y1278917D2*
X510289D1*
X772719D2*
X985285D1*
X1247715D2*
X1510273D1*
X1772722D2*
X1985286D1*
X2247718D2*
X2342597D1*
X415408Y1270049D2*
X518690D1*
X764318D2*
X993686D1*
X1239314D2*
X1518693D1*
X1764319D2*
X1993689D1*
X2239315D2*
X2342597D1*
X415408Y1261180D2*
X528412D1*
X754596D2*
X1003408D1*
X1229592D2*
X1528413D1*
X1754580D2*
X2003409D1*
X2229594D2*
X2342597D1*
X415408Y1252311D2*
X539837D1*
X743154D2*
X1014850D1*
X1218150D2*
X1539840D1*
X1743155D2*
X2014853D1*
X2218151D2*
X2342597D1*
X415408Y1243442D2*
X553654D1*
X729354D2*
X1028650D1*
X1204350D2*
X1553656D1*
X1729339D2*
X2028652D1*
X2204352D2*
X2342597D1*
X415408Y1234573D2*
X571249D1*
X711759D2*
X1046245D1*
X1186755D2*
X1571234D1*
X1711760D2*
X2046248D1*
X2186756D2*
X2342597D1*
X415408Y1225705D2*
X596966D1*
X686042D2*
X1071962D1*
X1161038D2*
X1596969D1*
X1686043D2*
X2071965D1*
X2161039D2*
X2342597D1*
X415408Y1216836D2*
X2342597D1*
X415408Y1207967D2*
X2342597D1*
X415408Y1199098D2*
X2342597D1*
X415408Y1190230D2*
X2342597D1*
X415408Y1181361D2*
X2342597D1*
X415408Y1172492D2*
X2342597D1*
X415408Y1163623D2*
X602450D1*
X680539D2*
X1077446D1*
X1155554D2*
X1602453D1*
X1680542D2*
X2077449D1*
X2155555D2*
X2342597D1*
X415408Y1154755D2*
X574378D1*
X708630D2*
X1049374D1*
X1183626D2*
X1574381D1*
X1708614D2*
X2049377D1*
X2183627D2*
X2342597D1*
X415408Y1145886D2*
X555992D1*
X726999D2*
X1030988D1*
X1202012D2*
X1555993D1*
X1727000D2*
X2030990D1*
X2201996D2*
X2342597D1*
X415408Y1137017D2*
X541736D1*
X741255D2*
X1016732D1*
X1216268D2*
X1541738D1*
X1741256D2*
X2016734D1*
X2216252D2*
X2342597D1*
X415408Y1128148D2*
X530010D1*
X752996D2*
X1005007D1*
X1227992D2*
X1529996D1*
X1752999D2*
X2005009D1*
X2227995D2*
X2342597D1*
X415408Y1119280D2*
X520045D1*
X762946D2*
X995058D1*
X1237942D2*
X1520046D1*
X1762948D2*
X1995042D1*
X2237944D2*
X2342597D1*
X415408Y1110411D2*
X511466D1*
X771542D2*
X986462D1*
X1246538D2*
X1511469D1*
X1771543D2*
X1986465D1*
X2246539D2*
X2342597D1*
X415408Y1101542D2*
X503996D1*
X779012D2*
X978992D1*
X1254008D2*
X1503997D1*
X1779014D2*
X1978993D1*
X2254010D2*
X2342597D1*
X415408Y1092673D2*
X497457D1*
X785551D2*
X972453D1*
X1260547D2*
X1497458D1*
X1785554D2*
X1972454D1*
X2260550D2*
X2342597D1*
X415408Y1083804D2*
X491726D1*
X791264D2*
X966722D1*
X1266278D2*
X1491728D1*
X1791266D2*
X1966724D1*
X2266262D2*
X2342597D1*
X415408Y1074936D2*
X486734D1*
X796274D2*
X961730D1*
X1271270D2*
X1486736D1*
X1796276D2*
X1961732D1*
X2271272D2*
X2342597D1*
X415408Y1066067D2*
X482374D1*
X800615D2*
X957388D1*
X1275612D2*
X1482377D1*
X1800618D2*
X1957373D1*
X2275614D2*
X2342597D1*
X415408Y1057198D2*
X478630D1*
X804360D2*
X953626D1*
X1279374D2*
X1478633D1*
X1804362D2*
X1953629D1*
X2279375D2*
X2342597D1*
X415408Y1048329D2*
X475449D1*
X807559D2*
X950445D1*
X1282555D2*
X1475450D1*
X1807562D2*
X1950446D1*
X2282558D2*
X2342597D1*
X415408Y1039461D2*
X472794D1*
X810214D2*
X947790D1*
X1285210D2*
X1472797D1*
X1810215D2*
X1947793D1*
X2285211D2*
X2342597D1*
X415408Y1030592D2*
X470633D1*
X812358D2*
X945629D1*
X1287371D2*
X1470634D1*
X1812360D2*
X1945630D1*
X2287374D2*
X2342597D1*
X415408Y1021723D2*
X468962D1*
X814028D2*
X943958D1*
X1289042D2*
X1468965D1*
X1814030D2*
X1943961D1*
X2289043D2*
X2342597D1*
X415408Y1012854D2*
X467766D1*
X815240D2*
X942762D1*
X1290238D2*
X1467769D1*
X1815243D2*
X1942765D1*
X2290239D2*
X2342597D1*
X415408Y1003986D2*
X467029D1*
X815979D2*
X942025D1*
X1290975D2*
X1467030D1*
X1815982D2*
X1942026D1*
X2290978D2*
X2342597D1*
X415408Y995117D2*
X466748D1*
X816260D2*
X941744D1*
X1291256D2*
X1466749D1*
X1816262D2*
X1941745D1*
X2291259D2*
X2342597D1*
X415408Y986248D2*
X466906D1*
X816084D2*
X941920D1*
X1291080D2*
X1466908D1*
X1816087D2*
X1941921D1*
X2291083D2*
X2342597D1*
X415408Y977379D2*
X467538D1*
X815470D2*
X942534D1*
X1290466D2*
X1467541D1*
X1815471D2*
X1942537D1*
X2290467D2*
X2342597D1*
X415408Y968510D2*
X468610D1*
X814379D2*
X943625D1*
X1289375D2*
X1468613D1*
X1814382D2*
X1943626D1*
X2289378D2*
X2342597D1*
X415408Y959642D2*
X470175D1*
X812832D2*
X945172D1*
X1287828D2*
X1470177D1*
X1812835D2*
X1945173D1*
X2287831D2*
X2342597D1*
X415408Y950773D2*
X472197D1*
X810794D2*
X947193D1*
X1285807D2*
X1472198D1*
X1810795D2*
X1947194D1*
X2285810D2*
X2342597D1*
X415408Y941904D2*
X474728D1*
X808280D2*
X949724D1*
X1283276D2*
X1474730D1*
X1808264D2*
X1949726D1*
X2283278D2*
X2342597D1*
X415408Y933035D2*
X477786D1*
X805222D2*
X952782D1*
X1280218D2*
X1477770D1*
X1805223D2*
X1952785D1*
X2280219D2*
X2342597D1*
X415408Y924167D2*
X481390D1*
X801618D2*
X956386D1*
X1276614D2*
X1481374D1*
X1801619D2*
X1956388D1*
X2276615D2*
X2342597D1*
X415408Y915298D2*
X485573D1*
X797434D2*
X960570D1*
X1272430D2*
X1485576D1*
X1797419D2*
X1960572D1*
X2272432D2*
X2342597D1*
X415408Y906429D2*
X490408D1*
X792600D2*
X965404D1*
X1267596D2*
X1490409D1*
X1792602D2*
X1965406D1*
X2267598D2*
X2342597D1*
X415408Y897560D2*
X495945D1*
X787063D2*
X970941D1*
X1262059D2*
X1495946D1*
X1787066D2*
X1970942D1*
X2262062D2*
X2342597D1*
X415408Y888692D2*
X502256D1*
X780735D2*
X977269D1*
X1255731D2*
X1502257D1*
X1780738D2*
X1977253D1*
X2255734D2*
X2342597D1*
X415408Y879823D2*
X509480D1*
X773510D2*
X984493D1*
X1248507D2*
X1509482D1*
X1773512D2*
X1984478D1*
X2248508D2*
X2342597D1*
X415408Y870954D2*
X517777D1*
X765231D2*
X992773D1*
X1240227D2*
X1517778D1*
X1765234D2*
X1992774D1*
X2240230D2*
X2342597D1*
X415408Y862085D2*
X527357D1*
X755651D2*
X1002353D1*
X1230647D2*
X1527341D1*
X1755654D2*
X2002354D1*
X2230650D2*
X2342597D1*
X415408Y853217D2*
X538589D1*
X744419D2*
X1013585D1*
X1219415D2*
X1538591D1*
X1744420D2*
X2013588D1*
X2219416D2*
X2342597D1*
X415408Y844348D2*
X552106D1*
X730902D2*
X1027102D1*
X1205898D2*
X1552109D1*
X1730903D2*
X2027105D1*
X2205899D2*
X2342597D1*
X415408Y835479D2*
X569193D1*
X713798D2*
X1044189D1*
X1188811D2*
X1569194D1*
X1713799D2*
X2044190D1*
X2188795D2*
X2342597D1*
X415408Y826610D2*
X593609D1*
X689382D2*
X1068605D1*
X1164395D2*
X1593610D1*
X1689383D2*
X2068606D1*
X2164398D2*
X2342597D1*
X415408Y817741D2*
X2342597D1*
X415408Y808873D2*
X2342597D1*
X415408Y800004D2*
X2342597D1*
X415408Y791135D2*
X2342597D1*
X415408Y782266D2*
X2342597D1*
X415408Y773398D2*
X2342597D1*
X415408Y764529D2*
X2342597D1*
X415408Y755660D2*
X2342597D1*
X415408Y746791D2*
X2342597D1*
X415408Y737923D2*
X2342597D1*
X415408Y729054D2*
X2342597D1*
X415408Y720185D2*
X2342597D1*
X415408Y711316D2*
X2342597D1*
X415408Y702448D2*
X2342597D1*
X415408Y693579D2*
X2342597D1*
X415408Y684710D2*
X2342597D1*
X415408Y675841D2*
X2342597D1*
X415408Y666972D2*
X2342597D1*
X415408Y658104D2*
X2342597D1*
X415408Y649235D2*
X2342597D1*
X415408Y640366D2*
X2342597D1*
X415408Y631497D2*
X2342597D1*
X415408Y622629D2*
X2342597D1*
X415408Y613760D2*
X604050D1*
X753963D2*
X2004042D1*
X2153955D2*
X2342597D1*
X415408Y604891D2*
X573570D1*
X784444D2*
X1973562D1*
X2184436D2*
X2342597D1*
X415408Y596022D2*
X558259D1*
X799738D2*
X1958252D1*
X2199747D2*
X2342597D1*
X415408Y587154D2*
X547290D1*
X810706D2*
X1947301D1*
X2210698D2*
X2342597D1*
X415408Y578285D2*
X538836D1*
X819160D2*
X1938845D1*
X2219154D2*
X2342597D1*
X415408Y569416D2*
X532138D1*
X825858D2*
X1932130D1*
X2225867D2*
X2342597D1*
X415408Y560547D2*
X526794D1*
X831219D2*
X1926786D1*
X2231211D2*
X2342597D1*
X415408Y551678D2*
X522576D1*
X835438D2*
X1922568D1*
X2235430D2*
X2342597D1*
X415408Y542810D2*
X519324D1*
X838672D2*
X1919333D1*
X2238664D2*
X2342597D1*
X415408Y533941D2*
X516986D1*
X841028D2*
X1916978D1*
X2241020D2*
X2342597D1*
X415408Y525072D2*
X515457D1*
X842539D2*
X1915449D1*
X2242550D2*
X2342597D1*
X415408Y516203D2*
X514718D1*
X843278D2*
X1914710D1*
X2243287D2*
X2342597D1*
X415408Y507335D2*
X514753D1*
X843260D2*
X1914745D1*
X2243252D2*
X2342597D1*
X415408Y498466D2*
X515545D1*
X842451D2*
X1915554D1*
X2242444D2*
X2342597D1*
X415408Y489597D2*
X517144D1*
X840852D2*
X1917154D1*
X2240844D2*
X2342597D1*
X415408Y480728D2*
X519570D1*
X838427D2*
X1919580D1*
X2238436D2*
X2342597D1*
X415408Y471860D2*
X522892D1*
X835104D2*
X1922885D1*
X2235114D2*
X2342597D1*
X415408Y462991D2*
X527198D1*
X830798D2*
X1927190D1*
X2230807D2*
X2342597D1*
X415408Y454122D2*
X532648D1*
X825348D2*
X1932657D1*
X2225340D2*
X2342597D1*
X415408Y445253D2*
X539486D1*
X818510D2*
X1939496D1*
X2218503D2*
X2342597D1*
X415408Y436385D2*
X548134D1*
X809879D2*
X1948126D1*
X2209871D2*
X2342597D1*
X415408Y427516D2*
X559349D1*
X798647D2*
X1959358D1*
X2198639D2*
X2342597D1*
X415408Y418647D2*
X575222D1*
X782774D2*
X1975214D1*
X2182783D2*
X2342597D1*
X1452762Y4364503D2*
X1452352Y4360022D1*
X1451669Y4355575D1*
X1450718Y4351177D1*
X1449500Y4346846D1*
X1448021Y4342597D1*
X1446287Y4338445D1*
X1444303Y4334407D1*
X1442076Y4330497D1*
X1439617Y4326730D1*
X1436932Y4323119D1*
X1434033Y4319678D1*
X1430929Y4316421D1*
X1427633Y4313358D1*
X1424156Y4310503D1*
X1420513Y4307862D1*
X1416715Y4305450D1*
X1412778Y4303272D1*
X1408715Y4301339D1*
X1404543Y4299655D1*
X1400276Y4298230D1*
X1395929Y4297066D1*
X1391520Y4296169D1*
X1387064Y4295542D1*
X1382580Y4295188D1*
X1378081Y4295106D1*
X1373585Y4295299D1*
X1369110Y4295765D1*
X1364672Y4296503D1*
X1360287Y4297509D1*
X1355971Y4298781D1*
X1351740Y4300312D1*
X1347610Y4302098D1*
X1343597Y4304133D1*
X1339715Y4306407D1*
X1335979Y4308913D1*
X1332403Y4311643D1*
X1328999Y4314585D1*
X1325780Y4317730D1*
X1322759Y4321063D1*
X1319945Y4324575D1*
X1317350Y4328251D1*
X1314986Y4332077D1*
X1312857Y4336042D1*
X1310974Y4340129D1*
X1309343Y4344322D1*
X1307970Y4348606D1*
X1306861Y4352967D1*
X1306018Y4357387D1*
X1305448Y4361849D1*
X1305148Y4366339D1*
X1305123Y4370839D1*
X1305373Y4375331D1*
X1305894Y4379799D1*
X1306686Y4384228D1*
X1307748Y4388601D1*
X1309072Y4392900D1*
X1310656Y4397112D1*
X1312493Y4401219D1*
X1314577Y4405206D1*
X1316900Y4409060D1*
X1319454Y4412765D1*
X1322227Y4416307D1*
X1325211Y4419675D1*
X1328395Y4422854D1*
X1331766Y4425833D1*
X1335312Y4428602D1*
X1339021Y4431151D1*
X1342877Y4433469D1*
X1346867Y4435547D1*
X1350976Y4437379D1*
X1355190Y4438958D1*
X1359491Y4440278D1*
X1363865Y4441333D1*
X1368295Y4442119D1*
X1372765Y4442636D1*
X1377257Y4442879D1*
X1381757Y4442848D1*
X1386245Y4442543D1*
X1390707Y4441966D1*
X1395126Y4441118D1*
X1399486Y4440003D1*
X1403769Y4438625D1*
X1407959Y4436988D1*
X1412043Y4435100D1*
X1416005Y4432967D1*
X1419829Y4430596D1*
X1423501Y4427997D1*
X1427009Y4425180D1*
X1430340Y4422154D1*
X1433479Y4418932D1*
X1436417Y4415524D1*
X1439142Y4411942D1*
X1441643Y4408203D1*
X1443913Y4404319D1*
X1445942Y4400303D1*
X1447723Y4396171D1*
X1449249Y4391938D1*
X1450514Y4387621D1*
X1451516Y4383234D1*
X1452248Y4378794D1*
X1452707Y4374319D1*
X1452899Y4369000D1*
X1452762Y4364503D1*
Y4164503D2*
X1452352Y4160022D1*
X1451669Y4155575D1*
X1450718Y4151177D1*
X1449500Y4146846D1*
X1448021Y4142597D1*
X1446287Y4138445D1*
X1444303Y4134407D1*
X1442076Y4130497D1*
X1439617Y4126730D1*
X1436932Y4123119D1*
X1434033Y4119678D1*
X1430929Y4116421D1*
X1427633Y4113358D1*
X1424156Y4110503D1*
X1420513Y4107862D1*
X1416715Y4105450D1*
X1412778Y4103272D1*
X1408715Y4101339D1*
X1404543Y4099655D1*
X1400276Y4098230D1*
X1395929Y4097066D1*
X1391520Y4096169D1*
X1387064Y4095542D1*
X1382580Y4095188D1*
X1378081Y4095106D1*
X1373585Y4095299D1*
X1369110Y4095765D1*
X1364672Y4096503D1*
X1360287Y4097509D1*
X1355971Y4098781D1*
X1351740Y4100312D1*
X1347610Y4102098D1*
X1343597Y4104133D1*
X1339715Y4106407D1*
X1335979Y4108913D1*
X1332403Y4111643D1*
X1328999Y4114585D1*
X1325780Y4117730D1*
X1322759Y4121063D1*
X1319945Y4124575D1*
X1317350Y4128251D1*
X1314986Y4132077D1*
X1312857Y4136042D1*
X1310974Y4140129D1*
X1309343Y4144322D1*
X1307970Y4148606D1*
X1306861Y4152967D1*
X1306018Y4157387D1*
X1305448Y4161849D1*
X1305148Y4166339D1*
X1305123Y4170839D1*
X1305373Y4175331D1*
X1305894Y4179799D1*
X1306686Y4184228D1*
X1307748Y4188601D1*
X1309072Y4192900D1*
X1310656Y4197112D1*
X1312493Y4201219D1*
X1314577Y4205206D1*
X1316900Y4209060D1*
X1319454Y4212765D1*
X1322227Y4216307D1*
X1325211Y4219675D1*
X1328395Y4222854D1*
X1331766Y4225833D1*
X1335312Y4228602D1*
X1339021Y4231151D1*
X1342877Y4233469D1*
X1346867Y4235547D1*
X1350976Y4237379D1*
X1355190Y4238958D1*
X1359491Y4240278D1*
X1363865Y4241333D1*
X1368295Y4242119D1*
X1372765Y4242636D1*
X1377257Y4242879D1*
X1381757Y4242848D1*
X1386245Y4242543D1*
X1390707Y4241966D1*
X1395126Y4241118D1*
X1399486Y4240003D1*
X1403769Y4238625D1*
X1407959Y4236988D1*
X1412043Y4235100D1*
X1416005Y4232967D1*
X1419829Y4230596D1*
X1423501Y4227997D1*
X1427009Y4225180D1*
X1430340Y4222154D1*
X1433479Y4218932D1*
X1436417Y4215524D1*
X1439142Y4211942D1*
X1441643Y4208203D1*
X1443913Y4204319D1*
X1445942Y4200303D1*
X1447723Y4196171D1*
X1449249Y4191938D1*
X1450514Y4187621D1*
X1451516Y4183234D1*
X1452248Y4178794D1*
X1452707Y4174319D1*
X1452899Y4169000D1*
X1452762Y4164503D1*
X1052762Y4952003D2*
X1052352Y4947522D1*
X1051669Y4943075D1*
X1050718Y4938677D1*
X1049500Y4934346D1*
X1048021Y4930097D1*
X1046287Y4925945D1*
X1044303Y4921907D1*
X1042076Y4917997D1*
X1039617Y4914230D1*
X1036932Y4910619D1*
X1034033Y4907178D1*
X1030929Y4903921D1*
X1027633Y4900858D1*
X1024156Y4898003D1*
X1020513Y4895362D1*
X1016715Y4892950D1*
X1012778Y4890772D1*
X1008715Y4888839D1*
X1004543Y4887155D1*
X1000276Y4885730D1*
X995929Y4884566D1*
X991520Y4883669D1*
X987064Y4883042D1*
X982580Y4882688D1*
X978081Y4882606D1*
X973585Y4882799D1*
X969110Y4883265D1*
X964672Y4884003D1*
X960287Y4885009D1*
X955971Y4886281D1*
X951740Y4887812D1*
X947610Y4889598D1*
X943597Y4891633D1*
X939715Y4893907D1*
X935979Y4896413D1*
X932403Y4899143D1*
X928999Y4902085D1*
X925780Y4905230D1*
X922759Y4908563D1*
X919945Y4912075D1*
X917350Y4915751D1*
X914986Y4919577D1*
X912857Y4923542D1*
X910974Y4927629D1*
X909343Y4931822D1*
X907970Y4936106D1*
X906861Y4940467D1*
X906018Y4944887D1*
X905448Y4949349D1*
X905148Y4953839D1*
X905123Y4958339D1*
X905373Y4962831D1*
X905894Y4967299D1*
X906686Y4971728D1*
X907748Y4976101D1*
X909072Y4980400D1*
X910656Y4984612D1*
X912493Y4988719D1*
X914577Y4992706D1*
X916900Y4996560D1*
X919454Y5000265D1*
X922227Y5003807D1*
X925211Y5007175D1*
X928395Y5010354D1*
X931766Y5013333D1*
X935312Y5016102D1*
X939021Y5018651D1*
X942877Y5020969D1*
X946867Y5023047D1*
X950976Y5024879D1*
X955190Y5026458D1*
X959491Y5027778D1*
X963865Y5028833D1*
X968295Y5029619D1*
X972765Y5030136D1*
X977257Y5030379D1*
X981757Y5030348D1*
X986245Y5030043D1*
X990707Y5029466D1*
X995126Y5028618D1*
X999486Y5027503D1*
X1003769Y5026125D1*
X1007959Y5024488D1*
X1012043Y5022600D1*
X1016005Y5020467D1*
X1019829Y5018096D1*
X1023501Y5015497D1*
X1027009Y5012680D1*
X1030340Y5009654D1*
X1033479Y5006432D1*
X1036417Y5003024D1*
X1039142Y4999442D1*
X1041643Y4995703D1*
X1043913Y4991819D1*
X1045942Y4987803D1*
X1047723Y4983671D1*
X1049249Y4979438D1*
X1050514Y4975121D1*
X1051516Y4970734D1*
X1052248Y4966294D1*
X1052707Y4961819D1*
X1052899Y4956500D1*
X1052762Y4952003D1*
X1346316Y4864501D2*
X1345693Y4855525D1*
X1344450Y4846613D1*
X1342593Y4837808D1*
X1340131Y4829154D1*
X1337076Y4820689D1*
X1333441Y4812458D1*
X1329247Y4804497D1*
X1324510Y4796846D1*
X1319256Y4789542D1*
X1313508Y4782618D1*
X1307295Y4776109D1*
X1300646Y4770046D1*
X1293593Y4764458D1*
X1286171Y4759371D1*
X1278413Y4754811D1*
X1270360Y4750799D1*
X1262047Y4747354D1*
X1253516Y4744492D1*
X1244807Y4742228D1*
X1235963Y4740572D1*
X1227025Y4739533D1*
X1218037Y4739115D1*
X1209041Y4739320D1*
X1200080Y4740148D1*
X1191199Y4741594D1*
X1182440Y4743651D1*
X1173843Y4746310D1*
X1165451Y4749558D1*
X1157304Y4753379D1*
X1149442Y4757755D1*
X1141902Y4762664D1*
X1134718Y4768084D1*
X1127928Y4773988D1*
X1121563Y4780348D1*
X1115652Y4787133D1*
X1110227Y4794311D1*
X1105311Y4801848D1*
X1100929Y4809707D1*
X1097101Y4817850D1*
X1093846Y4826240D1*
X1091180Y4834833D1*
X1089115Y4843592D1*
X1087663Y4852472D1*
X1086827Y4861432D1*
X1086614Y4870427D1*
X1087025Y4879416D1*
X1088056Y4888354D1*
X1089705Y4897201D1*
X1091961Y4905911D1*
X1094815Y4914445D1*
X1098253Y4922760D1*
X1102260Y4930818D1*
X1106814Y4938579D1*
X1111894Y4946005D1*
X1117475Y4953063D1*
X1123533Y4959717D1*
X1130037Y4965936D1*
X1136955Y4971689D1*
X1144255Y4976949D1*
X1151902Y4981692D1*
X1159860Y4985894D1*
X1168088Y4989534D1*
X1176549Y4992597D1*
X1185201Y4995067D1*
X1194004Y4996930D1*
X1202915Y4998181D1*
X1211891Y4998812D1*
X1220890Y4998819D1*
X1229866Y4998205D1*
X1238780Y4996969D1*
X1247585Y4995119D1*
X1256243Y4992664D1*
X1264709Y4989617D1*
X1272944Y4985990D1*
X1280908Y4981801D1*
X1288563Y4977071D1*
X1295871Y4971823D1*
X1302799Y4966081D1*
X1309314Y4959874D1*
X1315382Y4953230D1*
X1320976Y4946181D1*
X1326070Y4938764D1*
X1330636Y4931010D1*
X1334656Y4922959D1*
X1338108Y4914650D1*
X1340976Y4906121D1*
X1343248Y4897415D1*
X1344911Y4888571D1*
X1345958Y4879634D1*
X1346383Y4870646D1*
X1346316Y4864501D1*
X1852762Y4952003D2*
X1852352Y4947522D1*
X1851669Y4943075D1*
X1850718Y4938677D1*
X1849500Y4934346D1*
X1848021Y4930097D1*
X1846287Y4925945D1*
X1844303Y4921907D1*
X1842076Y4917997D1*
X1839617Y4914230D1*
X1836932Y4910619D1*
X1834033Y4907178D1*
X1830929Y4903921D1*
X1827633Y4900858D1*
X1824156Y4898003D1*
X1820513Y4895362D1*
X1816715Y4892950D1*
X1812778Y4890772D1*
X1808715Y4888839D1*
X1804543Y4887155D1*
X1800276Y4885730D1*
X1795929Y4884566D1*
X1791520Y4883669D1*
X1787064Y4883042D1*
X1782580Y4882688D1*
X1778081Y4882606D1*
X1773585Y4882799D1*
X1769110Y4883265D1*
X1764672Y4884003D1*
X1760287Y4885009D1*
X1755971Y4886281D1*
X1751740Y4887812D1*
X1747610Y4889598D1*
X1743597Y4891633D1*
X1739715Y4893907D1*
X1735979Y4896413D1*
X1732403Y4899143D1*
X1728999Y4902085D1*
X1725780Y4905230D1*
X1722759Y4908563D1*
X1719945Y4912075D1*
X1717350Y4915751D1*
X1714986Y4919577D1*
X1712857Y4923542D1*
X1710974Y4927629D1*
X1709343Y4931822D1*
X1707970Y4936106D1*
X1706861Y4940467D1*
X1706018Y4944887D1*
X1705448Y4949349D1*
X1705148Y4953839D1*
X1705123Y4958339D1*
X1705373Y4962831D1*
X1705894Y4967299D1*
X1706686Y4971728D1*
X1707748Y4976101D1*
X1709072Y4980400D1*
X1710656Y4984612D1*
X1712493Y4988719D1*
X1714577Y4992706D1*
X1716900Y4996560D1*
X1719454Y5000265D1*
X1722227Y5003807D1*
X1725211Y5007175D1*
X1728395Y5010354D1*
X1731766Y5013333D1*
X1735312Y5016102D1*
X1739021Y5018651D1*
X1742877Y5020969D1*
X1746867Y5023047D1*
X1750976Y5024879D1*
X1755190Y5026458D1*
X1759491Y5027778D1*
X1763865Y5028833D1*
X1768295Y5029619D1*
X1772765Y5030136D1*
X1777257Y5030379D1*
X1781757Y5030348D1*
X1786245Y5030043D1*
X1790707Y5029466D1*
X1795126Y5028618D1*
X1799486Y5027503D1*
X1803769Y5026125D1*
X1807959Y5024488D1*
X1812043Y5022600D1*
X1816005Y5020467D1*
X1819829Y5018096D1*
X1823501Y5015497D1*
X1827009Y5012680D1*
X1830340Y5009654D1*
X1833479Y5006432D1*
X1836417Y5003024D1*
X1839142Y4999442D1*
X1841643Y4995703D1*
X1843913Y4991819D1*
X1845942Y4987803D1*
X1847723Y4983671D1*
X1849249Y4979438D1*
X1850514Y4975121D1*
X1851516Y4970734D1*
X1852248Y4966294D1*
X1852707Y4961819D1*
X1852899Y4956500D1*
X1852762Y4952003D1*
X1671316Y4864501D2*
X1670693Y4855525D1*
X1669450Y4846613D1*
X1667593Y4837808D1*
X1665131Y4829154D1*
X1662076Y4820689D1*
X1658441Y4812458D1*
X1654247Y4804497D1*
X1649510Y4796846D1*
X1644256Y4789542D1*
X1638508Y4782618D1*
X1632295Y4776109D1*
X1625646Y4770046D1*
X1618593Y4764458D1*
X1611171Y4759371D1*
X1603413Y4754811D1*
X1595360Y4750799D1*
X1587047Y4747354D1*
X1578516Y4744492D1*
X1569807Y4742228D1*
X1560963Y4740572D1*
X1552025Y4739533D1*
X1543037Y4739115D1*
X1534041Y4739320D1*
X1525080Y4740148D1*
X1516199Y4741594D1*
X1507440Y4743651D1*
X1498843Y4746310D1*
X1490451Y4749558D1*
X1482304Y4753379D1*
X1474442Y4757755D1*
X1466902Y4762664D1*
X1459718Y4768084D1*
X1452928Y4773988D1*
X1446563Y4780348D1*
X1440652Y4787133D1*
X1435227Y4794311D1*
X1430311Y4801848D1*
X1425929Y4809707D1*
X1422101Y4817850D1*
X1418846Y4826240D1*
X1416180Y4834833D1*
X1414115Y4843592D1*
X1412663Y4852472D1*
X1411827Y4861432D1*
X1411614Y4870427D1*
X1412025Y4879416D1*
X1413056Y4888354D1*
X1414705Y4897201D1*
X1416961Y4905911D1*
X1419815Y4914445D1*
X1423253Y4922760D1*
X1427260Y4930818D1*
X1431814Y4938579D1*
X1436894Y4946005D1*
X1442475Y4953063D1*
X1448533Y4959717D1*
X1455037Y4965936D1*
X1461955Y4971689D1*
X1469255Y4976949D1*
X1476902Y4981692D1*
X1484860Y4985894D1*
X1493088Y4989534D1*
X1501549Y4992597D1*
X1510201Y4995067D1*
X1519004Y4996930D1*
X1527915Y4998181D1*
X1536891Y4998812D1*
X1545890Y4998819D1*
X1554866Y4998205D1*
X1563780Y4996969D1*
X1572585Y4995119D1*
X1581243Y4992664D1*
X1589709Y4989617D1*
X1597944Y4985990D1*
X1605908Y4981801D1*
X1613563Y4977071D1*
X1620871Y4971823D1*
X1627799Y4966081D1*
X1634314Y4959874D1*
X1640382Y4953230D1*
X1645976Y4946181D1*
X1651070Y4938764D1*
X1655636Y4931010D1*
X1659656Y4922959D1*
X1663108Y4914650D1*
X1665976Y4906121D1*
X1668248Y4897415D1*
X1669911Y4888571D1*
X1670958Y4879634D1*
X1671383Y4870646D1*
X1671316Y4864501D1*
X1815302Y989500D2*
X1814836Y980513D1*
X1813906Y971563D1*
X1812514Y962672D1*
X1810664Y953865D1*
X1808361Y945167D1*
X1805610Y936597D1*
X1802420Y928182D1*
X1798799Y919945D1*
X1794757Y911904D1*
X1790303Y904085D1*
X1785451Y896505D1*
X1780215Y889188D1*
X1774605Y882151D1*
X1768640Y875413D1*
X1762333Y868993D1*
X1755703Y862909D1*
X1748768Y857176D1*
X1741545Y851808D1*
X1734052Y846823D1*
X1726314Y842231D1*
X1718346Y838046D1*
X1710175Y834278D1*
X1701818Y830938D1*
X1693301Y828035D1*
X1684643Y825577D1*
X1675871Y823571D1*
X1667007Y822021D1*
X1658073Y820932D1*
X1649096Y820306D1*
X1640098Y820146D1*
X1631105Y820451D1*
X1622139Y821222D1*
X1613224Y822454D1*
X1604386Y824147D1*
X1595647Y826295D1*
X1587031Y828892D1*
X1578562Y831932D1*
X1570260Y835406D1*
X1562150Y839304D1*
X1554251Y843617D1*
X1546587Y848333D1*
X1539177Y853440D1*
X1532041Y858923D1*
X1525198Y864766D1*
X1518667Y870958D1*
X1512465Y877479D1*
X1506609Y884311D1*
X1501114Y891437D1*
X1495995Y898839D1*
X1491266Y906495D1*
X1486940Y914386D1*
X1483028Y922490D1*
X1479539Y930786D1*
X1476486Y939251D1*
X1473874Y947862D1*
X1471711Y956597D1*
X1470003Y965433D1*
X1468755Y974345D1*
X1467969Y983310D1*
X1467648Y992303D1*
X1467794Y1001301D1*
X1468404Y1010278D1*
X1469478Y1019214D1*
X1471013Y1028080D1*
X1473005Y1036857D1*
X1475448Y1045517D1*
X1478336Y1054041D1*
X1481661Y1062403D1*
X1485415Y1070581D1*
X1489587Y1078555D1*
X1494165Y1086302D1*
X1499138Y1093802D1*
X1504493Y1101034D1*
X1510215Y1107980D1*
X1516289Y1114621D1*
X1522697Y1120938D1*
X1529424Y1126915D1*
X1536451Y1132535D1*
X1543761Y1137786D1*
X1551332Y1142651D1*
X1559144Y1147117D1*
X1567177Y1151173D1*
X1575409Y1154808D1*
X1583819Y1158013D1*
X1592382Y1160777D1*
X1601077Y1163096D1*
X1609881Y1164961D1*
X1618769Y1166367D1*
X1627719Y1167312D1*
X1636705Y1167794D1*
X1645703Y1167810D1*
X1654692Y1167358D1*
X1663644Y1166444D1*
X1672537Y1165067D1*
X1681346Y1163232D1*
X1690050Y1160944D1*
X1698623Y1158209D1*
X1707043Y1155033D1*
X1715287Y1151425D1*
X1723335Y1147396D1*
X1731161Y1142957D1*
X1738749Y1138118D1*
X1746076Y1132892D1*
X1753122Y1127295D1*
X1759870Y1121341D1*
X1766301Y1115046D1*
X1772396Y1108427D1*
X1778142Y1101500D1*
X1783521Y1094286D1*
X1788520Y1086803D1*
X1793125Y1079072D1*
X1797324Y1071113D1*
X1801105Y1062946D1*
X1804458Y1054596D1*
X1807375Y1046083D1*
X1809848Y1037429D1*
X1811870Y1028661D1*
X1813436Y1019799D1*
X1814539Y1010867D1*
X1815181Y1001892D1*
X1815360Y994000D1*
X1815302Y989500D1*
X815302D2*
X814836Y980513D1*
X813906Y971563D1*
X812514Y962672D1*
X810664Y953865D1*
X808361Y945167D1*
X805610Y936597D1*
X802420Y928182D1*
X798799Y919945D1*
X794757Y911904D1*
X790303Y904085D1*
X785451Y896505D1*
X780215Y889188D1*
X774605Y882151D1*
X768640Y875413D1*
X762333Y868993D1*
X755703Y862909D1*
X748768Y857176D1*
X741545Y851808D1*
X734052Y846823D1*
X726314Y842231D1*
X718346Y838046D1*
X710175Y834278D1*
X701818Y830938D1*
X693301Y828035D1*
X684643Y825577D1*
X675871Y823571D1*
X667007Y822021D1*
X658073Y820932D1*
X649096Y820306D1*
X640098Y820146D1*
X631105Y820451D1*
X622139Y821222D1*
X613224Y822454D1*
X604386Y824147D1*
X595647Y826295D1*
X587031Y828892D1*
X578562Y831932D1*
X570260Y835406D1*
X562150Y839304D1*
X554251Y843617D1*
X546587Y848333D1*
X539177Y853440D1*
X532041Y858923D1*
X525198Y864766D1*
X518667Y870958D1*
X512465Y877479D1*
X506609Y884311D1*
X501114Y891437D1*
X495995Y898839D1*
X491266Y906495D1*
X486940Y914386D1*
X483028Y922490D1*
X479539Y930786D1*
X476486Y939251D1*
X473874Y947862D1*
X471711Y956597D1*
X470003Y965433D1*
X468755Y974345D1*
X467969Y983310D1*
X467648Y992303D1*
X467794Y1001301D1*
X468404Y1010278D1*
X469478Y1019214D1*
X471013Y1028080D1*
X473005Y1036857D1*
X475448Y1045517D1*
X478336Y1054041D1*
X481661Y1062403D1*
X485415Y1070581D1*
X489587Y1078555D1*
X494165Y1086302D1*
X499138Y1093802D1*
X504493Y1101034D1*
X510215Y1107980D1*
X516289Y1114621D1*
X522697Y1120938D1*
X529424Y1126915D1*
X536451Y1132535D1*
X543761Y1137786D1*
X551332Y1142651D1*
X559144Y1147117D1*
X567177Y1151173D1*
X575409Y1154808D1*
X583819Y1158013D1*
X592382Y1160777D1*
X601077Y1163096D1*
X609881Y1164961D1*
X618769Y1166367D1*
X627719Y1167312D1*
X636705Y1167794D1*
X645703Y1167810D1*
X654692Y1167358D1*
X663644Y1166444D1*
X672537Y1165067D1*
X681346Y1163232D1*
X690050Y1160944D1*
X698623Y1158209D1*
X707043Y1155033D1*
X715287Y1151425D1*
X723335Y1147396D1*
X731161Y1142957D1*
X738749Y1138118D1*
X746076Y1132892D1*
X753122Y1127295D1*
X759870Y1121341D1*
X766301Y1115046D1*
X772396Y1108427D1*
X778142Y1101500D1*
X783521Y1094286D1*
X788520Y1086803D1*
X793125Y1079072D1*
X797324Y1071113D1*
X801105Y1062946D1*
X804458Y1054596D1*
X807375Y1046083D1*
X809848Y1037429D1*
X811870Y1028661D1*
X813436Y1019799D1*
X814539Y1010867D1*
X815181Y1001892D1*
X815360Y994000D1*
X815302Y989500D1*
X1290302D2*
X1289836Y980513D1*
X1288906Y971563D1*
X1287514Y962672D1*
X1285664Y953865D1*
X1283361Y945167D1*
X1280610Y936597D1*
X1277420Y928182D1*
X1273799Y919945D1*
X1269757Y911904D1*
X1265303Y904085D1*
X1260451Y896505D1*
X1255215Y889188D1*
X1249605Y882151D1*
X1243640Y875413D1*
X1237333Y868993D1*
X1230703Y862909D1*
X1223768Y857176D1*
X1216545Y851808D1*
X1209052Y846823D1*
X1201314Y842231D1*
X1193346Y838046D1*
X1185175Y834278D1*
X1176818Y830938D1*
X1168301Y828035D1*
X1159643Y825577D1*
X1150871Y823571D1*
X1142007Y822021D1*
X1133073Y820932D1*
X1124096Y820306D1*
X1115098Y820146D1*
X1106105Y820451D1*
X1097139Y821222D1*
X1088224Y822454D1*
X1079386Y824147D1*
X1070647Y826295D1*
X1062031Y828892D1*
X1053562Y831932D1*
X1045260Y835406D1*
X1037150Y839304D1*
X1029251Y843617D1*
X1021587Y848333D1*
X1014177Y853440D1*
X1007041Y858923D1*
X1000198Y864766D1*
X993667Y870958D1*
X987465Y877479D1*
X981609Y884311D1*
X976114Y891437D1*
X970995Y898839D1*
X966266Y906495D1*
X961940Y914386D1*
X958028Y922490D1*
X954539Y930786D1*
X951486Y939251D1*
X948874Y947862D1*
X946711Y956597D1*
X945003Y965433D1*
X943755Y974345D1*
X942969Y983310D1*
X942648Y992303D1*
X942794Y1001301D1*
X943404Y1010278D1*
X944478Y1019214D1*
X946013Y1028080D1*
X948005Y1036857D1*
X950448Y1045517D1*
X953336Y1054041D1*
X956661Y1062403D1*
X960415Y1070581D1*
X964587Y1078555D1*
X969165Y1086302D1*
X974138Y1093802D1*
X979493Y1101034D1*
X985215Y1107980D1*
X991289Y1114621D1*
X997697Y1120938D1*
X1004424Y1126915D1*
X1011451Y1132535D1*
X1018761Y1137786D1*
X1026332Y1142651D1*
X1034144Y1147117D1*
X1042177Y1151173D1*
X1050409Y1154808D1*
X1058819Y1158013D1*
X1067382Y1160777D1*
X1076077Y1163096D1*
X1084881Y1164961D1*
X1093769Y1166367D1*
X1102719Y1167312D1*
X1111705Y1167794D1*
X1120703Y1167810D1*
X1129692Y1167358D1*
X1138644Y1166444D1*
X1147537Y1165067D1*
X1156346Y1163232D1*
X1165050Y1160944D1*
X1173623Y1158209D1*
X1182043Y1155033D1*
X1190287Y1151425D1*
X1198335Y1147396D1*
X1206161Y1142957D1*
X1213749Y1138118D1*
X1221076Y1132892D1*
X1228122Y1127295D1*
X1234870Y1121341D1*
X1241301Y1115046D1*
X1247396Y1108427D1*
X1253142Y1101500D1*
X1258521Y1094286D1*
X1263520Y1086803D1*
X1268125Y1079072D1*
X1272324Y1071113D1*
X1276105Y1062946D1*
X1279458Y1054596D1*
X1282375Y1046083D1*
X1284848Y1037429D1*
X1286870Y1028661D1*
X1288436Y1019799D1*
X1289539Y1010867D1*
X1290181Y1001892D1*
X1290360Y994000D1*
X1290302Y989500D1*
X2022335Y614592D2*
X2144522Y614493D1*
X2153484Y613703D1*
X2162343Y612131D1*
X2171030Y609787D1*
X2179476Y606690D1*
X2187619Y602864D1*
X2195395Y598339D1*
X2202744Y593147D1*
X2209609Y587332D1*
X2215937Y580936D1*
X2221680Y574010D1*
X2226793Y566608D1*
X2231236Y558783D1*
X2234976Y550601D1*
X2237984Y542121D1*
X2240236Y533411D1*
X2241715Y524535D1*
X2242409Y515566D1*
X2242314Y506570D1*
X2241430Y497615D1*
X2239764Y488774D1*
X2237328Y480113D1*
X2234142Y471698D1*
X2230230Y463597D1*
X2225622Y455869D1*
X2220353Y448576D1*
X2214466Y441773D1*
X2208004Y435513D1*
X2201017Y429844D1*
X2193560Y424810D1*
X2185690Y420449D1*
X2177469Y416795D1*
X2170917Y414501D1*
X2343500D1*
Y5429488D1*
X2171476Y5429500D1*
X2179476Y5426541D1*
X2187619Y5422714D1*
X2195395Y5418189D1*
X2202744Y5412997D1*
X2209609Y5407182D1*
X2215937Y5400786D1*
X2221680Y5393861D1*
X2226793Y5386458D1*
X2231236Y5378634D1*
X2234976Y5370451D1*
X2237984Y5361971D1*
X2240236Y5353261D1*
X2241715Y5344386D1*
X2242409Y5335416D1*
X2242314Y5326420D1*
X2241430Y5317466D1*
X2239764Y5308625D1*
X2237328Y5299963D1*
X2234142Y5291550D1*
X2230230Y5283448D1*
X2225622Y5275719D1*
X2220353Y5268427D1*
X2214466Y5261623D1*
X2208004Y5255364D1*
X2201017Y5249694D1*
X2193560Y5244660D1*
X2185690Y5240299D1*
X2177469Y5236646D1*
X2168958Y5233728D1*
X2160223Y5231568D1*
X2151333Y5230184D1*
X2142357Y5229584D1*
X2017976Y5229558D1*
X2008988Y5229953D1*
X2000068Y5231135D1*
X1991287Y5233094D1*
X1982713Y5235818D1*
X1974409Y5239283D1*
X1966442Y5243463D1*
X1958873Y5248327D1*
X1951760Y5253835D1*
X1945156Y5259946D1*
X1939115Y5266613D1*
X1933682Y5273785D1*
X1928899Y5281406D1*
X1924803Y5289416D1*
X1921427Y5297756D1*
X1918794Y5306358D1*
X1916928Y5315160D1*
X1915840Y5324092D1*
X1915539Y5333083D1*
X1916029Y5342067D1*
X1917306Y5350974D1*
X1919360Y5359732D1*
X1922173Y5368278D1*
X1925726Y5376545D1*
X1929990Y5384467D1*
X1934932Y5391984D1*
X1940516Y5399039D1*
X1946697Y5405577D1*
X1953428Y5411549D1*
X1960656Y5416906D1*
X1968327Y5421608D1*
X1976381Y5425618D1*
X1984755Y5428907D1*
X1986614Y5429499D1*
X771449Y5429500D1*
X779476Y5426541D1*
X787619Y5422714D1*
X795395Y5418189D1*
X802744Y5412997D1*
X809609Y5407182D1*
X815937Y5400786D1*
X821680Y5393861D1*
X826793Y5386458D1*
X831236Y5378634D1*
X834976Y5370451D1*
X837984Y5361971D1*
X840236Y5353261D1*
X841715Y5344386D1*
X842409Y5335416D1*
X842314Y5326420D1*
X841430Y5317466D1*
X839764Y5308625D1*
X837328Y5299963D1*
X834142Y5291550D1*
X830230Y5283448D1*
X825622Y5275719D1*
X820353Y5268427D1*
X814466Y5261623D1*
X808004Y5255364D1*
X801017Y5249694D1*
X793560Y5244660D1*
X785690Y5240299D1*
X777469Y5236646D1*
X768958Y5233728D1*
X760223Y5231568D1*
X751333Y5230184D1*
X742357Y5229584D1*
X617976Y5229558D1*
X608988Y5229953D1*
X600068Y5231135D1*
X591287Y5233094D1*
X582713Y5235818D1*
X574409Y5239283D1*
X566442Y5243463D1*
X558873Y5248327D1*
X551760Y5253835D1*
X545156Y5259946D1*
X539115Y5266613D1*
X533682Y5273785D1*
X528899Y5281406D1*
X524803Y5289416D1*
X521427Y5297756D1*
X518794Y5306360D1*
X516928Y5315160D1*
X515840Y5324092D1*
X515539Y5333084D1*
X516029Y5342067D1*
X517306Y5350974D1*
X519360Y5359732D1*
X522173Y5368278D1*
X525726Y5376545D1*
X529990Y5384467D1*
X534932Y5391984D1*
X540516Y5399039D1*
X546697Y5405577D1*
X553428Y5411549D1*
X560656Y5416906D1*
X568327Y5421608D1*
X576381Y5425618D1*
X584755Y5428907D1*
X586614Y5429499D1*
X414500D1*
Y414512D1*
X586970D1*
X578524Y417609D1*
X570381Y421436D1*
X562605Y425961D1*
X555256Y431152D1*
X548391Y436967D1*
X542063Y443364D1*
X536320Y450289D1*
X531207Y457692D1*
X526764Y465516D1*
X523024Y473698D1*
X520016Y482178D1*
X517764Y490888D1*
X516285Y499764D1*
X515591Y508734D1*
X515686Y517730D1*
X516570Y526684D1*
X518236Y535525D1*
X520672Y544186D1*
X523858Y552601D1*
X527770Y560702D1*
X532378Y568430D1*
X537647Y575723D1*
X543534Y582526D1*
X549996Y588786D1*
X556983Y594455D1*
X564440Y599490D1*
X572310Y603850D1*
X580531Y607504D1*
X589042Y610421D1*
X597777Y612581D1*
X606667Y613966D1*
X615643Y614566D1*
X740024Y614592D1*
X749012Y614197D1*
X757932Y613014D1*
X766713Y611055D1*
X775287Y608332D1*
X783591Y604866D1*
X791558Y600686D1*
X799127Y595823D1*
X806240Y590315D1*
X812844Y584203D1*
X818885Y577537D1*
X824318Y570365D1*
X829101Y562744D1*
X833197Y554734D1*
X836573Y546394D1*
X839206Y537790D1*
X841072Y528990D1*
X842160Y520058D1*
X842461Y511066D1*
X841970Y502083D1*
X840694Y493176D1*
X838640Y484416D1*
X835827Y475871D1*
X832274Y467605D1*
X828010Y459682D1*
X823068Y452164D1*
X817484Y445110D1*
X811303Y438572D1*
X804572Y432601D1*
X797344Y427244D1*
X789673Y422542D1*
X781619Y418531D1*
X773245Y415243D1*
X770917Y414501D1*
X1986970Y414512D1*
X1978524Y417609D1*
X1970381Y421436D1*
X1962605Y425961D1*
X1955256Y431152D1*
X1948391Y436967D1*
X1942063Y443364D1*
X1936320Y450289D1*
X1931207Y457692D1*
X1926764Y465516D1*
X1923024Y473698D1*
X1920016Y482178D1*
X1917764Y490888D1*
X1916285Y499764D1*
X1915591Y508734D1*
X1915686Y517730D1*
X1916570Y526684D1*
X1918236Y535525D1*
X1920672Y544186D1*
X1923858Y552601D1*
X1927770Y560702D1*
X1932378Y568430D1*
X1937647Y575723D1*
X1943534Y582526D1*
X1949996Y588786D1*
X1956983Y594455D1*
X1964440Y599490D1*
X1972310Y603850D1*
X1980531Y607504D1*
X1989042Y610421D1*
X1997777Y612581D1*
X2006667Y613966D1*
X2015643Y614566D1*
X2022335Y614592D1*
X2290302Y989500D2*
X2289836Y980513D1*
X2288906Y971563D1*
X2287514Y962672D1*
X2285664Y953865D1*
X2283361Y945167D1*
X2280610Y936597D1*
X2277420Y928182D1*
X2273799Y919945D1*
X2269757Y911904D1*
X2265303Y904085D1*
X2260451Y896505D1*
X2255215Y889188D1*
X2249605Y882151D1*
X2243640Y875413D1*
X2237333Y868993D1*
X2230703Y862909D1*
X2223768Y857176D1*
X2216545Y851808D1*
X2209052Y846823D1*
X2201314Y842231D1*
X2193346Y838046D1*
X2185175Y834278D1*
X2176818Y830938D1*
X2168301Y828035D1*
X2159643Y825577D1*
X2150871Y823571D1*
X2142007Y822021D1*
X2133073Y820932D1*
X2124096Y820306D1*
X2115098Y820146D1*
X2106105Y820451D1*
X2097139Y821222D1*
X2088224Y822454D1*
X2079386Y824147D1*
X2070647Y826295D1*
X2062031Y828892D1*
X2053562Y831932D1*
X2045260Y835406D1*
X2037150Y839304D1*
X2029251Y843617D1*
X2021587Y848333D1*
X2014177Y853440D1*
X2007041Y858923D1*
X2000198Y864766D1*
X1993667Y870958D1*
X1987465Y877479D1*
X1981609Y884311D1*
X1976114Y891437D1*
X1970995Y898839D1*
X1966266Y906495D1*
X1961940Y914386D1*
X1958028Y922490D1*
X1954539Y930786D1*
X1951486Y939251D1*
X1948874Y947862D1*
X1946711Y956597D1*
X1945003Y965433D1*
X1943755Y974345D1*
X1942969Y983310D1*
X1942648Y992303D1*
X1942794Y1001301D1*
X1943404Y1010278D1*
X1944478Y1019214D1*
X1946013Y1028080D1*
X1948005Y1036857D1*
X1950448Y1045517D1*
X1953336Y1054041D1*
X1956661Y1062403D1*
X1960415Y1070581D1*
X1964587Y1078555D1*
X1969165Y1086302D1*
X1974138Y1093802D1*
X1979493Y1101034D1*
X1985215Y1107980D1*
X1991289Y1114621D1*
X1997697Y1120938D1*
X2004424Y1126915D1*
X2011451Y1132535D1*
X2018761Y1137786D1*
X2026332Y1142651D1*
X2034144Y1147117D1*
X2042177Y1151173D1*
X2050409Y1154808D1*
X2058819Y1158013D1*
X2067382Y1160777D1*
X2076077Y1163096D1*
X2084881Y1164961D1*
X2093769Y1166367D1*
X2102719Y1167312D1*
X2111705Y1167794D1*
X2120703Y1167810D1*
X2129692Y1167358D1*
X2138644Y1166444D1*
X2147537Y1165067D1*
X2156346Y1163232D1*
X2165050Y1160944D1*
X2173623Y1158209D1*
X2182043Y1155033D1*
X2190287Y1151425D1*
X2198335Y1147396D1*
X2206161Y1142957D1*
X2213749Y1138118D1*
X2221076Y1132892D1*
X2228122Y1127295D1*
X2234870Y1121341D1*
X2241301Y1115046D1*
X2247396Y1108427D1*
X2253142Y1101500D1*
X2258521Y1094286D1*
X2263520Y1086803D1*
X2268125Y1079072D1*
X2272324Y1071113D1*
X2276105Y1062946D1*
X2279458Y1054596D1*
X2282375Y1046083D1*
X2284848Y1037429D1*
X2286870Y1028661D1*
X2288436Y1019799D1*
X2289539Y1010867D1*
X2290181Y1001892D1*
X2290360Y994000D1*
X2290302Y989500D1*
X815302Y1389500D2*
X814836Y1380513D1*
X813906Y1371563D1*
X812514Y1362672D1*
X810664Y1353865D1*
X808361Y1345167D1*
X805610Y1336597D1*
X802420Y1328182D1*
X798799Y1319945D1*
X794757Y1311904D1*
X790303Y1304085D1*
X785451Y1296505D1*
X780215Y1289188D1*
X774605Y1282151D1*
X768640Y1275413D1*
X762333Y1268993D1*
X755703Y1262909D1*
X748768Y1257176D1*
X741545Y1251808D1*
X734052Y1246823D1*
X726314Y1242231D1*
X718346Y1238046D1*
X710175Y1234278D1*
X701818Y1230938D1*
X693301Y1228035D1*
X684643Y1225577D1*
X675871Y1223571D1*
X667007Y1222021D1*
X658073Y1220932D1*
X649096Y1220306D1*
X640098Y1220146D1*
X631105Y1220451D1*
X622139Y1221222D1*
X613224Y1222454D1*
X604386Y1224147D1*
X595647Y1226295D1*
X587031Y1228892D1*
X578562Y1231932D1*
X570260Y1235406D1*
X562150Y1239304D1*
X554251Y1243617D1*
X546587Y1248333D1*
X539177Y1253440D1*
X532041Y1258923D1*
X525198Y1264766D1*
X518667Y1270958D1*
X512465Y1277479D1*
X506609Y1284311D1*
X501114Y1291437D1*
X495995Y1298839D1*
X491266Y1306495D1*
X486940Y1314386D1*
X483028Y1322490D1*
X479539Y1330786D1*
X476486Y1339251D1*
X473874Y1347862D1*
X471711Y1356597D1*
X470003Y1365433D1*
X468755Y1374345D1*
X467969Y1383310D1*
X467648Y1392303D1*
X467794Y1401301D1*
X468404Y1410278D1*
X469478Y1419214D1*
X471013Y1428080D1*
X473005Y1436857D1*
X475448Y1445517D1*
X478336Y1454041D1*
X481661Y1462403D1*
X485415Y1470581D1*
X489587Y1478555D1*
X494165Y1486302D1*
X499138Y1493802D1*
X504493Y1501034D1*
X510215Y1507980D1*
X516289Y1514621D1*
X522697Y1520938D1*
X529424Y1526915D1*
X536451Y1532535D1*
X543761Y1537786D1*
X551332Y1542651D1*
X559144Y1547117D1*
X567177Y1551173D1*
X575409Y1554808D1*
X583819Y1558013D1*
X592382Y1560777D1*
X601077Y1563096D1*
X609881Y1564961D1*
X618769Y1566367D1*
X627719Y1567312D1*
X636705Y1567794D1*
X645703Y1567810D1*
X654692Y1567358D1*
X663644Y1566444D1*
X672537Y1565067D1*
X681346Y1563232D1*
X690050Y1560944D1*
X698623Y1558209D1*
X707043Y1555033D1*
X715287Y1551425D1*
X723335Y1547396D1*
X731161Y1542957D1*
X738749Y1538118D1*
X746076Y1532892D1*
X753122Y1527295D1*
X759870Y1521341D1*
X766301Y1515046D1*
X772396Y1508427D1*
X778142Y1501500D1*
X783521Y1494286D1*
X788520Y1486803D1*
X793125Y1479072D1*
X797324Y1471113D1*
X801105Y1462946D1*
X804458Y1454596D1*
X807375Y1446083D1*
X809848Y1437429D1*
X811870Y1428661D1*
X813436Y1419799D1*
X814539Y1410867D1*
X815181Y1401892D1*
X815360Y1394000D1*
X815302Y1389500D1*
X1290302D2*
X1289836Y1380513D1*
X1288906Y1371563D1*
X1287514Y1362672D1*
X1285664Y1353865D1*
X1283361Y1345167D1*
X1280610Y1336597D1*
X1277420Y1328182D1*
X1273799Y1319945D1*
X1269757Y1311904D1*
X1265303Y1304085D1*
X1260451Y1296505D1*
X1255215Y1289188D1*
X1249605Y1282151D1*
X1243640Y1275413D1*
X1237333Y1268993D1*
X1230703Y1262909D1*
X1223768Y1257176D1*
X1216545Y1251808D1*
X1209052Y1246823D1*
X1201314Y1242231D1*
X1193346Y1238046D1*
X1185175Y1234278D1*
X1176818Y1230938D1*
X1168301Y1228035D1*
X1159643Y1225577D1*
X1150871Y1223571D1*
X1142007Y1222021D1*
X1133073Y1220932D1*
X1124096Y1220306D1*
X1115098Y1220146D1*
X1106105Y1220451D1*
X1097139Y1221222D1*
X1088224Y1222454D1*
X1079386Y1224147D1*
X1070647Y1226295D1*
X1062031Y1228892D1*
X1053562Y1231932D1*
X1045260Y1235406D1*
X1037150Y1239304D1*
X1029251Y1243617D1*
X1021587Y1248333D1*
X1014177Y1253440D1*
X1007041Y1258923D1*
X1000198Y1264766D1*
X993667Y1270958D1*
X987465Y1277479D1*
X981609Y1284311D1*
X976114Y1291437D1*
X970995Y1298839D1*
X966266Y1306495D1*
X961940Y1314386D1*
X958028Y1322490D1*
X954539Y1330786D1*
X951486Y1339251D1*
X948874Y1347862D1*
X946711Y1356597D1*
X945003Y1365433D1*
X943755Y1374345D1*
X942969Y1383310D1*
X942648Y1392303D1*
X942794Y1401301D1*
X943404Y1410278D1*
X944478Y1419214D1*
X946013Y1428080D1*
X948005Y1436857D1*
X950448Y1445517D1*
X953336Y1454041D1*
X956661Y1462403D1*
X960415Y1470581D1*
X964587Y1478555D1*
X969165Y1486302D1*
X974138Y1493802D1*
X979493Y1501034D1*
X985215Y1507980D1*
X991289Y1514621D1*
X997697Y1520938D1*
X1004424Y1526915D1*
X1011451Y1532535D1*
X1018761Y1537786D1*
X1026332Y1542651D1*
X1034144Y1547117D1*
X1042177Y1551173D1*
X1050409Y1554808D1*
X1058819Y1558013D1*
X1067382Y1560777D1*
X1076077Y1563096D1*
X1084881Y1564961D1*
X1093769Y1566367D1*
X1102719Y1567312D1*
X1111705Y1567794D1*
X1120703Y1567810D1*
X1129692Y1567358D1*
X1138644Y1566444D1*
X1147537Y1565067D1*
X1156346Y1563232D1*
X1165050Y1560944D1*
X1173623Y1558209D1*
X1182043Y1555033D1*
X1190287Y1551425D1*
X1198335Y1547396D1*
X1206161Y1542957D1*
X1213749Y1538118D1*
X1221076Y1532892D1*
X1228122Y1527295D1*
X1234870Y1521341D1*
X1241301Y1515046D1*
X1247396Y1508427D1*
X1253142Y1501500D1*
X1258521Y1494286D1*
X1263520Y1486803D1*
X1268125Y1479072D1*
X1272324Y1471113D1*
X1276105Y1462946D1*
X1279458Y1454596D1*
X1282375Y1446083D1*
X1284848Y1437429D1*
X1286870Y1428661D1*
X1288436Y1419799D1*
X1289539Y1410867D1*
X1290181Y1401892D1*
X1290360Y1394000D1*
X1290302Y1389500D1*
X1815302D2*
X1814836Y1380513D1*
X1813906Y1371563D1*
X1812514Y1362672D1*
X1810664Y1353865D1*
X1808361Y1345167D1*
X1805610Y1336597D1*
X1802420Y1328182D1*
X1798799Y1319945D1*
X1794757Y1311904D1*
X1790303Y1304085D1*
X1785451Y1296505D1*
X1780215Y1289188D1*
X1774605Y1282151D1*
X1768640Y1275413D1*
X1762333Y1268993D1*
X1755703Y1262909D1*
X1748768Y1257176D1*
X1741545Y1251808D1*
X1734052Y1246823D1*
X1726314Y1242231D1*
X1718346Y1238046D1*
X1710175Y1234278D1*
X1701818Y1230938D1*
X1693301Y1228035D1*
X1684643Y1225577D1*
X1675871Y1223571D1*
X1667007Y1222021D1*
X1658073Y1220932D1*
X1649096Y1220306D1*
X1640098Y1220146D1*
X1631105Y1220451D1*
X1622139Y1221222D1*
X1613224Y1222454D1*
X1604386Y1224147D1*
X1595647Y1226295D1*
X1587031Y1228892D1*
X1578562Y1231932D1*
X1570260Y1235406D1*
X1562150Y1239304D1*
X1554251Y1243617D1*
X1546587Y1248333D1*
X1539177Y1253440D1*
X1532041Y1258923D1*
X1525198Y1264766D1*
X1518667Y1270958D1*
X1512465Y1277479D1*
X1506609Y1284311D1*
X1501114Y1291437D1*
X1495995Y1298839D1*
X1491266Y1306495D1*
X1486940Y1314386D1*
X1483028Y1322490D1*
X1479539Y1330786D1*
X1476486Y1339251D1*
X1473874Y1347862D1*
X1471711Y1356597D1*
X1470003Y1365433D1*
X1468755Y1374345D1*
X1467969Y1383310D1*
X1467648Y1392303D1*
X1467794Y1401301D1*
X1468404Y1410278D1*
X1469478Y1419214D1*
X1471013Y1428080D1*
X1473005Y1436857D1*
X1475448Y1445517D1*
X1478336Y1454041D1*
X1481661Y1462403D1*
X1485415Y1470581D1*
X1489587Y1478555D1*
X1494165Y1486302D1*
X1499138Y1493802D1*
X1504493Y1501034D1*
X1510215Y1507980D1*
X1516289Y1514621D1*
X1522697Y1520938D1*
X1529424Y1526915D1*
X1536451Y1532535D1*
X1543761Y1537786D1*
X1551332Y1542651D1*
X1559144Y1547117D1*
X1567177Y1551173D1*
X1575409Y1554808D1*
X1583819Y1558013D1*
X1592382Y1560777D1*
X1601077Y1563096D1*
X1609881Y1564961D1*
X1618769Y1566367D1*
X1627719Y1567312D1*
X1636705Y1567794D1*
X1645703Y1567810D1*
X1654692Y1567358D1*
X1663644Y1566444D1*
X1672537Y1565067D1*
X1681346Y1563232D1*
X1690050Y1560944D1*
X1698623Y1558209D1*
X1707043Y1555033D1*
X1715287Y1551425D1*
X1723335Y1547396D1*
X1731161Y1542957D1*
X1738749Y1538118D1*
X1746076Y1532892D1*
X1753122Y1527295D1*
X1759870Y1521341D1*
X1766301Y1515046D1*
X1772396Y1508427D1*
X1778142Y1501500D1*
X1783521Y1494286D1*
X1788520Y1486803D1*
X1793125Y1479072D1*
X1797324Y1471113D1*
X1801105Y1462946D1*
X1804458Y1454596D1*
X1807375Y1446083D1*
X1809848Y1437429D1*
X1811870Y1428661D1*
X1813436Y1419799D1*
X1814539Y1410867D1*
X1815181Y1401892D1*
X1815360Y1394000D1*
X1815302Y1389500D1*
X2290302D2*
X2289836Y1380513D1*
X2288906Y1371563D1*
X2287514Y1362672D1*
X2285664Y1353865D1*
X2283361Y1345167D1*
X2280610Y1336597D1*
X2277420Y1328182D1*
X2273799Y1319945D1*
X2269757Y1311904D1*
X2265303Y1304085D1*
X2260451Y1296505D1*
X2255215Y1289188D1*
X2249605Y1282151D1*
X2243640Y1275413D1*
X2237333Y1268993D1*
X2230703Y1262909D1*
X2223768Y1257176D1*
X2216545Y1251808D1*
X2209052Y1246823D1*
X2201314Y1242231D1*
X2193346Y1238046D1*
X2185175Y1234278D1*
X2176818Y1230938D1*
X2168301Y1228035D1*
X2159643Y1225577D1*
X2150871Y1223571D1*
X2142007Y1222021D1*
X2133073Y1220932D1*
X2124096Y1220306D1*
X2115098Y1220146D1*
X2106105Y1220451D1*
X2097139Y1221222D1*
X2088224Y1222454D1*
X2079386Y1224147D1*
X2070647Y1226295D1*
X2062031Y1228892D1*
X2053562Y1231932D1*
X2045260Y1235406D1*
X2037150Y1239304D1*
X2029251Y1243617D1*
X2021587Y1248333D1*
X2014177Y1253440D1*
X2007041Y1258923D1*
X2000198Y1264766D1*
X1993667Y1270958D1*
X1987465Y1277479D1*
X1981609Y1284311D1*
X1976114Y1291437D1*
X1970995Y1298839D1*
X1966266Y1306495D1*
X1961940Y1314386D1*
X1958028Y1322490D1*
X1954539Y1330786D1*
X1951486Y1339251D1*
X1948874Y1347862D1*
X1946711Y1356597D1*
X1945003Y1365433D1*
X1943755Y1374345D1*
X1942969Y1383310D1*
X1942648Y1392303D1*
X1942794Y1401301D1*
X1943404Y1410278D1*
X1944478Y1419214D1*
X1946013Y1428080D1*
X1948005Y1436857D1*
X1950448Y1445517D1*
X1953336Y1454041D1*
X1956661Y1462403D1*
X1960415Y1470581D1*
X1964587Y1478555D1*
X1969165Y1486302D1*
X1974138Y1493802D1*
X1979493Y1501034D1*
X1985215Y1507980D1*
X1991289Y1514621D1*
X1997697Y1520938D1*
X2004424Y1526915D1*
X2011451Y1532535D1*
X2018761Y1537786D1*
X2026332Y1542651D1*
X2034144Y1547117D1*
X2042177Y1551173D1*
X2050409Y1554808D1*
X2058819Y1558013D1*
X2067382Y1560777D1*
X2076077Y1563096D1*
X2084881Y1564961D1*
X2093769Y1566367D1*
X2102719Y1567312D1*
X2111705Y1567794D1*
X2120703Y1567810D1*
X2129692Y1567358D1*
X2138644Y1566444D1*
X2147537Y1565067D1*
X2156346Y1563232D1*
X2165050Y1560944D1*
X2173623Y1558209D1*
X2182043Y1555033D1*
X2190287Y1551425D1*
X2198335Y1547396D1*
X2206161Y1542957D1*
X2213749Y1538118D1*
X2221076Y1532892D1*
X2228122Y1527295D1*
X2234870Y1521341D1*
X2241301Y1515046D1*
X2247396Y1508427D1*
X2253142Y1501500D1*
X2258521Y1494286D1*
X2263520Y1486803D1*
X2268125Y1479072D1*
X2272324Y1471113D1*
X2276105Y1462946D1*
X2279458Y1454596D1*
X2282375Y1446083D1*
X2284848Y1437429D1*
X2286870Y1428661D1*
X2288436Y1419799D1*
X2289539Y1410867D1*
X2290181Y1401892D1*
X2290360Y1394000D1*
X2290302Y1389500D1*
X815302Y2283251D2*
X814836Y2274264D1*
X813906Y2265314D1*
X812514Y2256423D1*
X810664Y2247615D1*
X808361Y2238917D1*
X805610Y2230348D1*
X802420Y2221933D1*
X798799Y2213696D1*
X794757Y2205655D1*
X790303Y2197836D1*
X785451Y2190256D1*
X780215Y2182938D1*
X774605Y2175902D1*
X768640Y2169164D1*
X762333Y2162744D1*
X755703Y2156660D1*
X748768Y2150927D1*
X741545Y2145559D1*
X734052Y2140573D1*
X726314Y2135982D1*
X718346Y2131797D1*
X710175Y2128029D1*
X701818Y2124689D1*
X693301Y2121786D1*
X684643Y2119328D1*
X675871Y2117322D1*
X667007Y2115772D1*
X658073Y2114682D1*
X649096Y2114056D1*
X640098Y2113896D1*
X631105Y2114202D1*
X622139Y2114972D1*
X613224Y2116205D1*
X604386Y2117898D1*
X595647Y2120046D1*
X587031Y2122643D1*
X578562Y2125682D1*
X570260Y2129156D1*
X562150Y2133055D1*
X554251Y2137367D1*
X546587Y2142084D1*
X539177Y2147190D1*
X532041Y2152673D1*
X525198Y2158517D1*
X518667Y2164709D1*
X512465Y2171230D1*
X506609Y2178062D1*
X501114Y2185188D1*
X495995Y2192589D1*
X491266Y2200245D1*
X486940Y2208136D1*
X483028Y2216240D1*
X479539Y2224537D1*
X476486Y2233001D1*
X473874Y2241613D1*
X471711Y2250348D1*
X470003Y2259184D1*
X468755Y2268096D1*
X467969Y2277060D1*
X467648Y2286054D1*
X467794Y2295051D1*
X468404Y2304029D1*
X469478Y2312965D1*
X471013Y2321831D1*
X473005Y2330608D1*
X475448Y2339268D1*
X478336Y2347791D1*
X481661Y2356154D1*
X485415Y2364332D1*
X489587Y2372306D1*
X494165Y2380052D1*
X499138Y2387552D1*
X504493Y2394785D1*
X510215Y2401731D1*
X516289Y2408371D1*
X522697Y2414689D1*
X529424Y2420665D1*
X536451Y2426286D1*
X543761Y2431537D1*
X551332Y2436402D1*
X559144Y2440867D1*
X567177Y2444924D1*
X575409Y2448559D1*
X583819Y2451764D1*
X592382Y2454528D1*
X601077Y2456846D1*
X609881Y2458711D1*
X618769Y2460118D1*
X627719Y2461063D1*
X636705Y2461545D1*
X645703Y2461560D1*
X654692Y2461109D1*
X663644Y2460194D1*
X672537Y2458818D1*
X681346Y2456983D1*
X690050Y2454694D1*
X698623Y2451959D1*
X707043Y2448783D1*
X715287Y2445176D1*
X723335Y2441147D1*
X731161Y2436707D1*
X738749Y2431869D1*
X746076Y2426643D1*
X753122Y2421046D1*
X759870Y2415092D1*
X766301Y2408797D1*
X772396Y2402177D1*
X778142Y2395251D1*
X783521Y2388037D1*
X788520Y2380554D1*
X793125Y2372823D1*
X797324Y2364864D1*
X801105Y2356697D1*
X804458Y2348346D1*
X807375Y2339833D1*
X809848Y2331180D1*
X811870Y2322412D1*
X813436Y2313550D1*
X814539Y2304618D1*
X815181Y2295643D1*
X815360Y2287751D1*
X815302Y2283251D1*
X1302802D2*
X1302336Y2274264D1*
X1301406Y2265314D1*
X1300014Y2256423D1*
X1298164Y2247615D1*
X1295861Y2238917D1*
X1293110Y2230348D1*
X1289920Y2221933D1*
X1286299Y2213696D1*
X1282257Y2205655D1*
X1277803Y2197836D1*
X1272951Y2190256D1*
X1267715Y2182938D1*
X1262105Y2175902D1*
X1256140Y2169164D1*
X1249833Y2162744D1*
X1243203Y2156660D1*
X1236268Y2150927D1*
X1229045Y2145559D1*
X1221552Y2140573D1*
X1213814Y2135982D1*
X1205846Y2131797D1*
X1197675Y2128029D1*
X1189318Y2124689D1*
X1180801Y2121786D1*
X1172143Y2119328D1*
X1163371Y2117322D1*
X1154507Y2115772D1*
X1145573Y2114682D1*
X1136596Y2114056D1*
X1127598Y2113896D1*
X1118605Y2114202D1*
X1109639Y2114972D1*
X1100724Y2116205D1*
X1091886Y2117898D1*
X1083147Y2120046D1*
X1074531Y2122643D1*
X1066062Y2125682D1*
X1057760Y2129156D1*
X1049650Y2133055D1*
X1041751Y2137367D1*
X1034087Y2142084D1*
X1026677Y2147190D1*
X1019541Y2152673D1*
X1012698Y2158517D1*
X1006167Y2164709D1*
X999965Y2171230D1*
X994109Y2178062D1*
X988614Y2185188D1*
X983495Y2192589D1*
X978766Y2200245D1*
X974440Y2208136D1*
X970528Y2216240D1*
X967039Y2224537D1*
X963986Y2233001D1*
X961374Y2241613D1*
X959211Y2250348D1*
X957503Y2259184D1*
X956255Y2268096D1*
X955469Y2277060D1*
X955148Y2286054D1*
X955294Y2295051D1*
X955904Y2304029D1*
X956978Y2312965D1*
X958513Y2321831D1*
X960505Y2330608D1*
X962948Y2339268D1*
X965836Y2347791D1*
X969161Y2356154D1*
X972915Y2364332D1*
X977087Y2372306D1*
X981665Y2380052D1*
X986638Y2387552D1*
X991993Y2394785D1*
X997715Y2401731D1*
X1003789Y2408371D1*
X1010197Y2414689D1*
X1016924Y2420665D1*
X1023951Y2426286D1*
X1031261Y2431537D1*
X1038832Y2436402D1*
X1046644Y2440867D1*
X1054677Y2444924D1*
X1062909Y2448559D1*
X1071319Y2451764D1*
X1079882Y2454528D1*
X1088577Y2456846D1*
X1097381Y2458711D1*
X1106269Y2460118D1*
X1115219Y2461063D1*
X1124205Y2461545D1*
X1133203Y2461560D1*
X1142192Y2461109D1*
X1151144Y2460194D1*
X1160037Y2458818D1*
X1168846Y2456983D1*
X1177550Y2454694D1*
X1186123Y2451959D1*
X1194543Y2448783D1*
X1202787Y2445176D1*
X1210835Y2441147D1*
X1218661Y2436707D1*
X1226249Y2431869D1*
X1233576Y2426643D1*
X1240622Y2421046D1*
X1247370Y2415092D1*
X1253801Y2408797D1*
X1259896Y2402177D1*
X1265642Y2395251D1*
X1271021Y2388037D1*
X1276020Y2380554D1*
X1280625Y2372823D1*
X1284824Y2364864D1*
X1288605Y2356697D1*
X1291958Y2348346D1*
X1294875Y2339833D1*
X1297348Y2331180D1*
X1299370Y2322412D1*
X1300936Y2313550D1*
X1302039Y2304618D1*
X1302681Y2295643D1*
X1302860Y2287751D1*
X1302802Y2283251D1*
X1802802D2*
X1802336Y2274264D1*
X1801406Y2265314D1*
X1800014Y2256423D1*
X1798164Y2247615D1*
X1795861Y2238917D1*
X1793110Y2230348D1*
X1789920Y2221933D1*
X1786299Y2213696D1*
X1782257Y2205655D1*
X1777803Y2197836D1*
X1772951Y2190256D1*
X1767715Y2182938D1*
X1762105Y2175902D1*
X1756140Y2169164D1*
X1749833Y2162744D1*
X1743203Y2156660D1*
X1736268Y2150927D1*
X1729045Y2145559D1*
X1721552Y2140573D1*
X1713814Y2135982D1*
X1705846Y2131797D1*
X1697675Y2128029D1*
X1689318Y2124689D1*
X1680801Y2121786D1*
X1672143Y2119328D1*
X1663371Y2117322D1*
X1654507Y2115772D1*
X1645573Y2114682D1*
X1636596Y2114056D1*
X1627598Y2113896D1*
X1618605Y2114202D1*
X1609639Y2114972D1*
X1600724Y2116205D1*
X1591886Y2117898D1*
X1583147Y2120046D1*
X1574531Y2122643D1*
X1566062Y2125682D1*
X1557760Y2129156D1*
X1549650Y2133055D1*
X1541751Y2137367D1*
X1534087Y2142084D1*
X1526677Y2147190D1*
X1519541Y2152673D1*
X1512698Y2158517D1*
X1506167Y2164709D1*
X1499965Y2171230D1*
X1494109Y2178062D1*
X1488614Y2185188D1*
X1483495Y2192589D1*
X1478766Y2200245D1*
X1474440Y2208136D1*
X1470528Y2216240D1*
X1467039Y2224537D1*
X1463986Y2233001D1*
X1461374Y2241613D1*
X1459211Y2250348D1*
X1457503Y2259184D1*
X1456255Y2268096D1*
X1455469Y2277060D1*
X1455148Y2286054D1*
X1455294Y2295051D1*
X1455904Y2304029D1*
X1456978Y2312965D1*
X1458513Y2321831D1*
X1460505Y2330608D1*
X1462948Y2339268D1*
X1465836Y2347791D1*
X1469161Y2356154D1*
X1472915Y2364332D1*
X1477087Y2372306D1*
X1481665Y2380052D1*
X1486638Y2387552D1*
X1491993Y2394785D1*
X1497715Y2401731D1*
X1503789Y2408371D1*
X1510197Y2414689D1*
X1516924Y2420665D1*
X1523951Y2426286D1*
X1531261Y2431537D1*
X1538832Y2436402D1*
X1546644Y2440867D1*
X1554677Y2444924D1*
X1562909Y2448559D1*
X1571319Y2451764D1*
X1579882Y2454528D1*
X1588577Y2456846D1*
X1597381Y2458711D1*
X1606269Y2460118D1*
X1615219Y2461063D1*
X1624205Y2461545D1*
X1633203Y2461560D1*
X1642192Y2461109D1*
X1651144Y2460194D1*
X1660037Y2458818D1*
X1668846Y2456983D1*
X1677550Y2454694D1*
X1686123Y2451959D1*
X1694543Y2448783D1*
X1702787Y2445176D1*
X1710835Y2441147D1*
X1718661Y2436707D1*
X1726249Y2431869D1*
X1733576Y2426643D1*
X1740622Y2421046D1*
X1747370Y2415092D1*
X1753801Y2408797D1*
X1759896Y2402177D1*
X1765642Y2395251D1*
X1771021Y2388037D1*
X1776020Y2380554D1*
X1780625Y2372823D1*
X1784824Y2364864D1*
X1788605Y2356697D1*
X1791958Y2348346D1*
X1794875Y2339833D1*
X1797348Y2331180D1*
X1799370Y2322412D1*
X1800936Y2313550D1*
X1802039Y2304618D1*
X1802681Y2295643D1*
X1802860Y2287751D1*
X1802802Y2283251D1*
X2290302D2*
X2289836Y2274264D1*
X2288906Y2265314D1*
X2287514Y2256423D1*
X2285664Y2247615D1*
X2283361Y2238917D1*
X2280610Y2230348D1*
X2277420Y2221933D1*
X2273799Y2213696D1*
X2269757Y2205655D1*
X2265303Y2197836D1*
X2260451Y2190256D1*
X2255215Y2182938D1*
X2249605Y2175902D1*
X2243640Y2169164D1*
X2237333Y2162744D1*
X2230703Y2156660D1*
X2223768Y2150927D1*
X2216545Y2145559D1*
X2209052Y2140573D1*
X2201314Y2135982D1*
X2193346Y2131797D1*
X2185175Y2128029D1*
X2176818Y2124689D1*
X2168301Y2121786D1*
X2159643Y2119328D1*
X2150871Y2117322D1*
X2142007Y2115772D1*
X2133073Y2114682D1*
X2124096Y2114056D1*
X2115098Y2113896D1*
X2106105Y2114202D1*
X2097139Y2114972D1*
X2088224Y2116205D1*
X2079386Y2117898D1*
X2070647Y2120046D1*
X2062031Y2122643D1*
X2053562Y2125682D1*
X2045260Y2129156D1*
X2037150Y2133055D1*
X2029251Y2137367D1*
X2021587Y2142084D1*
X2014177Y2147190D1*
X2007041Y2152673D1*
X2000198Y2158517D1*
X1993667Y2164709D1*
X1987465Y2171230D1*
X1981609Y2178062D1*
X1976114Y2185188D1*
X1970995Y2192589D1*
X1966266Y2200245D1*
X1961940Y2208136D1*
X1958028Y2216240D1*
X1954539Y2224537D1*
X1951486Y2233001D1*
X1948874Y2241613D1*
X1946711Y2250348D1*
X1945003Y2259184D1*
X1943755Y2268096D1*
X1942969Y2277060D1*
X1942648Y2286054D1*
X1942794Y2295051D1*
X1943404Y2304029D1*
X1944478Y2312965D1*
X1946013Y2321831D1*
X1948005Y2330608D1*
X1950448Y2339268D1*
X1953336Y2347791D1*
X1956661Y2356154D1*
X1960415Y2364332D1*
X1964587Y2372306D1*
X1969165Y2380052D1*
X1974138Y2387552D1*
X1979493Y2394785D1*
X1985215Y2401731D1*
X1991289Y2408371D1*
X1997697Y2414689D1*
X2004424Y2420665D1*
X2011451Y2426286D1*
X2018761Y2431537D1*
X2026332Y2436402D1*
X2034144Y2440867D1*
X2042177Y2444924D1*
X2050409Y2448559D1*
X2058819Y2451764D1*
X2067382Y2454528D1*
X2076077Y2456846D1*
X2084881Y2458711D1*
X2093769Y2460118D1*
X2102719Y2461063D1*
X2111705Y2461545D1*
X2120703Y2461560D1*
X2129692Y2461109D1*
X2138644Y2460194D1*
X2147537Y2458818D1*
X2156346Y2456983D1*
X2165050Y2454694D1*
X2173623Y2451959D1*
X2182043Y2448783D1*
X2190287Y2445176D1*
X2198335Y2441147D1*
X2206161Y2436707D1*
X2213749Y2431869D1*
X2221076Y2426643D1*
X2228122Y2421046D1*
X2234870Y2415092D1*
X2241301Y2408797D1*
X2247396Y2402177D1*
X2253142Y2395251D1*
X2258521Y2388037D1*
X2263520Y2380554D1*
X2268125Y2372823D1*
X2272324Y2364864D1*
X2276105Y2356697D1*
X2279458Y2348346D1*
X2282375Y2339833D1*
X2284848Y2331180D1*
X2286870Y2322412D1*
X2288436Y2313550D1*
X2289539Y2304618D1*
X2290181Y2295643D1*
X2290360Y2287751D1*
X2290302Y2283251D1*
X827802Y4839500D2*
X827336Y4830513D1*
X826406Y4821563D1*
X825014Y4812672D1*
X823164Y4803865D1*
X820861Y4795167D1*
X818110Y4786597D1*
X814920Y4778182D1*
X811299Y4769945D1*
X807257Y4761904D1*
X802803Y4754085D1*
X797951Y4746505D1*
X792715Y4739188D1*
X787105Y4732151D1*
X781140Y4725413D1*
X774833Y4718993D1*
X768203Y4712909D1*
X761268Y4707176D1*
X754045Y4701808D1*
X746552Y4696823D1*
X738814Y4692231D1*
X730846Y4688046D1*
X722675Y4684278D1*
X714318Y4680938D1*
X705801Y4678035D1*
X697143Y4675577D1*
X688371Y4673571D1*
X679507Y4672021D1*
X670573Y4670932D1*
X661596Y4670306D1*
X652598Y4670146D1*
X643605Y4670451D1*
X634639Y4671222D1*
X625724Y4672454D1*
X616886Y4674147D1*
X608147Y4676295D1*
X599531Y4678892D1*
X591062Y4681932D1*
X582760Y4685406D1*
X574650Y4689304D1*
X566751Y4693617D1*
X559087Y4698333D1*
X551677Y4703440D1*
X544541Y4708923D1*
X537698Y4714766D1*
X531167Y4720958D1*
X524965Y4727479D1*
X519109Y4734311D1*
X513614Y4741437D1*
X508495Y4748839D1*
X503766Y4756495D1*
X499440Y4764386D1*
X495528Y4772490D1*
X492039Y4780786D1*
X488986Y4789251D1*
X486374Y4797862D1*
X484211Y4806597D1*
X482503Y4815433D1*
X481255Y4824345D1*
X480469Y4833310D1*
X480148Y4842303D1*
X480294Y4851301D1*
X480904Y4860278D1*
X481978Y4869214D1*
X483513Y4878080D1*
X485505Y4886857D1*
X487948Y4895517D1*
X490836Y4904041D1*
X494161Y4912403D1*
X497915Y4920581D1*
X502087Y4928555D1*
X506665Y4936302D1*
X511638Y4943802D1*
X516993Y4951034D1*
X522715Y4957980D1*
X528789Y4964621D1*
X535197Y4970938D1*
X541924Y4976915D1*
X548951Y4982535D1*
X556261Y4987786D1*
X563832Y4992651D1*
X571644Y4997117D1*
X579677Y5001173D1*
X587909Y5004808D1*
X596319Y5008013D1*
X604882Y5010777D1*
X613577Y5013096D1*
X622381Y5014961D1*
X631269Y5016367D1*
X640219Y5017312D1*
X649205Y5017794D1*
X658203Y5017810D1*
X667192Y5017358D1*
X676144Y5016444D1*
X685037Y5015067D1*
X693846Y5013232D1*
X702550Y5010944D1*
X711123Y5008209D1*
X719543Y5005033D1*
X727787Y5001425D1*
X735835Y4997396D1*
X743661Y4992957D1*
X751249Y4988118D1*
X758576Y4982892D1*
X765622Y4977295D1*
X772370Y4971341D1*
X778801Y4965046D1*
X784896Y4958427D1*
X790642Y4951500D1*
X796021Y4944286D1*
X801020Y4936803D1*
X805625Y4929072D1*
X809824Y4921113D1*
X813605Y4912946D1*
X816958Y4904596D1*
X819875Y4896083D1*
X822348Y4887429D1*
X824370Y4878661D1*
X825936Y4869799D1*
X827039Y4860867D1*
X827681Y4851892D1*
X827860Y4844000D1*
X827802Y4839500D1*
X2277802D2*
X2277336Y4830513D1*
X2276406Y4821563D1*
X2275014Y4812672D1*
X2273164Y4803865D1*
X2270861Y4795167D1*
X2268110Y4786597D1*
X2264920Y4778182D1*
X2261299Y4769945D1*
X2257257Y4761904D1*
X2252803Y4754085D1*
X2247951Y4746505D1*
X2242715Y4739188D1*
X2237105Y4732151D1*
X2231140Y4725413D1*
X2224833Y4718993D1*
X2218203Y4712909D1*
X2211268Y4707176D1*
X2204045Y4701808D1*
X2196552Y4696823D1*
X2188814Y4692231D1*
X2180846Y4688046D1*
X2172675Y4684278D1*
X2164318Y4680938D1*
X2155801Y4678035D1*
X2147143Y4675577D1*
X2138371Y4673571D1*
X2129507Y4672021D1*
X2120573Y4670932D1*
X2111596Y4670306D1*
X2102598Y4670146D1*
X2093605Y4670451D1*
X2084639Y4671222D1*
X2075724Y4672454D1*
X2066886Y4674147D1*
X2058147Y4676295D1*
X2049531Y4678892D1*
X2041062Y4681932D1*
X2032760Y4685406D1*
X2024650Y4689304D1*
X2016751Y4693617D1*
X2009087Y4698333D1*
X2001677Y4703440D1*
X1994541Y4708923D1*
X1987698Y4714766D1*
X1981167Y4720958D1*
X1974965Y4727479D1*
X1969109Y4734311D1*
X1963614Y4741437D1*
X1958495Y4748839D1*
X1953766Y4756495D1*
X1949440Y4764386D1*
X1945528Y4772490D1*
X1942039Y4780786D1*
X1938986Y4789251D1*
X1936374Y4797862D1*
X1934211Y4806597D1*
X1932503Y4815433D1*
X1931255Y4824345D1*
X1930469Y4833310D1*
X1930148Y4842303D1*
X1930294Y4851301D1*
X1930904Y4860278D1*
X1931978Y4869214D1*
X1933513Y4878080D1*
X1935505Y4886857D1*
X1937948Y4895517D1*
X1940836Y4904041D1*
X1944161Y4912403D1*
X1947915Y4920581D1*
X1952087Y4928555D1*
X1956665Y4936302D1*
X1961638Y4943802D1*
X1966993Y4951034D1*
X1972715Y4957980D1*
X1978789Y4964621D1*
X1985197Y4970938D1*
X1991924Y4976915D1*
X1998951Y4982535D1*
X2006261Y4987786D1*
X2013832Y4992651D1*
X2021644Y4997117D1*
X2029677Y5001173D1*
X2037909Y5004808D1*
X2046319Y5008013D1*
X2054882Y5010777D1*
X2063577Y5013096D1*
X2072381Y5014961D1*
X2081269Y5016367D1*
X2090219Y5017312D1*
X2099205Y5017794D1*
X2108203Y5017810D1*
X2117192Y5017358D1*
X2126144Y5016444D1*
X2135037Y5015067D1*
X2143846Y5013232D1*
X2152550Y5010944D1*
X2161123Y5008209D1*
X2169543Y5005033D1*
X2177787Y5001425D1*
X2185835Y4997396D1*
X2193661Y4992957D1*
X2201249Y4988118D1*
X2208576Y4982892D1*
X2215622Y4977295D1*
X2222370Y4971341D1*
X2228801Y4965046D1*
X2234896Y4958427D1*
X2240642Y4951500D1*
X2246021Y4944286D1*
X2251020Y4936803D1*
X2255625Y4929072D1*
X2259824Y4921113D1*
X2263605Y4912946D1*
X2266958Y4904596D1*
X2269875Y4896083D1*
X2272348Y4887429D1*
X2274370Y4878661D1*
X2275936Y4869799D1*
X2277039Y4860867D1*
X2277681Y4851892D1*
X2277860Y4844000D1*
X2277802Y4839500D1*
X1452762Y3089501D2*
X1452352Y3085021D1*
X1451669Y3080573D1*
X1450718Y3076176D1*
X1449500Y3071845D1*
X1448021Y3067596D1*
X1446287Y3063444D1*
X1444303Y3059406D1*
X1442076Y3055496D1*
X1439617Y3051728D1*
X1436932Y3048118D1*
X1434033Y3044677D1*
X1430929Y3041420D1*
X1427633Y3038357D1*
X1424156Y3035501D1*
X1420513Y3032861D1*
X1416715Y3030449D1*
X1412778Y3028270D1*
X1408715Y3026337D1*
X1404543Y3024654D1*
X1400276Y3023228D1*
X1395929Y3022064D1*
X1391520Y3021168D1*
X1387064Y3020541D1*
X1382580Y3020186D1*
X1378081Y3020105D1*
X1373585Y3020298D1*
X1369110Y3020764D1*
X1364672Y3021501D1*
X1360287Y3022508D1*
X1355971Y3023780D1*
X1351740Y3025311D1*
X1347610Y3027097D1*
X1343597Y3029131D1*
X1339715Y3031406D1*
X1335979Y3033912D1*
X1332403Y3036642D1*
X1328999Y3039584D1*
X1325780Y3042728D1*
X1322759Y3046062D1*
X1319945Y3049573D1*
X1317350Y3053249D1*
X1314986Y3057076D1*
X1312857Y3061041D1*
X1310974Y3065127D1*
X1309343Y3069320D1*
X1307970Y3073605D1*
X1306861Y3077966D1*
X1306018Y3082386D1*
X1305448Y3086848D1*
X1305148Y3091337D1*
X1305123Y3095837D1*
X1305373Y3100329D1*
X1305894Y3104798D1*
X1306686Y3109227D1*
X1307748Y3113600D1*
X1309072Y3117899D1*
X1310656Y3122110D1*
X1312493Y3126218D1*
X1314577Y3130205D1*
X1316900Y3134059D1*
X1319454Y3137764D1*
X1322227Y3141306D1*
X1325211Y3144673D1*
X1328395Y3147853D1*
X1331766Y3150832D1*
X1335312Y3153601D1*
X1339021Y3156150D1*
X1342877Y3158467D1*
X1346867Y3160546D1*
X1350976Y3162378D1*
X1355190Y3163957D1*
X1359491Y3165277D1*
X1363865Y3166332D1*
X1368295Y3167118D1*
X1372765Y3167635D1*
X1377257Y3167878D1*
X1381757Y3167846D1*
X1386245Y3167542D1*
X1390707Y3166965D1*
X1395126Y3166117D1*
X1399486Y3165001D1*
X1403769Y3163623D1*
X1407959Y3161987D1*
X1412043Y3160098D1*
X1416005Y3157966D1*
X1419829Y3155594D1*
X1423501Y3152996D1*
X1427009Y3150178D1*
X1430340Y3147152D1*
X1433479Y3143930D1*
X1436417Y3140522D1*
X1439142Y3136941D1*
X1441643Y3133202D1*
X1443913Y3129318D1*
X1445942Y3125302D1*
X1447723Y3121169D1*
X1449249Y3116937D1*
X1450514Y3112619D1*
X1451516Y3108232D1*
X1452248Y3103793D1*
X1452707Y3099318D1*
X1452899Y3093999D1*
X1452762Y3089501D1*
X1508816Y3427001D2*
X1508193Y3418025D1*
X1506950Y3409113D1*
X1505093Y3400308D1*
X1502631Y3391654D1*
X1499576Y3383189D1*
X1495941Y3374958D1*
X1491747Y3366997D1*
X1487010Y3359346D1*
X1481756Y3352042D1*
X1476008Y3345118D1*
X1469795Y3338609D1*
X1463146Y3332546D1*
X1456093Y3326958D1*
X1448671Y3321871D1*
X1440913Y3317311D1*
X1432860Y3313299D1*
X1424547Y3309854D1*
X1416016Y3306992D1*
X1407307Y3304728D1*
X1398463Y3303072D1*
X1389525Y3302033D1*
X1380537Y3301615D1*
X1371541Y3301820D1*
X1362580Y3302648D1*
X1353699Y3304094D1*
X1344940Y3306151D1*
X1336343Y3308810D1*
X1327951Y3312058D1*
X1319804Y3315879D1*
X1311942Y3320255D1*
X1304402Y3325164D1*
X1297218Y3330584D1*
X1290428Y3336488D1*
X1284063Y3342848D1*
X1278152Y3349633D1*
X1272727Y3356811D1*
X1267811Y3364348D1*
X1263429Y3372207D1*
X1259601Y3380350D1*
X1256346Y3388740D1*
X1253680Y3397333D1*
X1251615Y3406092D1*
X1250163Y3414972D1*
X1249327Y3423932D1*
X1249114Y3432927D1*
X1249525Y3441916D1*
X1250556Y3450854D1*
X1252205Y3459701D1*
X1254461Y3468411D1*
X1257315Y3476945D1*
X1260753Y3485260D1*
X1264760Y3493318D1*
X1269314Y3501079D1*
X1274394Y3508505D1*
X1279975Y3515563D1*
X1286033Y3522217D1*
X1292537Y3528436D1*
X1299455Y3534189D1*
X1306755Y3539449D1*
X1314402Y3544192D1*
X1322360Y3548394D1*
X1330588Y3552034D1*
X1339049Y3555097D1*
X1347701Y3557567D1*
X1356504Y3559430D1*
X1365415Y3560681D1*
X1374391Y3561312D1*
X1383390Y3561319D1*
X1392366Y3560705D1*
X1401280Y3559469D1*
X1410085Y3557619D1*
X1418743Y3555164D1*
X1427209Y3552117D1*
X1435444Y3548490D1*
X1443408Y3544301D1*
X1451063Y3539571D1*
X1458371Y3534323D1*
X1465299Y3528581D1*
X1471814Y3522374D1*
X1477882Y3515730D1*
X1483476Y3508681D1*
X1488570Y3501264D1*
X1493136Y3493510D1*
X1497156Y3485459D1*
X1500608Y3477150D1*
X1503476Y3468621D1*
X1505748Y3459915D1*
X1507411Y3451071D1*
X1508458Y3442134D1*
X1508883Y3433146D1*
X1508816Y3427001D1*
Y2752001D2*
X1508193Y2743025D1*
X1506950Y2734113D1*
X1505093Y2725308D1*
X1502631Y2716654D1*
X1499576Y2708189D1*
X1495941Y2699958D1*
X1491747Y2691997D1*
X1487010Y2684346D1*
X1481756Y2677042D1*
X1476008Y2670118D1*
X1469795Y2663609D1*
X1463146Y2657546D1*
X1456093Y2651958D1*
X1448671Y2646871D1*
X1440913Y2642311D1*
X1432860Y2638299D1*
X1424547Y2634854D1*
X1416016Y2631992D1*
X1407307Y2629728D1*
X1398463Y2628072D1*
X1389525Y2627033D1*
X1380537Y2626615D1*
X1371541Y2626820D1*
X1362580Y2627648D1*
X1353699Y2629094D1*
X1344940Y2631151D1*
X1336343Y2633810D1*
X1327951Y2637058D1*
X1319804Y2640879D1*
X1311942Y2645255D1*
X1304402Y2650164D1*
X1297218Y2655584D1*
X1290428Y2661488D1*
X1284063Y2667848D1*
X1278152Y2674633D1*
X1272727Y2681811D1*
X1267811Y2689348D1*
X1263429Y2697207D1*
X1259601Y2705350D1*
X1256346Y2713740D1*
X1253680Y2722333D1*
X1251615Y2731092D1*
X1250163Y2739972D1*
X1249327Y2748932D1*
X1249114Y2757927D1*
X1249525Y2766916D1*
X1250556Y2775854D1*
X1252205Y2784701D1*
X1254461Y2793411D1*
X1257315Y2801945D1*
X1260753Y2810260D1*
X1264760Y2818318D1*
X1269314Y2826079D1*
X1274394Y2833505D1*
X1279975Y2840563D1*
X1286033Y2847217D1*
X1292537Y2853436D1*
X1299455Y2859189D1*
X1306755Y2864449D1*
X1314402Y2869192D1*
X1322360Y2873394D1*
X1330588Y2877034D1*
X1339049Y2880097D1*
X1347701Y2882567D1*
X1356504Y2884430D1*
X1365415Y2885681D1*
X1374391Y2886312D1*
X1383390Y2886319D1*
X1392366Y2885705D1*
X1401280Y2884469D1*
X1410085Y2882619D1*
X1418743Y2880164D1*
X1427209Y2877117D1*
X1435444Y2873490D1*
X1443408Y2869301D1*
X1451063Y2864571D1*
X1458371Y2859323D1*
X1465299Y2853581D1*
X1471814Y2847374D1*
X1477882Y2840730D1*
X1483476Y2833681D1*
X1488570Y2826264D1*
X1493136Y2818510D1*
X1497156Y2810459D1*
X1500608Y2802150D1*
X1503476Y2793621D1*
X1505748Y2784915D1*
X1507411Y2776071D1*
X1508458Y2767134D1*
X1508883Y2758146D1*
X1508816Y2752001D1*
X1452762Y3964503D2*
X1452352Y3960022D1*
X1451669Y3955575D1*
X1450718Y3951177D1*
X1449500Y3946846D1*
X1448021Y3942597D1*
X1446287Y3938445D1*
X1444303Y3934407D1*
X1442076Y3930497D1*
X1439617Y3926730D1*
X1436932Y3923119D1*
X1434033Y3919678D1*
X1430929Y3916421D1*
X1427633Y3913358D1*
X1424156Y3910503D1*
X1420513Y3907862D1*
X1416715Y3905450D1*
X1412778Y3903272D1*
X1408715Y3901339D1*
X1404543Y3899655D1*
X1400276Y3898230D1*
X1395929Y3897066D1*
X1391520Y3896169D1*
X1387064Y3895542D1*
X1382580Y3895188D1*
X1378081Y3895106D1*
X1373585Y3895299D1*
X1369110Y3895765D1*
X1364672Y3896503D1*
X1360287Y3897509D1*
X1355971Y3898781D1*
X1351740Y3900312D1*
X1347610Y3902098D1*
X1343597Y3904133D1*
X1339715Y3906407D1*
X1335979Y3908913D1*
X1332403Y3911643D1*
X1328999Y3914585D1*
X1325780Y3917730D1*
X1322759Y3921063D1*
X1319945Y3924575D1*
X1317350Y3928251D1*
X1314986Y3932077D1*
X1312857Y3936042D1*
X1310974Y3940129D1*
X1309343Y3944322D1*
X1307970Y3948606D1*
X1306861Y3952967D1*
X1306018Y3957387D1*
X1305448Y3961849D1*
X1305148Y3966339D1*
X1305123Y3970839D1*
X1305373Y3975331D1*
X1305894Y3979799D1*
X1306686Y3984228D1*
X1307748Y3988601D1*
X1309072Y3992900D1*
X1310656Y3997112D1*
X1312493Y4001219D1*
X1314577Y4005206D1*
X1316900Y4009060D1*
X1319454Y4012765D1*
X1322227Y4016307D1*
X1325211Y4019675D1*
X1328395Y4022854D1*
X1331766Y4025833D1*
X1335312Y4028602D1*
X1339021Y4031151D1*
X1342877Y4033469D1*
X1346867Y4035547D1*
X1350976Y4037379D1*
X1355190Y4038958D1*
X1359491Y4040278D1*
X1363865Y4041333D1*
X1368295Y4042119D1*
X1372765Y4042636D1*
X1377257Y4042879D1*
X1381757Y4042848D1*
X1386245Y4042543D1*
X1390707Y4041966D1*
X1395126Y4041118D1*
X1399486Y4040003D1*
X1403769Y4038625D1*
X1407959Y4036988D1*
X1412043Y4035100D1*
X1416005Y4032967D1*
X1419829Y4030596D1*
X1423501Y4027997D1*
X1427009Y4025180D1*
X1430340Y4022154D1*
X1433479Y4018932D1*
X1436417Y4015524D1*
X1439142Y4011942D1*
X1441643Y4008203D1*
X1443913Y4004319D1*
X1445942Y4000303D1*
X1447723Y3996171D1*
X1449249Y3991938D1*
X1450514Y3987621D1*
X1451516Y3983234D1*
X1452248Y3978794D1*
X1452707Y3974319D1*
X1452899Y3969000D1*
X1452762Y3964503D1*
Y3764503D2*
X1452352Y3760022D1*
X1451669Y3755575D1*
X1450718Y3751177D1*
X1449500Y3746846D1*
X1448021Y3742597D1*
X1446287Y3738445D1*
X1444303Y3734407D1*
X1442076Y3730497D1*
X1439617Y3726730D1*
X1436932Y3723119D1*
X1434033Y3719678D1*
X1430929Y3716421D1*
X1427633Y3713358D1*
X1424156Y3710503D1*
X1420513Y3707862D1*
X1416715Y3705450D1*
X1412778Y3703272D1*
X1408715Y3701339D1*
X1404543Y3699655D1*
X1400276Y3698230D1*
X1395929Y3697066D1*
X1391520Y3696169D1*
X1387064Y3695542D1*
X1382580Y3695188D1*
X1378081Y3695106D1*
X1373585Y3695299D1*
X1369110Y3695765D1*
X1364672Y3696503D1*
X1360287Y3697509D1*
X1355971Y3698781D1*
X1351740Y3700312D1*
X1347610Y3702098D1*
X1343597Y3704133D1*
X1339715Y3706407D1*
X1335979Y3708913D1*
X1332403Y3711643D1*
X1328999Y3714585D1*
X1325780Y3717730D1*
X1322759Y3721063D1*
X1319945Y3724575D1*
X1317350Y3728251D1*
X1314986Y3732077D1*
X1312857Y3736042D1*
X1310974Y3740129D1*
X1309343Y3744322D1*
X1307970Y3748606D1*
X1306861Y3752967D1*
X1306018Y3757387D1*
X1305448Y3761849D1*
X1305148Y3766339D1*
X1305123Y3770839D1*
X1305373Y3775331D1*
X1305894Y3779799D1*
X1306686Y3784228D1*
X1307748Y3788601D1*
X1309072Y3792900D1*
X1310656Y3797112D1*
X1312493Y3801219D1*
X1314577Y3805206D1*
X1316900Y3809060D1*
X1319454Y3812765D1*
X1322227Y3816307D1*
X1325211Y3819675D1*
X1328395Y3822854D1*
X1331766Y3825833D1*
X1335312Y3828602D1*
X1339021Y3831151D1*
X1342877Y3833469D1*
X1346867Y3835547D1*
X1350976Y3837379D1*
X1355190Y3838958D1*
X1359491Y3840278D1*
X1363865Y3841333D1*
X1368295Y3842119D1*
X1372765Y3842636D1*
X1377257Y3842879D1*
X1381757Y3842848D1*
X1386245Y3842543D1*
X1390707Y3841966D1*
X1395126Y3841118D1*
X1399486Y3840003D1*
X1403769Y3838625D1*
X1407959Y3836988D1*
X1412043Y3835100D1*
X1416005Y3832967D1*
X1419829Y3830596D1*
X1423501Y3827997D1*
X1427009Y3825180D1*
X1430340Y3822154D1*
X1433479Y3818932D1*
X1436417Y3815524D1*
X1439142Y3811942D1*
X1441643Y3808203D1*
X1443913Y3804319D1*
X1445942Y3800303D1*
X1447723Y3796171D1*
X1449249Y3791938D1*
X1450514Y3787621D1*
X1451516Y3783234D1*
X1452248Y3778794D1*
X1452707Y3774319D1*
X1452899Y3769000D1*
X1452762Y3764503D1*
X529115Y4264675D2*
X630617Y4264614D1*
X633639Y4264136D1*
X636549Y4263190D1*
X639276Y4261801D1*
X641751Y4260003D1*
X643915Y4257839D1*
X645713Y4255364D1*
X647102Y4252636D1*
X648049Y4249727D1*
X648526Y4246705D1*
X648587Y4227184D1*
X648526Y2743802D1*
X648049Y2740780D1*
X647102Y2737870D1*
X645713Y2735143D1*
X643915Y2732668D1*
X641751Y2730504D1*
X639276Y2728706D1*
X636549Y2727316D1*
X633639Y2726370D1*
X630617Y2725892D1*
X611042Y2725832D1*
X527567Y2725892D1*
X524545Y2726370D1*
X521635Y2727316D1*
X518908Y2728706D1*
X516433Y2730504D1*
X514269Y2732668D1*
X512471Y2735143D1*
X511081Y2737870D1*
X510135Y2740780D1*
X509657Y2743802D1*
X509597Y2763323D1*
X509657Y4246705D1*
X510135Y4249727D1*
X511081Y4252636D1*
X512471Y4255364D1*
X514269Y4257839D1*
X516433Y4260003D1*
X518908Y4261801D1*
X521635Y4263190D1*
X524545Y4264136D1*
X527567Y4264614D1*
X529104Y4264675D1*
X953371Y4264222D2*
X1054873Y4264161D1*
X1057895Y4263684D1*
X1060804Y4262738D1*
X1063531Y4261348D1*
X1066007Y4259550D1*
X1068171Y4257386D1*
X1069969Y4254911D1*
X1071358Y4252184D1*
X1072304Y4249274D1*
X1072782Y4246252D1*
X1072843Y4226731D1*
X1072782Y2743349D1*
X1072304Y2740327D1*
X1071358Y2737417D1*
X1069969Y2734690D1*
X1068171Y2732215D1*
X1066007Y2730051D1*
X1063531Y2728253D1*
X1060804Y2726864D1*
X1057895Y2725917D1*
X1054873Y2725440D1*
X1035298Y2725379D1*
X951823Y2725440D1*
X948801Y2725917D1*
X945891Y2726864D1*
X943164Y2728253D1*
X940689Y2730051D1*
X938525Y2732215D1*
X936727Y2734690D1*
X935337Y2737417D1*
X934391Y2740327D1*
X933913Y2743349D1*
X933853Y2762870D1*
X933913Y4246252D1*
X934391Y4249274D1*
X935337Y4252184D1*
X936727Y4254911D1*
X938525Y4257386D1*
X940689Y4259550D1*
X943164Y4261348D1*
X945891Y4262738D1*
X948801Y4263684D1*
X951823Y4264161D1*
X953360Y4264222D1*
X1704117Y4264675D2*
X1805618Y4264614D1*
X1808640Y4264136D1*
X1811550Y4263190D1*
X1814277Y4261801D1*
X1816752Y4260003D1*
X1818916Y4257839D1*
X1820714Y4255364D1*
X1822104Y4252636D1*
X1823050Y4249727D1*
X1823528Y4246705D1*
X1823588Y4227184D1*
X1823528Y2743802D1*
X1823050Y2740780D1*
X1822104Y2737870D1*
X1820714Y2735143D1*
X1818916Y2732668D1*
X1816752Y2730504D1*
X1814277Y2728706D1*
X1811550Y2727316D1*
X1808640Y2726370D1*
X1805618Y2725892D1*
X1786043Y2725832D1*
X1702568Y2725892D1*
X1699546Y2726370D1*
X1696636Y2727316D1*
X1693909Y2728706D1*
X1691434Y2730504D1*
X1689270Y2732668D1*
X1687472Y2735143D1*
X1686083Y2737870D1*
X1685136Y2740780D1*
X1684659Y2743802D1*
X1684598Y2763323D1*
X1684659Y4246705D1*
X1685136Y4249727D1*
X1686083Y4252636D1*
X1687472Y4255364D1*
X1689270Y4257839D1*
X1691434Y4260003D1*
X1693909Y4261801D1*
X1696636Y4263190D1*
X1699546Y4264136D1*
X1702568Y4264614D1*
X1704105Y4264675D1*
X2129117D2*
X2230618Y4264614D1*
X2233640Y4264135D1*
X2236550Y4263190D1*
X2239277Y4261801D1*
X2241752Y4260003D1*
X2243916Y4257839D1*
X2245714Y4255364D1*
X2247104Y4252636D1*
X2248049Y4249727D1*
X2248528Y4246705D1*
X2248588Y4227184D1*
X2248528Y2743802D1*
X2248049Y2740780D1*
X2247104Y2737870D1*
X2245714Y2735143D1*
X2243916Y2732668D1*
X2241752Y2730504D1*
X2239277Y2728706D1*
X2236550Y2727316D1*
X2233640Y2726371D1*
X2230618Y2725892D1*
X2211043Y2725832D1*
X2127568Y2725892D1*
X2124546Y2726371D1*
X2121636Y2727316D1*
X2118909Y2728706D1*
X2116434Y2730504D1*
X2114270Y2732668D1*
X2112472Y2735143D1*
X2111083Y2737870D1*
X2110138Y2740780D1*
X2109659Y2743802D1*
X2109598Y2763323D1*
X2109659Y4246705D1*
X2110138Y4249727D1*
X2111083Y4252636D1*
X2112472Y4255364D1*
X2114270Y4257839D1*
X2116434Y4260003D1*
X2118909Y4261801D1*
X2121636Y4263190D1*
X2124546Y4264135D1*
X2127568Y4264614D1*
X2129105Y4264675D1*
X546361Y1933374D2*
Y1813685D1*
X567202Y1792774D1*
X568803Y1790571D1*
X570039Y1788143D1*
X570882Y1785552D1*
X571308Y1782862D1*
Y1780138D1*
X570882Y1777448D1*
X570039Y1774857D1*
X568803Y1772429D1*
X567202Y1770226D1*
X565276Y1768299D1*
X563072Y1766698D1*
X560644Y1765462D1*
X558054Y1764619D1*
X555364Y1764193D1*
X552639D1*
X549949Y1764619D1*
X547358Y1765462D1*
X544930Y1766698D1*
X542727Y1768299D1*
X522692Y1788260D1*
X515801Y1795226D1*
X514199Y1797429D1*
X512963Y1799857D1*
X512121Y1802448D1*
X511694Y1805138D1*
X511642Y1833375D1*
X511694Y1939112D1*
X512121Y1941802D1*
X512963Y1944392D1*
X514199Y1946820D1*
X515801Y1949024D1*
X517727Y1950950D1*
X519930Y1952551D1*
X522358Y1953787D1*
X524949Y1954630D1*
X527639Y1955056D1*
X530364D1*
X533054Y1954630D1*
X535644Y1953787D1*
X538072Y1952551D1*
X540276Y1950950D1*
X542202Y1949024D1*
X543803Y1946820D1*
X545039Y1944392D1*
X545882Y1941802D1*
X546308Y1939112D1*
X546361Y1933374D1*
D22*
X1641500Y994000D3*
X641500D3*
X654000Y4844000D3*
X2104000D3*
X1116500Y994000D3*
D23*
X2079000Y512150D3*
X679000D3*
Y5332000D3*
X2079000D3*
D22*
X2116500Y994000D3*
X641500Y1394000D3*
X1116500D3*
X1641500D3*
X2116500D3*
X641500Y2287751D3*
X1129000D3*
X1629000D3*
X2116500D3*
M02*
