G04 DipTrace 4.1.1.0*
G04 alps_panel02.GTS*
%MOIN*%
G04 #@! TF.FileFunction,Soldermask,Top*
G04 #@! TF.Part,Single*
%ADD20C,0.013189*%
%ADD24C,0.120079*%
%ADD25C,0.212*%
%ADD30O,0.307213X0.185165*%
%ADD32C,0.328*%
%FSLAX26Y26*%
G04*
G70*
G90*
G75*
G01*
G04 TopMask*
%LPD*%
D24*
X1379000Y4369000D3*
Y4169000D3*
X979000Y4956500D3*
D25*
X1216500Y4869000D3*
D24*
X1379000Y3093999D3*
D25*
Y3431500D3*
Y2756500D3*
D24*
Y3969000D3*
Y3769000D3*
X1779000Y4956500D3*
D25*
X1541500Y4869000D3*
D32*
X1641500Y994000D3*
X641500D3*
X654000Y4844000D3*
X2104000D3*
X1116500Y994000D3*
D30*
X2079000Y512150D3*
X679000D3*
Y5332000D3*
X2079000D3*
D32*
X2116500Y994000D3*
X641500Y1394000D3*
X1116500D3*
X1641500D3*
X2116500D3*
X641500Y2287751D3*
X1129000D3*
X1629000D3*
X2116500D3*
X1583256Y514875D2*
D20*
G02X1583256Y514875I75000J0D01*
G01*
G36*
X629000Y2119000D2*
X654000D1*
Y1569000D1*
X629000D1*
Y2119000D1*
G37*
G36*
X1116500D2*
X1141500D1*
Y1569000D1*
X1116500D1*
Y2119000D1*
G37*
G36*
X1616500D2*
X1641500D1*
Y1569000D1*
X1616500D1*
Y2119000D1*
G37*
G36*
X2104000D2*
X2129000D1*
Y1569000D1*
X2104000D1*
Y2119000D1*
G37*
G36*
X1616500Y2581500D2*
X1641500D1*
Y2456500D1*
X1616500D1*
Y2581500D1*
G37*
G36*
X2104000D2*
X2129000D1*
Y2456500D1*
X2104000D1*
Y2581500D1*
G37*
G36*
X1116500D2*
X1141500D1*
Y2456500D1*
X1116500D1*
Y2581500D1*
G37*
G36*
X629000D2*
X654000D1*
Y2456500D1*
X629000D1*
Y2581500D1*
G37*
G36*
X1163971Y568279D2*
Y476940D1*
X1171321D1*
Y507387D1*
X1173420Y508436D1*
X1175520D1*
X1177620Y507387D1*
X1181819Y503187D1*
Y502137D1*
X1184969Y497938D1*
X1201767Y476940D1*
X1212265D1*
X1209116Y481140D1*
X1204916Y486389D1*
X1201767Y490589D1*
X1197567Y495838D1*
X1191268Y504237D1*
X1187069Y509486D1*
X1184969Y511586D1*
Y512636D1*
X1197567Y525234D1*
X1199667Y526284D1*
X1211216Y537833D1*
X1200717D1*
X1197567Y535733D1*
X1182869Y522085D1*
X1177620Y516835D1*
X1175520Y515786D1*
X1173420D1*
X1171321Y516835D1*
Y568279D1*
X1163971D1*
G37*
G36*
X1320402D2*
Y492688D1*
X1321452Y487439D1*
X1324601Y481140D1*
X1326701Y479040D1*
X1328801Y477990D1*
X1331950Y476940D1*
X1345599D1*
Y482190D1*
X1342449Y483240D1*
X1334050Y485339D1*
X1331950Y486389D1*
X1328801Y489539D1*
Y492688D1*
X1327751Y568279D1*
X1320402D1*
G37*
G36*
X1081032Y561980D2*
Y493738D1*
X1079982Y492688D1*
X1078932Y488489D1*
Y487439D1*
X1076832Y485339D1*
X1074733Y484289D1*
X1070183Y483240D1*
X1065634D1*
X1061084Y484289D1*
X1058985D1*
X1057935Y481140D1*
Y479040D1*
X1062134Y476940D1*
X1067383Y475891D1*
X1073683D1*
X1078932Y476940D1*
X1083132Y479040D1*
X1085231Y481140D1*
X1086281Y483240D1*
X1087331Y486389D1*
X1088381Y491639D1*
Y561980D1*
X1081032D1*
G37*
G36*
X1252160Y553581D2*
Y476940D1*
X1259509D1*
Y512636D1*
X1263709Y513686D1*
X1267908D1*
X1272108Y512636D1*
X1284706Y511586D1*
X1289956D1*
X1295205Y512636D1*
X1299404Y514736D1*
X1303604Y518935D1*
X1304654Y521035D1*
X1305704Y524184D1*
X1306754Y528384D1*
Y546232D1*
X1304654Y552531D1*
X1303604Y554631D1*
X1299404Y558830D1*
X1295205Y560930D1*
X1292055Y561980D1*
X1252160D1*
Y553581D1*
X1259509D1*
X1269658Y554631D1*
X1279807D1*
X1289956Y553581D1*
X1293105Y552531D1*
X1295205Y551481D1*
X1297305Y549381D1*
Y548331D1*
X1298355Y544132D1*
X1299404Y543082D1*
Y530484D1*
X1298355Y529434D1*
X1297305Y525234D1*
Y524184D1*
X1295205Y522085D1*
X1293105Y521035D1*
X1281907Y519985D1*
X1270708D1*
X1259509Y521035D1*
Y553581D1*
X1252160D1*
G37*
G36*
X1103079Y506337D2*
X1102029Y505287D1*
X1100979Y503187D1*
Y486389D1*
X1103079Y482190D1*
X1107279Y477990D1*
X1109378Y476940D1*
X1113578Y475891D1*
X1117777D1*
X1123027Y476940D1*
X1127226Y477990D1*
X1130376Y479040D1*
X1135625Y481140D1*
X1139824Y483240D1*
X1140948Y483866D1*
X1141860Y483799D1*
X1142974Y483240D1*
Y481140D1*
X1144024Y477990D1*
X1145074Y476940D1*
X1150323D1*
Y525234D1*
X1149273Y529434D1*
X1147174Y533633D1*
X1144024Y536783D1*
X1139824Y538883D1*
X1134575Y539933D1*
X1129326D1*
X1115677Y538883D1*
X1108328Y537833D1*
X1104129Y536783D1*
X1103079Y535733D1*
Y530484D1*
X1106229D1*
X1128276Y531534D1*
X1130376Y532583D1*
X1132475D1*
X1134575Y531534D1*
X1138775Y530484D1*
X1141924Y527334D1*
Y525234D1*
X1142974Y524184D1*
Y514736D1*
X1112528Y513686D1*
X1109378Y512636D1*
X1107279Y511586D1*
X1103079Y507387D1*
Y506337D1*
X1129326D1*
X1133875Y507387D1*
X1138425D1*
X1142974Y506337D1*
Y490589D1*
X1133525Y487439D1*
X1125126Y485339D1*
X1120577Y484289D1*
X1116027D1*
X1111478Y485339D1*
X1108328Y488489D1*
Y500038D1*
X1109378Y501087D1*
Y502137D1*
X1111478Y504237D1*
X1114628Y505287D1*
X1129326Y506337D1*
X1103079D1*
G37*
G36*
X1422239Y477990D2*
X1420139Y475891D1*
X1418040Y472741D1*
Y461192D1*
X1419090Y455943D1*
X1421189Y451744D1*
X1425389Y447544D1*
X1427488Y446494D1*
X1430638Y445444D1*
X1460034D1*
X1463184Y446494D1*
X1465284Y447544D1*
X1468433Y450694D1*
X1470533Y454893D1*
X1471583Y459093D1*
Y473791D1*
X1470533Y476940D1*
X1468433Y481140D1*
X1466334Y483240D1*
X1462134Y485339D1*
X1456885Y486389D1*
X1427488Y487439D1*
X1426439Y488489D1*
Y491639D1*
X1428538Y493738D1*
X1455835Y494788D1*
X1458985Y495838D1*
X1462134Y497938D1*
X1464234Y500038D1*
X1467383Y506337D1*
X1468433Y509486D1*
Y524184D1*
X1467383Y527334D1*
X1465284Y529434D1*
Y530484D1*
X1470533Y531534D1*
X1474733Y532583D1*
Y538883D1*
X1435887D1*
X1431688Y537833D1*
X1428538Y536783D1*
X1425389Y534683D1*
X1423289Y532583D1*
X1421189Y529434D1*
X1432738D1*
X1440437Y530484D1*
X1448136D1*
X1455835Y529434D1*
X1457935Y528384D1*
X1458780Y527028D1*
X1458985Y526284D1*
X1460034Y523135D1*
X1461084Y522085D1*
Y510536D1*
X1460034Y509486D1*
X1458985Y507387D1*
X1458639Y506113D1*
X1457935Y505287D1*
X1453735Y503187D1*
X1447086Y502137D1*
X1440437D1*
X1433788Y503187D1*
X1429588Y505287D1*
Y506337D1*
X1428538Y508436D1*
X1427488Y511586D1*
X1426439Y512636D1*
Y521035D1*
X1427488Y522085D1*
X1428538Y525234D1*
Y526284D1*
X1430638Y528384D1*
X1432738Y529434D1*
X1421189D1*
X1420139Y527334D1*
X1419090Y523135D1*
Y510536D1*
X1420139Y506337D1*
X1421189Y504237D1*
X1425389Y500038D1*
X1423289Y498988D1*
X1420139Y495838D1*
X1419090Y493738D1*
Y485339D1*
X1422239Y479040D1*
Y477990D1*
X1426439D1*
X1427562Y478617D1*
X1428474Y478550D1*
X1429588Y477990D1*
X1461084Y476940D1*
X1463184Y474841D1*
Y472741D1*
X1464234Y471691D1*
Y461192D1*
X1463184Y460142D1*
X1462134Y456993D1*
X1461789Y455719D1*
X1461084Y454893D1*
X1458985Y453843D1*
X1449886Y452793D1*
X1440787D1*
X1431688Y453843D1*
X1429588Y454893D1*
X1426439Y458043D1*
Y477990D1*
X1422239D1*
G37*
G36*
X1487331D2*
X1485231Y475891D1*
X1483132Y472741D1*
Y461192D1*
X1484181Y455943D1*
X1486281Y451744D1*
X1490481Y447544D1*
X1492580Y446494D1*
X1495730Y445444D1*
X1525126D1*
X1528276Y446494D1*
X1530376Y447544D1*
X1533525Y450694D1*
X1535625Y454893D1*
X1536675Y459093D1*
Y473791D1*
X1535625Y476940D1*
X1533525Y481140D1*
X1531425Y483240D1*
X1527226Y485339D1*
X1521977Y486389D1*
X1492580Y487439D1*
X1491530Y488489D1*
Y491639D1*
X1493630Y493738D1*
X1520927Y494788D1*
X1524076Y495838D1*
X1527226Y497938D1*
X1529326Y500038D1*
X1532475Y506337D1*
X1533525Y509486D1*
Y524184D1*
X1532475Y527334D1*
X1530376Y529434D1*
Y530484D1*
X1535625Y531534D1*
X1539824Y532583D1*
Y538883D1*
X1500979D1*
X1496780Y537833D1*
X1493630Y536783D1*
X1490481Y534683D1*
X1488381Y532583D1*
X1486281Y529434D1*
X1497830D1*
X1505529Y530484D1*
X1513228D1*
X1520927Y529434D1*
X1523027Y528384D1*
X1523872Y527028D1*
X1524076Y526284D1*
X1525126Y523135D1*
X1526176Y522085D1*
Y510536D1*
X1525126Y509486D1*
X1524076Y507387D1*
X1523731Y506113D1*
X1523027Y505287D1*
X1518827Y503187D1*
X1512178Y502137D1*
X1505529D1*
X1498880Y503187D1*
X1494680Y505287D1*
Y506337D1*
X1493630Y508436D1*
X1492580Y511586D1*
X1491530Y512636D1*
Y521035D1*
X1492580Y522085D1*
X1493630Y525234D1*
Y526284D1*
X1495730Y528384D1*
X1497830Y529434D1*
X1486281D1*
X1485231Y527334D1*
X1484181Y523135D1*
Y510536D1*
X1485231Y506337D1*
X1486281Y504237D1*
X1490481Y500038D1*
X1488381Y498988D1*
X1485231Y495838D1*
X1484181Y493738D1*
Y485339D1*
X1487331Y479040D1*
Y477990D1*
X1491530D1*
X1492654Y478617D1*
X1493566Y478550D1*
X1494680Y477990D1*
X1526176Y476940D1*
X1528276Y474841D1*
Y472741D1*
X1529326Y471691D1*
Y461192D1*
X1528276Y460142D1*
X1527226Y456993D1*
X1526881Y455719D1*
X1526176Y454893D1*
X1524076Y453843D1*
X1514978Y452793D1*
X1505879D1*
X1496780Y453843D1*
X1494680Y454893D1*
X1491530Y458043D1*
Y477990D1*
X1487331D1*
G37*
G36*
X1355048Y537833D2*
Y490589D1*
X1356097Y487439D1*
X1358197Y483240D1*
X1362397Y479040D1*
X1366596Y476940D1*
X1369746Y475891D1*
X1379195D1*
X1385494Y477990D1*
X1393893Y482190D1*
X1394943Y483240D1*
X1395727Y483914D1*
X1396271Y483852D1*
X1396992Y483135D1*
X1397555Y482169D1*
X1398092Y481140D1*
X1399142Y477990D1*
X1400192Y476940D1*
X1404391D1*
Y537833D1*
X1397042D1*
Y490589D1*
X1390743Y487439D1*
X1384444Y485339D1*
X1379195Y484289D1*
X1376395Y483240D1*
X1373595D1*
X1370796Y484289D1*
X1364496Y487439D1*
Y488489D1*
X1363446Y491639D1*
X1362397Y537833D1*
X1355048D1*
G37*
G36*
X1525126Y5388226D2*
X1518827Y5387177D1*
X1515677Y5386127D1*
X1513578Y5385077D1*
X1508328Y5379828D1*
X1507279Y5377728D1*
X1506229Y5374578D1*
Y5352531D1*
X1507279Y5349381D1*
X1509378Y5345182D1*
X1510428Y5344132D1*
X1513578Y5342032D1*
X1516727Y5340982D1*
X1520927Y5339933D1*
X1547174Y5338883D1*
X1549273Y5337833D1*
X1551373Y5335733D1*
Y5334683D1*
X1552423Y5333633D1*
Y5315786D1*
X1551373Y5314736D1*
X1551028Y5313462D1*
X1550323Y5312636D1*
X1546124Y5310536D1*
X1540874Y5309486D1*
X1536325Y5308436D1*
X1531775D1*
X1527226Y5309486D1*
X1508328Y5310536D1*
Y5304237D1*
X1511478Y5303187D1*
X1519877Y5302137D1*
X1530376Y5301087D1*
X1542974D1*
X1548223Y5302137D1*
X1551373Y5303187D1*
X1553473Y5304237D1*
X1557672Y5308436D1*
X1559772Y5312636D1*
X1560822Y5317885D1*
Y5330484D1*
X1559772Y5336783D1*
X1557672Y5340982D1*
X1553473Y5345182D1*
X1549273Y5347282D1*
X1521977Y5348331D1*
X1517777Y5349381D1*
X1515677Y5350431D1*
X1514628Y5351481D1*
Y5353581D1*
X1513578Y5354631D1*
Y5372478D1*
X1514628Y5373528D1*
Y5375628D1*
X1516727Y5377728D1*
X1518827Y5378778D1*
X1530026Y5379828D1*
X1541224D1*
X1552423Y5378778D1*
X1557672D1*
Y5385077D1*
X1552423Y5386127D1*
X1544024Y5387177D1*
X1532475Y5388226D1*
X1525126D1*
G37*
G36*
X1230113Y5373528D2*
X1229063Y5372478D1*
X1228013Y5369329D1*
X1226964Y5367229D1*
X1224864Y5360930D1*
X1223814Y5358830D1*
X1220664Y5349381D1*
X1219614Y5347282D1*
X1216465Y5337833D1*
X1215415Y5335733D1*
X1213315Y5329434D1*
X1212265Y5327334D1*
X1209116Y5317885D1*
X1208066Y5315786D1*
X1205966Y5309486D1*
X1204916Y5307387D1*
X1203866Y5304237D1*
Y5302137D1*
X1213315D1*
X1217515Y5314736D1*
X1218565Y5318935D1*
X1219614Y5322085D1*
Y5324184D1*
X1220664Y5325234D1*
X1232563Y5326284D1*
X1244461D1*
X1256360Y5325234D1*
Y5323135D1*
X1259509Y5313686D1*
X1260559Y5309486D1*
X1262659Y5303187D1*
X1263709Y5302137D1*
X1272108D1*
Y5304237D1*
X1270008Y5310536D1*
X1268958Y5312636D1*
X1263709Y5328384D1*
X1262659Y5330484D1*
X1256360Y5349381D1*
X1255310Y5351481D1*
X1250061Y5367229D1*
X1249011Y5369329D1*
X1243761Y5385077D1*
X1242712Y5387177D1*
X1234313D1*
X1232213Y5380877D1*
X1231163Y5378778D1*
X1230113Y5375628D1*
Y5373528D1*
X1237462D1*
X1238246Y5374203D1*
X1238777Y5374115D1*
X1239375Y5373246D1*
X1239562Y5372478D1*
X1245861Y5353581D1*
X1246911Y5351481D1*
X1252160Y5335733D1*
X1253210Y5334683D1*
X1243411Y5333633D1*
X1233613D1*
X1223814Y5334683D1*
X1224018Y5335427D1*
X1224864Y5336783D1*
X1225914Y5339933D1*
X1226964Y5342032D1*
X1232213Y5357780D1*
X1233263Y5359880D1*
X1237462Y5372478D1*
Y5373528D1*
X1230113D1*
G37*
G36*
X1315153Y5387177D2*
Y5313686D1*
X1316202Y5309486D1*
X1317252Y5307387D1*
X1320402Y5304237D1*
X1322502Y5303187D1*
X1325651Y5302137D1*
X1366596D1*
Y5309486D1*
X1326701Y5310536D1*
X1324601Y5311586D1*
X1323551Y5312636D1*
Y5387177D1*
X1315153D1*
G37*
G36*
X1407541Y5378778D2*
Y5302137D1*
X1414890D1*
Y5337833D1*
X1419090Y5338883D1*
X1423289D1*
X1427488Y5337833D1*
X1440087Y5336783D1*
X1445336D1*
X1450586Y5337833D1*
X1454785Y5339933D1*
X1458985Y5344132D1*
X1460034Y5346232D1*
X1461084Y5349381D1*
X1462134Y5353581D1*
Y5371429D1*
X1460034Y5377728D1*
X1458985Y5379828D1*
X1454785Y5384027D1*
X1450586Y5386127D1*
X1447436Y5387177D1*
X1407541D1*
Y5378778D1*
X1414890D1*
X1425039Y5379828D1*
X1435188D1*
X1445336Y5378778D1*
X1448486Y5377728D1*
X1450586Y5376678D1*
X1452685Y5374578D1*
Y5373528D1*
X1453735Y5369329D1*
X1454785Y5368279D1*
Y5355681D1*
X1453735Y5354631D1*
X1452685Y5350431D1*
Y5349381D1*
X1450586Y5347282D1*
X1448486Y5346232D1*
X1437287Y5345182D1*
X1426089D1*
X1414890Y5346232D1*
Y5378778D1*
X1407541D1*
G37*
G36*
X1609116Y560930D2*
Y477990D1*
X1637462D1*
Y532583D1*
X1609116Y560930D1*
G37*
G36*
X1677357D2*
Y506337D1*
X1674908Y505287D1*
X1672458D1*
X1670008Y506337D1*
X1643761Y532583D1*
Y505287D1*
X1671058Y477990D1*
X1705704D1*
Y532583D1*
X1677357Y560930D1*
G37*
M02*
